<svg width="340" height="258" viewBox="-10 0 370 158" fill="none" xmlns="http://www.w3.org/2000/svg">
<g id="businesses 1">
<g id="Page 1">
<g id="Artboard">
<g id="business">
<g id="delivery_boy">
<path id="Shape" d="M277.1 157.1C274.6 157.1 271.7 155.9 268.7 153.7C264.4 150.5 260.4 145.3 257.5 139.3C251.3 126.7 251.4 113.9 257.8 110.8C264.2 107.7 274.4 115.3 280.6 127.9C286.8 140.5 286.7 153.3 280.3 156.4C279.3 156.8 278.2 157.1 277.1 157.1ZM260.9 110.7C259.9 110.7 258.9 110.9 258 111.3C252 114.3 252 126.6 258.1 138.8C261 144.8 265 149.8 269.1 153C273.2 156.1 277 157.1 279.9 155.6C285.9 152.6 285.9 140.3 279.8 128.1C274.7 117.7 266.8 110.7 260.9 110.7Z" fill="#171717"/>
<path id="Shape_2" d="M331.1 157C328.6 157 325.7 155.8 322.7 153.6C318.4 150.4 314.4 145.2 311.5 139.2C305.3 126.6 305.4 113.8 311.8 110.7C318.2 107.6 328.4 115.2 334.6 127.8C340.8 140.4 340.7 153.2 334.3 156.3C333.3 156.8 332.2 157 331.1 157ZM314.9 110.7C313.9 110.7 312.9 110.9 312 111.3C306 114.3 306 126.6 312.1 138.8C315 144.8 319 149.8 323.1 153C327.2 156.1 331 157.1 333.9 155.6C339.9 152.6 339.9 140.3 333.8 128.1C328.7 117.7 320.8 110.7 314.9 110.7Z" fill="#171717"/>
<g id="Group">
<path id="Oval" d="M271.2 65.7C274.735 65.7 277.6 62.8346 277.6 59.3C277.6 55.7654 274.735 52.9 271.2 52.9C267.665 52.9 264.8 55.7654 264.8 59.3C264.8 62.8346 267.665 65.7 271.2 65.7Z" fill="white"/>
<path id="Shape_3" d="M271.2 66.1C267.5 66.1 264.4 63.1 264.4 59.3C264.4 55.5 267.4 52.5 271.2 52.5C274.9 52.5 278 55.5 278 59.3C278 63.1 274.9 66.1 271.2 66.1ZM271.2 53.3C267.9 53.3 265.2 56 265.2 59.3C265.2 62.6 267.9 65.3 271.2 65.3C274.5 65.3 277.2 62.6 277.2 59.3C277.2 56 274.5 53.3 271.2 53.3Z" fill="#171717"/>
</g>
<path id="Path" d="M269 134.1C268.9 134.1 268.7 134 268.7 133.9L252.3 93.4C252.2 93.2 252.3 93 252.5 92.9C252.7 92.8 252.9 92.9 253 93.1L269.4 133.6C269.5 133.8 269.4 134 269.2 134.1C269.1 134.1 269 134.1 269 134.1Z" fill="#171717"/>
<path id="Path_2" d="M324.6 133.4C324.5 133.4 324.4 133.4 324.3 133.3L296 102C295.9 101.8 295.9 101.6 296 101.5C296.2 101.4 296.4 101.4 296.5 101.5L324.8 132.8C324.9 133 324.9 133.2 324.8 133.3C324.8 133.3 324.7 133.4 324.6 133.4Z" fill="#171717"/>
<path id="Path_3" d="M269.3 60.5C269.2 60.5 269 60.4 269 60.3C268.9 60.1 269 59.9 269.1 59.8L273.9 56.9C274.1 56.8 274.3 56.8 274.4 57C274.5 57.2 274.4 57.4 274.3 57.5L269.5 60.4C269.4 60.5 269.4 60.5 269.3 60.5Z" fill="#171717"/>
<path id="Path_4" d="M271 63.8C270.9 63.8 270.8 63.7 270.7 63.7C270.6 63.5 270.6 63.3 270.8 63.2L276.8 58.6C277 58.5 277.2 58.5 277.3 58.7C277.4 58.9 277.4 59.1 277.2 59.2L271.2 63.8C271.2 63.7 271.1 63.8 271 63.8Z" fill="#171717"/>
<path id="Path_5" d="M271.1 64L267.7 65.6C266.2 64.7 265.1 63.4 264.5 61.8L269.1 59.7L271.1 64Z" fill="#79C9A9"/>
<g id="Group_2">
<path id="Path_6" d="M289.7 118.5C290.5 119.8 291.3 121.3 292 122.6L282.7 128.6C282.3 127.5 282.4 126.3 282.8 125.2C283.6 123.5 285.3 123.3 285.8 121.7C285.9 121.3 285.9 120.8 285.9 120.4" fill="#79C9A9"/>
<path id="Path_7" d="M282.7 129H282.6C282.5 129 282.4 128.9 282.4 128.8C282 127.7 282 126.4 282.5 125.1C282.9 124.2 283.6 123.6 284.2 123.2C284.8 122.7 285.3 122.3 285.5 121.6C285.6 121.3 285.6 120.8 285.6 120.4C285.6 120.2 285.8 120 286 120C286.2 120 286.4 120.2 286.4 120.4C286.4 120.8 286.4 121.3 286.3 121.8C286 122.8 285.4 123.3 284.7 123.8C284.1 124.2 283.6 124.7 283.2 125.4C283 126.1 282.7 127 283 128.1L291.6 122.6C290.9 121.4 290.2 120 289.5 118.8C289.4 118.6 289.4 118.4 289.6 118.3C289.8 118.2 290 118.2 290.1 118.4C290.8 119.6 291.6 121 292.3 122.2L292.4 122.5C292.5 122.7 292.4 122.9 292.3 123L283 129C282.8 129 282.8 129 282.7 129Z" fill="#171717"/>
</g>
<path id="Shape_4" d="M288.2 127.6C288.1 127.6 288.1 127.6 288 127.6C287.7 127.5 287.3 127.4 287.1 127.1C286.9 126.8 286.8 126.5 286.9 126.1C287 125.7 287.2 125.4 287.5 125.2L291.4 122.5C292 122.1 292.8 122.2 293.2 122.8C293.4 123.1 293.5 123.4 293.4 123.8C293.3 124.2 293.1 124.5 292.8 124.7L288.9 127.4C288.7 127.6 288.4 127.6 288.2 127.6ZM292.1 123.1C292 123.1 291.9 123.1 291.8 123.2L287.9 125.9C287.8 126 287.7 126.1 287.6 126.3C287.6 126.4 287.6 126.6 287.7 126.7C287.8 126.8 287.9 126.9 288.1 126.9C288.2 126.9 288.4 126.9 288.5 126.8L292.4 124.1C292.6 124 292.7 123.9 292.7 123.7C292.7 123.6 292.7 123.4 292.6 123.3C292.5 123.2 292.3 123.1 292.1 123.1Z" fill="#171717"/>
<g id="Group_3">
<path id="Path_8" d="M279.5 89L271.4 90.1C269.3 90.4 267.9 92.3 268.1 94.3C268.2 94.9 268.4 95.4 268.7 95.9L284.4 120.9L290.8 117.5L280.2 98.2L286.7 97.9" fill="#DBC6A8"/>
<path id="Path_9" d="M284.4 121.3C284.3 121.3 284.2 121.2 284.1 121.1L268.4 96.1C268.1 95.5 267.9 95 267.7 94.4C267.5 92.1 269.1 90.1 271.3 89.8L279.4 88.7C279.6 88.7 279.8 88.8 279.8 89C279.8 89.2 279.7 89.4 279.5 89.4L271.4 90.5C269.5 90.8 268.2 92.4 268.4 94.3C268.5 94.8 268.7 95.3 268.9 95.7L284.4 120.4L290.2 117.3L279.8 98.3C279.7 98.2 279.7 98 279.8 97.9C279.9 97.8 280 97.7 280.1 97.7L286.6 97.4C286.8 97.4 287 97.6 287 97.8C287 98 286.8 98.2 286.6 98.2L280.7 98.5L291 117.3C291 117.4 291.1 117.5 291 117.6C291 117.7 290.9 117.8 290.8 117.8L284.4 121.2C284.5 121.3 284.5 121.3 284.4 121.3Z" fill="#171717"/>
</g>
<path id="Path_10" d="M288.7 102.1H256.2C256 102.1 255.8 101.9 255.8 101.7C255.8 101.5 256 101.3 256.2 101.3H288.7C288.9 101.3 289.1 101.5 289.1 101.7C289.1 101.9 288.9 102.1 288.7 102.1Z" fill="#171717"/>
<path id="Shape_5" d="M296.6 137C294.1 137 292.1 135 292.1 132.5C292.1 130 294.1 128 296.6 128C299.1 128 301.1 130 301.1 132.5C301.1 135 299.1 137 296.6 137ZM296.6 128.8C294.5 128.8 292.9 130.5 292.9 132.5C292.9 134.5 294.6 136.2 296.6 136.2C298.7 136.2 300.3 134.5 300.3 132.5C300.3 130.5 298.7 128.8 296.6 128.8Z" fill="#171717"/>
<path id="Shape_6" d="M296.6 134.8C295.3 134.8 294.3 133.8 294.3 132.5C294.3 131.2 295.3 130.2 296.6 130.2C297.9 130.2 298.9 131.2 298.9 132.5C298.9 133.8 297.9 134.8 296.6 134.8ZM296.6 131C295.8 131 295.1 131.7 295.1 132.5C295.1 133.3 295.8 134 296.6 134C297.4 134 298.1 133.3 298.1 132.5C298.1 131.7 297.4 131 296.6 131Z" fill="#171717"/>
<path id="Path_11" d="M324.6 133.4H298.3C298.1 133.4 297.9 133.2 297.9 133C297.9 132.8 298.1 132.6 298.3 132.6H324.6C324.8 132.6 325 132.8 325 133C325 133.2 324.8 133.4 324.6 133.4Z" fill="#171717"/>
<g id="Group_4">
<path id="Path_12" d="M298.3 88.8C297.7 95.3 295.8 107.5 295 111.1L308 133L301.2 137.3L287.8 116.2C286.7 114.5 286.2 112.5 286.3 110.4L286 95.4" fill="#EAE0D3"/>
<path id="Path_13" d="M301.2 137.7C301.1 137.7 301 137.6 300.9 137.5L287.5 116.4C286.4 114.7 285.8 112.6 285.9 110.4L285.6 95.4C285.6 95.2 285.8 95 286 95C286.2 95 286.4 95.2 286.4 95.4L286.7 110.4C286.6 112.5 287.1 114.4 288.1 116L301.3 136.8L307.5 132.9L294.7 111.3C294.7 111.2 294.6 111.1 294.7 111C295.5 107.4 297.4 95.3 298 88.7C298 88.5 298.2 88.3 298.4 88.4C298.6 88.4 298.8 88.6 298.7 88.8C298.1 95.3 296.2 107.2 295.4 111L308.3 132.8C308.4 133 308.3 133.2 308.2 133.3L301.4 137.6C301.3 137.7 301.3 137.7 301.2 137.7Z" fill="#171717"/>
</g>
<g id="Group_5">
<path id="Path_14" d="M281.2 61.1L300 49.1L318.2 75.9L298.8 88.8" fill="#FF8766"/>
<path id="Path_15" d="M298.8 89.2C298.7 89.2 298.6 89.1 298.5 89C298.4 88.8 298.4 88.6 298.6 88.5L317.7 75.8L299.9 49.6L281.4 61.4C281.2 61.5 281 61.5 280.9 61.3C280.8 61.1 280.8 60.9 281 60.8L299.8 48.8C300 48.7 300.2 48.7 300.3 48.9L318.5 75.7C318.6 75.8 318.6 75.9 318.6 76C318.6 76.1 318.5 76.2 318.4 76.2L299 89.1C298.9 89.2 298.9 89.2 298.8 89.2Z" fill="#171717"/>
</g>
<path id="Path_16" d="M285.1 65.8C285 65.8 284.9 65.7 284.8 65.6C284.7 65.4 284.7 65.2 284.9 65.1L302.9 53.3C303.1 53.2 303.3 53.2 303.4 53.4C303.5 53.6 303.5 53.8 303.3 53.9L285.3 65.7C285.2 65.8 285.2 65.8 285.1 65.8Z" fill="#171717"/>
<path id="Path_17" d="M314.8 78.6C314.7 78.6 314.6 78.5 314.5 78.4L296.7 51.2C296.6 51 296.6 50.8 296.8 50.7C297 50.6 297.2 50.6 297.3 50.8L315.1 78C315.2 78.2 315.2 78.4 315 78.5C314.9 78.6 314.9 78.6 314.8 78.6Z" fill="#171717"/>
<g id="Group_6">
<path id="Path_18" d="M279.2 74.6L256.8 94.8L252.7 90.7C264.2 80.6 275.5 63.6 277.3 63C284.1 60.7 292.7 73.5 295.4 78C296.9 80.5 300.5 85.8 298.3 88.7C297 90.4 293.8 91.5 292 92.5C290.5 93.3 289 94 287.5 94.7C286.2 95.3 284.5 96.4 283.2 95.7C282.4 95.3 281.8 94.6 281.4 93.8C280.4 92.2 279.8 90.3 279.6 88.4C279.4 86.3 279.6 83.9 278.2 82.4C277.6 81.7 276.7 81.3 276.1 80.5C275.7 79.9 275.2 79.2 274.9 78.5" fill="#DBC6A8"/>
<path id="Shape_7" d="M284.1 96.3C283.7 96.3 283.3 96.2 283 96C282.2 95.6 281.5 94.9 281 93.9C280 92.3 279.4 90.4 279.2 88.4C279.2 88 279.1 87.5 279.1 87.1C279 85.4 278.9 83.7 277.9 82.6C277.6 82.3 277.3 82.1 277 81.8C276.6 81.5 276.1 81.1 275.8 80.7L275.6 80.4C275.3 80 275 79.5 274.8 79.1L257.1 95.1C257 95.2 256.7 95.2 256.6 95.1L252.5 91C252.4 90.9 252.4 90.8 252.4 90.7C252.4 90.6 252.4 90.5 252.5 90.4C259.6 84.2 266.7 75.2 271.4 69.3C274.9 64.9 276.5 62.9 277.2 62.6C284.7 60.1 294 74.8 295.7 77.8L296.1 78.5C297.8 81.3 300.7 86.1 298.6 89C297.6 90.3 295.6 91.2 293.9 92.1C293.3 92.4 292.7 92.7 292.2 92.9C290.7 93.7 289.2 94.4 287.7 95.1C287.5 95.2 287.3 95.3 287.1 95.4C286.1 95.8 285.1 96.3 284.1 96.3ZM275.3 78.6C275.5 79.1 275.9 79.6 276.2 80L276.4 80.3C276.7 80.7 277.1 81 277.5 81.3C277.8 81.6 278.2 81.8 278.5 82.2C279.7 83.5 279.8 85.3 279.9 87.1C279.9 87.5 279.9 88 280 88.4C280.2 90.3 280.8 92.1 281.7 93.6C282 94.2 282.5 94.9 283.3 95.4C284.2 95.9 285.5 95.3 286.6 94.7C286.8 94.6 287 94.5 287.3 94.4C288.8 93.7 290.3 93 291.8 92.2C292.3 91.9 292.9 91.6 293.5 91.3C295.2 90.5 297.1 89.6 297.9 88.5C299.8 86 296.9 81.4 295.4 78.9L295 78.2C293.3 75.3 284.3 61 277.3 63.4C276.7 63.6 274.3 66.6 271.8 69.8C267.2 75.7 260.2 84.5 253.1 90.8L256.7 94.4L278.8 74.4C279 74.3 279.2 74.3 279.3 74.4C279.4 74.6 279.4 74.8 279.3 74.9L275.3 78.6Z" fill="#171717"/>
</g>
<path id="Path_19" d="M295.1 131.8C295 131.8 294.9 131.8 294.9 131.7L258.2 102C258 101.9 258 101.6 258.1 101.5C258.2 101.3 258.5 101.3 258.6 101.4L295.3 131.1C295.5 131.2 295.5 131.5 295.4 131.6C295.3 131.7 295.2 131.8 295.1 131.8Z" fill="#171717"/>
<g id="Group_7">
<path id="Path_20" d="M248.9 88.9C248.6 89.1 248.3 89.3 248.1 89.6C246.9 91.2 247.2 93.5 248.8 94.8C249.9 95.6 251.3 95.8 252.5 95.2C252.7 94.5 251.7 94.1 251.5 93.4C251.2 92 253.9 91.4 253.1 90C252.7 89.1 249.6 88.6 248.9 88.9Z" fill="white"/>
<path id="Shape_8" d="M251 95.9C250.2 95.9 249.3 95.6 248.6 95.1C246.8 93.7 246.5 91.1 247.8 89.4C248 89.1 248.4 88.8 248.7 88.6C248.7 88.6 248.7 88.6 248.8 88.6C249.7 88.2 253 88.8 253.5 89.9C254.1 90.9 253.3 91.6 252.7 92.1C252.2 92.6 251.8 92.9 251.9 93.4C252 93.6 252.1 93.8 252.3 94C252.6 94.3 253 94.8 252.9 95.4C252.9 95.5 252.8 95.6 252.7 95.6C252.2 95.8 251.6 95.9 251 95.9ZM249.1 89.2C248.8 89.4 248.6 89.5 248.4 89.8C247.3 91.3 247.6 93.3 249 94.5C250 95.2 251.1 95.4 252.1 94.9C252.1 94.8 251.9 94.6 251.7 94.4C251.5 94.1 251.2 93.9 251.1 93.5C250.9 92.6 251.6 92 252.1 91.5C252.8 90.9 253 90.6 252.7 90.2C252.5 89.5 249.7 89 249.1 89.2Z" fill="#171717"/>
</g>
<g id="Group_8">
<path id="Oval_2" d="M252.7 94C253.584 94 254.3 93.2836 254.3 92.4C254.3 91.5163 253.584 90.8 252.7 90.8C251.816 90.8 251.1 91.5163 251.1 92.4C251.1 93.2836 251.816 94 252.7 94Z" fill="#EAE0D3"/>
<path id="Shape_9" d="M252.7 94.4C251.6 94.4 250.7 93.5 250.7 92.4C250.7 91.3 251.6 90.4 252.7 90.4C253.8 90.4 254.7 91.3 254.7 92.4C254.7 93.5 253.8 94.4 252.7 94.4ZM252.7 91.2C252 91.2 251.5 91.7 251.5 92.4C251.5 93.1 252 93.6 252.7 93.6C253.4 93.6 253.9 93.1 253.9 92.4C253.9 91.7 253.4 91.2 252.7 91.2Z" fill="#171717"/>
</g>
<path id="Oval_3" d="M266.7 59.6C266.976 59.6 267.2 59.1523 267.2 58.6C267.2 58.0477 266.976 57.6 266.7 57.6C266.424 57.6 266.2 58.0477 266.2 58.6C266.2 59.1523 266.424 59.6 266.7 59.6Z" fill="#171717"/>
<g id="Group_9">
<path id="Path_21" d="M269.6 51C273 49.5 277 51 278.6 54.5C279.2 55.9 279.3 57.5 279 58.9" fill="#FF673D"/>
<path id="Path_22" d="M279 59.3C279 59.3 278.9 59.3 279 59.3C278.7 59.2 278.6 59 278.6 58.8C278.9 57.4 278.8 55.9 278.2 54.6C276.7 51.3 273 49.9 269.7 51.3C269.5 51.4 269.3 51.3 269.2 51.1C269.1 50.9 269.2 50.7 269.4 50.6C273 49 277.2 50.6 278.9 54.3C279.5 55.7 279.7 57.4 279.3 58.9C279.3 59.2 279.2 59.3 279 59.3Z" fill="#171717"/>
</g>
<g id="Group_10">
<path id="Path_23" d="M269.6 50.3L279.3 57.5C279.7 57.8 279.8 58.5 279.5 58.9L278.5 60.3C278.2 60.7 277.5 60.8 277.1 60.5L267.4 53.3C267 53 266.9 52.3 267.2 51.9L268.2 50.5C268.6 50 269.2 49.9 269.6 50.3Z" fill="#FF8766"/>
<path id="Shape_10" d="M277.7 61C277.4 61 277.1 60.9 276.9 60.8L267.2 53.6C266.9 53.4 266.7 53.1 266.7 52.7C266.6 52.3 266.7 52 266.9 51.7L267.9 50.3C268.2 49.9 268.6 49.7 269 49.7C269.3 49.7 269.6 49.8 269.9 50L279.6 57.2C279.9 57.4 280.1 57.7 280.1 58.1C280.2 58.5 280.1 58.8 279.9 59.1L278.9 60.5C278.7 60.8 278.4 61 278 61C277.8 61 277.7 61 277.7 61ZM269 50.4C268.8 50.4 268.6 50.5 268.5 50.7L267.5 52.1C267.4 52.2 267.4 52.4 267.4 52.6C267.4 52.8 267.5 52.9 267.6 53L277.3 60.2C277.4 60.3 277.6 60.3 277.8 60.3C278 60.3 278.1 60.2 278.2 60.1L279.2 58.7C279.3 58.6 279.3 58.4 279.3 58.2C279.3 58 279.2 57.9 279.1 57.8L269.4 50.6C269.2 50.5 269.1 50.4 269 50.4Z" fill="#171717"/>
</g>
<g id="Group_11">
<path id="Path_24" d="M266.9 53.3C266.6 52.7 266.7 52.2 266.2 51.7C266.1 51.6 265.9 51.4 265.7 51.5C265.5 51.6 265.6 52 265.4 52.1C265.2 52.2 265.1 52 265 51.9C264.9 51.8 264.9 51.6 264.8 51.5C263.9 50.7 264.2 53.3 264.3 53.6C264.5 54.7 265.1 55.6 266.1 56.2C267.8 57 269.8 56.9 271.4 56C270.1 54.8 268.8 53.7 267.3 52.7" fill="#C98877"/>
<path id="Shape_11" d="M268.5 57.1C267.6 57.1 266.7 56.9 265.9 56.5C264.8 55.8 264.1 54.9 263.9 53.6C263.9 53.6 263.5 51.5 264.2 51C264.3 50.9 264.7 50.8 265.1 51.2C265.2 51.3 265.3 51.4 265.3 51.5C265.3 51.4 265.4 51.2 265.6 51.1C266 50.9 266.4 51.2 266.5 51.4C266.8 51.7 267 52.1 267 52.4C267.1 52.3 267.3 52.2 267.5 52.3C268.8 53.2 270.1 54.2 271.6 55.6C271.7 55.7 271.7 55.8 271.7 55.9C271.7 56 271.6 56.1 271.5 56.2C270.6 56.9 269.6 57.1 268.5 57.1ZM264.6 51.9C264.5 52.4 264.6 53.3 264.7 53.5C264.9 54.6 265.4 55.4 266.3 55.9C267.7 56.6 269.3 56.6 270.8 55.9C269.5 54.7 268.4 53.9 267.3 53.1C267.4 53.3 267.3 53.5 267.1 53.6C266.9 53.7 266.7 53.6 266.6 53.4C266.5 53.1 266.4 52.9 266.3 52.7C266.2 52.4 266.2 52.2 265.9 51.9C265.9 52.1 265.8 52.3 265.6 52.4C265.3 52.5 265 52.5 264.8 52.2C264.7 52.1 264.6 52 264.6 51.9Z" fill="#171717"/>
</g>
<path id="Path_25" d="M283.1 64.5C283 64.5 282.9 64.4 282.8 64.3L280.9 61.3C280.8 61.1 280.8 60.9 281 60.8C281.2 60.7 281.4 60.7 281.5 60.9L283.4 63.9C283.5 64.1 283.5 64.3 283.3 64.4C283.2 64.5 283.2 64.5 283.1 64.5Z" fill="#171717"/>
<path id="Path_26" d="M272.8 68.6C272.7 68.6 272.6 68.6 272.6 68.5C272.4 68.4 272.4 68.1 272.5 68C275.2 64.7 279.4 63.1 283.6 64C283.8 64 283.9 64.2 283.9 64.4C283.9 64.6 283.7 64.7 283.5 64.7C279.6 63.9 275.7 65.4 273.2 68.5C273 68.5 272.9 68.6 272.8 68.6Z" fill="#171717"/>
<path id="Path_27" d="M251.9 89.2C251.8 89.2 251.7 89.2 251.6 89.1C251.4 89 251.4 88.7 251.6 88.6L273.1 65.2C273.2 65 273.5 65 273.6 65.2C273.8 65.3 273.8 65.6 273.6 65.7L252.1 89.1C252.1 89.1 252 89.2 251.9 89.2Z" fill="#171717"/>
<path id="Path_28" d="M281.2 98.6H277.6C277.4 98.6 277.2 98.4 277.2 98.2C277.2 98 277.4 97.8 277.6 97.8H281.2C281.4 97.8 281.6 98 281.6 98.2C281.6 98.4 281.4 98.6 281.2 98.6Z" fill="#171717"/>
<g id="Group_12">
<path id="Path_29" d="M306.4 134.3C307.2 135.6 308 137.1 308.7 138.4L299.4 144.4C299 143.3 299.1 142.1 299.5 141C300.3 139.3 302 139.1 302.5 137.4C302.6 137.1 302.7 136.8 302.6 136.5" fill="#79C9A9"/>
<path id="Path_30" d="M299.4 144.8H299.3C299.2 144.8 299.1 144.7 299.1 144.6C298.7 143.5 298.7 142.2 299.2 140.9C299.6 140 300.3 139.5 300.8 139C301.4 138.5 301.9 138.1 302.2 137.3C302.3 137 302.4 136.8 302.3 136.6C302.2 136.4 302.3 136.2 302.5 136.1C302.7 136 302.9 136.1 303 136.3C303.1 136.7 303 137.1 302.9 137.4C302.6 138.4 301.9 138.9 301.3 139.5C300.7 139.9 300.2 140.4 299.9 141.1C299.7 141.8 299.4 142.7 299.7 143.8L308.3 138.3C307.6 137.1 306.9 135.7 306.2 134.5C306.1 134.3 306.1 134.1 306.3 134C306.5 133.9 306.7 133.9 306.8 134.1C307.6 135.3 308.3 136.7 309 138L309.1 138.3C309.2 138.5 309.1 138.7 309 138.8L299.7 144.8C299.5 144.8 299.5 144.8 299.4 144.8Z" fill="#171717"/>
</g>
<path id="Shape_12" d="M303.3 144.6C303.2 144.6 303.2 144.6 303.1 144.6C302.8 144.6 302.4 144.4 302.2 144.1C301.9 143.5 302.1 142.7 302.6 142.3L306.5 139.6C306.8 139.4 307.1 139.3 307.4 139.4C307.7 139.4 308.1 139.6 308.3 139.9C308.5 140.2 308.6 140.5 308.5 140.9C308.4 141.3 308.2 141.6 307.9 141.8L304 144.5C303.8 144.6 303.5 144.6 303.3 144.6ZM303 142.9C302.8 143.1 302.7 143.5 302.8 143.7C302.9 143.8 303 143.8 303.1 143.9C303.2 143.9 303.4 143.9 303.5 143.8L307.4 141.1C307.6 141 307.7 140.9 307.7 140.7C307.7 140.6 307.7 140.4 307.6 140.3C307.5 140.2 307.4 140.1 307.2 140.1C307.1 140.1 306.9 140.1 306.8 140.2L303 142.9Z" fill="#171717"/>
<path id="Path_31" d="M294.4 114.7C294.1 114.7 294 114.5 294 114.3L294.9 109.4C294.9 109.2 295.1 109.1 295.3 109.1C295.5 109.1 295.6 109.3 295.6 109.5L294.7 114.4C294.7 114.5 294.6 114.7 294.4 114.7Z" fill="#171717"/>
<path id="Path_32" d="M279.4 86.1C279.2 86.1 279.1 86 279 85.8C278.7 84.3 279 82.7 279.4 81.3C279.7 80.1 279.9 78.9 279.8 77.7C279.8 77.5 279.9 77.3 280.1 77.3C280.3 77.3 280.5 77.4 280.5 77.6C280.6 78.9 280.3 80.2 280.1 81.4C279.8 82.9 279.5 84.2 279.7 85.6C279.8 85.8 279.7 86 279.4 86.1Z" fill="#171717"/>
</g>
<g id="sun">
<path id="Path_33" d="M210.3 16.5C210.2 16.5 210 16.4 210 16.3L203.9 1.4C203.8 1.2 203.9 1 204.1 0.900002C204.3 0.800002 204.5 0.900002 204.6 1.1L210.7 16C210.8 16.2 210.7 16.4 210.5 16.5C210.4 16.5 210.3 16.5 210.3 16.5Z" fill="#171717"/>
<path id="Path_34" d="M237.6 24.3C237.5 24.3 237.3 24.2 237.3 24.1C237.2 23.9 237.3 23.7 237.4 23.6L251.7 15.1C251.9 15 252.1 15.1 252.2 15.2C252.3 15.4 252.2 15.6 252.1 15.7L237.8 24.2C237.7 24.3 237.7 24.3 237.6 24.3Z" fill="#171717"/>
<path id="Path_35" d="M225.1 17.1H225C224.8 17 224.7 16.8 224.7 16.6L229.1 1.3C229.2 1.1 229.4 1 229.6 1C229.8 1.1 229.9 1.3 229.9 1.5L225.5 16.8C225.4 17 225.3 17.1 225.1 17.1Z" fill="#171717"/>
<g id="Group_13">
<path id="Oval_4" d="M219.3 46.9C225.651 46.9 230.8 41.7513 230.8 35.4C230.8 29.0487 225.651 23.9 219.3 23.9C212.949 23.9 207.8 29.0487 207.8 35.4C207.8 41.7513 212.949 46.9 219.3 46.9Z" fill="#FF673D"/>
<path id="Shape_13" d="M219.3 47.3C212.8 47.3 207.4 42 207.4 35.4C207.4 28.8 212.7 23.5 219.3 23.5C225.9 23.5 231.2 28.8 231.2 35.4C231.2 42 225.8 47.3 219.3 47.3ZM219.3 24.3C213.2 24.3 208.2 29.3 208.2 35.4C208.2 41.5 213.2 46.5 219.3 46.5C225.4 46.5 230.4 41.5 230.4 35.4C230.4 29.3 225.4 24.3 219.3 24.3Z" fill="#171717"/>
</g>
</g>
<g id="house_back">
<path id="Path_36" d="M227.3 124.6C227.1 124.6 226.9 124.4 226.9 124.2V59.9C226.9 59.7 227.1 59.5 227.3 59.5C227.5 59.5 227.7 59.7 227.7 59.9V124.2C227.7 124.4 227.5 124.6 227.3 124.6Z" fill="#171717"/>
<g id="Group_14">
<path id="Path_37" d="M198.8 59.9H227.3L198.5 22.2H159.8" fill="#EAE0D3"/>
<path id="Path_38" d="M227.3 60.3H198.8C198.6 60.3 198.4 60.1 198.4 59.9C198.4 59.7 198.6 59.5 198.8 59.5H226.5L198.3 22.6H159.8C159.6 22.6 159.4 22.4 159.4 22.2C159.4 22 159.6 21.8 159.8 21.8H198.5C198.6 21.8 198.7 21.9 198.8 21.9L227.6 59.6C227.7 59.7 227.7 59.9 227.6 60C227.6 60.2 227.4 60.3 227.3 60.3Z" fill="#171717"/>
</g>
</g>
<g id="store">
<path id="Path_39" d="M176.3 60C176.2 60 176 59.9 176 59.8L146.7 11.1H48.1L77.2 59.4C77.3 59.6 77.2 59.8 77.1 59.9C76.9 60 76.7 59.9 76.6 59.8L47.2 10.9C47.1 10.8 47.1 10.6 47.2 10.5C47.3 10.4 47.4 10.3 47.5 10.3H147C147.1 10.3 147.3 10.4 147.3 10.5L176.7 59.4C176.8 59.6 176.7 59.8 176.6 59.9C176.4 60 176.4 60 176.3 60Z" fill="#171717"/>
<path id="Path_40" d="M33.4 28C33.3 28 33.2 28 33.2 27.9C33 27.8 33 27.5 33.2 27.4L47.2 10.5C47.3 10.3 47.6 10.3 47.7 10.5C47.9 10.6 47.9 10.9 47.7 11L33.7 27.9C33.6 27.9 33.5 28 33.4 28Z" fill="#171717"/>
<g id="Group_15">
<path id="Rectangle" d="M176.4 60.1H76.8V136.9H176.4V60.1Z" fill="#DBC6A8"/>
<path id="Shape_14" d="M176.4 137.3H76.8C76.6 137.3 76.4 137.1 76.4 136.9V60.1C76.4 59.9 76.6 59.7 76.8 59.7H176.4C176.6 59.7 176.8 59.9 176.8 60.1V136.9C176.8 137.1 176.6 137.3 176.4 137.3ZM77.2 136.5H176V60.4H77.1V136.5H77.2Z" fill="#171717"/>
</g>
<path id="Shape_15" d="M159 137.3H124.8C124.6 137.3 124.4 137.1 124.4 136.9V71.9C124.4 71.7 124.6 71.5 124.8 71.5H159C159.2 71.5 159.4 71.7 159.4 71.9V136.9C159.4 137.1 159.2 137.3 159 137.3ZM125.2 136.5H158.7V72.2H125.2V136.5Z" fill="#171717"/>
<g id="Group_16">
<path id="Rectangle_2" d="M119 71.8H84.8V123.8H119V71.8Z" fill="white"/>
<path id="Shape_16" d="M119 124.2H84.8C84.6 124.2 84.4 124 84.4 123.8V71.8C84.4 71.6 84.6 71.4 84.8 71.4H119C119.2 71.4 119.4 71.6 119.4 71.8V123.8C119.4 124 119.2 124.2 119 124.2ZM85.2 123.4H118.7V72.2H85.2V123.4Z" fill="#171717"/>
</g>
<g id="Group_17">
<path id="Rectangle_3" d="M153.4 76H130.2V128H153.4V76Z" fill="white"/>
<path id="Shape_17" d="M153.4 128.4H130.2C130 128.4 129.8 128.2 129.8 128V76C129.8 75.8 130 75.6 130.2 75.6H153.4C153.6 75.6 153.8 75.8 153.8 76V128C153.8 128.2 153.6 128.4 153.4 128.4ZM130.6 127.6H153V76.4H130.6V127.6Z" fill="#171717"/>
</g>
<path id="Path_41" d="M156.2 115.8C156 115.8 155.8 115.6 155.8 115.4V93.7C155.8 93.5 156 93.3 156.2 93.3C156.4 93.3 156.6 93.5 156.6 93.7V115.4C156.6 115.6 156.4 115.8 156.2 115.8Z" fill="#171717"/>
<g id="Group_18">
<path id="Rectangle_4" d="M149.743 98.3952L134.958 101.923L135.863 105.717L150.648 102.189L149.743 98.3952Z" fill="#79C9A9"/>
<path id="Shape_18" d="M135.9 106.1C135.8 106.1 135.8 106.1 135.7 106C135.6 105.9 135.6 105.9 135.5 105.8L134.6 102C134.6 101.9 134.6 101.8 134.6 101.7C134.7 101.6 134.7 101.6 134.8 101.5L149.6 98C149.8 98 150 98.1 150.1 98.3L151 102.1C151 102.2 151 102.3 151 102.4C150.9 102.5 150.9 102.5 150.8 102.6L135.9 106.1ZM135.4 102.2L136.1 105.3L150.2 101.9L149.5 98.8L135.4 102.2Z" fill="#171717"/>
</g>
<path id="Path_42" d="M135 102.3C134.9 102.3 134.9 102.3 134.8 102.2C134.6 102.1 134.6 101.9 134.7 101.7L140.9 92.4C141 92.2 141.2 92.2 141.4 92.3L150 98C150.2 98.1 150.2 98.3 150.1 98.5C150 98.7 149.8 98.7 149.6 98.6L141.3 93.1L135.3 102.1C135.2 102.2 135.1 102.3 135 102.3Z" fill="#171717"/>
<g id="Group_19">
<path id="Path_43" d="M89.2 59.5C89.2 62.9 86.4 65.7 83 65.7C79.6 65.7 76.8 62.9 76.8 59.5" fill="#DBC6A8"/>
<path id="Path_44" d="M83 66.1C79.4 66.1 76.4 63.2 76.4 59.5C76.4 59.3 76.6 59.1 76.8 59.1C77 59.1 77.2 59.3 77.2 59.5C77.2 62.7 79.8 65.3 83 65.3C86.2 65.3 88.8 62.7 88.8 59.5C88.8 59.3 89 59.1 89.2 59.1C89.4 59.1 89.6 59.3 89.6 59.5C89.6 63.1 86.6 66.1 83 66.1Z" fill="#171717"/>
</g>
<g id="Group_20">
<path id="Path_45" d="M101.6 59.5C101.5 62.9 98.6 65.6 95.1 65.5C91.9 65.4 89.3 62.8 89.1 59.5" fill="#DBC6A8"/>
<path id="Path_46" d="M95.3 65.9C95.2 65.9 95.2 65.9 95.1 65.9C91.7 65.8 88.9 63.1 88.7 59.5C88.7 59.3 88.8 59.1 89.1 59.1C89.3 59.1 89.5 59.2 89.5 59.5C89.7 62.6 92.1 65.1 95.1 65.1C98.4 65.2 101.1 62.7 101.2 59.5C101.2 59.3 101.3 59.1 101.6 59.1C101.8 59.1 102 59.3 102 59.5C101.9 63.1 98.9 65.9 95.3 65.9Z" fill="#171717"/>
</g>
<g id="Group_21">
<path id="Path_47" d="M114.1 59.5C114.1 62.9 111.3 65.7 107.9 65.7C104.5 65.7 101.7 62.9 101.7 59.5" fill="#DBC6A8"/>
<path id="Path_48" d="M107.9 66.1C104.3 66.1 101.3 63.2 101.3 59.5C101.3 59.3 101.5 59.1 101.7 59.1C101.9 59.1 102.1 59.3 102.1 59.5C102.1 62.7 104.7 65.3 107.9 65.3C111.1 65.3 113.7 62.7 113.7 59.5C113.7 59.3 113.9 59.1 114.1 59.1C114.3 59.1 114.5 59.3 114.5 59.5C114.5 63.1 111.5 66.1 107.9 66.1Z" fill="#171717"/>
</g>
<g id="Group_22">
<path id="Path_49" d="M126.5 59.5C126.4 62.9 123.5 65.6 120 65.5C116.8 65.4 114.2 62.8 114 59.5" fill="#DBC6A8"/>
<path id="Path_50" d="M120.2 65.9C120.1 65.9 120.1 65.9 120 65.9C116.6 65.8 113.8 63.1 113.6 59.5C113.6 59.3 113.7 59.1 114 59.1C114.2 59.1 114.4 59.2 114.4 59.5C114.6 62.6 117 65.1 120 65.1C123.3 65.2 126 62.7 126.1 59.5C126.1 59.3 126.2 59.1 126.5 59.1C126.7 59.1 126.9 59.3 126.9 59.5C126.8 63.1 123.8 65.9 120.2 65.9Z" fill="#171717"/>
</g>
<g id="Group_23">
<path id="Path_51" d="M139 59.5C138.9 62.9 136 65.6 132.5 65.5C129.3 65.4 126.7 62.8 126.5 59.5" fill="#DBC6A8"/>
<path id="Path_52" d="M132.7 65.9C132.6 65.9 132.6 65.9 132.5 65.9C129.1 65.8 126.3 63.1 126.1 59.5C126.1 59.3 126.2 59.1 126.5 59.1C126.7 59.1 126.9 59.2 126.9 59.5C127.1 62.6 129.5 65.1 132.5 65.1C135.8 65.2 138.5 62.7 138.6 59.5C138.6 59.3 138.7 59.1 139 59.1C139.2 59.1 139.4 59.3 139.4 59.5C139.3 63.1 136.3 65.9 132.7 65.9Z" fill="#171717"/>
</g>
<g id="Group_24">
<path id="Path_53" d="M151.4 59.5C151.4 62.9 148.6 65.7 145.2 65.7C141.8 65.7 139 62.9 139 59.5" fill="#DBC6A8"/>
<path id="Path_54" d="M145.2 66.1C141.6 66.1 138.6 63.2 138.6 59.5C138.6 59.3 138.8 59.1 139 59.1C139.2 59.1 139.4 59.3 139.4 59.5C139.4 62.7 142 65.3 145.2 65.3C148.4 65.3 151 62.7 151 59.5C151 59.3 151.2 59.1 151.4 59.1C151.6 59.1 151.8 59.3 151.8 59.5C151.8 63.1 148.8 66.1 145.2 66.1Z" fill="#171717"/>
</g>
<g id="Group_25">
<path id="Path_55" d="M163.9 59.5C163.8 62.9 160.9 65.6 157.4 65.5C154.2 65.4 151.6 62.8 151.4 59.5" fill="#DBC6A8"/>
<path id="Path_56" d="M157.6 65.9C157.5 65.9 157.5 65.9 157.4 65.9C154 65.8 151.2 63.1 151 59.5C151 59.3 151.1 59.1 151.4 59.1C151.6 59.1 151.8 59.2 151.8 59.5C152 62.6 154.4 65.1 157.4 65.1C160.7 65.2 163.4 62.7 163.5 59.5C163.5 59.3 163.7 59.1 163.9 59.1C164.1 59.1 164.3 59.3 164.3 59.5C164.2 63.1 161.2 65.9 157.6 65.9Z" fill="#171717"/>
</g>
<g id="Group_26">
<path id="Path_57" d="M176.3 59.5C176.3 62.9 173.5 65.7 170.1 65.7C166.7 65.7 163.9 62.9 163.9 59.5" fill="#DBC6A8"/>
<path id="Path_58" d="M170.1 66.1C166.5 66.1 163.5 63.2 163.5 59.5C163.5 59.3 163.7 59.1 163.9 59.1C164.1 59.1 164.3 59.3 164.3 59.5C164.3 62.7 166.9 65.3 170.1 65.3C173.3 65.3 175.9 62.7 175.9 59.5C175.9 59.3 176.1 59.1 176.3 59.1C176.5 59.1 176.7 59.3 176.7 59.5C176.7 63.1 173.7 66.1 170.1 66.1Z" fill="#171717"/>
</g>
<path id="Path_59" d="M89.2 59.6C89.1 59.6 89 59.5 88.9 59.4L58.3 10.9C58.2 10.7 58.2 10.5 58.4 10.4C58.6 10.3 58.8 10.3 58.9 10.5L89.5 59C89.6 59.2 89.6 59.4 89.4 59.5C89.3 59.6 89.3 59.6 89.2 59.6Z" fill="#171717"/>
<path id="Path_60" d="M101.6 59.7C101.5 59.7 101.4 59.6 101.3 59.5L70.2 10.9C70.1 10.7 70.1 10.5 70.3 10.4C70.5 10.3 70.7 10.3 70.8 10.5L101.9 59.1C102 59.3 102 59.5 101.8 59.6C101.7 59.7 101.7 59.7 101.6 59.7Z" fill="#171717"/>
<path id="Path_61" d="M114.1 59.7C114 59.7 113.9 59.6 113.8 59.5L82.6 10.9C82.5 10.7 82.5 10.5 82.7 10.4C82.9 10.3 83.1 10.3 83.2 10.5L114.4 59.1C114.5 59.3 114.5 59.5 114.3 59.6C114.2 59.7 114.2 59.7 114.1 59.7Z" fill="#171717"/>
<path id="Shape_19" d="M101.6 89.9C101 89.9 100.4 89.6 100.1 89.2C99.9 89 99.7 88.8 99.6 88.6C99.2 87.7 99.6 86.6 100.5 86.2C100.8 86 101.1 86.1 101.4 86.1C101.4 86 101.5 86 101.6 85.9C101.8 85.8 102 85.9 102.1 86.1C102.2 86.3 102.3 86.5 102.4 86.7C102.5 86.9 102.5 87.1 102.6 87.3C102.7 87.6 103 87.9 103.3 88C103.4 88 103.6 88 103.7 87.9C103.8 87.8 103.8 87.8 103.8 87.7C103.8 87.5 103.9 87.3 104.1 87.3C104.3 87.3 104.5 87.4 104.5 87.6C104.6 87.9 104.5 88.2 104.2 88.4C103.9 88.7 103.5 88.8 103.1 88.7C102.9 88.7 102.7 88.6 102.6 88.5C102.6 89.2 102.3 89.7 101.7 89.8C101.7 89.9 101.6 89.9 101.6 89.9ZM101 86.8H100.9C100.6 86.9 100.4 87.1 100.3 87.4C100.2 87.7 100.2 88 100.3 88.2C100.4 88.3 100.4 88.5 100.5 88.5C100.6 88.5 100.6 88.6 100.7 88.7C100.8 88.9 101.1 89.1 101.5 89.1C101.9 88.9 101.8 88.2 101.8 88C101.7 87.6 101.6 87.2 101.5 86.8C101.4 86.9 101.2 86.8 101 86.8Z" fill="#171717"/>
<path id="Path_62" d="M95.5 101.4C95.4 101.4 95.3 101.4 95.2 101.3L91.7 97.4C91.6 97.2 91.6 97 91.7 96.9C91.9 96.8 92.1 96.8 92.2 96.9L94.9 99.9C94.8 99.4 94.7 98.9 94.5 98.4C94.4 98.2 94.5 98.1 94.6 98C94.7 97.9 94.9 97.9 95.1 98C95.5 98.3 95.9 98.6 96.3 99L95.2 95.3C95.1 95.1 95.3 94.9 95.5 94.8C95.7 94.7 95.9 94.9 96 95.1L97.5 100.3C97.6 100.5 97.5 100.7 97.3 100.7C97.1 100.8 96.9 100.7 96.8 100.6C96.5 100.2 96.1 99.8 95.6 99.4C95.7 100 95.8 100.5 95.8 101.1C95.8 101.3 95.7 101.4 95.6 101.5C95.6 101.4 95.6 101.4 95.5 101.4Z" fill="#171717"/>
<path id="Shape_20" d="M101.1 104.4C100.4 104.4 99.9 103.8 99.8 103.3C99.6 102.5 99.5 101.3 99.9 100L100.2 98.5C100 98.7 99.8 98.8 99.6 98.9C98.3 99.2 97.7 97.6 97.5 97.1C97.4 96.9 97.5 96.7 97.7 96.6C97.9 96.5 98.1 96.6 98.2 96.8C98.6 97.8 99 98.3 99.4 98.2C99.7 98.1 99.9 97.8 100 97.5L99.6 96C99.6 95.8 99.6 95.6 99.8 95.6C100 95.6 100.2 95.6 100.3 95.8C100.5 96.1 100.6 96.3 100.6 96.6L101.1 94.4C101.1 94.3 101.2 94.1 101.4 94.1C101.5 94.1 101.7 94.1 101.8 94.2C102 94.4 102.2 94.7 102.3 94.9C102.3 94.8 102.4 94.6 102.4 94.5C102.4 94.5 102.4 94.4 102.5 94.4C102.8 94 103.4 93.7 103.9 93.8C104.3 93.8 104.6 94 104.7 94.4C104.8 94.5 104.8 94.6 104.8 94.7V94.8C104.9 94.9 105.1 94.9 105.2 94.8C105.5 94.6 105.6 94.3 105.7 94.2C105.7 94.1 105.8 94 105.9 93.9C105.8 93.7 105.7 93.5 105.6 93.3C105.5 92.9 105.6 92.5 105.9 92.2C106 92.1 106 92.1 106.1 92.1C106 91.9 105.9 91.7 105.8 91.5C105.8 91.4 105.8 91.3 105.8 91.2C105.8 91.1 105.9 91.1 106 91C106.9 90.8 107.7 91.1 108.2 91.8C108.4 91.6 108.7 91.5 108.9 91.2C108.4 90.8 108.2 90.2 108.3 89.5C108.5 89 108.9 88.6 109.5 88.5C109.9 88.5 110.2 88.6 110.4 88.9C110.7 89.4 110.6 90.1 110.1 90.8C110.2 90.8 110.2 90.9 110.3 90.9C110.9 91.1 111.6 91.4 111.6 92.3C111.6 93 111.1 93.4 110.6 93.7C110.4 93.8 110.2 93.9 110.1 94.1C110 94.3 109.7 94.3 109.6 94.2C109.4 94.1 109.4 93.8 109.5 93.7C109.7 93.5 109.9 93.3 110.2 93.2C110.6 92.9 110.8 92.8 110.8 92.5C110.8 92.2 110.5 92.1 110 91.8C109.9 91.8 109.8 91.7 109.6 91.6C109.3 91.9 109 92.2 108.6 92.4C108.6 92.5 108.6 92.6 108.6 92.7C108.7 93.1 108.5 93.6 108.2 94C107.9 94.3 107.5 94.5 107 94.6C106.7 94.6 106.5 94.5 106.4 94.4C106.4 94.4 106.4 94.5 106.3 94.5C106.2 94.9 105.9 95.2 105.6 95.4C105.1 95.7 104.5 95.6 104.2 95.3L104.1 95.2C104 95.1 104 95 104 94.9C104 94.8 104 94.8 103.9 94.7C103.9 94.6 103.8 94.6 103.7 94.5C103.5 94.5 103.2 94.6 103 94.8C102.8 95.4 102.8 96 102.8 96.5C102.8 96.7 102.7 96.9 102.5 96.9C102.3 96.9 102.1 96.8 102.1 96.6C102 96.2 101.8 95.7 101.6 95.3L100.9 98.5L101.8 102.2C102 102.7 102 103.4 101.7 103.9C101.6 104.2 101.3 104.3 101.1 104.4ZM100.6 100.1C100.3 101 100.3 102.1 100.5 103.1C100.6 103.3 100.8 103.6 101 103.6C101 103.6 101 103.6 101.1 103.5C101.2 103.3 101.3 102.8 101.2 102.4L100.6 100.1ZM106.7 93.6C106.8 93.7 106.9 93.7 107 93.7C107.3 93.7 107.5 93.5 107.7 93.3C107.9 93.1 108 92.9 107.9 92.6L108.1 92.5H108H107.9C107.5 92.6 107 92.6 106.6 92.3C106.8 92.7 106.8 93.2 106.7 93.6ZM106.7 91.5C106.8 91.6 106.9 91.7 107 91.7C107.1 91.8 107.3 91.8 107.5 91.8C107.2 91.7 107 91.6 106.7 91.5ZM109.6 89.2C109.4 89.2 109.1 89.4 109 89.6C109 89.9 109.1 90.2 109.4 90.5C109.4 90.5 109.4 90.4 109.5 90.4C109.7 90.1 110 89.6 109.8 89.3C109.8 89.2 109.7 89.2 109.6 89.2Z" fill="#171717"/>
<path id="Path_63" d="M96.9 92.4C96.8 92.4 96.6 92.3 96.6 92.2C95.8 90.7 95.4 89.3 95.1 87.7C95.1 87 95.3 86.8 95.7 86.8C95.9 86.8 96 86.9 96 86.9C96.1 86.9 96.1 86.9 96.1 87C96.6 87.5 97 88.1 97.3 88.7C97.7 89.4 98 90 98.6 90.5C98.6 90.4 98.6 90.4 98.6 90.3C98.6 89.9 98.4 89.5 98.3 89.1C98.2 88.6 98 88.2 98 87.7C97.8 86.7 97.9 85.7 98.3 84.8C98.4 84.6 98.6 84.5 98.8 84.6C99 84.7 99.1 84.9 99 85.1C98.6 85.8 98.5 86.7 98.7 87.6C98.8 88.1 98.9 88.5 99 88.9C99.1 89.4 99.3 89.8 99.3 90.3C99.3 91 99 91.4 98.5 91.4C98.4 91.4 98.3 91.4 98.2 91.3C98.1 91.2 98 91.2 97.9 91.1C97.3 90.5 96.9 89.8 96.5 89.2C96.2 88.7 96 88.3 95.7 87.9C96 89.3 96.4 90.6 97.1 92C97.2 92.2 97.1 92.4 96.9 92.5C97 92.4 97 92.4 96.9 92.4Z" fill="#171717"/>
<g id="Group_27">
<path id="Path_64" d="M109 103.7L110.6 102.3C111 102 111.4 101.5 111.8 101.1C112.1 100.6 112.2 100 112.1 99.5C111.8 98.8 111.2 98.4 110.5 98.5C109.8 98.6 109.2 99 108.9 99.7C108.6 99.1 108 98.6 107.3 98.5C106.6 98.4 105.9 98.8 105.7 99.5C105.6 100.1 105.7 100.6 106 101.1C106.3 101.6 106.7 102 107.1 102.3L108.7 103.7H109Z" fill="#FF8766"/>
<path id="Shape_21" d="M109 104.1H108.7C108.6 104.1 108.5 104.1 108.5 104L106.9 102.6C106.4 102.3 106 101.8 105.7 101.3C105.3 100.7 105.2 100.1 105.4 99.4C105.7 98.5 106.5 98 107.4 98.1C108 98.2 108.5 98.5 108.9 99C109.3 98.5 109.8 98.2 110.5 98.1C111.4 98 112.1 98.4 112.5 99.3C112.6 100 112.5 100.7 112.2 101.2C112 101.4 111.9 101.5 111.8 101.7C111.5 102 111.2 102.3 110.9 102.5L109.3 103.9C109.2 104 109.1 104.1 109 104.1ZM108.8 103.3L110.3 102C110.6 101.8 110.8 101.5 111.1 101.2C111.2 101.1 111.4 100.9 111.5 100.8C111.7 100.5 111.8 100 111.7 99.5C111.5 99 111 98.7 110.5 98.8C109.9 98.9 109.4 99.2 109.2 99.8C109.1 99.9 109 100 108.9 100C108.8 100 108.6 99.9 108.6 99.8C108.3 99.3 107.8 98.9 107.3 98.8C106.8 98.7 106.3 99 106.1 99.5C106 100 106.1 100.4 106.4 100.8C106.6 101.2 107 101.6 107.4 101.9L108.8 103.3Z" fill="#171717"/>
</g>
<path id="Path_65" d="M176.3 60H76.8C76.6 60 76.4 59.8 76.4 59.6C76.4 59.4 76.6 59.2 76.8 59.2H176.3C176.5 59.2 176.7 59.4 176.7 59.6C176.7 59.8 176.5 60 176.3 60Z" fill="#171717"/>
</g>
<g id="info_table">
<g id="Group_28">
<path id="Path_66" d="M182.8 142.3H158.2L174.3 108.6H198.8L182.8 142.3Z" fill="#EAE0D3"/>
<path id="Shape_22" d="M182.8 142.7H158.2C158.1 142.7 158 142.6 157.9 142.5C157.8 142.4 157.8 142.3 157.9 142.1L174 108.4C174.1 108.3 174.2 108.2 174.3 108.2H198.8C198.9 108.2 199 108.3 199.1 108.4C199.2 108.5 199.2 108.6 199.1 108.8L183.1 142.5C183.1 142.6 182.9 142.7 182.8 142.7ZM158.8 141.9H182.6L198.2 108.9H174.5L158.8 141.9Z" fill="#171717"/>
</g>
<path id="Path_67" d="M154.1 151.5C154 151.5 154 151.5 153.9 151.5C153.7 151.4 153.6 151.2 153.7 151L173.9 108.5C174 108.3 174.2 108.2 174.4 108.3C174.6 108.4 174.7 108.6 174.6 108.8L154.4 151.3C154.4 151.4 154.2 151.5 154.1 151.5Z" fill="#171717"/>
<path id="Path_68" d="M178.6 151.5C178.5 151.5 178.5 151.5 178.4 151.5C178.2 151.4 178.1 151.2 178.2 151L198.4 108.5C198.5 108.3 198.7 108.2 198.9 108.3C199.1 108.4 199.2 108.6 199.1 108.8L178.9 151.3C178.9 151.4 178.7 151.5 178.6 151.5Z" fill="#171717"/>
<path id="Path_69" d="M209.4 152.5C209.2 152.5 209.1 152.4 209 152.2L198.6 108.7C198.6 108.5 198.7 108.3 198.9 108.2C199.1 108.1 199.3 108.3 199.4 108.5L209.8 152C209.8 152.2 209.7 152.4 209.4 152.5C209.4 152.5 209.5 152.5 209.4 152.5Z" fill="#171717"/>
<path id="Shape_23" d="M178.6 123.1C178.3 123.1 178.1 123 177.9 122.9C177.7 122.8 177.6 122.5 177.6 122.1L177.5 114.3C177.5 113.7 177.9 113.1 178.6 112.8L183.1 111.5C183.5 111.4 183.9 111.5 184.1 111.7C184.3 111.9 184.4 112.2 184.4 112.5L184.5 120.3C184.4 121 184 121.6 183.3 121.8L178.8 123.1C178.8 123.1 178.7 123.1 178.6 123.1ZM183.4 112.2C183.3 112.2 183.3 112.2 183.2 112.2L178.7 113.5C178.4 113.6 178.1 113.9 178.1 114.2L178.2 122C178.2 122.1 178.2 122.2 178.3 122.2C178.4 122.3 178.5 122.3 178.7 122.2L183.2 120.9C183.5 120.8 183.7 120.4 183.8 120.1L183.7 112.4C183.7 112.3 183.7 112.2 183.6 112.2C183.6 112.3 183.5 112.2 183.4 112.2Z" fill="#171717"/>
<path id="Path_70" d="M180.3 121.3C180.1 121.3 180 121.2 179.9 121C179.8 120.8 179.9 120.6 180.1 120.5L181.4 120.1C181.6 120 181.8 120.2 181.9 120.3C182 120.5 181.9 120.7 181.7 120.8L180.4 121.2C180.4 121.3 180.3 121.3 180.3 121.3Z" fill="#171717"/>
<path id="Path_71" d="M177.6 130.7C177.4 130.7 177.2 130.6 177.2 130.4C177.2 130.2 177.3 130 177.5 130C181.1 129.7 184.5 127.8 186.6 125C189 121.8 189.5 118.1 187.8 115.5C187.7 115.3 187.7 115.1 187.9 115C188.1 114.9 188.3 114.9 188.4 115.1C190.3 117.9 189.8 122 187.2 125.4C185.1 128.4 181.5 130.4 177.6 130.7Z" fill="#171717"/>
<path id="Path_72" d="M177.3 130.7C177.2 130.7 177.1 130.6 177 130.5C176.9 130.3 176.9 130.1 177.1 130L179.4 128.3C179.6 128.2 179.8 128.2 179.9 128.4C180 128.6 180 128.8 179.8 128.9L177.5 130.6C177.5 130.7 177.4 130.7 177.3 130.7Z" fill="#171717"/>
<path id="Path_73" d="M179.3 132C179.2 132 179.2 132 179.1 131.9L177.2 130.7C177 130.6 177 130.4 177.1 130.2C177.2 130 177.4 130 177.6 130.1L179.5 131.3C179.7 131.4 179.7 131.6 179.6 131.8C179.5 131.9 179.4 132 179.3 132Z" fill="#171717"/>
<path id="Shape_24" d="M172.6 137.3H165.4C165.3 137.3 165.2 137.2 165.1 137.1C165 137 165 136.9 165 136.8L166.6 131.4C166.6 131.3 166.7 131.3 166.7 131.2L171.4 127.6C171.5 127.5 171.6 127.5 171.7 127.5C171.8 127.5 171.9 127.6 171.9 127.7L174.4 131.3C174.5 131.4 174.5 131.5 174.5 131.6L173 137C172.9 137.2 172.8 137.3 172.6 137.3ZM165.9 136.5H172.3L173.8 131.5L171.6 128.4L167.3 131.7L165.9 136.5Z" fill="#171717"/>
<path id="Shape_25" d="M170.7 135.2H168.3C168.2 135.2 168.1 135.1 168 135C167.9 134.9 167.9 134.8 167.9 134.7L168.6 132.3C168.6 132.1 168.8 132 169 132H171.4C171.5 132 171.6 132.1 171.7 132.2C171.8 132.3 171.8 132.4 171.8 132.5L171.1 134.9C171 135.1 170.9 135.2 170.7 135.2ZM168.8 134.4H170.4L170.9 132.8H169.3L168.8 134.4Z" fill="#171717"/>
<path id="Path_74" d="M175.7 120.1C175.6 120.1 175.6 120.1 175.5 120L174.3 119.3C174.1 119.2 174.1 119 174.2 118.8C174.3 118.6 174.5 118.6 174.7 118.7L175.9 119.4C176.1 119.5 176.1 119.7 176 119.9C176 120 175.8 120.1 175.7 120.1Z" fill="#171717"/>
<path id="Path_75" d="M173.6 123.2C173.5 123.2 173.4 123.1 173.3 123C173.2 122.8 173.2 122.6 173.4 122.5L174.8 121.6C175 121.5 175.2 121.5 175.3 121.7C175.4 121.9 175.4 122.1 175.2 122.2L173.8 123.1C173.7 123.2 173.7 123.2 173.6 123.2Z" fill="#171717"/>
</g>
<g id="flowers">
<g id="flower_back">
<g id="Group_29">
<path id="Path_76" d="M37 135.5H17C16.4 135.3 15.9 135 15.4 134.7C13 133.5 11.3 131.2 10.9 128.5C10.8 127.4 11 126.3 10.9 125.1C10.5 121.1 6.7 118.2 5.4 114.3C4.1 109.5 6.8 104.6 11.5 103.2C15.3 102.2 19.2 103.9 22.7 105.5C25.7 106.8 28.8 108.3 30.6 111L30.7 111.6L37 135.5Z" fill="#79C9A9"/>
<path id="Shape_26" d="M37 135.9H17H16.9C16.3 135.7 15.7 135.4 15.2 135.1C12.7 133.8 10.9 131.4 10.5 128.6C10.4 128 10.5 127.4 10.5 126.9C10.5 126.3 10.5 125.8 10.5 125.2C10.3 123 9 121.2 7.7 119.3C6.7 117.8 5.6 116.3 5 114.5C3.6 109.5 6.4 104.4 11.3 102.9C15.4 101.8 19.5 103.7 22.8 105.2C25.9 106.5 29 108.1 30.9 110.8C30.9 110.8 30.9 110.9 31 110.9L31.1 111.5L37.4 135.4C37.4 135.5 37.4 135.6 37.3 135.7C37.2 135.8 37.1 135.9 37 135.9ZM17.1 135.1H36.6L30.4 111.7L30.3 111.1C28.6 108.5 25.5 107.1 22.6 105.8C19.4 104.3 15.4 102.5 11.6 103.5C7.1 104.8 4.5 109.5 5.8 114.1C6.3 115.7 7.4 117.2 8.4 118.7C9.7 120.6 11.1 122.6 11.3 125C11.4 125.6 11.3 126.2 11.3 126.8C11.3 127.4 11.3 127.9 11.3 128.4C11.7 130.9 13.3 133.1 15.6 134.3C16.1 134.7 16.5 134.9 17.1 135.1Z" fill="#171717"/>
</g>
<g id="Group_30">
<path id="Path_77" d="M53.3 135.5H34C29.5 132.4 25.6 128.7 23 123.9C20.9 119.9 19.9 115.4 19 111C18.8 110.3 18.8 109.3 19.5 109C19.7 109 19.9 109 20.1 109C35.5 110.5 48.5 120.9 53.3 135.5Z" fill="#C4E3D4"/>
<path id="Shape_27" d="M53.3 135.9H34C33.9 135.9 33.8 135.9 33.8 135.8C28.7 132.3 25.1 128.4 22.7 124.1C20.6 120.1 19.6 115.7 18.7 111.1C18.4 110.2 18.6 109.1 19.4 108.7H19.5H20.1C35.7 110.2 48.8 120.7 53.7 135.5C53.7 135.6 53.7 135.7 53.6 135.8C53.5 135.8 53.4 135.9 53.3 135.9ZM34.1 135.1H52.8C47.9 120.9 35.1 110.8 20.1 109.3H19.6C19.2 109.5 19.2 110.3 19.4 110.8C20.3 115.4 21.3 119.7 23.4 123.6C25.6 128 29.2 131.7 34.1 135.1Z" fill="#171717"/>
</g>
<g id="Group_31">
<path id="Path_78" d="M67.2 124.4C67.1 126.1 66.4 127.7 65.2 129C64 130.2 62.7 131.3 61.3 132.3L56.7 135.6H46C46.4 133 47.4 130.6 48.9 128.4C49.1 128.1 49.4 127.8 49.6 127.5C51.6 125.5 54.2 124.2 57 123.7C60.2 123.2 63.4 123.2 66.5 123.6C66.7 123.6 66.8 123.7 67 123.7C67.2 123.9 67.2 124.1 67.2 124.4Z" fill="#C4E3D4"/>
<path id="Shape_28" d="M56.7 136H46C45.9 136 45.8 136 45.7 135.9C45.6 135.8 45.6 135.7 45.6 135.6C46 133 47 130.5 48.6 128.2C48.7 128 48.8 127.9 49 127.7C49.1 127.6 49.2 127.4 49.3 127.3C51.4 125.2 54 123.9 56.9 123.3C60 122.8 63.3 122.8 66.5 123.2C66.6 123.2 66.7 123.2 66.8 123.3C66.9 123.3 66.9 123.3 66.9 123.3C67 123.3 67.1 123.3 67.2 123.4C67.5 123.7 67.5 124 67.5 124.4C67.4 126.2 66.7 127.9 65.4 129.2C64.2 130.4 62.9 131.5 61.4 132.6L56.8 135.9C56.9 136 56.8 136 56.7 136ZM46.4 135.2H56.5L61 132C62.4 131 63.7 129.9 64.9 128.7C66 127.5 66.7 126 66.8 124.4C66.8 124.2 66.8 124.1 66.8 124.1C66.7 124.1 66.7 124.1 66.6 124.1C66.5 124.1 66.5 124.1 66.5 124.1C63.3 123.7 60.1 123.7 57.1 124.2C54.3 124.7 51.8 126 49.9 127.9C49.8 128 49.7 128.2 49.6 128.3C49.5 128.4 49.4 128.6 49.3 128.7C47.8 130.7 46.9 132.9 46.4 135.2Z" fill="#171717"/>
</g>
<path id="Path_79" d="M46.5 123.5C46.3 123.5 46.1 123.3 46.1 123.1C46 115.9 49.3 109.1 55 104.4C55.2 104.3 55.4 104.3 55.5 104.5C55.6 104.7 55.6 104.9 55.4 105C49.8 109.5 46.6 116.1 46.7 123.1C46.9 123.3 46.7 123.5 46.5 123.5Z" fill="#171717"/>
<g id="Group_32">
<path id="Path_80" d="M47.6 102.6C48 103.4 48.7 104.1 49.5 104.6C51.3 105.7 51.6 106.8 53 108.1C54.5 109.6 55.6 108.9 57.3 108.3C57.7 108.2 58.2 108.4 58.5 108.7C59.1 109.3 59.9 109.7 60.7 110C61.6 110.2 62.5 109.8 62.8 109C63.2 107.9 62 107.2 61.7 106.2C61.4 105.2 61.9 104.3 61.3 103.2C60.9 102.5 60.1 101.9 59.3 101.7C58.3 101.4 57.2 101.4 56.5 100.6C56.1 100 55.6 99.4 55.1 98.9C53.3 97.4 47.7 97.9 47.5 100.8C47.2 101.4 47.4 102 47.6 102.6Z" fill="white"/>
<path id="Shape_29" d="M61.2 110.4C61 110.4 60.8 110.4 60.7 110.3C59.6 109.9 58.9 109.4 58.3 108.9C58.1 108.7 57.7 108.5 57.5 108.6C57.3 108.7 57.1 108.7 56.9 108.8C55.5 109.3 54.3 109.8 52.8 108.3C52.3 107.8 51.9 107.3 51.5 106.8C50.9 106.1 50.4 105.5 49.4 104.8C48.5 104.2 47.8 103.5 47.4 102.6C47.2 102 47 101.3 47.3 100.6C47.4 99.5 48.1 98.7 49.4 98.1C51.4 97.2 54.3 97.4 55.5 98.5C56.1 99.1 56.6 99.7 57 100.3C57.4 100.8 58 100.9 58.8 101C59.1 101.1 59.4 101.1 59.6 101.2C60.5 101.4 61.4 102.1 61.8 102.9C62.2 103.6 62.2 104.3 62.2 104.9C62.2 105.3 62.2 105.6 62.3 106C62.4 106.3 62.6 106.6 62.8 106.9C63.2 107.5 63.7 108.1 63.4 109C62.9 109.9 62.1 110.4 61.2 110.4ZM57.5 107.9C58 107.9 58.5 108.2 58.7 108.4C59.2 108.9 59.8 109.3 60.8 109.6C61.5 109.7 62.2 109.4 62.4 108.8C62.6 108.3 62.3 107.9 61.9 107.4C61.7 107.1 61.4 106.7 61.3 106.3C61.2 105.8 61.2 105.4 61.2 104.9C61.2 104.4 61.2 103.9 60.9 103.3C60.6 102.7 59.8 102.2 59.1 102C58.8 101.9 58.6 101.9 58.3 101.8C57.5 101.6 56.7 101.5 56.1 100.8C55.7 100.2 55.2 99.6 54.7 99.1C53.7 98.3 51.1 98.1 49.4 98.9C48.7 99.2 47.8 99.8 47.8 100.8V100.9C47.6 101.4 47.7 101.8 47.9 102.4C48.3 103.1 48.9 103.7 49.7 104.2C50.9 104.9 51.4 105.6 52 106.4C52.4 106.8 52.7 107.3 53.2 107.8C54.4 109 55.2 108.6 56.5 108.1C56.7 108 56.9 108 57.1 107.9C57.3 107.9 57.4 107.9 57.5 107.9Z" fill="#171717"/>
</g>
<g id="Group_33">
<path id="Path_81" d="M54.1 101.9C54.8 103.6 56.5 104.7 58.3 104.8Z" fill="white"/>
<path id="Path_82" d="M58.3 105.2C56.3 105.1 54.5 103.9 53.8 102.1C53.7 101.9 53.8 101.7 54 101.6C54.2 101.5 54.4 101.6 54.5 101.8C55.1 103.3 56.6 104.4 58.4 104.5C58.6 104.5 58.8 104.7 58.8 104.9C58.7 105 58.5 105.2 58.3 105.2Z" fill="#171717"/>
</g>
<g id="Group_34">
<path id="Path_83" d="M35.2 98.8C35.8 99 36.4 99.2 36.9 99.4C37.7 99.8 38.2 100.7 39.1 101C40.2 101.2 41.4 100.8 42 99.8C42.7 98.9 43.2 97.9 43.9 97.1C44.4 96.7 44.7 96.2 44.9 95.6C44.9 94.9 44.6 94.3 44.1 93.8C42.3 91.7 40.6 89 37.5 89.9C35.1 90.5 33.5 92.6 33.3 95C33.1 96.3 33.5 97.6 34.5 98.4C34.8 98.6 35 98.7 35.2 98.8Z" fill="white"/>
<path id="Shape_30" d="M39.7 101.4C39.5 101.4 39.3 101.4 39.1 101.3C38.5 101.1 38.1 100.7 37.7 100.3C37.4 100 37.1 99.8 36.8 99.6C36.3 99.4 35.7 99.2 35.2 99C35.2 99 35.2 99 35.1 99C34.9 98.9 34.7 98.8 34.4 98.6C33.3 97.7 32.8 96.3 33 94.8C33.2 92.2 35 90 37.5 89.4C40.5 88.5 42.2 90.7 43.8 92.7C44 93 44.2 93.2 44.4 93.5C45 94.1 45.3 94.8 45.3 95.5V95.6C45.1 96.3 44.7 96.9 44.2 97.3C43.9 97.7 43.6 98.2 43.2 98.7C42.9 99.1 42.6 99.6 42.3 100C41.8 100.9 40.8 101.4 39.7 101.4ZM35.3 98.5C35.9 98.7 36.5 98.9 37 99.1C37.4 99.3 37.8 99.6 38.1 99.9C38.5 100.2 38.8 100.5 39.2 100.7C40.2 100.9 41.2 100.5 41.7 99.7C42 99.3 42.3 98.9 42.6 98.5C42.9 98 43.3 97.5 43.7 97C44.1 96.6 44.4 96.2 44.6 95.7C44.6 95.2 44.4 94.7 43.9 94.2C43.7 93.9 43.4 93.7 43.2 93.4C41.6 91.5 40.1 89.7 37.6 90.4C35.4 90.9 33.9 92.9 33.7 95.2C33.5 96.5 33.9 97.6 34.8 98.3C35 98.3 35.2 98.4 35.3 98.5Z" fill="#171717"/>
</g>
<path id="Path_84" d="M38.5 96.5C38.4 96.5 38.4 96.5 38.3 96.5C37.7 96.4 37.1 96.1 36.7 95.6C36.6 95.4 36.6 95.2 36.8 95.1C37 95 37.2 95 37.3 95.2C37.6 95.5 37.9 95.8 38.4 95.8C38.9 95.8 39.3 95.7 39.7 95.4C40.1 95 40.4 94.4 40.3 93.9C40.3 93.7 40.4 93.5 40.6 93.5C40.8 93.5 41 93.6 41 93.8C41.1 94.5 40.8 95.3 40.2 95.9C39.7 96.3 39.1 96.5 38.5 96.5Z" fill="#171717"/>
<path id="Path_85" d="M44.5 121.3C44.3 121.3 44.1 121.1 44.1 120.9C43.9 114 42.9 107 41.1 100.3C41 100.1 41.2 99.9 41.4 99.8C41.6 99.7 41.8 99.9 41.9 100.1C43.7 106.9 44.7 113.9 44.9 120.9C44.9 121.1 44.7 121.3 44.5 121.3Z" fill="#171717"/>
</g>
<g id="flower_front">
<path id="Path_86" d="M29 141.6H8.69998C8.39998 141.4 8.19998 141.2 7.89998 141C6.69998 139.7 5.89998 138.2 5.39998 136.5L1.19998 125.5C0.999985 125.1 0.899985 124.7 0.999985 124.3C1.09998 123.4 2.09998 122.9 2.89998 122.7C5.59999 122.1 8.49998 122.1 11.2 122.6C14.3 122.9 17.2 124 19.8 125.7C23.2 128.2 24.9 132.2 26.6 136C27.4 137.9 28.1 139.7 29 141.6Z" fill="#C4E3D4"/>
<path id="Shape_31" d="M29 142H8.7C8.6 142 8.6 142 8.5 141.9C8.3 141.8 8.2 141.7 8.1 141.6C8 141.5 7.9 141.4 7.7 141.3C6.4 139.9 5.6 138.4 5 136.6L0.799999 125.6C0.499999 125.1 0.499999 124.6 0.599999 124.2C0.699999 122.9 2.3 122.4 2.8 122.3C5.5 121.7 8.4 121.7 11.3 122.2C14.3 122.5 17.3 123.6 20 125.4C23.4 127.9 25.1 131.7 26.8 135.4L27 135.8C27.2 136.3 27.4 136.8 27.6 137.3C28.2 138.7 28.7 140 29.4 141.4C29.5 141.5 29.4 141.7 29.4 141.8C29.2 141.9 29.1 142 29 142ZM8.8 141.2H28.4C27.8 140 27.4 138.8 26.9 137.6C26.7 137.1 26.5 136.6 26.3 136.1L26.1 135.7C24.5 132.1 22.8 128.3 19.6 126C17 124.3 14.1 123.3 11.2 123C8.4 122.5 5.6 122.5 3 123.1C2.3 123.3 1.5 123.7 1.4 124.4C1.3 124.7 1.4 125 1.6 125.4L5.8 136.4C6.3 138.1 7.1 139.6 8.2 140.8C8.3 140.8 8.4 141 8.6 141.1C8.6 141.1 8.7 141.2 8.8 141.2Z" fill="#171717"/>
</g>
</g>
</g>
</g>
</g>
</g>
</svg>
