<svg width="283" height="262" viewBox="0 -10 303 182" fill="none" xmlns="http://www.w3.org/2000/svg">
<g id="education 1">
<g id="Page 1">
<g id="Artboard">
<g id="education">
<g id="small_girl_studies">
<path id="Shape" d="M145.4 59.9C129 59.9 115.6 46.5 115.6 30.1C115.6 13.7 129 0.299999 145.4 0.299999C161.8 0.299999 175.2 13.7 175.2 30.1C175.2 46.5 161.8 59.9 145.4 59.9ZM145.4 1.1C129.4 1.1 116.4 14.1 116.4 30.1C116.4 46.1 129.4 59.1 145.4 59.1C161.4 59.1 174.4 46.1 174.4 30.1C174.4 14.1 161.4 1.1 145.4 1.1Z" fill="#171717"/>
<g id="Group">
<path id="Path" d="M152 21.6C152 25.2 149.1 25 145.5 25C141.9 25 139 25.1 139 21.6C139 18.1 139.7 12.1 145.5 12.1C150.9 12.1 152 18.1 152 21.6Z" fill="#C98877"/>
<path id="Shape_2" d="M146.6 25.4C146.4 25.4 146.3 25.4 146.1 25.4H145.3C143.5 25.4 141.9 25.4 140.8 25C139.4 24.5 138.8 23.4 138.8 21.7C138.8 15.2 141.2 11.8 145.7 11.8C150.8 11.8 152.6 16.9 152.6 21.7C152.6 22.9 152.3 23.8 151.7 24.4C150.4 25.3 148.6 25.4 146.6 25.4ZM145.5 24.6H146C148.1 24.6 150 24.6 150.9 23.7C151.4 23.2 151.6 22.5 151.6 21.6C151.6 19.5 151.2 12.5 145.5 12.5C141.4 12.5 139.4 15.6 139.4 21.6C139.4 23 139.9 23.8 141 24.2C142.1 24.6 143.6 24.6 145.3 24.6H145.5Z" fill="#171717"/>
</g>
<path id="Path_2" d="M135.6 37.5C134.6 37 134.5 35.3 134.2 34.2C133.9 32.8 133.8 31.4 134 30.1C134.5 27.8 135.5 25.7 136.8 23.8C138 22.1 139.7 20.8 141.6 20C147.7 17.8 153.7 22.5 155.8 28C157 31.1 157.1 34.4 157.2 37.7C156.7 37.5 155.5 37.9 155 37.8C154.2 37.8 153.1 38 152.2 38C150.5 38 149.4 37.5 147.7 37.5C144.3 37.5 140.9 37.6 137.6 37.7C137 37.9 136.3 37.8 135.6 37.5Z" fill="#FF673D"/>
<path id="Path_3" d="M139.1 35.2C138.8 35.2 138.7 35 138.7 34.8L140 26.1C140 25.9 140.2 25.8 140.4 25.8C140.6 25.8 140.7 26 140.7 26.2L139.4 34.9C139.4 35 139.3 35.2 139.1 35.2Z" fill="#171717"/>
<path id="Path_4" d="M142.6 37.1C142.5 37.1 142.5 37.1 142.4 37.1L138.9 35.2C138.7 35.1 138.7 34.9 138.7 34.7C138.8 34.5 139 34.5 139.2 34.5L142.7 36.4C142.9 36.5 142.9 36.7 142.9 36.9C142.9 37 142.7 37.1 142.6 37.1Z" fill="#171717"/>
<path id="Path_5" d="M157.1 38.5C156.8 38.5 156.7 38.3 156.7 38.1C157.2 33.8 156.7 30.2 155.2 27.4C154.3 25.6 150.9 19.7 145 19.7C139.8 19.7 136.6 24.4 136.2 24.9C134.7 27.1 133.2 30.9 134.7 36.3L134.8 36.5C134.8 36.7 134.7 36.9 134.5 37C134.3 37.1 134.1 36.9 134 36.7V36.5C132.4 30.8 134 26.8 135.6 24.5C136.2 23.6 139.6 18.9 145 18.9C151.3 18.9 154.9 25.1 155.8 27C157.4 29.9 157.9 33.7 157.3 38.1C157.4 38.3 157.3 38.5 157.1 38.5Z" fill="#171717"/>
<g id="Group_2">
<path id="Path_6" d="M149.6 16.7C149.6 19 147.8 20.8 145.5 20.8C144.8 20.8 144.1 20.6 143.4 20.2C142.6 19.7 142 19 141.6 18.1C141.4 17.6 141.3 17.1 141.3 16.7C141.3 14.4 143.1 12.6 145.4 12.6C147.8 12.6 149.6 14.5 149.6 16.7Z" fill="#EAE0D3"/>
<path id="Shape_3" d="M145.5 21.2C144.7 21.2 144 21 143.2 20.6C142.3 20.1 141.7 19.3 141.2 18.3C141 17.8 140.9 17.2 140.9 16.7C140.9 14.2 142.9 12.2 145.4 12.2C147.9 12.2 150 14.2 150 16.7C150 19.2 148 21.2 145.5 21.2ZM145.4 13C143.3 13 141.7 14.6 141.7 16.7C141.7 17.1 141.8 17.5 142 18C142.4 18.8 142.9 19.5 143.7 19.9C144.3 20.3 145 20.4 145.6 20.4C147.7 20.4 149.3 18.8 149.3 16.7C149.2 14.6 147.5 13 145.4 13Z" fill="#171717"/>
</g>
<path id="Path_7" d="M152 34.1C151.8 34.1 151.7 34 151.6 33.8L149.4 26C149.3 25.8 149.5 25.6 149.7 25.5C149.9 25.4 150.1 25.6 150.2 25.8L152.4 33.6C152.5 33.8 152.3 34 152.1 34.1H152Z" fill="#171717"/>
<path id="Path_8" d="M147.6 35.9C147.4 35.9 147.3 35.8 147.2 35.7C147.1 35.5 147.2 35.3 147.4 35.2L155.4 32.2C155.6 32.1 155.8 32.2 155.9 32.4C156 32.6 155.9 32.8 155.7 32.9L147.7 35.9H147.6Z" fill="#171717"/>
<g id="Group_3">
<path id="Path_9" d="M149.2 15.1C147.1 17.2 143.8 17.2 141.8 15.1C142.3 13 144.3 11.8 146.4 12.2C147.8 12.6 148.9 13.7 149.2 15.1Z" fill="#C98877"/>
<path id="Shape_4" d="M145.5 17.1C145.4 17.1 145.4 17 145.5 17.1C144 17.1 142.6 16.5 141.6 15.4C141.5 15.3 141.5 15.2 141.5 15.1C142 12.8 144.2 11.5 146.5 11.9C148.1 12.4 149.3 13.6 149.6 15.1C149.6 15.2 149.6 15.4 149.5 15.4C148.4 16.5 147 17.1 145.5 17.1ZM142.2 15C143.1 15.8 144.2 16.3 145.4 16.3C146.7 16.3 147.8 15.8 148.8 15C148.5 13.8 147.5 12.9 146.3 12.6C144.5 12.2 142.7 13.2 142.2 15Z" fill="#171717"/>
</g>
<g id="Group_4">
<path id="Rectangle" d="M153.5 27.5H136.5V39.2H153.5V27.5Z" fill="white"/>
<path id="Shape_5" d="M153.5 39.6H136.5C136.3 39.6 136.1 39.4 136.1 39.2V27.5C136.1 27.3 136.3 27.1 136.5 27.1H153.5C153.7 27.1 153.9 27.3 153.9 27.5V39.2C153.9 39.4 153.7 39.6 153.5 39.6ZM136.9 38.8H153.1V27.8H136.9V38.8Z" fill="#171717"/>
</g>
<g id="Group_5">
<path id="Oval" d="M145 35.4C146.105 35.4 147 34.5046 147 33.4C147 32.2954 146.105 31.4 145 31.4C143.895 31.4 143 32.2954 143 33.4C143 34.5046 143.895 35.4 145 35.4Z" fill="white"/>
<path id="Shape_6" d="M145 35.8C143.7 35.8 142.6 34.7 142.6 33.4C142.6 32.1 143.7 31 145 31C146.3 31 147.4 32.1 147.4 33.4C147.4 34.7 146.3 35.8 145 35.8ZM145 31.8C144.1 31.8 143.4 32.5 143.4 33.4C143.4 34.3 144.1 35 145 35C145.9 35 146.6 34.3 146.6 33.4C146.6 32.5 145.9 31.8 145 31.8Z" fill="#171717"/>
</g>
<g id="Group_6">
<path id="Path_10" d="M131.1 37.5C131.7 35.4 133.8 34.2 135.8 34.8C135.9 34.8 136.1 34.9 136.2 34.9L150.8 40.3C151.6 40.6 152.1 41.5 151.9 42.3C151.7 43.1 150.9 43.6 150.1 43.5L134.6 42.2C132.5 42.1 130.8 40.2 131 38.1C131 37.9 131.1 37.7 131.1 37.5Z" fill="#D6C0CE"/>
<path id="Shape_7" d="M150.3 43.9C150.2 43.9 150.1 43.9 150 43.9L134.5 42.6C133.4 42.5 132.3 42 131.6 41.1C130.8 40.2 130.5 39.1 130.6 38C130.6 37.9 130.6 37.8 130.7 37.6C130.7 37.5 130.7 37.4 130.7 37.4V37.3C131 36.2 131.8 35.2 132.8 34.7C133.7 34.2 134.8 34.1 135.9 34.4C136 34.4 136.1 34.4 136.2 34.5H136.3H136.4L151 39.9C152 40.3 152.6 41.4 152.3 42.3C152 43.3 151.2 43.9 150.3 43.9ZM131.5 37.6C131.5 37.7 131.5 37.8 131.4 37.9C131.4 38 131.4 38.1 131.4 38.1C131.3 39 131.6 39.9 132.2 40.6C132.8 41.3 133.7 41.8 134.6 41.8L150.1 43.1C150.8 43.2 151.4 42.8 151.5 42.2C151.7 41.6 151.3 40.9 150.6 40.6L136 35.2C135.9 35.2 135.8 35.2 135.8 35.1H135.7C134.8 34.8 133.9 34.9 133.1 35.4C132.4 35.9 131.7 36.6 131.5 37.6Z" fill="#171717"/>
</g>
<g id="Group_7">
<path id="Path_11" d="M140.6 42.9C139.2 43 137.7 42.9 136.3 42.9C135.5 42.8 133.5 42.5 133.7 43.9C133.8 44.2 133.9 44.5 134.1 44.8C134.4 45.3 134.8 45.8 135.3 46.1C135.9 46.4 136.6 46.6 137.2 46.5C138.9 46.4 140.6 46.2 142.3 45.8" fill="#EAE0D3"/>
<path id="Path_12" d="M136.9 46.9C136.4 46.9 135.8 46.7 135.2 46.4C134.7 46.1 134.2 45.6 133.8 45C133.6 44.7 133.5 44.3 133.4 44C133.3 43.4 133.5 43.1 133.7 42.9C134.3 42.3 135.6 42.4 136.3 42.5C136.8 42.5 137.3 42.5 137.8 42.5C138.8 42.5 139.7 42.5 140.6 42.5C140.8 42.5 141 42.6 141 42.8C141 43 140.9 43.2 140.7 43.2C139.7 43.3 138.7 43.2 137.8 43.2C137.3 43.2 136.9 43.2 136.4 43.2H136.3C135.8 43.1 134.6 43 134.3 43.4C134.2 43.5 134.2 43.6 134.2 43.8C134.3 44 134.4 44.3 134.5 44.5C134.8 45.1 135.2 45.5 135.6 45.7C136.2 46 136.8 46.1 137.2 46.1C139.1 46 140.8 45.8 142.3 45.4C142.5 45.4 142.7 45.5 142.8 45.7C142.8 45.9 142.7 46.1 142.5 46.2C141 46.6 139.3 46.8 137.3 46.9C137.1 46.9 137 46.9 136.9 46.9Z" fill="#171717"/>
</g>
<g id="Group_8">
<path id="Path_13" d="M159.6 37.4C158.8 35.4 156.5 34.5 154.6 35.3C154.5 35.4 154.3 35.4 154.2 35.5L140.5 42.7C139.7 43.1 139.4 44 139.7 44.8C140 45.6 140.9 46 141.7 45.8L156.8 42.5C158.9 42.1 160.2 40 159.8 37.9C159.7 37.7 159.7 37.6 159.6 37.4Z" fill="#D6C0CE"/>
<path id="Shape_8" d="M141.3 46.2C140.5 46.2 139.7 45.7 139.4 44.9C139 43.9 139.4 42.8 140.4 42.3L154.1 35.1C154.2 35 154.3 35 154.4 35C154.4 35 154.5 34.9 154.6 34.9C155.6 34.5 156.8 34.5 157.8 34.9C158.8 35.3 159.6 36.1 160.1 37.2C160.2 37.3 160.2 37.4 160.2 37.5C160.2 37.6 160.2 37.6 160.3 37.7V37.8C160.5 38.9 160.3 40.1 159.7 41C159.1 42 158.1 42.6 157 42.8L141.9 46.1C141.6 46.2 141.4 46.2 141.3 46.2ZM154.8 35.6C154.7 35.7 154.6 35.7 154.5 35.7L154.4 35.8L140.7 43C140.1 43.3 139.8 44 140.1 44.6C140.3 45.2 141 45.5 141.7 45.4L156.8 42.1C157.7 41.9 158.5 41.4 159 40.6C159.5 39.8 159.7 38.9 159.5 38C159.5 37.9 159.4 37.8 159.4 37.8C159.4 37.7 159.4 37.7 159.3 37.6C159 36.7 158.3 36.1 157.4 35.7C156.6 35.3 155.6 35.3 154.8 35.6Z" fill="#171717"/>
</g>
</g>
<g id="girl_studies">
<path id="Shape_9" d="M223.8 161.6C191.4 161.6 165 135.2 165 102.8C165 70.4 191.4 44 223.8 44C256.2 44 282.6 70.4 282.6 102.8C282.6 135.2 256.2 161.6 223.8 161.6ZM223.8 44.8C191.8 44.8 165.8 70.8 165.8 102.8C165.8 134.8 191.8 160.8 223.8 160.8C255.8 160.8 281.8 134.8 281.8 102.8C281.8 70.8 255.8 44.8 223.8 44.8Z" fill="#171717"/>
<path id="Path_14" d="M193.8 134C193.6 134 193.4 133.8 193.4 133.6V106.6C193.4 106.4 193.6 106.2 193.8 106.2H222.1C222.3 106.2 222.5 106.4 222.5 106.6C222.5 106.8 222.3 107 222.1 107H194.2V133.6C194.2 133.8 194 134 193.8 134Z" fill="#171717"/>
<g id="Group_9">
<path id="Rectangle_2" d="M227.9 85.4H196.7V100.7H227.9V85.4Z" fill="#D6C0CE"/>
<path id="Shape_10" d="M227.9 101.1H196.7C196.5 101.1 196.3 100.9 196.3 100.7V85.4C196.3 85.2 196.5 85 196.7 85H227.9C228.1 85 228.3 85.2 228.3 85.4V100.7C228.3 100.9 228.1 101.1 227.9 101.1ZM197.1 100.3H227.6V85.8H197.1V100.3Z" fill="#171717"/>
</g>
<g id="Group_10">
<path id="Rectangle_3" d="M214.3 100.6H210.4V106.5H214.3V100.6Z" fill="#D6C0CE"/>
<path id="Shape_11" d="M214.3 106.9H210.4C210.2 106.9 210 106.7 210 106.5V100.6C210 100.4 210.2 100.2 210.4 100.2H214.3C214.5 100.2 214.7 100.4 214.7 100.6V106.5C214.7 106.7 214.5 106.9 214.3 106.9ZM210.8 106.1H213.9V101H210.8V106.1Z" fill="#171717"/>
</g>
<g id="Group_11">
<path id="Rectangle_4" d="M213.1 88H200.1V95.2H213.1V88Z" fill="#D6C0CE"/>
<path id="Shape_12" d="M213.1 95.6H200.1C199.9 95.6 199.7 95.4 199.7 95.2V88C199.7 87.8 199.9 87.6 200.1 87.6H213.1C213.3 87.6 213.5 87.8 213.5 88V95.2C213.5 95.4 213.3 95.6 213.1 95.6ZM200.5 94.8H212.7V88.3H200.5V94.8Z" fill="#171717"/>
</g>
<path id="Path_15" d="M225 89.7H216.7C216.5 89.7 216.3 89.5 216.3 89.3C216.3 89.1 216.5 88.9 216.7 88.9H225C225.2 88.9 225.4 89.1 225.4 89.3C225.4 89.5 225.2 89.7 225 89.7Z" fill="#171717"/>
<path id="Path_16" d="M225 92.1H216.7C216.5 92.1 216.3 91.9 216.3 91.7C216.3 91.5 216.5 91.3 216.7 91.3H225C225.2 91.3 225.4 91.5 225.4 91.7C225.4 91.9 225.2 92.1 225 92.1Z" fill="#171717"/>
<path id="Path_17" d="M225 94.6H216.7C216.5 94.6 216.3 94.4 216.3 94.2C216.3 94 216.5 93.8 216.7 93.8H225C225.2 93.8 225.4 94 225.4 94.2C225.4 94.4 225.2 94.6 225 94.6Z" fill="#171717"/>
<g id="Group_12">
<path id="Path_18" d="M210 95.3H203.2C203.2 93.4 204.7 91.9 206.6 91.9C208.5 91.9 210 93.4 210 95.3Z" fill="white"/>
<path id="Shape_13" d="M210 95.7H203.2C203 95.7 202.8 95.5 202.8 95.3C202.8 93.2 204.5 91.5 206.6 91.5C208.7 91.5 210.4 93.2 210.4 95.3C210.4 95.5 210.2 95.7 210 95.7ZM203.6 94.9H209.6C209.4 93.4 208.2 92.3 206.6 92.3C205 92.3 203.8 93.4 203.6 94.9Z" fill="#171717"/>
</g>
<g id="Group_13">
<path id="Oval_2" d="M206.6 92.4C207.428 92.4 208.1 91.7284 208.1 90.9C208.1 90.0716 207.428 89.4 206.6 89.4C205.772 89.4 205.1 90.0716 205.1 90.9C205.1 91.7284 205.772 92.4 206.6 92.4Z" fill="white"/>
<path id="Shape_14" d="M206.6 92.8C205.6 92.8 204.7 92 204.7 90.9C204.7 89.8 205.5 89 206.6 89C207.7 89 208.5 89.8 208.5 90.9C208.5 92 207.6 92.8 206.6 92.8ZM206.6 89.8C206 89.8 205.5 90.3 205.5 90.9C205.5 91.5 206 92 206.6 92C207.2 92 207.7 91.5 207.7 90.9C207.7 90.3 207.2 89.8 206.6 89.8Z" fill="#171717"/>
</g>
<g id="Group_14">
<path id="Path_19" d="M245.5 114.6C245.4 109.3 244.8 104 243.7 98.8C243.1 95.9 241.8 93.2 238.9 92.2C237.4 91.7 235.9 91.6 234.3 91.8C233 91.9 231.7 92.2 230.4 92.7C227.5 93.8 226.5 95.8 225.3 98.6C223.6 102.5 222 107 220.7 111" fill="#FF8766"/>
<path id="Path_20" d="M245.5 115C245.3 115 245.1 114.8 245.1 114.6C245 109.3 244.4 104 243.3 98.9C242.6 95.5 241.1 93.4 238.7 92.6C237.3 92.1 235.9 92 234.3 92.2C233 92.3 231.7 92.6 230.5 93.1C227.8 94.1 226.8 95.9 225.6 98.8C224.1 102.2 222.6 106.4 221 111.2C220.9 111.4 220.7 111.5 220.5 111.4C220.3 111.3 220.2 111.1 220.3 110.9C221.9 106.1 223.4 101.9 224.9 98.5C226.2 95.6 227.2 93.5 230.2 92.4C231.5 91.9 232.9 91.6 234.2 91.5C235.9 91.3 237.5 91.4 238.9 91.9C241.5 92.8 243.2 95.1 243.9 98.8C245 104 245.6 109.3 245.7 114.7C245.9 114.8 245.7 115 245.5 115Z" fill="#171717"/>
</g>
<g id="Group_15">
<path id="Rectangle_5" d="M247.7 94.8H230.9V121H247.7V94.8Z" fill="#EDDFE8"/>
<path id="Shape_15" d="M247.7 121.4H230.9C230.7 121.4 230.5 121.2 230.5 121V94.8C230.5 94.6 230.7 94.4 230.9 94.4H247.7C247.9 94.4 248.1 94.6 248.1 94.8V121C248.1 121.2 247.9 121.4 247.7 121.4ZM231.3 120.6H247.3V95.1H231.3V120.6Z" fill="#171717"/>
</g>
<g id="Group_16">
<path id="Oval_3" d="M235.6 91.7C238.969 91.7 241.7 88.9689 241.7 85.6C241.7 82.2311 238.969 79.5 235.6 79.5C232.231 79.5 229.5 82.2311 229.5 85.6C229.5 88.9689 232.231 91.7 235.6 91.7Z" fill="#EAE0D3"/>
<path id="Shape_16" d="M235.6 92.1C232 92.1 229.1 89.2 229.1 85.6C229.1 82 232 79.1 235.6 79.1C239.2 79.1 242.1 82 242.1 85.6C242.1 89.2 239.2 92.1 235.6 92.1ZM235.6 79.9C232.4 79.9 229.9 82.5 229.9 85.6C229.9 88.8 232.5 91.3 235.6 91.3C238.8 91.3 241.3 88.7 241.3 85.6C241.3 82.4 238.8 79.9 235.6 79.9Z" fill="#171717"/>
</g>
<path id="Path_21" d="M230.9 147.8C230.7 147.8 230.5 147.6 230.5 147.4V121C230.5 120.8 230.7 120.6 230.9 120.6C231.1 120.6 231.3 120.8 231.3 121V147.4C231.3 147.6 231.1 147.8 230.9 147.8Z" fill="#171717"/>
<path id="Path_22" d="M247.7 147.8C247.5 147.8 247.3 147.6 247.3 147.4V121C247.3 120.8 247.5 120.6 247.7 120.6C247.9 120.6 248.1 120.8 248.1 121V147.4C248.1 147.6 247.9 147.8 247.7 147.8Z" fill="#171717"/>
<g id="Group_17">
<path id="Path_23" d="M230.9 110C225.9 109.5 220.9 110.1 216.2 111.7C214.9 112.1 213.8 112.9 213 114C212.6 114.8 212.8 132.6 215.2 140.2C215.3 141.2 216.2 141.8 217.2 141.7C217.3 141.7 217.4 141.7 217.4 141.6C218.4 141.6 222.4 141 222.8 140.9C223.1 140.9 223.4 140.7 223.6 140.5C223.7 140.3 223.8 140 223.8 139.8C223.9 138.1 223.8 136.5 223.8 134.8C223.8 130.2 224 125.7 223.8 121.2" fill="#EDDFE8"/>
<path id="Path_24" d="M217 142.1C215.9 142.1 215 141.3 214.9 140.2C212.6 132.9 212.2 114.9 212.7 113.8C213.6 112.6 214.8 111.7 216.1 111.3C220.9 109.7 225.9 109.1 230.9 109.6C231.1 109.6 231.3 109.8 231.2 110C231.2 110.2 231 110.4 230.8 110.3C225.9 109.8 221 110.4 216.3 112C215.1 112.4 214 113.1 213.3 114.2C213 115.2 213.2 132.7 215.6 140.1C215.7 140.5 215.8 140.9 216.1 141.1C216.4 141.3 216.8 141.4 217.2 141.4C217.3 141.3 217.4 141.3 217.5 141.3C218.5 141.3 222.5 140.7 222.8 140.6C223 140.6 223.2 140.5 223.4 140.3C223.5 140.1 223.5 139.9 223.5 139.8C223.6 138.7 223.5 137.6 223.5 136.5C223.5 135.9 223.5 135.4 223.5 134.8C223.5 133.3 223.5 131.7 223.5 130.2C223.5 127.2 223.6 124.2 223.5 121.2C223.5 121 223.7 120.8 223.9 120.8C224.2 120.8 224.3 121 224.3 121.2C224.4 124.2 224.4 127.3 224.3 130.2C224.3 131.7 224.3 133.2 224.3 134.8C224.3 135.4 224.3 135.9 224.3 136.5C224.3 137.6 224.3 138.7 224.3 139.8C224.3 140.1 224.2 140.4 224.1 140.6C224.1 140.6 224.1 140.7 224 140.7C223.8 140.9 223.4 141.2 222.9 141.2C222.6 141.3 219 141.8 217.7 141.9C217.6 142 217.5 142 217.3 142C217.1 142.1 217 142.1 217 142.1Z" fill="#171717"/>
</g>
<path id="Path_25" d="M231 121.6H215.5C215.3 121.6 215.1 121.4 215.1 121.2C215.1 121 215.3 120.8 215.5 120.8H231C231.2 120.8 231.4 121 231.4 121.2C231.4 121.4 231.2 121.6 231 121.6Z" fill="#171717"/>
<path id="Path_26" d="M215.5 148C215.3 148 215.1 147.8 215.1 147.6V121.2C215.1 121 215.3 120.8 215.5 120.8C215.7 120.8 215.9 121 215.9 121.2V147.6C215.9 147.8 215.7 148 215.5 148Z" fill="#171717"/>
<g id="Group_18">
<path id="Rectangle_6" d="M201.5 71.9H190.9V77.8H201.5V71.9Z" fill="#D6C0CE"/>
<path id="Shape_17" d="M201.5 78.2H190.9C190.7 78.2 190.5 78 190.5 77.8V71.9C190.5 71.7 190.7 71.5 190.9 71.5H201.5C201.7 71.5 201.9 71.7 201.9 71.9V77.8C201.9 78 201.7 78.2 201.5 78.2ZM191.3 77.4H201.1V72.3H191.3V77.4Z" fill="#171717"/>
</g>
<g id="Group_19">
<path id="Rectangle_7" d="M206.7 63.6H198.6V68.1H206.7V63.6Z" fill="#D6C0CE"/>
<path id="Shape_18" d="M206.7 68.5H198.6C198.4 68.5 198.2 68.3 198.2 68.1V63.6C198.2 63.4 198.4 63.2 198.6 63.2H206.7C206.9 63.2 207.1 63.4 207.1 63.6V68.1C207.1 68.3 206.9 68.5 206.7 68.5ZM199 67.7H206.4V64H199V67.7Z" fill="#171717"/>
</g>
<path id="Path_27" d="M229 140.5C229 140.5 228.9 140.5 229 140.5C228.7 140.4 228.6 140.2 228.6 140C229.6 135.9 230.4 132.1 231.3 128C231.8 125.7 232.3 123.3 232.9 120.9C232.9 120.7 233.1 120.6 233.3 120.6C233.5 120.6 233.6 120.8 233.6 121C233 123.4 232.5 125.8 232 128.1C231.1 132.2 230.3 136 229.3 140.1C229.3 140.4 229.2 140.5 229 140.5Z" fill="#171717"/>
<path id="Path_28" d="M224.9 141.2C224.5 141.2 224 141.2 223.5 141.1C223.3 141.1 223.1 140.9 223.2 140.7C223.2 140.5 223.4 140.4 223.6 140.4C225.4 140.6 227.1 140.4 228.7 139.7C228.9 139.6 229.1 139.7 229.2 139.9C229.3 140.1 229.2 140.3 229 140.4C227.7 141 226.4 141.2 224.9 141.2Z" fill="#171717"/>
<g id="Group_20">
<path id="Path_29" d="M231.4 81.5C232.3 81.8 232.6 82.6 232.8 83.5C233 84.4 233 85.3 233 86.3C233.1 87.4 233.4 88.5 234 89.4C234.6 90.4 235.6 91 236.7 91.1C237.5 91.2 238.3 91 239 90.6C241.9 89.1 242.9 85.5 241.4 82.6C240.7 81.3 239.5 80.3 238.1 79.8C235.8 79.2 233.2 79.9 231.4 81.5Z" fill="#C98877"/>
<path id="Shape_19" d="M237.1 91.5C236.9 91.5 236.8 91.5 236.6 91.5C235.4 91.4 234.3 90.7 233.6 89.6C233 88.7 232.7 87.6 232.5 86.3C232.5 85.3 232.5 84.4 232.3 83.5C232.1 82.6 231.8 82 231.1 81.8C231 81.8 230.9 81.7 230.9 81.5C230.9 81.4 230.9 81.2 231 81.1C232.9 79.4 235.7 78.7 238 79.3C239.5 79.8 240.8 80.9 241.5 82.3C242.3 83.8 242.4 85.5 242 87.1C241.5 88.7 240.4 90 239 90.8C238.5 91.3 237.8 91.5 237.1 91.5ZM232.1 81.4C232.8 81.9 233 82.6 233.2 83.4C233.4 84.3 233.4 85.3 233.4 86.3C233.5 87.4 233.8 88.4 234.3 89.2C234.8 90.1 235.7 90.6 236.7 90.7C237.4 90.8 238.1 90.6 238.8 90.2C240.1 89.5 241.1 88.4 241.5 86.9C241.9 85.5 241.8 84 241.1 82.7C240.5 81.5 239.3 80.6 238 80.1C236 79.7 233.8 80.1 232.1 81.4Z" fill="#171717"/>
</g>
<g id="Group_21">
<path id="Path_30" d="M251.3 82.9L239.3 84.3C239.3 84.3 249.2 74.9 250.8 75.1C253 75.3 254.6 77.3 254.4 79.5C254.3 81.1 253 82.5 251.3 82.9Z" fill="#C98877"/>
<path id="Shape_20" d="M239.3 84.7C239.2 84.7 239 84.6 239 84.5C238.9 84.4 239 84.2 239.1 84.1C241.4 81.9 249 74.8 250.8 74.8C250.8 74.8 250.8 74.8 250.9 74.8C253.3 75 255 77.2 254.8 79.6C254.7 81.3 253.3 82.9 251.4 83.3L239.3 84.7ZM250.7 75.5C249.8 75.5 244.9 79.6 240.3 83.8L251.2 82.5C252.7 82.1 253.9 80.8 254 79.4C254.2 77.4 252.7 75.7 250.7 75.5C250.7 75.5 250.8 75.5 250.7 75.5Z" fill="#171717"/>
</g>
<g id="Group_22">
<path id="Oval_4" d="M221.675 76.9128C222.827 73.4547 220.958 69.717 217.5 68.5645C214.042 67.4119 210.305 69.2809 209.152 72.739C207.999 76.197 209.868 79.9347 213.327 81.0873C216.785 82.2399 220.522 80.3709 221.675 76.9128Z" fill="#79C9A9"/>
<path id="Shape_21" d="M215.5 81.8C215.1 81.8 214.7 81.8 214.4 81.7C212.6 81.4 210.9 80.4 209.9 78.9C208.8 77.4 208.4 75.5 208.7 73.7C209 71.9 210 70.2 211.5 69.2C213 68.1 214.9 67.7 216.7 68C220.5 68.6 223.1 72.2 222.5 76C222.2 77.8 221.2 79.5 219.7 80.5C218.3 81.3 216.9 81.8 215.5 81.8ZM215.4 68.6C214.1 68.6 212.8 69 211.8 69.8C210.5 70.8 209.6 72.2 209.3 73.9C209 75.5 209.4 77.2 210.4 78.5C211.4 79.8 212.8 80.7 214.5 81C216.1 81.3 217.8 80.9 219.1 79.9C220.4 78.9 221.3 77.5 221.6 75.8C222.1 72.4 219.8 69.2 216.5 68.7C216.1 68.6 215.8 68.6 215.4 68.6Z" fill="#171717"/>
</g>
<path id="Path_31" d="M220.5 78.7C219.7 78.6 219.2 78.1 219 77.6C218.7 76.9 218.8 76.2 219.3 75.7L219.5 75.5C219.7 75.3 219.8 75.2 219.8 75.1C219.7 75 219.7 74.9 219.6 74.9C219.1 74.5 218.9 74.5 218.7 74.6C218.6 74.7 218.5 74.9 218.4 75.1C218.3 75.3 218.3 75.5 218.2 75.6C217.9 76.1 217.4 76.4 216.8 76.4C216.2 76.2 215.7 76 215.4 75.5C215.2 75.3 215.2 75.1 215.2 75C215.2 74.9 215.2 74.6 215.4 74.4C216.2 73.1 217 71.9 217.9 70.7C218 70.6 218 70.6 218 70.6C218.1 70.5 218.2 70.3 218.4 70.2C219.1 69.7 220.1 70.3 220.9 70.8C221 70.9 221.2 71 221.3 71C221.5 71.1 221.5 71.3 221.4 71.5C221.3 71.7 221.1 71.7 220.9 71.6C220.8 71.5 220.6 71.4 220.5 71.3C219.9 71 219.2 70.5 218.8 70.7C218.7 70.8 218.6 70.8 218.6 70.9C218.6 71 218.5 71 218.5 71C217.7 72.1 216.9 73.2 216.1 74.6V74.7C216.3 75.1 216.6 75.2 217 75.3C217.2 75.3 217.5 75.2 217.7 74.9C217.8 74.8 217.8 74.7 217.8 74.5C217.9 74.2 218 73.7 218.4 73.5C219 73.2 219.6 73.5 220 73.8C220.3 73.9 220.4 74.2 220.5 74.4C220.5 74.5 220.5 74.5 220.5 74.6C220.5 75.1 220.2 75.4 219.9 75.6L219.8 75.7C219.4 76.1 219.6 76.6 219.7 76.8C219.9 77.2 220.3 77.4 220.6 77.5C220.8 77.5 220.9 77.7 220.9 77.9C220.8 78.6 220.7 78.7 220.5 78.7Z" fill="#171717"/>
<path id="Shape_22" d="M215.6 71.9C215.5 71.9 215.4 71.9 215.3 71.8C214.9 71.6 214.8 71.1 214.9 70.8C214.9 70.5 215 70.2 215.1 69.9C215.2 69.5 215.5 69.2 215.8 69.1C216 69 216.4 68.9 216.7 69.1C216.9 69.2 217 69.4 217 69.6C217 69.8 217 70.1 216.7 70.5C216.6 70.6 216.6 70.7 216.6 70.9C216.6 71 216.6 71.2 216.5 71.4V71.5C216.3 71.7 216 71.9 215.6 71.9ZM215.6 71.2C215.7 71.2 215.8 71.2 215.8 71.1C215.8 71 215.8 71 215.8 70.9C215.8 70.7 215.8 70.4 216 70.2C216.1 70 216.1 69.9 216.1 69.8C216.1 69.8 216.1 69.8 216 69.8C215.9 69.8 215.8 69.9 215.7 70.2C215.6 70.5 215.5 70.7 215.5 71C215.7 71 215.7 71 215.6 71.2C215.6 71.1 215.6 71.1 215.6 71.2Z" fill="#171717"/>
<path id="Path_32" d="M214.5 81.5C214.4 81.5 214.3 81.5 214.2 81.4C213.9 81.1 213.7 80.7 213.4 80.1C213.1 79.5 212.6 78.5 212.2 78.4C212.1 78.4 211.9 78.4 211.7 78.5L211.5 78.6C210.8 78.8 210 78.6 209.5 78.1C209 77.6 208.9 76.7 209.2 76C209.3 75.8 209.6 75.6 209.8 75.4C210.1 75.2 210.3 74.9 210.4 74.7V74.4C210.4 73.8 210.7 73.4 211 73C211.1 72.8 211.2 72.7 211.3 72.5C211.3 72.5 211.3 72.4 211.4 72.4C211.4 72.4 211.3 72.3 211 72.2C210.6 72.1 210.2 72.1 209.8 72.2C209.6 72.2 209.4 72.1 209.4 71.9C209.4 71.7 209.5 71.5 209.7 71.5C210.2 71.4 210.7 71.4 211.2 71.5C211.6 71.6 211.9 71.8 212.1 72.2V72.3C212.1 72.4 212.1 72.6 211.9 72.8C211.8 73 211.7 73.2 211.5 73.4C211.3 73.8 211 74.1 211 74.4V74.8C210.9 75.4 210.5 75.8 210.2 76.1C210 76.2 209.9 76.4 209.8 76.5C209.6 76.8 209.7 77.4 209.9 77.6C210.2 77.9 210.7 78.1 211.1 77.9L211.3 77.8C211.5 77.7 211.7 77.6 212.1 77.6C212.9 77.7 213.4 78.7 213.9 79.7C214.1 80.2 214.4 80.6 214.5 80.8C214.6 80.9 214.6 81.2 214.5 81.3C214.7 81.4 214.6 81.5 214.5 81.5Z" fill="#171717"/>
<path id="Path_33" d="M212.4 70.5C212.1 70.5 211.7 70.4 211.4 70.2C211.2 70.1 211.2 69.9 211.3 69.7C211.4 69.5 211.6 69.5 211.8 69.6C212.2 69.8 212.7 69.8 213.1 69.5C213.5 69.2 213.9 68.8 214.2 68.3C214.3 68.1 214.5 68.1 214.7 68.2C214.9 68.3 214.9 68.5 214.8 68.7C214.4 69.4 214 69.8 213.5 70.1C213.2 70.4 212.8 70.5 212.4 70.5Z" fill="#171717"/>
<g id="Group_23">
<path id="Path_34" d="M225 57.4V61.3L221.9 66.7H230L226.8 61.3V57.4H225Z" fill="white"/>
<path id="Shape_23" d="M230 67.1H221.9C221.8 67.1 221.6 67 221.6 66.9C221.5 66.8 221.5 66.6 221.6 66.5L224.6 61.2V57.4C224.6 57.2 224.8 57 225 57H226.8C227 57 227.2 57.2 227.2 57.4V61.2L230.3 66.5C230.4 66.6 230.4 66.8 230.3 66.9C230.3 67 230.1 67.1 230 67.1ZM222.5 66.3H229.3L226.4 61.5C226.4 61.4 226.3 61.4 226.3 61.3V57.8H225.3V61.3C225.3 61.4 225.3 61.4 225.3 61.5L222.5 66.3Z" fill="#171717"/>
</g>
<path id="Path_35" d="M226.3 110.2H226.2C226 110.1 225.9 109.9 226 109.7L228.7 102.2C228.8 102 229 101.9 229.2 102C229.4 102.1 229.5 102.3 229.4 102.5L226.7 110C226.6 110.1 226.5 110.2 226.3 110.2Z" fill="#171717"/>
<path id="Path_36" d="M219.8 147.7C218.4 147.7 217.1 147.4 215.9 146.8C214.4 146.3 212.4 145.5 212.2 144.2C212.1 143.8 212.2 143.4 212.5 143C213.4 141.8 215.8 141.3 216.6 141.2C216.8 141.2 217 141.3 217 141.5C217 141.7 216.9 141.9 216.7 141.9C215.8 142 213.8 142.6 213.1 143.4C212.9 143.6 212.9 143.8 212.9 144C213 144.7 214.2 145.4 216.1 146C217.6 146.8 219.4 147 221.2 146.7C221.7 146.6 222.3 146.2 222.5 145.7C222.6 145.3 222.7 144.7 222.6 144C222.6 143.6 222.5 143.1 222.5 142.6C222.4 142 222.4 141.4 222.3 141C222.3 140.8 222.4 140.6 222.6 140.6C222.8 140.6 223 140.7 223 140.9C223.1 141.3 223.1 141.9 223.2 142.5C223.2 143 223.3 143.5 223.3 143.9C223.4 144.3 223.5 145.2 223.2 146C222.8 146.8 222.1 147.3 221.3 147.5C220.9 147.7 220.4 147.7 219.8 147.7Z" fill="#171717"/>
<path id="Path_37" d="M218.3 144.2C218 144.2 217.9 144 217.9 143.8L218.2 142C218.2 141.8 218.4 141.7 218.6 141.7C218.8 141.7 218.9 141.9 218.9 142.1L218.6 143.9C218.6 144 218.5 144.2 218.3 144.2Z" fill="#171717"/>
<path id="Shape_24" d="M225.6 146.7C224.8 146.7 224 146.5 223.3 146.2C223.1 146.1 223 145.9 223.1 145.7C223.2 145.5 223.4 145.4 223.6 145.5C224.6 146 225.9 146.1 227.1 145.7C227.5 145.6 227.8 145.3 227.9 144.9C227.9 144.7 227.9 144.5 227.8 144.3L227.1 141.1C227.1 140.9 227.2 140.7 227.4 140.7C227.6 140.7 227.8 140.8 227.8 141L228.5 144.2C228.6 144.5 228.6 144.8 228.6 145.1V145.2C228.4 145.8 227.9 146.3 227.3 146.5C226.8 146.6 226.2 146.7 225.6 146.7Z" fill="#171717"/>
<g id="Group_24">
<path id="Path_38" d="M226.7 108.7C225.9 110.3 226 112.2 227 113.7C228 115 229.3 116.1 230.8 116.8C230.7 113.8 231 111.1 230.9 107.9" fill="#FF8766"/>
<path id="Path_39" d="M230.8 117.2C230.7 117.2 230.7 117.2 230.6 117.2C229.1 116.5 227.7 115.4 226.7 114C225.6 112.4 225.5 110.3 226.4 108.6C226.5 108.4 226.7 108.3 226.9 108.4C227.1 108.5 227.2 108.7 227.1 108.9C226.4 110.4 226.5 112.2 227.4 113.5C228.3 114.6 229.3 115.5 230.5 116.2C230.5 114.9 230.5 113.7 230.6 112.5C230.6 111.1 230.7 109.6 230.7 108C230.7 107.8 230.9 107.6 231.1 107.6C231.3 107.6 231.5 107.8 231.5 108C231.6 109.6 231.5 111.1 231.4 112.6C231.3 114.1 231.3 115.4 231.4 116.9C231.4 117 231.3 117.2 231.2 117.2C230.9 117.2 230.9 117.2 230.8 117.2Z" fill="#171717"/>
</g>
<path id="Path_40" d="M219.4 121.3H219.3C217.3 120.7 215.9 118.9 215.6 116.7C215.6 116.5 215.7 116.3 215.9 116.3C216.1 116.3 216.3 116.4 216.3 116.6C216.5 118.5 217.7 120 219.4 120.6C219.6 120.7 219.7 120.9 219.6 121.1C219.7 121.2 219.6 121.3 219.4 121.3Z" fill="#171717"/>
</g>
<g id="boy_studies">
<path id="Shape_25" d="M68.9 147C31.2 147 0.5 116.3 0.5 78.6C0.5 40.9 31.2 10.2 68.9 10.2C106.6 10.2 137.3 40.9 137.3 78.6C137.3 116.3 106.6 147 68.9 147ZM68.9 11C31.6 11 1.3 41.3 1.3 78.6C1.3 115.9 31.6 146.2 68.9 146.2C106.2 146.2 136.5 115.9 136.5 78.6C136.5 41.3 106.2 11 68.9 11Z" fill="#171717"/>
<path id="Path_41" d="M48.6 60.8C40.9 62.9 33.4 71.1 35.2 78.6C36.3 83.4 47.5 84.9 61.3 80.5C63.1 81.9 66.2 83.6 67.7 80.8C68.3 81.5 69.1 82.1 69.9 82.6C70 82.7 70.2 82.8 70.4 82.8C70.6 82.8 70.7 82.7 70.8 82.5C70.8 82.4 70.7 82.3 70.6 82.2C68.3 79.9 66 77.7 62.6 77.3C59.5 77 56.5 77.9 53.5 77.7C50.3 77.6 47.1 77.1 44.1 76.2C44.2 75.6 44.1 76.2 47.1 71.5" fill="#C98877"/>
<path id="Path_42" d="M49.1 60.5C49.3 61.8 50.2 62.9 51.5 63.4C52.7 63.8 54.1 64 55.4 63.8C56.2 68.4 56.8 73 57.4 77.6C51.9 78.1 49.6 77.9 43.6 76.2C43.8 75.8 44.1 75.3 44.4 75C44.5 74.8 44.6 74.8 44.4 74.7C44.2 74.6 43.9 74.4 43.8 74.3L41.2 72.7C40.7 72.4 40.2 72.3 39.8 72C39.4 71.7 38.9 71.4 38.4 71.2C37.8 71 37.2 70.6 36.7 70.3V70.2C37.2 69.4 37.7 68.7 38.2 68C38.6 67.3 39.1 66.7 39.7 66.2C40.9 65.1 42.3 64 43.7 63.2C45.5 62 47.3 61.2 49.1 60.5Z" fill="white"/>
<g id="Group_25">
<path id="Oval_5" d="M54.1 63.7C57.4689 63.7 60.2 60.9689 60.2 57.6C60.2 54.2311 57.4689 51.5 54.1 51.5C50.7311 51.5 48 54.2311 48 57.6C48 60.9689 50.7311 63.7 54.1 63.7Z" fill="#C98877"/>
<path id="Shape_26" d="M54.1 64.1C50.5 64.1 47.6 61.2 47.6 57.6C47.6 54 50.5 51.1 54.1 51.1C57.7 51.1 60.6 54 60.6 57.6C60.6 61.2 57.7 64.1 54.1 64.1ZM54.1 51.9C50.9 51.9 48.4 54.5 48.4 57.6C48.4 60.7 51 63.3 54.1 63.3C57.2 63.3 59.8 60.7 59.8 57.6C59.8 54.5 57.3 51.9 54.1 51.9Z" fill="#171717"/>
</g>
<path id="Path_43" d="M90 84.4H65.9C65.7 84.4 65.5 84.2 65.5 84C65.5 83.8 65.7 83.6 65.9 83.6H89.8L99.8 61.3C99.9 61.1 100.1 61 100.3 61.1C100.5 61.2 100.6 61.4 100.5 61.6L90.4 84.1C90.3 84.3 90.1 84.4 90 84.4Z" fill="#171717"/>
<path id="Path_44" d="M36.7 117C36.5 117 36.3 116.8 36.3 116.6V93.6C36.3 93.4 36.5 93.2 36.7 93.2C36.9 93.2 37.1 93.4 37.1 93.6V116.6C37.1 116.8 36.9 117 36.7 117Z" fill="#171717"/>
<path id="Path_45" d="M29.2 121.6C29.1 121.6 29 121.5 28.9 121.4C28.8 121.2 28.8 121 29 120.9L36.5 116.3C36.7 116.2 36.9 116.2 37 116.4C37.1 116.6 37.1 116.8 36.9 116.9L29.4 121.5C29.3 121.6 29.3 121.6 29.2 121.6Z" fill="#171717"/>
<path id="Path_46" d="M44.6 121.6C44.5 121.6 44.5 121.6 44.4 121.5L36.7 116.9C36.5 116.8 36.5 116.6 36.6 116.4C36.7 116.2 36.9 116.2 37.1 116.3L44.8 120.9C45 121 45 121.2 44.9 121.4C44.9 121.5 44.7 121.6 44.6 121.6Z" fill="#171717"/>
<path id="Path_47" d="M36.7 121.6C36.5 121.6 36.3 121.4 36.3 121.2V116.6C36.3 116.4 36.5 116.2 36.7 116.2C36.9 116.2 37.1 116.4 37.1 116.6V121.2C37.1 121.4 36.9 121.6 36.7 121.6Z" fill="#171717"/>
<g id="Group_26">
<path id="Path_48" d="M90.3 65.7V71.9L85 69.5H80.7C78.6 69.4 77.1 67.6 77.2 65.6C77.3 63.7 78.8 62.2 80.7 62.1H86.5C88.6 62 90.3 63.6 90.3 65.7Z" fill="white"/>
<path id="Shape_27" d="M90.3 72.3C90.2 72.3 90.2 72.3 90.1 72.3L84.9 69.9H80.7C79.6 69.8 78.6 69.4 77.9 68.6C77.2 67.8 76.8 66.7 76.8 65.6C76.9 63.5 78.6 61.9 80.7 61.7H86.5C87.6 61.6 88.7 62 89.5 62.8C90.3 63.5 90.7 64.6 90.7 65.7V71.9C90.7 72 90.6 72.1 90.5 72.2C90.4 72.3 90.4 72.3 90.3 72.3ZM85 69.1C85.1 69.1 85.1 69.1 85.2 69.1L90 71.3V65.7C90 64.8 89.6 64 89 63.4C88.4 62.8 87.5 62.5 86.6 62.5H80.8C79.1 62.6 77.8 63.9 77.7 65.6C77.7 66.5 78 67.4 78.6 68C79.2 68.6 80 69 80.9 69.1H85Z" fill="#171717"/>
</g>
<g id="Group_27">
<path id="Path_49" d="M79.3 38.1V44.3L84.6 41.9H88.9C91 41.8 92.5 40 92.4 38C92.3 36.1 90.8 34.6 88.9 34.5H83C80.9 34.3 79.3 36 79.3 38.1Z" fill="white"/>
<path id="Shape_28" d="M79.3 44.7C79.2 44.7 79.2 44.7 79.1 44.6C79 44.5 78.9 44.4 78.9 44.3V38.1C78.9 36.9 79.4 35.8 80.2 35C81 34.3 82 34 83 34.1H88.9C91 34.2 92.7 35.9 92.8 38C92.9 39.1 92.5 40.2 91.7 41C91 41.8 90 42.3 88.9 42.3H84.7L79.5 44.7C79.4 44.7 79.4 44.7 79.3 44.7ZM82.7 34.9C82 34.9 81.3 35.2 80.7 35.6C80 36.2 79.6 37.1 79.6 38.1V43.7L84.4 41.5C84.4 41.5 84.5 41.5 84.6 41.5H88.9C89.8 41.5 90.6 41.1 91.2 40.4C91.8 39.7 92.1 38.9 92.1 38C92 36.3 90.7 34.9 89 34.9H83.1C82.9 34.9 82.8 34.9 82.7 34.9Z" fill="#171717"/>
</g>
<path id="Shape_29" d="M85 59H69.8C69.6 59 69.4 58.8 69.4 58.6V47.6C69.4 47.4 69.6 47.2 69.8 47.2H85C85.2 47.2 85.4 47.4 85.4 47.6V58.6C85.4 58.8 85.2 59 85 59ZM70.2 58.2H84.7V48H70.2V58.2Z" fill="#171717"/>
<path id="Shape_30" d="M82.2 59H72.8C72.7 59 72.6 59 72.5 58.9C72.4 58.8 72.4 58.7 72.4 58.6C72.5 57.2 73 56 74 55.1C75 54.2 76.3 53.7 77.7 53.8C80.3 53.9 82.3 55.9 82.6 58.6C82.6 58.7 82.6 58.8 82.5 58.9C82.4 58.9 82.3 59 82.2 59ZM73.2 58.2H81.8C81.5 56.1 79.8 54.5 77.7 54.4C75.4 54.4 73.5 56 73.2 58.2Z" fill="#171717"/>
<g id="Group_28">
<path id="Oval_6" d="M77.4 53.7C78.3941 53.7 79.2 52.8941 79.2 51.9C79.2 50.9059 78.3941 50.1 77.4 50.1C76.4059 50.1 75.6 50.9059 75.6 51.9C75.6 52.8941 76.4059 53.7 77.4 53.7Z" fill="#EDDFE8"/>
<path id="Shape_31" d="M77.4 54.1C76.2 54.1 75.2 53.1 75.2 51.9C75.2 50.7 76.2 49.7 77.4 49.7C78.6 49.7 79.6 50.7 79.6 51.9C79.6 53.1 78.6 54.1 77.4 54.1ZM77.4 50.5C76.6 50.5 76 51.1 76 51.9C76 52.7 76.6 53.3 77.4 53.3C78.2 53.3 78.8 52.7 78.8 51.9C78.8 51.1 78.2 50.5 77.4 50.5Z" fill="#171717"/>
</g>
<path id="Path_50" d="M82.4 114.4C82.7 113.3 83.3 112.2 84.2 111.4C84.8 112 85.7 112.3 86.5 112C86.9 111.8 87.2 111.6 87.5 111.2C87 111.8 87.6 113.9 87.4 114.7C87.1 116.1 86.6 117.5 85.9 118.8C84.7 117.6 83.4 116.5 82.1 115.4C82.1 115.1 82.2 114.7 82.4 114.4Z" fill="#C98877"/>
<g id="Group_29">
<path id="Path_51" d="M65.2 103.4C68.3 106.8 76.6 115.8 79.8 119.2C82.5 115.5 84.7 111.4 86.3 107C84.8 105.1 71.6 94.3 69.3 93.6" fill="#FF673D"/>
<path id="Path_52" d="M79.8 119.6C79.7 119.6 79.6 119.6 79.5 119.5C76.3 116.1 68 107.1 64.9 103.7C64.8 103.5 64.8 103.3 64.9 103.2C65.1 103.1 65.3 103.1 65.4 103.2C68.4 106.5 76.3 115 79.7 118.7C82.2 115.1 84.3 111.3 85.8 107.2C83.8 105 71.3 94.8 69.1 94.1C68.9 94 68.8 93.8 68.9 93.6C69 93.4 69.2 93.3 69.4 93.4C71.8 94.1 85 104.9 86.6 106.9C86.7 107 86.7 107.1 86.7 107.3C85.1 111.7 82.9 115.8 80.2 119.6C80 119.5 79.9 119.6 79.8 119.6Z" fill="#171717"/>
</g>
<g id="Group_30">
<path id="Path_53" d="M93.5 109.6C93.8 109.9 94 110.2 94.2 110.6L86.1 118.8L87.9 109.2C89.9 108.2 92.1 108.3 93.5 109.6Z" fill="#D6C0CE"/>
<path id="Shape_32" d="M86.1 119.2C86 119.2 86 119.2 85.9 119.2C85.8 119.1 85.7 119 85.7 118.8L87.5 109.2C87.5 109.1 87.6 109 87.7 108.9C89.9 107.8 92.2 108 93.7 109.4C94 109.7 94.2 110 94.5 110.5C94.6 110.6 94.5 110.8 94.4 110.9L86.3 119.1C86.3 119.1 86.2 119.2 86.1 119.2ZM88.2 109.5L86.7 117.7L93.7 110.6C93.6 110.3 93.4 110.1 93.2 109.9C92 108.8 90.1 108.6 88.2 109.5Z" fill="#171717"/>
</g>
<path id="Path_54" d="M85.8 119.2C85.7 119.2 85.6 119.2 85.6 119.1C84.4 118.2 83.2 117.2 82 116.1C81.8 116 81.8 115.7 82 115.6C82.1 115.4 82.4 115.4 82.5 115.6C83.7 116.7 84.9 117.7 86.1 118.6C86.3 118.7 86.3 119 86.2 119.1C86 119.1 85.9 119.2 85.8 119.2Z" fill="#171717"/>
<path id="Path_55" d="M85.9 112.6C85.2 112.5 84.7 112.3 84.1 111.9C83.9 111.8 83.9 111.6 84 111.4C84.1 111.2 84.3 111.2 84.5 111.3C85 111.6 85.4 111.8 85.9 111.8C86.5 111.7 87 111.3 87.3 110.8C87.4 110.6 87.6 110.5 87.8 110.6C88 110.7 88.1 110.9 88 111.1C87.6 111.9 86.9 112.4 85.9 112.6Z" fill="#171717"/>
<path id="Path_56" d="M50.4 111.8C51.3 112.6 52.2 113.4 53 114.4C51.9 115.4 51.5 116.9 51.9 118.3C51.1 117.8 50.2 117.5 49.2 117.2C48.5 116.9 46.9 116.4 46.6 115.7C45.9 114.4 49.6 112.4 50.4 111.8Z" fill="#C98877"/>
<g id="Group_31">
<path id="Path_57" d="M41.2 82.7C40 82.6 38.8 82.2 37.7 81.5C37.5 81.4 37.2 81.3 37 81.2C36.3 81.8 35.8 82.6 35.6 83.5C35.3 84.4 35.2 85.4 35.2 86.3C35.3 88.3 36.3 90.1 37.9 91.2C40.6 93.1 44.4 92.6 47.6 92.7C51.9 92.7 54.1 92.6 58.3 92.8C53.7 99.5 51.8 101.5 47.1 108.3L56.7 117.9C62.2 108.6 72 94.3 69.1 90.2C65.5 85.1 57.1 83.8 49 83.1" fill="#FF8766"/>
<path id="Path_58" d="M56.7 118.3C56.6 118.3 56.5 118.3 56.4 118.2L46.8 108.6C46.7 108.5 46.7 108.3 46.8 108.1C49.1 104.7 50.8 102.5 52.4 100.4C54 98.3 55.5 96.2 57.6 93.2C54.9 93.1 53 93.1 50.7 93.1C49.8 93.1 48.8 93.1 47.6 93.1C47 93.1 46.3 93.1 45.6 93.1C42.8 93.1 39.9 93.1 37.7 91.5C36 90.3 34.9 88.4 34.8 86.3C34.8 85.2 34.9 84.2 35.2 83.4C35.4 82.5 35.9 81.6 36.7 80.9C36.8 80.8 37 80.8 37.1 80.8C37.2 80.8 37.3 80.9 37.4 80.9C37.5 81 37.7 81 37.8 81.1C38.9 81.8 40 82.2 41.2 82.3C41.4 82.3 41.6 82.5 41.5 82.7C41.5 82.9 41.3 83.1 41.1 83C39.8 82.9 38.6 82.5 37.4 81.7C37.3 81.7 37.2 81.6 37.1 81.6C37.1 81.6 37 81.6 37 81.5C36.4 82 36.1 82.7 35.9 83.4C35.6 84.2 35.5 85.1 35.5 86.1C35.6 88 36.5 89.6 38 90.7C40.1 92.2 42.8 92.1 45.5 92.1C46.2 92.1 46.8 92.1 47.5 92.1C48.6 92.1 49.6 92.1 50.6 92.1C53.1 92.1 55.1 92.1 58.2 92.2C58.3 92.2 58.5 92.3 58.5 92.4C58.6 92.5 58.6 92.7 58.5 92.8C56.2 96.2 54.6 98.4 52.9 100.6C51.3 102.7 49.7 104.8 47.5 108L56.5 117C57.3 115.6 58.2 114.1 59.2 112.6C64.5 104 71 93.4 68.7 90.1C65.2 85.2 57.1 83.9 48.9 83.2C48.7 83.2 48.5 83 48.6 82.8C48.6 82.6 48.8 82.4 49 82.5C57.4 83.2 65.7 84.6 69.4 89.8C72 93.4 65.6 103.9 59.9 113.1C58.9 114.8 57.9 116.4 57 117.9C57 118.2 56.9 118.3 56.7 118.3Z" fill="#171717"/>
</g>
<path id="Path_59" d="M104.1 124.3C103.9 124.3 103.7 124.1 103.7 123.9V86H56.1V123.9C56.1 124.1 55.9 124.3 55.7 124.3C55.5 124.3 55.3 124.1 55.3 123.9V85.6C55.3 85.4 55.5 85.2 55.7 85.2H104C104.2 85.2 104.4 85.4 104.4 85.6V123.9C104.5 124.1 104.3 124.3 104.1 124.3Z" fill="#171717"/>
<path id="Path_60" d="M46.1 83.5C42.5 83.5 39.4 82.9 37.4 81.7C36 80.9 35.1 79.9 34.9 78.7C33.1 71 40.7 62.6 48.6 60.5C48.8 60.4 49 60.6 49.1 60.8C49.2 61 49 61.2 48.8 61.3C41.3 63.3 33.9 71.4 35.7 78.7C35.9 79.7 36.7 80.6 37.9 81.3C41.6 83.4 50.2 83.9 61.3 80.4C61.4 80.4 61.5 80.4 61.6 80.5C62.6 81.3 64.4 82.5 65.9 82.2C66.5 82.1 67 81.7 67.4 80.9C67.5 80.8 67.6 80.7 67.7 80.7C67.8 80.7 67.9 80.7 68 80.8C68.5 81.4 69.2 82 70.1 82.5C70.2 82.5 70.2 82.6 70.3 82.6C68.3 80.6 65.9 78.3 62.6 77.9C61 77.7 59.4 77.9 57.9 78.1C56.5 78.3 55 78.4 53.5 78.3C50.2 78.2 47 77.7 44 76.8C43.8 76.7 43.7 76.6 43.7 76.4C43.8 76 43.8 76 44.2 75.4C44.6 74.9 45.3 73.9 46.8 71.5C46.9 71.3 47.1 71.3 47.3 71.4C47.5 71.5 47.5 71.7 47.4 71.9C45.9 74.3 45.2 75.3 44.8 75.8C44.7 76 44.6 76.1 44.6 76.1C47.4 76.9 50.4 77.4 53.5 77.5C54.9 77.6 56.3 77.4 57.7 77.3C59.3 77.1 60.9 77 62.6 77.1C66.2 77.5 68.7 80 70.8 82.1C70.9 82.2 71.1 82.4 71.1 82.7C71.1 82.8 71.1 82.8 71.1 82.9C71 83 70.8 83.4 70.4 83.4C70.1 83.4 69.8 83.3 69.6 83.1C68.9 82.6 68.2 82.2 67.7 81.7C67.2 82.3 66.7 82.7 65.9 82.9C64.2 83.3 62.2 82 61.1 81.2C55.8 82.6 50.5 83.5 46.1 83.5Z" fill="#171717"/>
<g id="Group_32">
<path id="Rectangle_8" d="M102.8 77.2H98.9V85.3H102.8V77.2Z" fill="#79C9A9"/>
<path id="Shape_33" d="M102.8 85.7H98.9C98.7 85.7 98.5 85.5 98.5 85.3V77.2C98.5 77 98.7 76.8 98.9 76.8H102.8C103 76.8 103.2 77 103.2 77.2V85.3C103.2 85.5 103 85.7 102.8 85.7ZM99.3 84.9H102.4V77.6H99.3V84.9Z" fill="#171717"/>
</g>
<path id="Path_61" d="M100.9 77C100.7 77 100.5 76.8 100.5 76.6V74H99.3C99.1 74 98.9 73.8 98.9 73.6C98.9 73.4 99.1 73.2 99.3 73.2H100.9C101.1 73.2 101.3 73.4 101.3 73.6V76.6C101.3 76.8 101.1 77 100.9 77Z" fill="#171717"/>
<g id="Group_33">
<path id="Rectangle_9" d="M45.4 92.9H28.3V95.8H45.4V92.9Z" fill="#D6C0CE"/>
<path id="Shape_34" d="M45.4 96.2H28.3C28.1 96.2 27.9 96 27.9 95.8V92.9C27.9 92.7 28.1 92.5 28.3 92.5H45.4C45.6 92.5 45.8 92.7 45.8 92.9V95.8C45.8 96 45.6 96.2 45.4 96.2ZM28.7 95.4H45V93.3H28.6V95.4H28.7Z" fill="#171717"/>
</g>
<g id="Group_34">
<path id="Path_62" d="M28.6 96C28.3 96 28 95.9 27.8 95.6C26.2 93.6 25.3 91.2 25.3 88.7C25.4 83.5 30 81.3 30.4 76.3C30.5 74.4 30.1 71.7 27.3 68.1C27 67.6 27.1 67 27.5 66.7C27.7 66.6 27.8 66.5 28 66.5C28.3 66.5 28.5 66.6 28.7 66.8C32.5 71 33.1 74.2 32.9 76.2C32.6 81.2 27.9 83.4 27.8 88.6C27.8 90.7 28.4 92.7 29.6 94.4C29.9 94.9 29.7 95.5 29.2 95.8C29.1 95.9 28.9 95.9 28.8 95.9L28.6 96Z" fill="#D6C0CE"/>
<path id="Shape_35" d="M28.6 96.4C28.1 96.4 27.7 96.2 27.5 95.8C25.8 93.7 24.9 91.2 24.9 88.7C25 85.9 26.3 83.9 27.5 82C28.7 80.2 29.8 78.6 30 76.2C30.1 73.6 29.1 71 27 68.3C26.6 67.6 26.7 66.8 27.3 66.4L27.5 66.3C27.6 66.2 27.8 66.1 28 66.1C28.4 66.1 28.7 66.2 29 66.5C32.9 70.8 33.5 74.2 33.3 76.2C33.1 78.7 31.9 80.6 30.7 82.4C29.4 84.3 28.2 86.1 28.2 88.6C28.2 90.6 28.8 92.6 29.9 94.2C30.1 94.6 30.2 94.9 30.1 95.3C30 95.6 29.8 95.9 29.4 96.1C29.3 96.2 29 96.3 28.9 96.3C28.8 96.3 28.7 96.4 28.6 96.4ZM28 66.9C28 66.9 27.9 66.9 27.8 67C27.8 67 27.7 67.1 27.6 67.1C27.4 67.3 27.4 67.6 27.6 68C29.9 70.9 30.9 73.7 30.8 76.4C30.6 78.9 29.4 80.8 28.2 82.5C26.9 84.4 25.7 86.2 25.7 88.8C25.7 91.2 26.5 93.5 28.1 95.5C28.2 95.6 28.2 95.7 28.4 95.7C28.5 95.7 28.5 95.6 28.6 95.6H28.8C28.8 95.6 28.9 95.6 29 95.6C29.2 95.5 29.3 95.3 29.4 95.2C29.4 95.1 29.5 94.9 29.3 94.7C28.1 93 27.4 90.9 27.4 88.7C27.5 85.9 28.8 84 30 82.1C31.2 80.3 32.3 78.6 32.5 76.3C32.7 74.4 32.1 71.3 28.4 67.2C28.3 66.9 28.2 66.9 28 66.9Z" fill="#171717"/>
</g>
<g id="Group_35">
<path id="Path_63" d="M48.4 59.3C49.6 56.7 52.5 55.3 55.3 56C56.9 56.4 58.4 57.4 60 57C60.1 55.6 59.6 54.2 58.6 53.2C57.6 52.2 56.3 51.6 55 51.4C53.5 51.1 52 51.4 50.8 52.3C50.1 52.9 49.5 53.5 49 54.3C48 55.7 47.9 57.6 48.5 59.2" fill="#EAE0D3"/>
<path id="Shape_36" d="M48.4 59.7C48.3 59.7 48.3 59.7 48.2 59.7C48 59.6 47.9 59.4 48 59.2C47.4 57.4 47.6 55.5 48.6 54.2C49.2 53.3 49.9 52.7 50.5 52.1C51.8 51.1 53.4 50.8 55 51.1C56.4 51.3 57.8 52 58.8 53C59.9 54.1 60.4 55.6 60.3 57.1C60.3 57.3 60.2 57.4 60 57.4C58.8 57.7 57.6 57.3 56.5 56.9C56 56.7 55.6 56.5 55.1 56.4C52.6 55.8 50 57 48.8 59.2C48.8 59.3 48.7 59.5 48.6 59.5C48.6 59.6 48.5 59.7 48.4 59.7ZM53.9 51.7C52.9 51.7 51.9 52 51 52.6C50.4 53.1 49.8 53.7 49.3 54.5C48.6 55.5 48.3 56.9 48.6 58.2C50.1 56.1 52.8 55 55.4 55.6C55.9 55.7 56.4 55.9 56.9 56.1C57.8 56.5 58.7 56.8 59.7 56.7C59.7 55.5 59.2 54.3 58.4 53.5C57.5 52.6 56.3 52 55 51.8C54.6 51.7 54.2 51.7 53.9 51.7Z" fill="#171717"/>
</g>
<g id="Group_36">
<path id="Oval_7" d="M29.1 124.4C29.9837 124.4 30.7 123.684 30.7 122.8C30.7 121.916 29.9837 121.2 29.1 121.2C28.2163 121.2 27.5 121.916 27.5 122.8C27.5 123.684 28.2163 124.4 29.1 124.4Z" fill="#EDDFE8"/>
<path id="Shape_37" d="M29.1 124.8C28 124.8 27.1 123.9 27.1 122.8C27.1 121.7 28 120.8 29.1 120.8C30.2 120.8 31.1 121.7 31.1 122.8C31.1 123.9 30.2 124.8 29.1 124.8ZM29.1 121.6C28.4 121.6 27.9 122.1 27.9 122.8C27.9 123.5 28.4 124 29.1 124C29.8 124 30.3 123.5 30.3 122.8C30.3 122.1 29.8 121.6 29.1 121.6Z" fill="#171717"/>
</g>
<g id="Group_37">
<path id="Oval_8" d="M36.7 124.4C37.5837 124.4 38.3 123.684 38.3 122.8C38.3 121.916 37.5837 121.2 36.7 121.2C35.8163 121.2 35.1 121.916 35.1 122.8C35.1 123.684 35.8163 124.4 36.7 124.4Z" fill="#EDDFE8"/>
<path id="Shape_38" d="M36.7 124.8C35.6 124.8 34.7 123.9 34.7 122.8C34.7 121.7 35.6 120.8 36.7 120.8C37.8 120.8 38.7 121.7 38.7 122.8C38.7 123.9 37.8 124.8 36.7 124.8ZM36.7 121.6C36 121.6 35.5 122.1 35.5 122.8C35.5 123.5 36 124 36.7 124C37.4 124 37.9 123.5 37.9 122.8C37.9 122.1 37.4 121.6 36.7 121.6Z" fill="#171717"/>
</g>
<g id="Group_38">
<path id="Oval_9" d="M44.7 124.4C45.5837 124.4 46.3 123.684 46.3 122.8C46.3 121.916 45.5837 121.2 44.7 121.2C43.8163 121.2 43.1 121.916 43.1 122.8C43.1 123.684 43.8163 124.4 44.7 124.4Z" fill="#EDDFE8"/>
<path id="Shape_39" d="M44.7 124.8C43.6 124.8 42.7 123.9 42.7 122.8C42.7 121.7 43.6 120.8 44.7 120.8C45.8 120.8 46.7 121.7 46.7 122.8C46.7 123.9 45.8 124.8 44.7 124.8ZM44.7 121.6C44 121.6 43.5 122.1 43.5 122.8C43.5 123.5 44 124 44.7 124C45.4 124 45.9 123.5 45.9 122.8C45.9 122.1 45.4 121.6 44.7 121.6Z" fill="#171717"/>
</g>
<g id="Group_39">
<path id="Path_64" d="M52.6 124.9C52.2 125.1 51.8 125.2 51.4 125.3L46.1 115.2L54.7 119.8C54.9 121.9 54.2 124 52.6 124.9Z" fill="#D6C0CE"/>
<path id="Shape_40" d="M51.4 125.7C51.3 125.7 51.1 125.6 51.1 125.5L45.8 115.4C45.7 115.3 45.8 115.1 45.9 115C46 114.9 46.2 114.9 46.3 114.9L54.9 119.5C55 119.6 55.1 119.7 55.1 119.8C55.3 122.2 54.4 124.4 52.8 125.3C52.3 125.5 51.9 125.6 51.4 125.7C51.4 125.7 51.5 125.7 51.4 125.7ZM47 116.1L51.6 124.9C51.9 124.8 52.2 124.7 52.4 124.6C53.7 123.9 54.5 122.1 54.3 120.1L47 116.1Z" fill="#171717"/>
</g>
<path id="Path_65" d="M46.1 115.5C46 115.5 45.9 115.5 45.8 115.4C45.7 115.2 45.7 115 45.8 114.9C46.4 114.4 47 113.9 47.6 113.4C48.4 112.8 49.2 112.2 49.9 111.6C50.1 111.5 50.3 111.5 50.4 111.6C50.5 111.8 50.5 112 50.4 112.1C49.7 112.7 48.9 113.3 48.1 113.9C47.5 114.4 46.8 114.9 46.3 115.4C46.3 115.4 46.2 115.5 46.1 115.5Z" fill="#171717"/>
<path id="Path_66" d="M51.8 118.3C51.6 118.3 51.5 118.2 51.4 118C51.2 116.6 51.7 115.3 52.8 114.3C53 114.2 53.2 114.2 53.3 114.3C53.4 114.5 53.4 114.7 53.3 114.8C52.4 115.6 51.9 116.7 52.1 117.9C52.2 118 52.1 118.2 51.8 118.3Z" fill="#171717"/>
<path id="Path_67" d="M57.3 77.8C57.1 77.8 56.9 77.6 56.9 77.4C56.7 73.3 56.3 69.5 55.6 65.9C55.5 65.2 55.4 64.5 55.1 63.9C55 63.7 55.1 63.5 55.3 63.4C55.5 63.3 55.7 63.4 55.8 63.6C56.1 64.3 56.2 65.1 56.3 65.8C57 69.4 57.4 73.2 57.6 77.3C57.7 77.6 57.5 77.8 57.3 77.8Z" fill="#171717"/>
<path id="Oval_10" d="M57.7698 59.8151C58.0269 59.3263 58.0373 58.8258 57.7929 58.6973C57.5485 58.5687 57.1419 58.8607 56.8848 59.3495C56.6276 59.8382 56.6173 60.3387 56.8617 60.4673C57.1061 60.5958 57.5126 60.3038 57.7698 59.8151Z" fill="#171717"/>
<path id="Path_68" d="M54 78.1H53.9C53.7 78 53.6 77.8 53.7 77.6C54.6 74.9 54.9 72.2 54.7 69.2C54.7 69 54.8 68.8 55 68.8C55.2 68.8 55.4 68.9 55.4 69.1C55.6 72.1 55.3 75 54.4 77.7C54.3 78 54.2 78.1 54 78.1Z" fill="#171717"/>
<path id="Path_69" d="M44.7 74.8C44.6 74.8 44.6 74.8 44.5 74.8L37.7 71.1C37.4 70.9 37 70.7 36.6 70.6C36.4 70.6 36.3 70.3 36.3 70.1C36.3 69.9 36.6 69.8 36.8 69.8C37.2 69.9 37.7 70.1 38.1 70.4L44.9 74.1C45.1 74.2 45.1 74.4 45.1 74.6C45 74.7 44.8 74.8 44.7 74.8Z" fill="#171717"/>
<path id="Path_70" d="M56.6 95.5C56.5 95.5 56.4 95.5 56.4 95.4C56.2 95.3 56.2 95 56.3 94.9L59.9 90.5C60 90.3 60.3 90.3 60.4 90.4C60.6 90.5 60.6 90.8 60.5 90.9L56.9 95.3C56.8 95.4 56.7 95.5 56.6 95.5Z" fill="#171717"/>
<path id="Path_71" d="M44.7 77C44.7 77 44.6 77 44.7 77C43.1 76.7 41.7 76.5 40.5 76.5C40.3 76.5 40.1 76.3 40.1 76.1C40.1 75.9 40.3 75.7 40.5 75.7C41.8 75.7 43.2 75.9 44.8 76.2C45 76.2 45.1 76.4 45.1 76.6C45 76.9 44.9 77 44.7 77Z" fill="#171717"/>
</g>
<g id="phone_bubble">
<path id="Shape_41" d="M201.5 37.5C194 37.5 187.9 31.4 187.9 23.9C187.9 16.4 194 10.3 201.5 10.3C209 10.3 215.1 16.4 215.1 23.9C215.1 31.4 209 37.5 201.5 37.5ZM201.5 11.1C194.4 11.1 188.7 16.9 188.7 23.9C188.7 30.9 194.5 36.7 201.5 36.7C208.5 36.7 214.3 30.9 214.3 23.9C214.3 16.9 208.6 11.1 201.5 11.1Z" fill="#171717"/>
<g id="Group_40">
<path id="Path_72" d="M195.3 19.3L200.6 16.2C201.2 15.9 201.9 16.1 202.3 16.7L208.1 26.9C208.4 27.5 208.2 28.2 207.6 28.6L202.3 31.7C201.7 32 201 31.8 200.6 31.2L194.8 21C194.5 20.4 194.7 19.7 195.3 19.3Z" fill="white"/>
<path id="Shape_42" d="M201.7 32.2C201.1 32.2 200.6 31.9 200.3 31.4L194.5 21.2C194.1 20.4 194.4 19.5 195.1 19L200.4 15.9C201.2 15.5 202.1 15.8 202.6 16.5L208.4 26.7C208.8 27.5 208.5 28.4 207.8 28.9L202.5 32C202.2 32.2 202 32.2 201.7 32.2ZM195.5 19.6C195.1 19.9 194.9 20.4 195.1 20.8L200.9 31C201.2 31.4 201.7 31.6 202.1 31.4L207.4 28.3C207.8 28 208 27.5 207.8 27.1L202 16.9C201.7 16.5 201.2 16.3 200.8 16.5L195.5 19.6Z" fill="#171717"/>
</g>
<path id="Path_73" d="M203.1 29.2C203 29.2 202.8 29.1 202.8 29C202.7 28.8 202.8 28.6 202.9 28.5L204.5 27.6C204.7 27.5 204.9 27.6 205 27.7C205.1 27.9 205 28.1 204.9 28.2L203.3 29.1C203.2 29.2 203.2 29.2 203.1 29.2Z" fill="#171717"/>
<path id="Path_74" d="M198 22.3C197.9 22.3 197.8 22.2 197.7 22.1C197.6 21.9 197.6 21.7 197.8 21.6L201.5 19.3C201.7 19.2 201.9 19.2 202 19.4C202.1 19.6 202.1 19.8 201.9 19.9L198.2 22.2C198.1 22.3 198.1 22.3 198 22.3Z" fill="#171717"/>
<path id="Path_75" d="M198.8 23.7C198.7 23.7 198.5 23.6 198.5 23.5C198.4 23.3 198.5 23.1 198.6 23L202.4 20.8C202.6 20.7 202.8 20.8 202.9 20.9C203 21.1 202.9 21.3 202.8 21.4L199 23.6C198.9 23.7 198.9 23.7 198.8 23.7Z" fill="#171717"/>
<path id="Path_76" d="M199.7 25.1C199.6 25.1 199.4 25 199.4 24.9C199.3 24.7 199.4 24.5 199.5 24.4L201.5 23.2C201.7 23.1 201.9 23.2 202 23.3C202.1 23.5 202 23.7 201.9 23.8L199.9 25C199.8 25.1 199.8 25.1 199.7 25.1Z" fill="#171717"/>
</g>
<g id="laptop_bubble">
<path id="Shape_43" d="M139.7 147.9C130.5 147.9 122.9 140.4 122.9 131.1C122.9 121.9 130.4 114.3 139.7 114.3C148.9 114.3 156.5 121.8 156.5 131.1C156.5 140.3 148.9 147.9 139.7 147.9ZM139.7 115.1C130.9 115.1 123.7 122.3 123.7 131.1C123.7 139.9 130.9 147.1 139.7 147.1C148.5 147.1 155.7 139.9 155.7 131.1C155.7 122.3 148.5 115.1 139.7 115.1Z" fill="#171717"/>
<g id="Group_41">
<path id="Rectangle_10" d="M146.9 133.8H127.8V136.6H146.9V133.8Z" fill="white"/>
<path id="Shape_44" d="M146.9 137H127.8C127.6 137 127.4 136.8 127.4 136.6V133.8C127.4 133.6 127.6 133.4 127.8 133.4H146.9C147.1 133.4 147.3 133.6 147.3 133.8V136.6C147.3 136.8 147.1 137 146.9 137ZM128.2 136.2H146.6V134.2H128.2V136.2Z" fill="#171717"/>
</g>
<g id="Group_42">
<path id="Path_77" d="M149.7 136.6H134.1L135.7 126.8H151.3L149.7 136.6Z" fill="white"/>
<path id="Shape_45" d="M149.7 137H134.1C134 137 133.9 137 133.8 136.9C133.7 136.8 133.7 136.7 133.7 136.6L135.3 126.8C135.3 126.6 135.5 126.5 135.7 126.5H151.3C151.4 126.5 151.5 126.5 151.6 126.6C151.7 126.7 151.7 126.8 151.7 126.9L150.1 136.7C150 136.8 149.9 137 149.7 137ZM134.5 136.2H149.3L150.8 127.2H136L134.5 136.2Z" fill="#171717"/>
</g>
<g id="Group_43">
<path id="Oval_11" d="M142.7 133.3C143.584 133.3 144.3 132.584 144.3 131.7C144.3 130.816 143.584 130.1 142.7 130.1C141.816 130.1 141.1 130.816 141.1 131.7C141.1 132.584 141.816 133.3 142.7 133.3Z" fill="white"/>
<path id="Shape_46" d="M142.7 133.7C141.6 133.7 140.7 132.8 140.7 131.7C140.7 130.6 141.6 129.7 142.7 129.7C143.8 129.7 144.7 130.6 144.7 131.7C144.7 132.8 143.8 133.7 142.7 133.7ZM142.7 130.5C142 130.5 141.5 131 141.5 131.7C141.5 132.4 142 132.9 142.7 132.9C143.4 132.9 143.9 132.4 143.9 131.7C143.9 131 143.4 130.5 142.7 130.5Z" fill="#171717"/>
</g>
</g>
</g>
</g>
</g>
</g>
</svg>
