<svg width="329" height="252" viewBox="0 0 339 172" fill="none" xmlns="http://www.w3.org/2000/svg">
<g id="hospital 3">
<g clip-path="url(#clip0)">
<g id="Page 1">
<g id="Artboard">
<g id="hospital">
<g id="hospital_2">
<path id="Path" d="M2.9 28.8C2.7 28.8 2.5 28.6 2.5 28.4C2.5 28.2 2.7 28 2.9 28L69.6 27.5L61.7 1.2H2.9C2.7 1.2 2.5 1 2.5 0.800002C2.5 0.600002 2.7 0.400002 2.9 0.400002H62C62.2 0.400002 62.3 0.500002 62.4 0.700002L70.5 27.7C70.5 27.8 70.5 27.9 70.4 28C70.3 28.1 70.2 28.2 70.1 28.2L2.9 28.8Z" fill="#171717"/>
<g id="Group">
<path id="Oval" d="M33.2 36.4C38.1706 36.4 42.2 32.3706 42.2 27.4C42.2 22.4294 38.1706 18.4 33.2 18.4C28.2294 18.4 24.2 22.4294 24.2 27.4C24.2 32.3706 28.2294 36.4 33.2 36.4Z" fill="#E1E9F7"/>
<path id="Shape" d="M33.2 36.8C28 36.8 23.8 32.6 23.8 27.4C23.8 22.2 28 18 33.2 18C38.4 18 42.6 22.2 42.6 27.4C42.6 32.6 38.4 36.8 33.2 36.8ZM33.2 18.8C28.4 18.8 24.6 22.7 24.6 27.4C24.6 32.1 28.5 36 33.2 36C37.9 36 41.8 32.1 41.8 27.4C41.8 22.7 38 18.8 33.2 18.8Z" fill="#171717"/>
</g>
<g id="Group_2">
<path id="Path_2" d="M38.6 25.9V28.9H34.8V32.8H31.8V28.9H27.8V25.9H31.8V22H34.8V25.9H38.6Z" fill="#FF8766"/>
<path id="Shape_2" d="M34.8 33.2H31.8C31.6 33.2 31.4 33 31.4 32.8V29.3H27.8C27.6 29.3 27.4 29.1 27.4 28.9V25.9C27.4 25.7 27.6 25.5 27.8 25.5H31.4V22C31.4 21.8 31.6 21.6 31.8 21.6H34.8C35 21.6 35.2 21.8 35.2 22V25.5H38.6C38.8 25.5 39 25.7 39 25.9V28.9C39 29.1 38.8 29.3 38.6 29.3H35.2V32.8C35.2 33 35 33.2 34.8 33.2ZM32.2 32.4H34.4V28.9C34.4 28.7 34.6 28.5 34.8 28.5H38.2V26.3H34.8C34.6 26.3 34.4 26.1 34.4 25.9V22.4H32.2V25.9C32.2 26.1 32 26.3 31.8 26.3H28.2V28.5H31.8C32 28.5 32.2 28.7 32.2 28.9V32.4Z" fill="#171717"/>
</g>
<path id="Path_3" d="M70.1 151.1H0.5C0.3 151.1 0.1 150.9 0.1 150.7C0.1 150.5 0.3 150.3 0.5 150.3H69.7V27.8C69.7 27.6 69.9 27.4 70.1 27.4C70.3 27.4 70.5 27.6 70.5 27.8V150.7C70.5 150.9 70.3 151.1 70.1 151.1Z" fill="#171717"/>
<g id="Group_3">
<path id="Rectangle" d="M16.1 81.7H7.2V103.3H16.1V81.7Z" fill="#C5D3ED"/>
<path id="Shape_3" d="M16.1 103.7H7.2C7 103.7 6.8 103.5 6.8 103.3V81.7C6.8 81.5 7 81.3 7.2 81.3H16.1C16.3 81.3 16.5 81.5 16.5 81.7V103.3C16.5 103.5 16.3 103.7 16.1 103.7ZM7.6 102.9H15.7V82.1H7.6V102.9Z" fill="#171717"/>
</g>
<g id="Group_4">
<path id="Rectangle_2" d="M37.7 81.7H28.8V103.3H37.7V81.7Z" fill="#C5D3ED"/>
<path id="Shape_4" d="M37.7 103.7H28.8C28.6 103.7 28.4 103.5 28.4 103.3V81.7C28.4 81.5 28.6 81.3 28.8 81.3H37.7C37.9 81.3 38.1 81.5 38.1 81.7V103.3C38.1 103.5 37.9 103.7 37.7 103.7ZM29.2 102.9H37.4V82.1H29.2V102.9Z" fill="#171717"/>
</g>
<g id="Group_5">
<path id="Rectangle_3" d="M59.2 81.7H50.3V103.3H59.2V81.7Z" fill="#E1E9F7"/>
<path id="Shape_5" d="M59.2 103.7H50.3C50.1 103.7 49.9 103.5 49.9 103.3V81.7C49.9 81.5 50.1 81.3 50.3 81.3H59.2C59.4 81.3 59.6 81.5 59.6 81.7V103.3C59.6 103.5 59.4 103.7 59.2 103.7ZM50.7 102.9H58.9V82.1H50.7V102.9Z" fill="#171717"/>
</g>
<g id="Group_6">
<path id="Rectangle_4" d="M16.1 49.4H7.2V71H16.1V49.4Z" fill="#E1E9F7"/>
<path id="Shape_6" d="M16.1 71.4H7.2C7 71.4 6.8 71.2 6.8 71V49.4C6.8 49.2 7 49 7.2 49H16.1C16.3 49 16.5 49.2 16.5 49.4V71C16.5 71.2 16.3 71.4 16.1 71.4ZM7.6 70.6H15.7V49.7H7.6V70.6Z" fill="#171717"/>
</g>
<g id="Group_7">
<path id="Rectangle_5" d="M37.7 49.4H28.8V71H37.7V49.4Z" fill="#C5D3ED"/>
<path id="Shape_7" d="M37.7 71.4H28.8C28.6 71.4 28.4 71.2 28.4 71V49.4C28.4 49.2 28.6 49 28.8 49H37.7C37.9 49 38.1 49.2 38.1 49.4V71C38.1 71.2 37.9 71.4 37.7 71.4ZM29.2 70.6H37.4V49.7H29.2V70.6Z" fill="#171717"/>
</g>
<g id="Group_8">
<path id="Rectangle_6" d="M59.2 49.4H50.3V71H59.2V49.4Z" fill="#C5D3ED"/>
<path id="Shape_8" d="M59.2 71.4H50.3C50.1 71.4 49.9 71.2 49.9 71V49.4C49.9 49.2 50.1 49 50.3 49H59.2C59.4 49 59.6 49.2 59.6 49.4V71C59.6 71.2 59.4 71.4 59.2 71.4ZM50.7 70.6H58.9V49.7H50.7V70.6Z" fill="#171717"/>
</g>
<g id="Group_9">
<path id="Rectangle_7" d="M16.1 112.4H7.2V134H16.1V112.4Z" fill="#E1E9F7"/>
<path id="Shape_9" d="M16.1 134.4H7.2C7 134.4 6.8 134.2 6.8 134V112.4C6.8 112.2 7 112 7.2 112H16.1C16.3 112 16.5 112.2 16.5 112.4V134C16.5 134.2 16.3 134.4 16.1 134.4ZM7.6 133.6H15.7V112.8H7.6V133.6Z" fill="#171717"/>
</g>
<g id="Group_10">
<path id="Rectangle_8" d="M37.7 112.4H28.8V134H37.7V112.4Z" fill="#E1E9F7"/>
<path id="Shape_10" d="M37.7 134.4H28.8C28.6 134.4 28.4 134.2 28.4 134V112.4C28.4 112.2 28.6 112 28.8 112H37.7C37.9 112 38.1 112.2 38.1 112.4V134C38.1 134.2 37.9 134.4 37.7 134.4ZM29.2 133.6H37.4V112.8H29.2V133.6Z" fill="#171717"/>
</g>
<g id="Group_11">
<path id="Rectangle_9" d="M59.2 112.4H50.3V134H59.2V112.4Z" fill="white"/>
<path id="Shape_11" d="M59.2 134.4H50.3C50.1 134.4 49.9 134.2 49.9 134V112.4C49.9 112.2 50.1 112 50.3 112H59.2C59.4 112 59.6 112.2 59.6 112.4V134C59.6 134.2 59.4 134.4 59.2 134.4ZM50.7 133.6H58.9V112.8H50.7V133.6Z" fill="#171717"/>
</g>
</g>
<g id="stack_of_boxes">
<g id="box_bottom">
<path id="Rectangle_10" d="M281.5 49.2H266.3V61.5H281.5V49.2Z" fill="#C5D3ED"/>
<path id="Shape_12" d="M281.5 61.9H266.3C266.1 61.9 265.9 61.7 265.9 61.5V49.2C265.9 49 266.1 48.8 266.3 48.8H281.5C281.7 48.8 281.9 49 281.9 49.2V61.5C281.9 61.7 281.7 61.9 281.5 61.9ZM266.7 61.1H281.2V49.6H266.7V61.1Z" fill="#171717"/>
</g>
<g id="box_middle">
<path id="Rectangle_11" d="M285 36.9H269.8V49.2H285V36.9Z" fill="#C5D3ED"/>
<path id="Shape_13" d="M285 49.6H269.8C269.6 49.6 269.4 49.4 269.4 49.2V36.9C269.4 36.7 269.6 36.5 269.8 36.5H285C285.2 36.5 285.4 36.7 285.4 36.9V49.2C285.4 49.4 285.2 49.6 285 49.6ZM270.2 48.8H284.7V37.2H270.2V48.8Z" fill="#171717"/>
</g>
<g id="box_top">
<path id="Rectangle_12" d="M283 24.7H267.8V37H283V24.7Z" fill="#E1E9F7"/>
<path id="Shape_14" d="M283 37.4H267.8C267.6 37.4 267.4 37.2 267.4 37V24.7C267.4 24.5 267.6 24.3 267.8 24.3H283C283.2 24.3 283.4 24.5 283.4 24.7V37C283.4 37.2 283.2 37.4 283 37.4ZM268.2 36.6H282.7V25.1H268.2V36.6Z" fill="#171717"/>
</g>
</g>
<g id="ground_down">
<path id="Path_4" d="M288.1 62.1H90.5C90.3 62.1 90.1 61.9 90.1 61.7C90.1 61.5 90.3 61.3 90.5 61.3H288.1C288.3 61.3 288.5 61.5 288.5 61.7C288.5 61.9 288.3 62.1 288.1 62.1Z" fill="#171717"/>
</g>
<g id="ground_up">
<path id="Path_5" d="M328.1 151.1H102.4C102.2 151.1 102 150.9 102 150.7C102 150.5 102.2 150.3 102.4 150.3H328.1C328.3 150.3 328.5 150.5 328.5 150.7C328.5 150.9 328.3 151.1 328.1 151.1Z" fill="#171717"/>
</g>
<g id="mask_box">
<g id="Group_12">
<path id="Rectangle_13" d="M207.2 45.7H187.6V61.6H207.2V45.7Z" fill="white"/>
<path id="Shape_15" d="M207.2 62H187.6C187.4 62 187.2 61.8 187.2 61.6V45.7C187.2 45.5 187.4 45.3 187.6 45.3H207.2C207.4 45.3 207.6 45.5 207.6 45.7V61.6C207.6 61.8 207.4 62 207.2 62ZM188 61.2H206.9V46.1H188V61.2Z" fill="#171717"/>
</g>
<path id="Path_6" d="M187.6 46.1C187.5 46.1 187.4 46 187.3 45.9L182.7 39.7C182.6 39.5 182.6 39.3 182.8 39.2C183 39.1 183.2 39.1 183.3 39.3L187.9 45.5C188 45.7 188 45.9 187.8 46C187.8 46.1 187.7 46.1 187.6 46.1Z" fill="#171717"/>
<path id="Path_7" d="M207.2 46.1H207.1C206.9 46 206.8 45.8 206.9 45.6L209.6 38.1C209.7 37.9 209.9 37.8 210.1 37.9C210.3 38 210.4 38.2 210.3 38.4L207.6 45.9C207.5 46 207.4 46.1 207.2 46.1Z" fill="#171717"/>
<path id="Path_8" d="M194.5 56.3C194.5 56.4 194.5 56.5 194.5 56.6C194.6 56.7 194.7 56.8 194.8 56.8C195.2 57.1 195.7 57.3 196.2 57.5C196.9 57.8 197.7 58 198.4 58.1C198.7 58.1 199 58.1 199.3 58C199.6 57.9 199.9 57.8 200.2 57.7C200.8 57.4 201.4 57 201.8 56.4C202.1 55.8 202.3 55.2 202.3 54.5C202.3 54.2 202.4 53.9 202.4 53.5C202.4 52.9 202.4 52.2 202.2 51.6C202 51.8 201.8 52 201.5 52.2C201 52.6 200.4 52.9 199.8 53.2C198.7 53.6 197.6 53.8 196.5 53.9C196.2 53.9 195.9 53.9 195.6 53.9C195.4 53.9 195 53.7 194.8 53.8C194.6 53.9 194.7 54.1 194.7 54.3L194.5 56.3Z" fill="#79C9A9"/>
<path id="Path_9" d="M199 53.7C199.9 53.5 200.8 53.1 201.6 52.5C201.8 52.4 202 52.2 202.1 52C202.2 51.7 202.1 51.5 202 51.2C201.8 51 201.6 50.8 201.4 50.7C201 50.4 200.5 50.2 200.1 50C199.6 49.8 199.1 49.5 199.1 50.1C198.9 51.4 199 52.6 199 53.7Z" fill="#79C9A9"/>
<path id="Path_10" d="M196.6 54.5C196 54.5 195.3 54.4 194.7 54.3C194.5 54.2 194.4 54 194.4 53.8C194.5 53.6 194.7 53.5 194.9 53.5C197.4 54.2 200.1 53.3 201.8 51.3C201.9 51.1 202.2 51.1 202.3 51.3C202.5 51.4 202.5 51.7 202.3 51.8C200.9 53.6 198.8 54.5 196.6 54.5Z" fill="#171717"/>
<path id="Path_11" d="M198.6 58.4C197.1 58.4 195.6 58 194.4 57.2C194.2 57.1 194.2 56.9 194.3 56.7C194.4 56.5 194.6 56.5 194.8 56.6C196.1 57.4 197.6 57.7 199.1 57.6C199.5 57.6 199.8 57.5 200.2 57.4C201.1 57.1 201.8 56.2 202 55.2C202.3 54 202.3 53 202 52C201.9 51.8 202.1 51.6 202.3 51.5C202.5 51.4 202.7 51.6 202.8 51.8C203.1 53 203.1 54.1 202.8 55.4C202.6 56.6 201.7 57.7 200.5 58.2C200 58.3 199.6 58.4 199.2 58.4C198.9 58.4 198.8 58.4 198.6 58.4Z" fill="#171717"/>
<path id="Path_12" d="M198.8 53.9C198.6 53.9 198.4 53.7 198.4 53.5V50C198.4 49.9 198.4 49.6 198.6 49.4C198.7 49.3 198.8 49.3 198.9 49.3H199.1C200.6 49.5 201.9 50.3 202.7 51.5C202.8 51.7 202.8 51.9 202.6 52C202.4 52.1 202.2 52.1 202.1 51.9C201.4 50.9 200.4 50.3 199.2 50.1V53.5C199.2 53.7 199 53.9 198.8 53.9Z" fill="#171717"/>
<path id="Path_13" d="M194.4 57.1C194.2 57.1 194 56.9 194 56.7L194.1 53.9C194.1 53.7 194.3 53.5 194.5 53.5C194.7 53.5 194.9 53.7 194.9 53.9L194.8 56.7C194.8 56.9 194.6 57.1 194.4 57.1Z" fill="#171717"/>
<path id="Path_14" d="M198.8 53.5C198.7 53.5 198.7 53.5 198.6 53.4C197.5 52.7 196.5 51.8 195.7 50.5C195.5 50 195.2 49.5 195.6 48.9C195.9 48.6 196.3 48.5 196.7 48.5H196.8C196.9 48.5 197.1 48.6 197.3 48.6C197.5 48.7 197.7 48.7 197.8 48.8C198 48.9 198.3 49 198.5 49.1C198.8 49.2 199 49.3 199.2 49.4C199.4 49.5 199.5 49.7 199.4 49.9C199.3 50.1 199.1 50.2 198.9 50.1C198.7 50 198.5 49.9 198.2 49.8C197.9 49.7 197.7 49.6 197.5 49.5C197.4 49.5 197.2 49.4 197.1 49.4C196.9 49.4 196.8 49.3 196.6 49.3C196.4 49.3 196.2 49.4 196.1 49.5C196 49.7 196.1 49.8 196.3 50.3C197 51.5 197.9 52.3 199 52.9C199.2 53 199.2 53.2 199.1 53.4C199.1 53.4 198.9 53.5 198.8 53.5Z" fill="#171717"/>
<path id="Path_15" d="M194.5 57.2C194.4 57.2 194.4 57.2 194.3 57.1C194.1 57 193.9 56.8 193.6 56.7C192.7 56.1 191.5 55.5 191.1 54.6C190.8 54.2 190.7 53.4 191 52.9C191 52.9 191 52.8 191.1 52.8C191.4 52.5 191.7 52.4 192.2 52.4H192.3L193.2 52.7C193.4 52.8 193.8 53 194.1 53.2C194.4 53.4 194.7 53.5 194.9 53.6C195.1 53.7 195.2 53.9 195.1 54.1C195 54.3 194.8 54.4 194.6 54.3C194.4 54.2 194.1 54 193.7 53.8C193.4 53.6 193.1 53.5 192.9 53.4L192.1 53.1C191.9 53.1 191.8 53.2 191.7 53.2C191.6 53.5 191.6 53.9 191.8 54.1C192.2 54.8 193.2 55.5 194.1 56C194.4 56.2 194.6 56.3 194.8 56.5C195 56.6 195 56.8 194.9 57C194.7 57.1 194.6 57.2 194.5 57.2Z" fill="#171717"/>
<path id="Path_16" d="M202.6 44.1H191.2C191 44.1 190.8 43.9 190.8 43.7C190.8 43.5 191 43.3 191.2 43.3H202.6C202.8 43.3 203 43.5 203 43.7C203 43.9 202.8 44.1 202.6 44.1Z" fill="#79C9A9"/>
<path id="Path_17" d="M202.6 42.4H191.2C191 42.4 190.8 42.2 190.8 42C190.8 41.8 191 41.6 191.2 41.6H202.6C202.8 41.6 203 41.8 203 42C203 42.2 202.8 42.4 202.6 42.4Z" fill="#79C9A9"/>
<path id="Path_18" d="M202.6 40.6H191.2C191 40.6 190.8 40.4 190.8 40.2C190.8 40 191 39.8 191.2 39.8H202.6C202.8 39.8 203 40 203 40.2C203 40.4 202.8 40.6 202.6 40.6Z" fill="#79C9A9"/>
</g>
<g id="delivery_boy">
<g id="Group_13">
<path id="Oval_2" d="M167.7 10.2C169.909 10.2 171.7 8.40914 171.7 6.2C171.7 3.99086 169.909 2.2 167.7 2.2C165.491 2.2 163.7 3.99086 163.7 6.2C163.7 8.40914 165.491 10.2 167.7 10.2Z" fill="#C98877"/>
<path id="Shape_16" d="M167.7 10.6C165.3 10.6 163.3 8.6 163.3 6.2C163.3 3.79999 165.3 1.8 167.7 1.8C170.1 1.8 172.1 3.79999 172.1 6.2C172.1 8.6 170.1 10.6 167.7 10.6ZM167.7 2.6C165.7 2.6 164.1 4.2 164.1 6.2C164.1 8.2 165.7 9.8 167.7 9.8C169.7 9.8 171.3 8.2 171.3 6.2C171.3 4.2 169.7 2.6 167.7 2.6Z" fill="#171717"/>
</g>
<path id="Path_19" d="M135.6 55.1C135.5 55.1 135.5 55.1 135.4 55.1L113.3 44.8C113.1 44.7 113 44.5 113.1 44.3C113.2 44.1 113.4 44 113.6 44.1L135.3 54.2L148.5 21.8C148.6 21.6 148.8 21.5 149 21.6L153.9 23.3C154.1 23.4 154.2 23.6 154.1 23.8C154 24 153.8 24.1 153.6 24L149 22.4L135.8 54.9C135.8 55 135.7 55.1 135.6 55.1C135.6 55.1 135.7 55.1 135.6 55.1Z" fill="#171717"/>
<path id="Shape_17" d="M134.5 61.5C133 61.5 131.7 60.3 131.7 58.7C131.7 57.1 132.9 55.9 134.5 55.9C136.1 55.9 137.3 57.1 137.3 58.7C137.3 60.3 136 61.5 134.5 61.5ZM134.5 56.7C133.4 56.7 132.5 57.6 132.5 58.7C132.5 59.8 133.4 60.7 134.5 60.7C135.6 60.7 136.5 59.8 136.5 58.7C136.5 57.6 135.6 56.7 134.5 56.7Z" fill="#171717"/>
<path id="Shape_18" d="M113.5 52.3C112 52.3 110.7 51.1 110.7 49.5C110.7 47.9 111.9 46.7 113.5 46.7C115.1 46.7 116.3 47.9 116.3 49.5C116.3 51.1 115 52.3 113.5 52.3ZM113.5 47.5C112.4 47.5 111.5 48.4 111.5 49.5C111.5 50.6 112.4 51.5 113.5 51.5C114.6 51.5 115.5 50.6 115.5 49.5C115.5 48.4 114.6 47.5 113.5 47.5Z" fill="#171717"/>
<g id="Group_14">
<path id="Rectangle_14" d="M122.185 25.8831L115.249 42.709L134.294 50.5596L141.23 33.7337L122.185 25.8831Z" fill="#C5D3ED"/>
<path id="Shape_19" d="M134.3 51H134.2L115.2 43.1C115.1 43.1 115 43 115 42.9C115 42.8 115 42.7 115 42.6L121.9 25.8C122 25.6 122.2 25.5 122.4 25.6L141.4 33.5C141.5 33.5 141.6 33.6 141.6 33.7C141.6 33.8 141.6 33.9 141.6 34L134.7 50.8C134.6 50.9 134.5 51 134.3 51ZM115.8 42.5L134.2 50.1L140.8 34L122.4 26.4L115.8 42.5Z" fill="#171717"/>
</g>
<path id="Path_20" d="M132.1 33.6C131.9 33.6 131.8 33.5 131.8 33.4L131.2 31.9L129.5 32.5C129.4 32.5 129.2 32.5 129.1 32.4C129 32.3 129 32.1 129 32L130.1 29.3C130.2 29.1 130.4 29 130.6 29.1C130.8 29.2 130.9 29.4 130.8 29.6L130 31.5L131.2 31.1C131.4 31 131.6 31.1 131.7 31.3L132.1 32.3L133.1 30.4C133.2 30.2 133.4 30.1 133.6 30.2C133.8 30.3 133.9 30.5 133.8 30.7L132.4 33.3C132.4 33.5 132.2 33.6 132.1 33.6Z" fill="#171717"/>
<path id="Path_21" d="M126.8 47.5H126.7C126.5 47.4 126.4 47.2 126.5 47L127.3 45L126 45.5C125.9 45.5 125.8 45.5 125.7 45.5C125.6 45.5 125.5 45.4 125.5 45.3L125.1 44.2L124.1 46.1C124 46.3 123.8 46.4 123.6 46.3C123.4 46.2 123.3 46 123.4 45.8L124.8 43.1C124.9 43 125 42.9 125.2 42.9C125.3 42.9 125.5 43 125.5 43.1L126.1 44.6L127.8 43.9C127.9 43.8 128.1 43.9 128.2 44C128.3 44.1 128.3 44.3 128.3 44.4L127.2 47.2C127.1 47.4 126.9 47.5 126.8 47.5Z" fill="#171717"/>
<path id="Path_22" d="M165.5 23.6C162.8 23.4 160 22.9 157.3 22.4C156.5 22.2 155.6 22.1 154.8 21.9C154.6 21.9 154.5 21.7 154.5 21.5C154.5 21.3 154.7 21.2 154.9 21.2C155.7 21.3 156.6 21.5 157.4 21.7C159.9 22.2 162.6 22.7 165.1 22.8L166.2 17.2C166.2 17 166.4 16.9 166.6 16.9C166.8 16.9 166.9 17.1 166.9 17.3L165.7 23.2C165.8 23.5 165.7 23.6 165.5 23.6Z" fill="#171717"/>
<g id="Group_15">
<path id="Path_23" d="M152.9 24.6C151.4 24.4 150.3 22.7 149.9 21.5C149.9 21.4 149.9 21.3 149.9 21.3C150 21.2 150.1 21.2 150.2 21.2C151.7 21.1 153.1 21.2 154.6 21.5" fill="#FF673D"/>
<path id="Path_24" d="M152.9 25C151.3 24.8 150 23.1 149.5 21.6V21.5V21.3C149.5 21.2 149.5 21.1 149.6 21C149.8 20.8 150 20.8 150.2 20.8C151.7 20.7 153.1 20.8 154.7 21.1C154.9 21.1 155 21.3 155 21.5C155 21.7 154.8 21.8 154.6 21.8C153.1 21.5 151.8 21.4 150.4 21.5C150.8 22.5 151.8 24 153 24.2C153.2 24.2 153.3 24.4 153.3 24.6C153.2 24.8 153.1 25 152.9 25Z" fill="#171717"/>
</g>
<path id="Path_25" d="M165.9 27.3C165.5 27.3 165.1 27.3 164.7 27.3C160.7 27 156.8 26.2 153.3 24.8C153.2 24.8 153 24.7 153 24.6C152.9 24.5 152.9 24.3 153 24.2L154.5 21.4C154.6 21.2 154.8 21.1 155 21.2C155.2 21.3 155.3 21.5 155.2 21.7L153.9 24.1C157.3 25.4 161 26.2 164.9 26.5C167.2 26.7 168.8 26.4 169.5 25.6C170.2 24.9 170.5 23.7 170.7 22.5C170.8 22.1 170.9 21.7 171 21.3C171.1 21 171.2 20.6 171.3 20.2C172.1 17.4 173 14.2 171.4 11.9C171.2 11.8 171.1 11.7 171.1 11.6C171.1 11.6 171.1 11.5 171 11.5C169.8 10.3 167.8 10.3 166.6 11.4C166 12.1 165.6 12.9 165.3 13.6C164.4 16.3 163.6 19.4 162.9 22.6C162.9 22.8 162.7 22.9 162.5 22.9C162.3 22.9 162.2 22.7 162.2 22.5C162.8 19.3 163.7 16.2 164.6 13.5C164.9 12.6 165.4 11.8 166.1 11C167.6 9.6 170.1 9.6 171.6 11.1L171.7 11.2C171.8 11.3 171.8 11.3 171.9 11.4C172 11.4 172 11.5 172 11.5C173.9 14.1 172.9 17.7 172.1 20.5C172 20.9 171.9 21.2 171.8 21.6C171.7 22 171.6 22.3 171.5 22.7C171.3 23.9 171 25.2 170.1 26.1C169.2 26.9 167.9 27.3 165.9 27.3Z" fill="#171717"/>
<path id="Path_26" d="M160.3 59.3H160.2L154 56.9C153.8 56.8 153.7 56.6 153.8 56.4L159.2 40.5C159.8 38.7 160.4 36.9 161.1 35C161.4 34.1 162.5 28.2 162.6 27.1C162.6 26.9 162.8 26.7 163 26.8C163.2 26.8 163.4 27 163.3 27.2C163.2 28.4 162.1 34.3 161.8 35.3C161.1 37.2 160.5 39.1 159.9 40.8L154.6 56.4L160.1 58.5L164.9 45L168.3 35.2C168.6 34.3 168.9 33.5 169.3 32.7C169.6 31.9 170 31.1 170.2 30.3C170.7 27.2 171 24.4 171 21.7C171 21.5 171.2 21.3 171.4 21.3C171.6 21.3 171.8 21.5 171.8 21.7C171.8 24.5 171.5 27.3 171 30.5C170.7 31.4 170.4 32.2 170 33C169.7 33.8 169.3 34.6 169.1 35.4L165.7 45.2L160.8 59.1C160.8 59.2 160.7 59.3 160.6 59.3C160.4 59.3 160.4 59.3 160.3 59.3Z" fill="#171717"/>
<path id="Path_27" d="M173.9 57.2C173.7 57.2 173.7 57.1 173.6 57L164.8 45.1C164.7 44.9 164.7 44.7 164.9 44.6C165.1 44.5 165.3 44.5 165.4 44.7L174 56.3L179.2 52.3L170.8 40.3C170.8 40.2 170.7 40.2 170.7 40.1C170.8 36.8 170.7 34.8 170.7 32.5C170.7 31.2 170.7 29.7 170.7 27.9C170.7 27.7 170.9 27.5 171.1 27.5C171.3 27.5 171.5 27.7 171.5 27.9C171.5 29.8 171.5 31.2 171.5 32.5C171.5 34.8 171.5 36.7 171.5 40L180 52.2C180.1 52.4 180.1 52.6 179.9 52.7L174.1 57.1C174.1 57.1 174 57.2 173.9 57.2Z" fill="#171717"/>
<g id="Group_16">
<path id="Rectangle_15" d="M135.102 11.4324L128.597 25.8309L141.902 31.8417L148.407 17.4432L135.102 11.4324Z" fill="#C5D3ED"/>
<path id="Shape_20" d="M141.9 32.2C141.8 32.2 141.8 32.2 141.7 32.2L128.4 26.2C128.2 26.1 128.1 25.9 128.2 25.7L134.7 11.3C134.7 11.2 134.8 11.1 134.9 11.1C135 11.1 135.1 11.1 135.2 11.1L148.5 17.1C148.6 17.1 148.7 17.2 148.7 17.3C148.7 17.4 148.7 17.5 148.7 17.6L142.2 32C142.2 32.1 142.1 32.2 142 32.2C142 32.2 142 32.2 141.9 32.2ZM129.1 25.6L141.7 31.3L147.9 17.6L135.3 11.9L129.1 25.6Z" fill="#171717"/>
</g>
<g id="Group_17">
<path id="Path_28" d="M178.6 53.7C179.3 54.5 180.1 55.4 180.8 56.2L175.2 61.6C174.8 60.9 174.7 60.1 174.8 59.3C175.1 58 176.3 57.6 176.3 56.4C176.3 56.1 176.3 55.8 176.2 55.5" fill="white"/>
<path id="Path_29" d="M175.2 62C175 62 174.9 61.9 174.9 61.8C174.5 61.1 174.3 60.2 174.5 59.3C174.7 58.6 175 58.1 175.4 57.7C175.7 57.3 176 57 176 56.4C176 56.1 176 55.9 175.9 55.6C175.8 55.4 175.9 55.2 176.1 55.1C176.3 55 176.5 55.1 176.6 55.3C176.7 55.7 176.7 56 176.7 56.3C176.7 57.1 176.3 57.6 175.9 58C175.6 58.4 175.3 58.7 175.2 59.3C175.1 59.9 175.2 60.4 175.4 60.9L180.4 56.1L178.4 53.9C178.3 53.7 178.3 53.5 178.4 53.4C178.6 53.3 178.8 53.3 178.9 53.4L181.1 55.9C181.2 56.1 181.2 56.3 181.1 56.4L175.5 61.8C175.4 61.9 175.3 62 175.2 62Z" fill="#171717"/>
</g>
<g id="Group_18">
<path id="Path_30" d="M158.3 58.3C157.9 59.3 157.5 60.4 157.2 61.4L149.8 59.1C150.2 58.4 150.9 57.9 151.7 57.7C153 57.4 153.9 58.2 154.9 57.7C155.2 57.6 155.4 57.4 155.6 57.2" fill="white"/>
<path id="Path_31" d="M157.2 61.8H157.1L149.7 59.5C149.6 59.5 149.5 59.4 149.5 59.3C149.5 59.2 149.5 59.1 149.5 59C149.9 58.2 150.7 57.7 151.6 57.4C152.3 57.2 152.9 57.4 153.4 57.5C153.9 57.6 154.3 57.7 154.7 57.5C155 57.4 155.1 57.3 155.3 57.1C155.4 57 155.7 57 155.8 57.1C155.9 57.2 155.9 57.5 155.8 57.6C155.6 57.8 155.3 58.1 155 58.2C154.4 58.5 153.8 58.4 153.2 58.3C152.7 58.2 152.3 58.1 151.7 58.2C151.2 58.3 150.7 58.6 150.3 59L156.8 61C157.1 60 157.5 58.9 157.8 58.2C157.9 58 158.1 57.9 158.3 58C158.5 58.1 158.6 58.3 158.5 58.5C158.2 59.3 157.8 60.4 157.4 61.6C157.4 61.7 157.3 61.8 157.2 61.8C157.3 61.8 157.3 61.8 157.2 61.8Z" fill="#171717"/>
</g>
<path id="Path_32" d="M166.1 7.2C165.9 7.2 165.8 7.1 165.7 6.9C165.6 6.7 165.8 6.5 166 6.4L169 5.6C169.2 5.5 169.4 5.7 169.5 5.9C169.6 6.1 169.4 6.3 169.2 6.4L166.1 7.2C166.1 7.2 166.2 7.2 166.1 7.2Z" fill="#171717"/>
<path id="Path_33" d="M166.5 8.9C166.3 8.9 166.2 8.8 166.1 8.7C166 8.5 166.1 8.3 166.3 8.2L170.8 6.5C171 6.4 171.2 6.5 171.3 6.7C171.4 6.9 171.3 7.1 171.1 7.2L166.6 8.9H166.5Z" fill="#171717"/>
<path id="Path_34" d="M166.5 8.9L164.5 9.2C163.9 8.5 163.5 7.6 163.4 6.7L166.1 6.3L166.5 8.9Z" fill="#79C9A9"/>
<path id="Path_35" d="M163.3 2.8C163.7 3.1 164.1 3.4 164.5 3.8L164 4.5C163.5 4.3 163 4.1 162.5 3.9C162 3.7 161.5 3.5 161.1 3.1C160.8 2.6 161.4 2.4 161.8 2.4C162.4 2.3 162.9 2.5 163.3 2.8Z" fill="#E1E9F7"/>
<g id="Group_19">
<path id="Path_36" d="M165.3 3.2C166.3 1.4 168.6 0.800002 170.4 1.8C172.2 2.8 172.8 5.1 171.8 6.9C171.7 7 171.7 7.1 171.6 7.2L165.3 3.2Z" fill="#E1E9F7"/>
<path id="Shape_21" d="M171.6 7.6C171.5 7.6 171.5 7.6 171.4 7.5L165.1 3.5C164.9 3.4 164.9 3.2 165 3C166.1 0.999999 168.6 0.299999 170.6 1.5C171.6 2 172.2 2.9 172.5 4C172.8 5.1 172.6 6.2 172.1 7.1C172.1 7.1 172.1 7.2 172 7.2C171.9 7.3 171.9 7.4 171.8 7.5C171.8 7.5 171.7 7.6 171.6 7.6ZM165.8 3.1L171.5 6.7C171.9 5.9 172 5 171.8 4.2C171.6 3.3 171 2.6 170.2 2.2C168.7 1.3 166.8 1.7 165.8 3.1Z" fill="#171717"/>
</g>
<g id="Group_20">
<path id="Path_37" d="M161 3C160.8 2.7 161 2.3 161.3 2.2C161.7 2 162.1 2 162.5 2.1C162.9 2.2 163.3 2.4 163.6 2.7C164.1 3.1 164.5 3.5 164.9 3.9C165.1 4.2 165.4 4.4 165.6 4.6C166.1 4.8 166.7 4.8 167.2 4.7C166.6 3.9 166.1 3.1 165.7 2.2" fill="#E1E9F7"/>
<path id="Path_38" d="M166.5 5.1C166.1 5.1 165.7 5 165.4 4.9C165.4 4.9 165.3 4.9 165.3 4.8C165.2 4.7 165.2 4.7 165.1 4.6C164.9 4.5 164.7 4.3 164.5 4C164.1 3.7 163.8 3.3 163.3 2.9C163 2.6 162.7 2.5 162.3 2.4C161.9 2.3 161.6 2.3 161.4 2.5C161.3 2.5 161.3 2.6 161.2 2.6C161.2 2.7 161.2 2.7 161.2 2.7C161.3 2.9 161.3 3.1 161.1 3.2C160.9 3.3 160.7 3.3 160.6 3.1C160.4 2.9 160.4 2.6 160.5 2.3C160.6 2 160.8 1.8 161.1 1.7C161.5 1.5 162 1.5 162.5 1.6C163 1.7 163.4 2 163.8 2.3C164.3 2.7 164.7 3.1 165.1 3.5C165.3 3.7 165.4 3.9 165.6 4C165.7 4.1 165.7 4.1 165.8 4.2C166 4.3 166.3 4.3 166.5 4.3C166 3.6 165.6 2.9 165.3 2.3C165.2 2.1 165.3 1.9 165.5 1.8C165.7 1.7 165.9 1.8 166 2C166.4 2.8 166.8 3.6 167.5 4.4C167.6 4.5 167.6 4.6 167.6 4.8C167.6 4.9 167.4 5 167.3 5C167 5.1 166.8 5.1 166.5 5.1Z" fill="#171717"/>
</g>
<path id="Path_39" d="M164 5.2C163.9 5.2 163.9 5.2 163.8 5.2C162.8 4.7 161.8 4.1 160.8 3.5C160.6 3.4 160.6 3.2 160.7 3C160.8 2.8 161 2.8 161.2 2.9C162.2 3.5 163.2 4.1 164.2 4.6C164.4 4.7 164.5 4.9 164.4 5.1C164.3 5.1 164.1 5.2 164 5.2Z" fill="#171717"/>
<path id="Path_40" d="M166.1 2.5L161.9 2.4C161.7 2.4 161.5 2.2 161.5 2C161.5 1.8 161.7 1.7 161.9 1.6L166.1 1.7C166.3 1.7 166.5 1.9 166.5 2.1C166.5 2.3 166.3 2.5 166.1 2.5Z" fill="#171717"/>
</g>
<g id="shelf">
<path id="Path_41" d="M321.5 151.1C321.3 151.1 321.1 150.9 321.1 150.7V83.9C321.1 83.7 321.3 83.5 321.5 83.5C321.7 83.5 321.9 83.7 321.9 83.9V150.7C321.9 150.9 321.7 151.1 321.5 151.1Z" fill="#171717"/>
<path id="Path_42" d="M321.5 95.3H305.7C305.5 95.3 305.3 95.1 305.3 94.9C305.3 94.7 305.5 94.5 305.7 94.5H321.5C321.7 94.5 321.9 94.7 321.9 94.9C321.9 95.1 321.7 95.3 321.5 95.3Z" fill="#171717"/>
<path id="Path_43" d="M321.5 107.7H305.7C305.5 107.7 305.3 107.5 305.3 107.3C305.3 107.1 305.5 106.9 305.7 106.9H321.5C321.7 106.9 321.9 107.1 321.9 107.3C321.9 107.5 321.7 107.7 321.5 107.7Z" fill="#171717"/>
<path id="Path_44" d="M321.5 120.1H305.7C305.5 120.1 305.3 119.9 305.3 119.7C305.3 119.5 305.5 119.3 305.7 119.3H321.5C321.7 119.3 321.9 119.5 321.9 119.7C321.9 119.9 321.7 120.1 321.5 120.1Z" fill="#171717"/>
<path id="Path_45" d="M321.5 132.5H305.7C305.5 132.5 305.3 132.3 305.3 132.1C305.3 131.9 305.5 131.7 305.7 131.7H321.5C321.7 131.7 321.9 131.9 321.9 132.1C321.9 132.3 321.7 132.5 321.5 132.5Z" fill="#171717"/>
<path id="Path_46" d="M321.5 144.9H305.7C305.5 144.9 305.3 144.7 305.3 144.5C305.3 144.3 305.5 144.1 305.7 144.1H321.5C321.7 144.1 321.9 144.3 321.9 144.5C321.9 144.7 321.7 144.9 321.5 144.9Z" fill="#171717"/>
<g id="Group_21">
<path id="Oval_3" d="M316.1 131.8C317.812 131.8 319.2 130.412 319.2 128.7C319.2 126.988 317.812 125.6 316.1 125.6C314.388 125.6 313 126.988 313 128.7C313 130.412 314.388 131.8 316.1 131.8Z" fill="#EAE0D3"/>
<path id="Shape_22" d="M316.1 132.2C314.2 132.2 312.6 130.6 312.6 128.7C312.6 126.8 314.2 125.2 316.1 125.2C318 125.2 319.6 126.8 319.6 128.7C319.6 130.6 318 132.2 316.1 132.2ZM316.1 126C314.6 126 313.4 127.2 313.4 128.7C313.4 130.2 314.6 131.4 316.1 131.4C317.6 131.4 318.8 130.2 318.8 128.7C318.8 127.2 317.6 126 316.1 126Z" fill="#171717"/>
</g>
<g id="Group_22">
<path id="Oval_4" d="M312.4 131.8C313.615 131.8 314.6 130.815 314.6 129.6C314.6 128.385 313.615 127.4 312.4 127.4C311.185 127.4 310.2 128.385 310.2 129.6C310.2 130.815 311.185 131.8 312.4 131.8Z" fill="#EAE0D3"/>
<path id="Shape_23" d="M312.4 132.2C311 132.2 309.8 131 309.8 129.6C309.8 128.2 311 127 312.4 127C313.8 127 315 128.2 315 129.6C315 131 313.8 132.2 312.4 132.2ZM312.4 127.8C311.4 127.8 310.6 128.6 310.6 129.6C310.6 130.6 311.4 131.4 312.4 131.4C313.4 131.4 314.2 130.6 314.2 129.6C314.2 128.6 313.4 127.8 312.4 127.8Z" fill="#171717"/>
</g>
<g id="Group_23">
<path id="Oval_5" d="M316.1 143.9C318.143 143.9 319.8 142.243 319.8 140.2C319.8 138.157 318.143 136.5 316.1 136.5C314.057 136.5 312.4 138.157 312.4 140.2C312.4 142.243 314.057 143.9 316.1 143.9Z" fill="#E1E9F7"/>
<path id="Shape_24" d="M316.1 144.3C313.9 144.3 312 142.5 312 140.2C312 137.9 313.8 136.1 316.1 136.1C318.3 136.1 320.2 137.9 320.2 140.2C320.2 142.5 318.3 144.3 316.1 144.3ZM316.1 136.9C314.3 136.9 312.8 138.4 312.8 140.2C312.8 142 314.3 143.5 316.1 143.5C317.9 143.5 319.4 142 319.4 140.2C319.4 138.4 317.9 136.9 316.1 136.9Z" fill="#171717"/>
</g>
<g id="Group_24">
<path id="Oval_6" d="M309.3 143.9C311.012 143.9 312.4 142.512 312.4 140.8C312.4 139.088 311.012 137.7 309.3 137.7C307.588 137.7 306.2 139.088 306.2 140.8C306.2 142.512 307.588 143.9 309.3 143.9Z" fill="#E1E9F7"/>
<path id="Shape_25" d="M309.3 144.3C307.4 144.3 305.8 142.7 305.8 140.8C305.8 138.9 307.4 137.3 309.3 137.3C311.2 137.3 312.8 138.9 312.8 140.8C312.8 142.7 311.2 144.3 309.3 144.3ZM309.3 138.1C307.8 138.1 306.6 139.3 306.6 140.8C306.6 142.3 307.8 143.5 309.3 143.5C310.8 143.5 312 142.3 312 140.8C312 139.3 310.8 138.1 309.3 138.1Z" fill="#171717"/>
</g>
<path id="Shape_26" d="M318.6 95.3H314.3C314.1 95.3 313.9 95.1 313.9 94.9V84.5C313.9 84.3 314.1 84.1 314.3 84.1H318.6C318.8 84.1 319 84.3 319 84.5V94.9C319 95.1 318.8 95.3 318.6 95.3ZM314.7 94.5H318.2V84.8H314.7V94.5Z" fill="#171717"/>
<g id="Group_25">
<path id="Rectangle_16" d="M318.6 98.3H310V106.9H318.6V98.3Z" fill="#E1E9F7"/>
<path id="Shape_27" d="M318.6 107.3H310C309.8 107.3 309.6 107.1 309.6 106.9V98.3C309.6 98.1 309.8 97.9 310 97.9H318.6C318.8 97.9 319 98.1 319 98.3V106.9C319 107.1 318.8 107.3 318.6 107.3ZM310.4 106.5H318.2V98.6H310.4V106.5Z" fill="#171717"/>
</g>
<path id="Shape_28" d="M318.6 119.6H307C306.8 119.6 306.6 119.4 306.6 119.2V110.6C306.6 110.4 306.8 110.2 307 110.2H318.6C318.8 110.2 319 110.4 319 110.6V119.2C319 119.4 318.8 119.6 318.6 119.6ZM307.4 118.8H318.2V111H307.4V118.8Z" fill="#171717"/>
<path id="Path_47" d="M318.6 113.3H306.9C306.7 113.3 306.5 113.1 306.5 112.9C306.5 112.7 306.7 112.5 306.9 112.5H318.6C318.8 112.5 319 112.7 319 112.9C319 113.1 318.8 113.3 318.6 113.3Z" fill="#171717"/>
<path id="Path_48" d="M318.6 116H306.9C306.7 116 306.5 115.8 306.5 115.6C306.5 115.4 306.7 115.2 306.9 115.2H318.6C318.8 115.2 319 115.4 319 115.6C319 115.8 318.8 116 318.6 116Z" fill="#171717"/>
<path id="Path_49" d="M310.4 119.6C310.2 119.6 310 119.4 310 119.2L309.8 110.6C309.8 110.4 310 110.2 310.2 110.2C310.4 110.2 310.6 110.4 310.6 110.6L310.8 119.2C310.8 119.4 310.6 119.6 310.4 119.6Z" fill="#171717"/>
<path id="Path_50" d="M314.4 119.6C314.2 119.6 314 119.4 314 119.2L313.8 110.6C313.8 110.4 314 110.2 314.2 110.2C314.4 110.2 314.6 110.4 314.6 110.6L314.8 119.2C314.8 119.4 314.6 119.6 314.4 119.6Z" fill="#171717"/>
</g>
<g id="sous_chef">
<g id="Group_26">
<path id="Path_51" d="M287.5 143.7L281.6 143.4L286.9 116.9L293.7 117.1L287.5 143.7Z" fill="#E1E9F7"/>
<path id="Shape_29" d="M287.5 144.1L281.6 143.8C281.5 143.8 281.4 143.7 281.3 143.7C281.2 143.7 281.2 143.5 281.2 143.4L286.5 116.9C286.5 116.7 286.7 116.6 286.9 116.6L293.7 116.8C293.8 116.8 293.9 116.9 294 116.9C294.1 117 294.1 117.1 294.1 117.2L287.9 143.8C287.8 144 287.7 144.1 287.5 144.1ZM282.1 143L287.3 143.3L293.3 117.5L287.3 117.3L282.1 143Z" fill="#171717"/>
</g>
<g id="Group_27">
<path id="Path_52" d="M289.7 144.9C290.2 146.1 290.9 147.2 291.8 148.2C292.5 149.1 293.5 150.3 294.8 150.4C295.3 150.4 295.8 150.5 296 149.9C296.2 149.3 296.1 148.6 295.8 148C295.4 147.1 294.5 146.1 294.5 145" fill="#FF8766"/>
<path id="Path_53" d="M295.2 150.8C295.1 150.8 295.1 150.8 295 150.8H294.8C293.2 150.7 292.1 149.2 291.5 148.5C290.6 147.5 289.9 146.3 289.4 145.1C289.3 144.9 289.4 144.7 289.6 144.6C289.8 144.5 290 144.6 290.1 144.8C290.6 146 291.3 147 292.1 148C292.7 148.7 293.6 150 294.9 150.1H295.1C295.6 150.1 295.7 150.1 295.7 149.9C295.9 149.4 295.8 148.8 295.5 148.3C295.4 148 295.2 147.7 295 147.4C294.6 146.7 294.1 145.9 294.1 145.1C294.1 144.9 294.3 144.7 294.5 144.7C294.7 144.7 294.9 144.9 294.9 145.1C294.9 145.7 295.3 146.4 295.7 147C295.9 147.3 296.1 147.6 296.2 147.9C296.6 148.6 296.6 149.4 296.4 150.1C296.1 150.7 295.6 150.8 295.2 150.8Z" fill="#171717"/>
</g>
<g id="Group_28">
<path id="Path_54" d="M295.7 144.6L289.7 144.9L289.4 116.9L296.2 116.4L295.7 144.6Z" fill="#E1E9F7"/>
<path id="Shape_30" d="M289.7 145.3C289.6 145.3 289.5 145.3 289.4 145.2C289.3 145.1 289.3 145 289.3 144.9L289 116.9C289 116.7 289.2 116.5 289.3 116.5L296.1 116C296.2 116 296.3 116 296.4 116.1C296.5 116.2 296.5 116.3 296.5 116.4L296 144.6C296 144.8 295.8 145 295.6 145L289.7 145.3ZM289.8 117.2L290.1 144.5L295.4 144.2L295.9 116.8L289.8 117.2Z" fill="#171717"/>
</g>
<g id="Group_29">
<path id="Path_55" d="M297.6 101.7L301.3 108.3C302.2 109.9 305.9 115.9 306.6 117.4C306.8 117.8 306.9 118.3 306.9 118.8C306.8 119.3 306.5 119.7 306 119.7C305.7 119.7 305.5 119.6 305.3 119.4C303.4 118.2 299 111.8 298.1 110.6" fill="white"/>
<path id="Path_56" d="M306 120.1C305.6 120.1 305.3 120 305 119.7C303.4 118.7 300.1 114 298.4 111.8C298.1 111.4 297.9 111.1 297.7 110.9C297.6 110.7 297.6 110.5 297.8 110.4C298 110.3 298.2 110.3 298.3 110.5C298.4 110.7 298.7 111 299 111.4C300.5 113.4 303.9 118.2 305.4 119.2C305.6 119.4 305.7 119.4 305.9 119.4C306.3 119.4 306.4 119 306.4 118.8C306.4 118.4 306.3 118 306.1 117.6C305.6 116.6 303.9 113.8 302.5 111.4C301.7 110.1 301.1 109 300.8 108.5L297.1 101.9C297 101.7 297.1 101.5 297.2 101.4C297.4 101.3 297.6 101.4 297.7 101.5L301.4 108.1C301.7 108.7 302.4 109.8 303.1 111C304.5 113.3 306.2 116.2 306.7 117.2C306.9 117.6 307 118.2 307 118.8C307.1 119.6 306.6 120.1 306 120.1Z" fill="#171717"/>
</g>
<g id="Group_30">
<path id="Rectangle_17" d="M299.94 104.954L295.95 107.438L297.219 109.476L301.208 106.991L299.94 104.954Z" fill="#E1E9F7"/>
<path id="Shape_31" d="M297.2 109.8C297 109.8 296.9 109.7 296.9 109.6L295.6 107.6C295.5 107.4 295.5 107.2 295.7 107.1L299.7 104.6C299.8 104.5 299.9 104.5 300 104.6C300.1 104.6 300.2 104.7 300.2 104.8L301.5 106.8C301.6 107 301.6 107.2 301.4 107.3L297.4 109.8C297.4 109.8 297.3 109.8 297.2 109.8ZM296.5 107.5L297.4 108.9L300.8 106.8L299.9 105.4L296.5 107.5Z" fill="#171717"/>
</g>
<g id="Group_31">
<path id="Path_57" d="M295.4 97.2C293.2 97.8 292.5 98.3 291.4 100.3C290.5 102 289.8 103.8 289.2 105.7C287.8 109.8 285.7 116.9 284.5 121.1C286.7 121.3 294.4 122 297.1 122C298.3 117.1 298.9 106.1 300.1 101.2" fill="#C5D3ED"/>
<path id="Path_58" d="M297.1 122.4C295.3 122.4 291 122.1 284.5 121.5C284.4 121.5 284.3 121.4 284.2 121.3C284.1 121.2 284.1 121.1 284.1 121C285.4 116.4 287.5 109.5 288.8 105.6C289.5 103.5 290.2 101.7 291 100.1C292.1 98 292.9 97.5 295.2 96.8C295.4 96.7 295.6 96.9 295.7 97.1C295.8 97.3 295.6 97.5 295.4 97.6C293.3 98.2 292.7 98.6 291.6 100.5C290.8 102 290.1 103.8 289.4 105.8C288.1 109.6 286.2 116.1 284.8 120.8C290.8 121.3 294.7 121.6 296.6 121.7C297.2 119.2 297.6 115.4 298 111.6C298.4 107.7 298.9 103.6 299.5 101.2C299.5 101 299.8 100.9 300 100.9C300.2 100.9 300.3 101.2 300.3 101.4C299.7 103.8 299.3 107.9 298.8 111.7C298.4 115.6 297.9 119.7 297.3 122.2C297.4 122.3 297.3 122.4 297.1 122.4Z" fill="#171717"/>
</g>
<g id="Group_32">
<path id="Oval_7" d="M295.9 99.2C298.109 99.2 299.9 97.4091 299.9 95.2C299.9 92.9909 298.109 91.2 295.9 91.2C293.691 91.2 291.9 92.9909 291.9 95.2C291.9 97.4091 293.691 99.2 295.9 99.2Z" fill="white"/>
<path id="Shape_32" d="M295.9 99.6C293.5 99.6 291.5 97.6 291.5 95.2C291.5 92.8 293.5 90.8 295.9 90.8C298.3 90.8 300.3 92.8 300.3 95.2C300.3 97.6 298.3 99.6 295.9 99.6ZM295.9 91.6C293.9 91.6 292.3 93.2 292.3 95.2C292.3 97.2 293.9 98.8 295.9 98.8C297.9 98.8 299.5 97.2 299.5 95.2C299.5 93.2 297.9 91.6 295.9 91.6Z" fill="#171717"/>
</g>
<path id="Path_59" d="M293.9 96.6C293.7 96.6 293.6 96.5 293.5 96.3C293.5 96.1 293.6 95.9 293.8 95.9L297.5 95.1C297.7 95.1 297.9 95.2 297.9 95.4C297.9 95.6 297.8 95.8 297.6 95.8L293.9 96.6C293.9 96.6 294 96.6 293.9 96.6Z" fill="#171717"/>
<path id="Path_60" d="M294.1 98.2C293.9 98.2 293.7 98.1 293.7 97.9C293.7 97.7 293.8 97.5 294 97.5L298.1 97.1C298.3 97.1 298.5 97.2 298.5 97.4C298.5 97.6 298.4 97.8 298.2 97.8L294.1 98.2Z" fill="#171717"/>
<path id="Path_61" d="M298.4 97.6L300.3 97C300.6 96.1 300.5 95.2 300.1 94.3L297.5 95.2L298.4 97.6Z" fill="#79C9A9"/>
<path id="Path_62" d="M305 97.4C301.5 99.6 299 103.3 295.2 104.8C294.3 103.4 293.7 101.8 293.3 100.1C295.5 98.8 297.7 97.7 299.9 96.3C300.5 95.9 302.3 94.4 302.9 94.6C303.5 94.8 304.6 96.9 305 97.4Z" fill="#C5D3ED"/>
<path id="Path_63" d="M311.5 88.4C311.8 88.2 312 88.1 312.3 88C312.4 87.9 312.6 87.9 312.7 88C312.8 88.1 312.7 88.3 312.6 88.5C312.1 89 311.6 89.6 311.3 90.2C311.2 90.4 311.2 90.6 311.3 90.8C311.5 91 311.9 91.1 311.9 91.4C311.9 91.7 311.8 91.7 311.7 91.8C310.1 93.2 308.5 94.6 307.1 96.2C307.1 96.2 305.8 94.5 305.6 94.4C305.3 94.1 305.1 93.8 305 93.4C304.9 93 305.3 93 305.6 92.8C306.9 92 308.2 91.1 309.4 90.2C310.1 89.5 310.8 88.9 311.5 88.4Z" fill="white"/>
<path id="Path_64" d="M295.3 104.7C295.2 104.7 295 104.6 295 104.5C294.9 104.3 295 104.1 295.2 104C297.7 102.9 300.1 100.9 302.4 99.1L303.2 98.5C304.3 97.7 305.4 96.8 306.4 95.9C307 95.4 307.5 95 308.1 94.5C308.7 94.2 311 92.2 311.4 91.4C311.3 91.4 311.2 91.3 311.1 91.3C310.6 91 310.8 90.5 310.9 90.3C311.5 89.6 312 88.9 312.4 88.3C311.3 89 310.1 89.9 308.6 91.1C308.1 91.5 307.5 91.9 306.9 92.3C305.8 93 304.8 93.7 303.7 94.3C300.5 96.4 297.2 98.6 293.6 100.1C293.4 100.2 293.2 100.1 293.1 99.9C293 99.7 293.1 99.5 293.3 99.4C296.8 97.9 300.1 95.8 303.3 93.7C304.4 93 305.4 92.3 306.5 91.7C307.1 91.3 307.7 90.9 308.2 90.5C309.6 89.3 310.9 88.4 312 87.7C312.1 87.5 312.4 87.5 312.5 87.5C312.7 87.5 313.2 87.7 313.2 88.1V88.4C313.2 88.5 313.2 88.6 313.1 88.6C312.6 89.3 312.1 90 311.5 90.7C311.6 90.7 311.8 90.8 311.9 90.9C312 91 312.1 91.1 312.1 91.3C312 92.3 308.7 94.9 308.4 95.1C307.9 95.5 307.3 96 306.7 96.5C305.7 97.4 304.6 98.3 303.5 99.1L302.7 99.7C300.4 101.6 298 103.5 295.3 104.7C295.4 104.7 295.4 104.7 295.3 104.7Z" fill="#171717"/>
<g id="Group_33">
<path id="Path_65" d="M297.5 91.5C296.5 90.9 295.4 90.8 294.3 91.1C292.8 91.7 291.4 92.5 290.2 93.5C288.8 94.5 287.5 95.6 286.3 96.8C288 99.2 290.4 101 293.2 102C293.3 99.5 293.7 97 294.5 94.6C294.8 94 295.3 93.5 295.8 93.1C296.5 92.6 297.3 92.2 298.1 92" fill="#EAE0D3"/>
<path id="Shape_33" d="M293.2 102.4H293.1C290.2 101.4 287.8 99.5 286 97.1C285.9 97 285.9 96.7 286 96.6C287.2 95.4 288.5 94.3 289.9 93.3C291.1 92.3 292.5 91.5 294.1 90.9C295.4 90.5 296.6 90.7 297.6 91.3C297.8 91.4 297.8 91.6 297.7 91.8C297.8 91.8 297.8 91.8 297.9 91.8C298.1 91.8 298.3 91.9 298.4 92.1C298.4 92.3 298.3 92.5 298.1 92.6C297.4 92.8 296.6 93.1 295.9 93.6C295.3 94 295 94.5 294.7 95C294 97.2 293.5 99.6 293.4 102.2C293.4 102.3 293.3 102.4 293.2 102.5C293.3 102.4 293.3 102.4 293.2 102.4ZM286.8 96.8C288.3 98.9 290.4 100.5 292.9 101.4C293 98.9 293.5 96.6 294.2 94.4C294.5 93.8 295 93.3 295.6 92.7C296.2 92.3 296.8 92 297.4 91.7C296.5 91.2 295.5 91.1 294.5 91.3C293 91.9 291.7 92.7 290.5 93.6C289.1 94.7 287.9 95.7 286.8 96.8Z" fill="#171717"/>
</g>
<g id="Group_34">
<path id="Path_66" d="M282.7 143.7L282.2 144.7C282 145 281.7 145.3 281.8 145.7C281.9 146.3 282.7 146.8 283.1 147.1C284.2 147.9 285.1 149 286.2 149.8C288.5 151.4 289.5 150.1 288.1 147.9C287.3 146.7 286.8 145.4 286.4 144" fill="#FF673D"/>
<path id="Path_67" d="M287.9 150.9C287.5 150.9 286.8 150.7 286 150.1C285.4 149.7 284.9 149.2 284.4 148.7C283.9 148.2 283.4 147.8 282.9 147.4L282.7 147.3C282.2 147 281.5 146.5 281.4 145.8C281.3 145.3 281.6 145 281.8 144.7L281.9 144.6L282.4 143.6C282.5 143.4 282.7 143.3 282.9 143.4C283.1 143.5 283.2 143.7 283.1 143.9L282.5 145.1C282.3 145.4 282.2 145.5 282.3 145.6C282.4 146 282.9 146.4 283.3 146.7L283.5 146.8C284.1 147.2 284.6 147.7 285.1 148.2C285.6 148.7 286.1 149.1 286.6 149.5C287.6 150.2 288.2 150.3 288.4 150C288.6 149.8 288.6 149 287.9 148.1C287.2 147 286.6 145.8 286.2 144.1C286.1 143.9 286.3 143.7 286.5 143.6C286.7 143.5 286.9 143.7 287 143.9C287.5 145.5 288 146.7 288.7 147.7C289.5 149 289.6 150 289.1 150.6C288.6 150.7 288.4 150.9 287.9 150.9Z" fill="#171717"/>
</g>
<g id="Group_35">
<path id="Rectangle_18" d="M304.163 92.5658L302.292 94.0687L305.235 97.7332L307.106 96.2304L304.163 92.5658Z" fill="#E1E9F7"/>
<path id="Shape_34" d="M305.2 98.1C305.1 98.1 305 98 304.9 98L302 94.3C301.9 94.1 301.9 93.9 302.1 93.8L304 92.3C304.1 92.2 304.2 92.2 304.3 92.2C304.4 92.2 304.5 92.3 304.6 92.3L307.5 96C307.6 96.2 307.6 96.4 307.4 96.5L305.5 98C305.4 98.1 305.3 98.1 305.2 98.1ZM302.8 94.2L305.3 97.3L306.6 96.3L304.1 93.2L302.8 94.2Z" fill="#171717"/>
</g>
</g>
<g id="car">
<g id="Group_36">
<path id="Path_68" d="M126 99.1H130.1C135.4 99.1 139.7 103.4 139.7 108.7V121.2C139.7 126.5 135.4 130.8 130.1 130.8H113.4C108.1 130.8 103.8 126.5 103.8 121.2C103.8 109 113.7 99.1 126 99.1Z" fill="#E1E9F7"/>
<path id="Shape_35" d="M130.1 131.2H113.4C107.9 131.2 103.4 126.7 103.4 121.2C103.4 108.8 113.5 98.7 126 98.7H130.1C135.6 98.7 140.1 103.2 140.1 108.7V121.2C140.1 126.7 135.6 131.2 130.1 131.2ZM126 99.5C114 99.5 104.2 109.2 104.2 121.2C104.2 126.3 108.3 130.4 113.4 130.4H130.1C135.2 130.4 139.3 126.3 139.3 121.2V108.7C139.3 103.6 135.2 99.5 130.1 99.5H126Z" fill="#171717"/>
</g>
<g id="Group_37">
<path id="Rectangle_19" d="M192.8 88.1H121.8V130.9H192.8V88.1Z" fill="#C5D3ED"/>
<path id="Shape_36" d="M192.8 131.3H121.8C121.6 131.3 121.4 131.1 121.4 130.9V88.1C121.4 87.9 121.6 87.7 121.8 87.7H192.8C193 87.7 193.2 87.9 193.2 88.1V130.9C193.2 131.1 193 131.3 192.8 131.3ZM122.2 130.5H192.4V88.4H122.2V130.5Z" fill="#171717"/>
</g>
<g id="Group_38">
<path id="Path_69" d="M177.5 127.1C175.9 126.2 174.6 124.7 173.9 123C173 120.9 173.3 117.9 175.4 116.9C176.8 116.4 178.3 116.4 179.6 117.1C181.8 118.1 183.6 119.7 184.8 121.7C182.9 118 181.3 113.8 182.1 109.7C182.2 109.2 182.4 108.7 182.7 108.3C183.6 107.4 185.2 108 186.2 108.9C189.8 111.9 192.1 116.2 192.5 120.9C192.7 124.2 192.7 127.5 192.5 130.8C189 130.9 185.5 130.8 182.3 131C181.4 131.2 180.5 131.1 179.7 130.7C179.2 130.4 179.3 130.2 179 129.8C178.5 128.9 178 128 177.5 127.1Z" fill="#E1E9F7"/>
<path id="Shape_37" d="M181.4 131.5C180.8 131.5 180.1 131.4 179.5 131.1C179.1 130.8 178.9 130.6 178.8 130.4C178.8 130.3 178.7 130.2 178.6 130.1L177.1 127.4C175.5 126.5 174.2 124.9 173.4 123.2C172.4 120.9 172.8 117.7 175.1 116.6C176.7 116 178.3 116.1 179.6 116.8C180.8 117.4 182 118.1 183 119.1C181.8 116.3 181 113 181.6 109.7C181.7 109.1 182 108.6 182.3 108.1C183.4 107 185.1 107.6 186.4 108.6C190.1 111.7 192.4 116.1 192.8 120.8C193 124.1 193 127.5 192.8 130.8C192.8 131 192.6 131.1 192.4 131.2C191 131.2 189.6 131.2 188.2 131.3C186.1 131.3 184.1 131.3 182.2 131.4C182 131.4 181.7 131.5 181.4 131.5ZM177.3 116.9C176.7 116.9 176.1 117 175.5 117.2C173.7 118.1 173.4 120.8 174.2 122.8C174.9 124.4 176.1 125.9 177.6 126.7C177.7 126.7 177.7 126.8 177.7 126.8L179.2 129.5C179.3 129.6 179.4 129.8 179.4 129.9C179.5 130.1 179.5 130.1 179.7 130.3C180.4 130.6 181.2 130.7 182 130.6C184 130.5 186 130.5 188.1 130.4C189.4 130.4 190.6 130.4 191.9 130.4C192.1 127.2 192.1 124 191.9 120.9C191.5 116.3 189.3 112.2 185.7 109.2C184.9 108.5 183.5 107.8 182.7 108.6C182.5 108.9 182.3 109.3 182.2 109.8C181.4 114 183.2 118.3 184.9 121.6C185 121.8 184.9 122 184.7 122.1C184.5 122.2 184.3 122.1 184.2 122C183 120.1 181.3 118.5 179.2 117.5C178.8 117.1 178.1 116.9 177.3 116.9Z" fill="#171717"/>
</g>
<g id="Group_39">
<path id="Oval_8" d="M131.053 149.708C134.783 147.554 134.83 140.651 131.157 134.29C127.485 127.929 121.483 124.519 117.753 126.673C114.022 128.827 113.975 135.729 117.648 142.09C121.32 148.451 127.322 151.862 131.053 149.708Z" fill="#E1E9F7"/>
<path id="Shape_38" d="M128.5 150.7C127.1 150.7 125.6 150.3 124.1 149.4C121.5 147.9 119.1 145.4 117.3 142.3C115.5 139.2 114.5 135.8 114.5 132.8C114.5 129.7 115.6 127.5 117.5 126.3C119.4 125.2 121.9 125.4 124.6 126.9C127.2 128.4 129.6 130.9 131.4 134C133.2 137.1 134.2 140.5 134.2 143.5C134.2 146.6 133.1 148.8 131.2 150C130.4 150.5 129.5 150.7 128.5 150.7ZM120.3 126.4C119.4 126.4 118.7 126.6 118 127C116.3 128 115.4 130 115.4 132.8C115.4 135.6 116.3 138.9 118.1 141.9C119.8 144.9 122.2 147.4 124.6 148.8C127 150.2 129.3 150.4 131 149.4C132.7 148.4 133.6 146.4 133.6 143.6C133.6 140.8 132.7 137.5 130.9 134.5C129.1 131.5 126.8 129 124.4 127.6C122.9 126.8 121.5 126.4 120.3 126.4Z" fill="#171717"/>
</g>
<g id="Group_40">
<path id="Oval_9" d="M192.252 149.706C195.983 147.552 196.03 140.649 192.357 134.288C188.685 127.927 182.683 124.516 178.952 126.67C175.222 128.824 175.175 135.727 178.848 142.088C182.52 148.449 188.522 151.86 192.252 149.706Z" fill="#E1E9F7"/>
<path id="Shape_39" d="M189.7 150.7C186 150.7 181.5 147.4 178.5 142.3C176.7 139.2 175.7 135.8 175.7 132.8C175.7 129.7 176.8 127.5 178.7 126.3C182.6 124 188.8 127.5 192.6 134.1C196.4 140.6 196.3 147.8 192.4 150C191.6 150.5 190.7 150.7 189.7 150.7ZM179.1 127C177.4 128 176.5 130 176.5 132.8C176.5 135.6 177.4 138.9 179.2 141.9C182.8 148.1 188.6 151.4 192.1 149.4C195.6 147.4 195.6 140.7 192.1 134.5C188.5 128.3 182.7 124.9 179.1 127Z" fill="#171717"/>
</g>
<g id="Group_41">
<path id="Oval_10" d="M156 118.1C161.247 118.1 165.5 113.847 165.5 108.6C165.5 103.353 161.247 99.1 156 99.1C150.753 99.1 146.5 103.353 146.5 108.6C146.5 113.847 150.753 118.1 156 118.1Z" fill="white"/>
<path id="Shape_40" d="M156 118.5C150.6 118.5 146.1 114.1 146.1 108.6C146.1 103.1 150.5 98.7 156 98.7C161.5 98.7 165.9 103.1 165.9 108.6C165.9 114.1 161.4 118.5 156 118.5ZM156 99.5C151 99.5 146.9 103.6 146.9 108.6C146.9 113.6 151 117.7 156 117.7C161 117.7 165.1 113.6 165.1 108.6C165.1 103.6 161 99.5 156 99.5Z" fill="#171717"/>
</g>
<g id="Group_42">
<path id="Oval_11" d="M156 113.4C158.651 113.4 160.8 111.251 160.8 108.6C160.8 105.949 158.651 103.8 156 103.8C153.349 103.8 151.2 105.949 151.2 108.6C151.2 111.251 153.349 113.4 156 113.4Z" fill="white"/>
<path id="Shape_41" d="M156 113.8C153.1 113.8 150.8 111.5 150.8 108.6C150.8 105.7 153.1 103.4 156 103.4C158.9 103.4 161.2 105.7 161.2 108.6C161.2 111.5 158.9 113.8 156 113.8ZM156 104.2C153.6 104.2 151.6 106.2 151.6 108.6C151.6 111 153.6 113 156 113C158.4 113 160.4 111 160.4 108.6C160.4 106.2 158.4 104.2 156 104.2Z" fill="#171717"/>
</g>
<path id="Shape_42" d="M167.6 102.5C167.2 102.5 166.9 102.4 166.5 102.2C165.9 101.9 165.3 101.3 165 100.5C164.5 99.6 164.4 98.5 164.6 97.7C164.8 97.2 165 96.8 165.4 96.6C165.9 96.3 166.6 96.4 167.3 96.7C167.9 97 168.5 97.6 168.8 98.4C169.1 99.2 169.4 99.9 169.3 100.6C169.2 101.4 168.9 101.9 168.4 102.2C168.2 102.5 167.9 102.5 167.6 102.5ZM166.2 97.3C166.1 97.3 165.9 97.3 165.8 97.4C165.5 97.5 165.4 97.8 165.3 98C165.1 98.6 165.2 99.4 165.6 100.2C165.9 100.8 166.4 101.3 166.8 101.6C167.2 101.8 167.6 101.9 167.9 101.7C168.2 101.5 168.4 101.2 168.4 100.7C168.4 100.1 168.3 99.5 168 98.9C167.7 98.3 167.2 97.8 166.8 97.5C166.7 97.4 166.4 97.3 166.2 97.3Z" fill="#171717"/>
<path id="Path_70" d="M171.5 108.7C171.4 108.7 171.2 108.6 171.2 108.5L168 102.3C167.9 102.1 168 101.9 168.2 101.8C168.4 101.7 168.6 101.8 168.7 102L171.9 108.2C172 108.4 171.9 108.6 171.7 108.7C171.6 108.7 171.6 108.7 171.5 108.7Z" fill="#171717"/>
<path id="Path_71" d="M147 121.7C146.9 121.7 146.7 121.6 146.7 121.5L141.2 111.2C141.1 111 141.2 110.8 141.4 110.7C141.6 110.6 141.8 110.7 141.9 110.9L147.4 121.2C147.5 121.4 147.4 121.6 147.2 121.7C147.1 121.7 147.1 121.7 147 121.7Z" fill="#171717"/>
<path id="Path_72" d="M143.3 115.9C143 115.9 142.7 115.9 142.4 115.8C141.1 115.4 140.2 113.5 139.6 112C139.5 111.8 139.6 111.6 139.8 111.5C140 111.4 140.2 111.5 140.3 111.7C141 113.6 141.9 114.8 142.7 115.1C142.9 115.2 143 115.2 143.3 115.2C143.5 115.2 143.7 115.4 143.7 115.6C143.7 115.8 143.5 115.9 143.3 115.9Z" fill="#171717"/>
<path id="Path_73" d="M144.3 115.4C144.2 115.4 144.1 115.4 144 115.3C143.9 115.2 143.9 114.9 144 114.8C144.1 114.7 144.2 114.6 144.2 114.5C144.4 113.6 143.8 112.2 142.7 110.5C142.6 110.3 142.6 110.1 142.8 110C143 109.9 143.2 109.9 143.3 110.1C144.6 112 145.2 113.5 145 114.6C145 114.8 144.9 115.1 144.6 115.4C144.5 115.3 144.4 115.4 144.3 115.4Z" fill="#171717"/>
<g id="Group_43">
<path id="Path_74" d="M140.5 88.9C140.5 88.7 140.5 88.4 140.5 88.2C140.5 88.1 122 88.1 122 88.1C122 89.9 121.9 96.3 121.9 98.7C121.9 100.4 122.1 102.2 122.4 103.9C122.9 105.5 124.1 106.8 125.7 107.5C126.1 107.7 126.5 107.8 126.9 107.8C128.3 107.8 129.6 106.8 129.9 105.4C130.5 103 128.7 99.9 127.6 97.8C128.5 98.4 129.4 99 130.4 99.4C131.7 100.1 133.5 100.5 134.6 99.5C135.4 98.5 135.5 97.2 134.9 96.1C134.4 95 133.5 94.1 132.9 93.1C134.6 93.7 136.4 93.6 138.1 92.9C139.6 92.4 140.5 90.7 140.5 88.9Z" fill="#E1E9F7"/>
<path id="Shape_43" d="M126.9 108.2C126.4 108.2 126 108.1 125.5 107.9C123.8 107.2 122.5 105.8 122 104.1C121.7 102.1 121.5 100.4 121.5 98.8C121.5 97.5 121.5 95.1 121.6 92.8C121.6 90.8 121.6 89 121.6 88.2C121.6 88 121.8 87.8 122 87.8C140.9 87.8 140.9 87.8 140.9 88.3V89C140.9 91.1 139.8 92.8 138.2 93.4C136.7 94 135.2 94.2 133.8 93.9C133.9 94 134 94.1 134 94.2C134.4 94.8 134.9 95.4 135.2 96.1C135.9 97.3 135.7 98.8 134.9 99.9C133.6 101.1 131.7 100.7 130.2 99.9C129.6 99.7 129.1 99.4 128.6 99.1C129.6 101.1 130.8 103.6 130.3 105.7C129.9 107 128.5 108.2 126.9 108.2ZM122.4 88.5C122.4 89.4 122.4 91 122.4 92.7C122.4 95 122.3 97.4 122.3 98.7C122.3 100.2 122.5 102 122.8 103.8C123.3 105.2 124.4 106.5 125.9 107.1C126.3 107.3 126.6 107.4 126.9 107.4C128.1 107.4 129.3 106.5 129.5 105.3C130 103.2 128.6 100.5 127.5 98.5L127.2 98C127.1 97.8 127.2 97.7 127.3 97.5C127.4 97.4 127.6 97.4 127.8 97.5C128.7 98.1 129.6 98.7 130.5 99.1C131.7 99.7 133.4 100.1 134.3 99.3C135 98.5 135.1 97.3 134.5 96.4C134.2 95.8 133.8 95.2 133.4 94.6C133.1 94.2 132.8 93.8 132.5 93.4C132.4 93.3 132.4 93.1 132.5 93C132.6 92.9 132.8 92.8 132.9 92.9C134.5 93.5 136.2 93.4 137.8 92.7C139.1 92.3 140 90.8 140 89V88.7C138.3 88.5 128.9 88.5 122.4 88.5Z" fill="#171717"/>
</g>
</g>
<g id="girl_sewing_mask">
<g id="Group_44">
<path id="Oval_12" d="M252.261 20.4584C253.006 16.9468 250.763 13.4959 247.252 12.7507C243.74 12.0054 240.289 14.248 239.544 17.7596C238.799 21.2712 241.041 24.722 244.553 25.4673C248.065 26.2125 251.515 23.97 252.261 20.4584Z" fill="#C98877"/>
<path id="Shape_44" d="M245.9 26C242.1 26 239 22.9 239 19.1C239 15.3 242.1 12.2 245.9 12.2C249.7 12.2 252.8 15.3 252.8 19.1C252.8 22.9 249.7 26 245.9 26ZM245.9 13C242.5 13 239.8 15.7 239.8 19.1C239.8 22.5 242.5 25.2 245.9 25.2C249.3 25.2 252 22.5 252 19.1C252 15.7 249.3 13 245.9 13Z" fill="#171717"/>
</g>
<path id="Path_75" d="M235.9 38.1C234.9 37.5 234.7 35.8 234.5 34.8C234.2 33.4 234.1 32 234.3 30.7C234.8 28.4 235.8 26.3 237.1 24.4C238.3 22.7 240 21.4 241.9 20.6C248 18.4 254 23.1 256.1 28.6C257.3 31.7 257.4 35 257.5 38.3C257 38.1 255.8 38.5 255.3 38.4C254.5 38.4 253.4 38.6 252.5 38.6C250.8 38.5 249.7 38.1 248 38.1C244.6 38.1 241.2 38.2 237.9 38.3C237.3 38.5 236.5 38.4 235.9 38.1Z" fill="#C5D3ED"/>
<path id="Path_76" d="M239.4 35.7C239.1 35.7 239 35.5 239 35.3L240.3 26.6C240.3 26.4 240.5 26.3 240.7 26.3C240.9 26.3 241 26.5 241 26.7L239.7 35.4C239.7 35.5 239.6 35.7 239.4 35.7Z" fill="#171717"/>
<path id="Path_77" d="M242.8 37.7C242.7 37.7 242.7 37.7 242.6 37.6L239.2 35.6C239 35.5 239 35.3 239.1 35.1C239.2 34.9 239.4 34.9 239.6 35L243 37C243.2 37.1 243.2 37.3 243.1 37.5C243.1 37.6 242.9 37.7 242.8 37.7Z" fill="#171717"/>
<path id="Path_78" d="M257.4 39.2C257.2 39.2 257 39 257 38.8C257.2 37.1 257.8 32.2 255.5 28C254.6 26.2 251.2 20.3 245.3 20.3C240.3 20.3 237.1 24.7 236.5 25.5C235 27.7 233.5 31.5 235 36.9L235.1 37.1C235.1 37.3 235 37.5 234.8 37.6C234.6 37.7 234.4 37.5 234.3 37.3V37.1C232.7 31.4 234.3 27.4 235.9 25.1C236.5 24.2 239.9 19.5 245.3 19.5C251.6 19.5 255.2 25.7 256.1 27.6C258.4 32 257.8 37.1 257.6 38.8C257.8 39 257.6 39.2 257.4 39.2Z" fill="#171717"/>
<g id="Group_45">
<path id="Path_79" d="M249.9 17.2C249.9 19.5 248.1 21.3 245.8 21.3C244.1 21.3 242.6 20.2 242 18.7C241.8 18.2 241.7 17.7 241.7 17.3C241.7 15 243.5 13.2 245.8 13.2C248.1 13.2 249.9 15 249.9 17.2Z" fill="#EAE0D3"/>
<path id="Shape_45" d="M245.8 21.7C244 21.7 242.3 20.6 241.7 18.9C241.5 18.4 241.4 17.8 241.4 17.4C241.4 14.9 243.4 12.9 245.9 12.9C248.4 12.9 250.4 14.9 250.4 17.3C250.3 19.7 248.3 21.7 245.8 21.7ZM245.8 13.6C243.7 13.6 242.1 15.2 242.1 17.3C242.1 17.7 242.2 18.1 242.4 18.6C243 20 244.4 21 245.9 21C248 21 249.6 19.4 249.6 17.3C249.5 15.2 247.9 13.6 245.8 13.6Z" fill="#171717"/>
</g>
<g id="Group_46">
<path id="Path_80" d="M234.1 45.4L244 58.2L246.9 57.1L240.8 43.1" fill="#EAE0D3"/>
<path id="Path_81" d="M244 58.6C243.9 58.6 243.8 58.5 243.7 58.5L233.8 45.7C233.7 45.5 233.7 45.3 233.9 45.2C234.1 45.1 234.3 45.1 234.4 45.3L244.1 57.9L246.4 57L240.5 43.4C240.4 43.2 240.5 43 240.7 42.9C240.9 42.8 241.1 42.9 241.2 43.1L247.3 57.1C247.3 57.2 247.3 57.3 247.3 57.4C247.3 57.5 247.2 57.6 247.1 57.6L244.2 58.7C244.1 58.6 244 58.6 244 58.6Z" fill="#171717"/>
</g>
<g id="Group_47">
<path id="Path_82" d="M245.1 42.7L247.9 56.4L250.9 56.8L252.6 41.3" fill="#EAE0D3"/>
<path id="Path_83" d="M250.9 57.2L247.9 56.8C247.7 56.8 247.6 56.7 247.6 56.5L244.8 42.8C244.8 42.6 244.9 42.4 245.1 42.4C245.3 42.4 245.5 42.5 245.5 42.7L248.2 56.1L250.6 56.4L252.3 41.3C252.3 41.1 252.5 40.9 252.7 41C252.9 41 253.1 41.2 253 41.4L251.3 56.9C251.3 57 251.2 57.1 251.2 57.2C251.1 57.1 251 57.2 250.9 57.2Z" fill="#171717"/>
</g>
<path id="Path_84" d="M261.3 62.1C261.1 62.1 260.9 61.9 260.9 61.7V39H214.9V61.6C214.9 61.8 214.7 62 214.5 62C214.3 62 214.1 61.8 214.1 61.6V38.6C214.1 38.4 214.3 38.2 214.5 38.2H261.2C261.4 38.2 261.6 38.4 261.6 38.6V61.7C261.7 61.9 261.5 62.1 261.3 62.1Z" fill="#171717"/>
<path id="Path_85" d="M252.3 34.6C252.1 34.6 252 34.5 251.9 34.3L249.7 26.5C249.6 26.3 249.8 26.1 250 26C250.2 25.9 250.4 26.1 250.5 26.3L252.7 34.1C252.8 34.3 252.6 34.5 252.4 34.6H252.3Z" fill="#171717"/>
<path id="Path_86" d="M247.9 36.4C247.7 36.4 247.6 36.3 247.5 36.2C247.4 36 247.5 35.8 247.7 35.7L255.7 32.8C255.9 32.7 256.1 32.8 256.2 33C256.3 33.2 256.2 33.4 256 33.5L248 36.4H247.9Z" fill="#171717"/>
<g id="Group_48">
<path id="Path_87" d="M248.9 38.4H243C243.1 36.8 244.5 35.5 246.1 35.6C247.7 35.8 248.8 36.9 248.9 38.4Z" fill="#EAE0D3"/>
<path id="Shape_46" d="M248.9 38.8H243C242.9 38.8 242.8 38.8 242.7 38.7C242.6 38.6 242.6 38.5 242.6 38.4C242.7 37.5 243 36.7 243.7 36.1C244.4 35.5 245.2 35.2 246.1 35.2C247.9 35.4 249.1 36.7 249.3 38.3C249.3 38.4 249.3 38.5 249.2 38.6C249.1 38.7 249 38.8 248.9 38.8ZM243.4 38H248.4C248.2 36.9 247.2 36.1 246 35.9C245.4 35.9 244.7 36.1 244.2 36.6C243.8 37 243.5 37.5 243.4 38Z" fill="#171717"/>
</g>
<g id="Group_49">
<path id="Path_88" d="M237.6 33.6V27H222.3V38.3H237.6V35.6H227.1V31.5H233.5V33.5L237.6 33.6Z" fill="#FF673D"/>
<path id="Shape_47" d="M237.6 38.7H222.3C222.1 38.7 221.9 38.5 221.9 38.3V27C221.9 26.8 222.1 26.6 222.3 26.6H237.6C237.8 26.6 238 26.8 238 27V33.6C238 33.7 238 33.8 237.9 33.9C237.8 34 237.7 34 237.6 34L233.5 33.9C233.3 33.9 233.1 33.7 233.1 33.5V31.9H227.4V35.3H237.5C237.7 35.3 237.9 35.5 237.9 35.7V38.4C238 38.5 237.8 38.7 237.6 38.7ZM222.7 37.9H237.2V36H227.1C226.9 36 226.7 35.8 226.7 35.6V31.5C226.7 31.3 226.9 31.1 227.1 31.1H233.5C233.7 31.1 233.9 31.3 233.9 31.5V33.1L237.2 33.2V27.4H222.7V37.9Z" fill="#171717"/>
</g>
<g id="Group_50">
<path id="Path_89" d="M254 38.9L256.1 49C255 47.8 255 46.7 252.6 46.7C250.2 46.7 248 48.6 244.5 48.6C241 48.6 240.3 46 237 46.1C233.7 46.2 233.1 48.3 233.1 48.3L233.4 44.5C233.8 42.2 235 40.2 236.7 38.7" fill="#E1E9F7"/>
<path id="Path_90" d="M256.1 49.4C256 49.4 255.9 49.4 255.8 49.3C255.5 49 255.3 48.7 255.1 48.4C254.5 47.6 254.2 47.1 252.6 47.1C251.6 47.1 250.6 47.5 249.5 47.9C248.1 48.4 246.5 49 244.5 49C242.6 49 241.5 48.3 240.5 47.7C239.5 47.1 238.6 46.5 237 46.5C234 46.6 233.5 48.4 233.4 48.4C233.3 48.6 233.2 48.7 233 48.7C232.8 48.7 232.7 48.5 232.7 48.3L233 44.5C233.4 42.1 234.6 40.1 236.4 38.4C236.6 38.3 236.8 38.3 236.9 38.4C237 38.6 237 38.8 236.9 38.9C235.2 40.4 234.1 42.3 233.7 44.5L233.5 46.9C234.1 46.3 235.2 45.7 236.9 45.7C238.6 45.6 239.7 46.3 240.8 47C241.8 47.6 242.8 48.2 244.4 48.2C246.2 48.2 247.7 47.7 249.1 47.1C250.3 46.7 251.4 46.3 252.5 46.3C254.1 46.3 254.8 46.8 255.3 47.4L253.5 38.9C253.5 38.7 253.6 38.5 253.8 38.5C254 38.5 254.2 38.6 254.2 38.8L256.3 48.9C256.3 49.1 256.3 49.2 256.1 49.3C256.2 49.4 256.2 49.4 256.1 49.4Z" fill="#171717"/>
</g>
<path id="Path_91" d="M236.1 50.2C234.9 50.2 233.7 49.7 232.8 48.9C232.7 48.8 232.7 48.5 232.8 48.4C232.9 48.3 233.2 48.3 233.3 48.4C234.2 49.3 235.7 49.8 236.9 49.4C237.1 49.3 237.3 49.5 237.4 49.7C237.5 49.9 237.3 50.1 237.1 50.2C236.8 50.2 236.5 50.2 236.1 50.2Z" fill="#171717"/>
<g id="Group_51">
<path id="Path_92" d="M256.1 49.2C254.8 49.9 253.4 50.3 251.9 50.4Z" fill="#EAE0D3"/>
<path id="Path_93" d="M251.9 50.8C251.7 50.8 251.5 50.6 251.5 50.4C251.5 50.2 251.6 50 251.8 50C253.2 49.9 254.6 49.5 255.8 48.8C256 48.7 256.2 48.8 256.3 49C256.4 49.2 256.3 49.4 256.1 49.5C254.9 50.3 253.5 50.7 251.9 50.8Z" fill="#171717"/>
</g>
<path id="Path_94" d="M244.6 60.8C244.5 60.8 244.4 60.8 244.3 60.7C244.2 60.5 244.2 60.3 244.3 60.2C245.6 59.1 247.4 58.9 248.9 59.7C249.1 59.8 249.2 60 249.1 60.2C249 60.4 248.8 60.5 248.6 60.4C247.3 59.8 245.9 59.9 244.8 60.9C244.8 60.7 244.7 60.8 244.6 60.8Z" fill="#171717"/>
<path id="Path_95" d="M244.5 61.9C244.3 61.9 244.2 61.8 244.1 61.6C243.8 60.5 243.5 59.2 243.4 58C243.4 57.8 243.5 57.6 243.7 57.6C243.9 57.6 244.1 57.7 244.1 57.9C244.2 59.1 244.5 60.2 244.8 61.3C244.9 61.6 244.8 61.8 244.5 61.9C244.5 61.9 244.6 61.9 244.5 61.9Z" fill="#171717"/>
<path id="Path_96" d="M249 62C248.9 62 248.8 62 248.7 61.9C248.6 61.8 248.6 61.5 248.7 61.4C248.8 61.3 248.8 61.2 248.7 60.8V60.7C248.5 60.3 248.3 60 248.1 59.6L246.6 57.3C246.5 57.1 246.5 56.9 246.7 56.8C246.9 56.7 247.1 56.7 247.2 56.9L248.7 59.2C249 59.6 249.2 60 249.4 60.4V60.5V60.6C249.5 61 249.6 61.5 249.2 61.9C249.2 61.9 249.1 62 249 62Z" fill="#171717"/>
<path id="Path_97" d="M252.1 61.9C251.9 61.9 251.8 61.8 251.7 61.6L250.5 56.6C250.5 56.4 250.6 56.2 250.8 56.1C251 56.1 251.2 56.2 251.3 56.4L252.5 61.4C252.5 61.6 252.4 61.8 252.1 61.9C252.1 61.9 252.2 61.9 252.1 61.9Z" fill="#171717"/>
<path id="Path_98" d="M247.4 58.1C247.3 58.1 247.3 58.1 247.2 58.1C247 58 246.9 57.8 247 57.6C247.2 57.2 247.4 56.7 247.5 56.4C247.5 56.2 247.7 56.1 248 56.1C248.2 56.2 248.3 56.4 248.3 56.6C248.2 57 248 57.5 247.8 58C247.7 58 247.5 58.1 247.4 58.1Z" fill="#171717"/>
<path id="Path_99" d="M250.3 59.9C250.2 59.9 250.1 59.9 250.1 59.8C249.7 59.5 249.1 59.2 248.4 59.4C248.2 59.5 248 59.3 247.9 59.1C247.8 58.9 248 58.7 248.2 58.6C249 58.4 249.8 58.6 250.5 59.2C250.7 59.3 250.7 59.6 250.5 59.7C250.5 59.8 250.4 59.9 250.3 59.9Z" fill="#171717"/>
<path id="Path_100" d="M244.2 44.6C244 44.6 243.9 44.5 243.8 44.3C243.7 44.1 243.8 43.9 244 43.8C246.1 43.1 248 42 249.7 40.7C249.9 40.6 250.1 40.6 250.2 40.8C250.3 41 250.3 41.2 250.1 41.3C248.4 42.7 246.3 43.9 244.2 44.6C244.2 44.6 244.3 44.6 244.2 44.6Z" fill="#171717"/>
<path id="Path_101" d="M246.5 42.1C244.9 42.1 243.2 41.9 241.6 41.5C241.4 41.4 241.3 41.2 241.3 41C241.4 40.8 241.6 40.7 241.8 40.7C243.4 41.1 244.9 41.3 246.5 41.3C246.7 41.3 246.9 41.5 246.9 41.7C246.9 41.9 246.7 42.1 246.5 42.1Z" fill="#171717"/>
<path id="Path_102" d="M243.7 19.2C243.6 19.2 243.5 19.2 243.5 19.1L241.8 17.9C241.6 17.8 241.6 17.5 241.7 17.4C241.8 17.2 242.1 17.2 242.2 17.3L243.9 18.5C244.1 18.6 244.1 18.9 244 19C243.9 19.1 243.8 19.2 243.7 19.2Z" fill="#171717"/>
<path id="Path_103" d="M247.8 19.3C247.7 19.3 247.6 19.2 247.5 19.2C247.4 19 247.4 18.8 247.6 18.7L249.3 17.4C249.5 17.3 249.7 17.3 249.8 17.5C249.9 17.7 249.9 17.9 249.7 18L248 19.3C248 19.2 247.9 19.3 247.8 19.3Z" fill="#171717"/>
<path id="Path_104" d="M247.9 18.4V20.6C247.8 20.7 247.6 20.7 247.5 20.8C247 21 246.4 21.1 245.9 21.1C245.2 21.1 244.4 20.9 243.8 20.6V18.4C244.5 18.7 245.2 18.9 245.9 18.9C246.6 18.9 247.3 18.7 247.9 18.4Z" fill="#79C9A9"/>
<path id="Path_105" d="M247.9 10.2C247.8 10.3 247.6 10.4 247.4 10.4C247.6 10.4 247.8 10.3 247.9 10.2Z" fill="#79C9A9"/>
<g id="Group_52">
<path id="Path_106" d="M249.5 15.7C247.4 17.7 244.1 17.7 242.1 15.7C242.6 13.6 244.6 12.4 246.7 12.8C248.1 13.1 249.2 14.2 249.5 15.7Z" fill="#C98877"/>
<path id="Shape_48" d="M245.8 17.6C244.4 17.6 242.9 17.1 241.9 16C241.8 15.9 241.8 15.8 241.8 15.6C242.3 13.3 244.5 12 246.8 12.4C248.4 12.7 249.6 14 249.9 15.6C249.9 15.7 249.9 15.9 249.8 15.9C248.6 17 247.2 17.6 245.8 17.6ZM242.5 15.6C244.3 17.3 247.2 17.2 249.1 15.6C248.8 14.4 247.9 13.5 246.6 13.2C244.8 12.8 243 13.8 242.5 15.6Z" fill="#171717"/>
</g>
<path id="Path_107" d="M249.3 38.5H242C241.4 38.5 240.8 38.5 240.1 38.4C240 38.4 240 38.4 239.9 38.3C239.7 38.1 239.6 37.9 239.6 37.6C239.5 37.4 239.4 37.2 239.4 36.9C239.3 36.5 239 36.1 238.5 35.7C238 35.4 237.4 35.4 237.1 35.4H233.4C233.2 35.4 233 35.2 233 35C233 34.8 233.2 34.6 233.4 34.6H237.1C237.5 34.6 238.2 34.7 238.9 35.1C239.6 35.6 240 36.2 240.1 36.9C240.1 37.1 240.2 37.2 240.3 37.4C240.3 37.5 240.3 37.5 240.3 37.6C240.3 37.7 240.3 37.7 240.3 37.8C240.8 37.9 241.3 37.9 241.9 37.9H249.2C249.4 37.9 249.6 38.1 249.6 38.3C249.6 38.5 249.5 38.5 249.3 38.5Z" fill="#79C9A9"/>
<path id="Path_108" d="M235.6 35C235.4 35 235.2 34.8 235.2 34.6V33.6C235.2 33.4 235.4 33.2 235.6 33.2C235.8 33.2 236 33.4 236 33.6V34.6C236 34.8 235.8 35 235.6 35Z" fill="#171717"/>
<path id="Path_109" d="M246.5 50.6L243.8 50.4C243.6 50.4 243.4 50.2 243.5 50C243.5 49.8 243.7 49.6 243.9 49.7L246.6 49.9C246.8 49.9 247 50.1 246.9 50.3C246.9 50.4 246.7 50.6 246.5 50.6Z" fill="#171717"/>
</g>
<g id="chef">
<g id="Group_53">
<path id="Path_110" d="M244.2 120L243.4 146.5H237.7L237.8 117.1" fill="#C5D3ED"/>
<path id="Path_111" d="M243.4 146.9H237.7C237.6 146.9 237.5 146.9 237.4 146.8C237.3 146.7 237.3 146.6 237.3 146.5L237.4 117.1C237.4 116.9 237.6 116.7 237.8 116.7C238 116.7 238.2 116.9 238.2 117.1L238.1 146.1H243.1L243.9 120C243.9 119.8 244.1 119.6 244.3 119.6C244.5 119.6 244.7 119.8 244.7 120L243.9 146.5C243.8 146.7 243.6 146.9 243.4 146.9Z" fill="#171717"/>
</g>
<g id="Group_54">
<path id="Path_112" d="M244.2 120L250.7 146.5H256.4L249.3 117.8" fill="#C5D3ED"/>
<path id="Path_113" d="M256.4 146.9H250.7C250.5 146.9 250.4 146.8 250.3 146.6L243.8 120.1C243.8 119.9 243.9 119.7 244.1 119.6C244.3 119.6 244.5 119.7 244.6 119.9L251 146.1H255.9L248.9 117.9C248.9 117.7 249 117.5 249.2 117.4C249.4 117.4 249.6 117.5 249.7 117.7L256.8 146.4C256.8 146.5 256.8 146.6 256.7 146.7C256.6 146.8 256.5 146.9 256.4 146.9Z" fill="#171717"/>
</g>
<path id="Path_114" d="M276.9 151.1C276.7 151.1 276.5 150.9 276.5 150.7V120.4H226.6V150.7C226.6 150.9 226.4 151.1 226.2 151.1C226 151.1 225.8 150.9 225.8 150.7V120C225.8 119.8 226 119.6 226.2 119.6H276.8C277 119.6 277.2 119.8 277.2 120V150.7C277.3 150.9 277.1 151.1 276.9 151.1Z" fill="#171717"/>
<path id="Path_115" d="M248.6 114C249 113.7 249.4 113.4 249.9 113.3C250.4 113.2 250.8 113.2 251.3 113.4C252 113.6 252.6 114 253.1 114.5L247.8 118.7C247.3 119.1 246.6 119.6 246 119.3C246.5 118.8 246.9 118.2 247.1 117.6C247.2 117.3 247.2 116.9 247.1 116.6C247.1 116.3 246.7 116 246.8 115.7C246.8 115.1 248.2 114.3 248.6 114Z" fill="#C98877"/>
<g id="Group_55">
<path id="Path_116" d="M249.1 117.5C248.4 118.2 247.5 118.7 246.6 119.2C246.4 119.3 246.1 119.4 245.9 119.4C245.5 119.3 245.1 119.1 244.9 118.7C244.8 118.5 244.7 118.2 244.6 118C244.6 117.5 244.9 117.1 245.2 116.8C245.6 116.4 246.6 115 247.2 115.3C247.9 115.9 248.5 116.7 249.1 117.5Z" fill="#E1E9F7"/>
<path id="Shape_49" d="M245.9 119.8C245.2 119.6 244.8 119.3 244.6 118.9C244.5 118.8 244.5 118.7 244.4 118.5C244.4 118.4 244.3 118.3 244.3 118.2C244.3 118.1 244.3 118.1 244.3 118C244.3 117.5 244.5 117 245 116.5C245.1 116.4 245.2 116.3 245.3 116.2C245.9 115.5 246.7 114.6 247.4 114.9C248.2 115.6 248.8 116.4 249.4 117.2C249.5 117.3 249.5 117.6 249.4 117.7C248.7 118.4 247.7 119 246.8 119.5C246.5 119.6 246.2 119.8 245.9 119.8ZM245 117.9C245 118 245.1 118.1 245.1 118.2C245.1 118.3 245.2 118.4 245.2 118.5C245.3 118.7 245.6 118.9 246 119C246 119 246.3 118.9 246.4 118.8C247.2 118.4 247.9 117.9 248.6 117.4C248.1 116.7 247.5 116 247 115.5C247 115.5 246.7 115.6 245.8 116.6C245.7 116.7 245.6 116.9 245.5 117C245.2 117.4 245 117.6 245 117.9Z" fill="#171717"/>
</g>
<path id="Path_117" d="M244.2 117.9C244.1 117.9 244 117.9 243.9 117.8C243.8 117.6 243.8 117.4 244 117.3L251.4 111.3C251.6 111.2 251.8 111.2 251.9 111.4C252 111.6 252 111.8 251.8 111.9L244.4 117.9C244.4 117.8 244.3 117.9 244.2 117.9Z" fill="#171717"/>
<path id="Path_118" d="M245.3 120.2C245.1 120.2 244.9 120.1 244.7 120C244.6 119.9 244.6 119.6 244.7 119.5C244.8 119.4 245.1 119.4 245.2 119.5C245.9 119.8 249.7 116.7 251.3 115.5C252.1 114.9 252.7 114.4 253.1 114.1C253.3 114 253.5 114 253.6 114.2C253.7 114.4 253.7 114.6 253.5 114.7C253.1 115 252.5 115.5 251.7 116.1C248.3 118.8 246.3 120.2 245.3 120.2Z" fill="#171717"/>
<path id="Path_119" d="M245 117.1C244.8 117.1 244.6 116.9 244.6 116.7C244.7 111.7 244.5 107.4 244.1 103.3C244.1 101.5 243.1 100.1 241.5 99.5C241.3 99.4 241.2 99.2 241.3 99C241.4 98.8 241.6 98.7 241.8 98.8C243.7 99.4 245 101.2 245 103.3C245.4 107.3 245.6 111.7 245.5 116.7C245.4 116.9 245.2 117.1 245 117.1Z" fill="#171717"/>
<g id="Group_56">
<path id="Oval_13" d="M244.9 119.2C246.06 119.2 247 118.26 247 117.1C247 115.94 246.06 115 244.9 115C243.74 115 242.8 115.94 242.8 117.1C242.8 118.26 243.74 119.2 244.9 119.2Z" fill="#FF8766"/>
<path id="Shape_50" d="M244.9 119.6C243.5 119.6 242.4 118.5 242.4 117.1C242.4 115.7 243.5 114.6 244.9 114.6C246.3 114.6 247.4 115.7 247.4 117.1C247.4 118.5 246.3 119.6 244.9 119.6ZM244.9 115.4C243.9 115.4 243.2 116.2 243.2 117.1C243.2 118 244 118.8 244.9 118.8C245.8 118.8 246.6 118 246.6 117.1C246.6 116.2 245.9 115.4 244.9 115.4Z" fill="#171717"/>
</g>
<path id="Path_120" d="M241.6 119.2C242 119.6 242.6 119.8 243.1 119.9C243.8 120.1 244.5 119.7 244.6 119C244.7 118.6 244.6 118.2 244.4 117.9C244.2 117.5 243.9 117.2 243.5 116.9C242 115.6 240.3 114.4 238.6 113.3L236.8 115.3C236.1 116.1 237.1 116.1 237.8 116.5C239.2 117.3 240.4 118.2 241.6 119.2Z" fill="#C98877"/>
<path id="Path_121" d="M235.3 117.7C235.2 117.7 235.2 117.7 235.1 117.6C233.2 116.7 231.9 115.2 231.4 113.2C230.4 109.6 231.7 105.3 233.6 102.7C234.2 101.8 237.6 97.1 243 97.1C249.3 97.1 252.9 103.3 253.8 105.2C254.8 107.1 255.4 109.3 255.6 111.6C255.6 111.8 255.6 112 255.7 112.2C255.9 113.5 256.1 115.5 254.9 116.4C254.8 116.5 254.7 116.5 254.5 116.4C254.4 116.3 254.3 116.2 254.3 116.1C254.2 115.7 254 115.1 253.5 114.8C252.2 114 250.8 113.7 249.4 113.8C249.2 113.8 249 113.7 249 113.5C249 113.3 249.1 113.1 249.3 113.1C250.9 113 252.4 113.4 253.8 114.3C254.3 114.6 254.6 115.1 254.8 115.5C255.2 114.7 255 113.4 254.9 112.5C254.9 112.3 254.9 112.1 254.8 111.9C254.6 109.7 254 107.5 253 105.7C252.1 103.9 248.7 98 242.8 98C237.8 98 234.6 102.4 234 103.2C232.3 105.7 231 109.8 231.9 113.1C232.4 114.8 233.5 116.1 235.1 116.9C235.6 116.3 236.9 114.7 237.9 113.4C238 113.2 238.3 113.2 238.4 113.3C238.6 113.4 238.6 113.7 238.5 113.8C236 117.1 235.6 117.7 235.3 117.7Z" fill="#171717"/>
<g id="Group_57">
<path id="Path_122" d="M239 94.1C238.9 92.8 238 91.7 236.7 91.4C237 92.7 237.7 93.9 238.7 94.7L236.6 95.5C236.3 95.6 235.9 95.9 236 96.2C236.1 96.4 236.3 96.5 236.5 96.4C237.5 96.5 238.5 96.3 239.4 95.9" fill="#E1E9F7"/>
<path id="Shape_51" d="M236.3 96.8C236.2 96.8 236.1 96.8 236 96.7C235.8 96.6 235.7 96.5 235.6 96.3C235.4 95.7 236 95.2 236.4 95.1L237.9 94.5C237.1 93.7 236.5 92.6 236.2 91.4C236.2 91.3 236.2 91.1 236.3 91.1C236.4 91 236.5 91 236.6 91C238 91.3 239.1 92.6 239.2 94C239.2 94.2 239.1 94.4 238.9 94.4C239 94.5 239 94.6 239 94.7C239 94.8 238.9 94.9 238.8 95L236.7 95.8C236.5 95.9 236.3 96 236.3 96.1C236.4 96.1 236.4 96 236.5 96C237.4 96.1 238.3 95.9 239.2 95.5C239.4 95.4 239.6 95.5 239.7 95.7C239.8 95.9 239.7 96.1 239.5 96.2C238.5 96.6 237.5 96.8 236.5 96.7C236.5 96.8 236.4 96.8 236.3 96.8ZM237.3 92C237.6 92.8 238.1 93.6 238.7 94.1C238.6 93.2 238 92.4 237.3 92Z" fill="#171717"/>
</g>
<g id="Group_58">
<path id="Oval_14" d="M243.2 99.5C245.409 99.5 247.2 97.7091 247.2 95.5C247.2 93.2909 245.409 91.5 243.2 91.5C240.991 91.5 239.2 93.2909 239.2 95.5C239.2 97.7091 240.991 99.5 243.2 99.5Z" fill="#C98877"/>
<path id="Shape_52" d="M243.2 99.9C240.8 99.9 238.8 97.9 238.8 95.5C238.8 93.1 240.8 91.1 243.2 91.1C245.6 91.1 247.6 93.1 247.6 95.5C247.6 97.9 245.6 99.9 243.2 99.9ZM243.2 91.9C241.2 91.9 239.6 93.5 239.6 95.5C239.6 97.5 241.2 99.1 243.2 99.1C245.2 99.1 246.8 97.5 246.8 95.5C246.8 93.5 245.2 91.9 243.2 91.9Z" fill="#171717"/>
</g>
<path id="Path_123" d="M249.9 113.2C249.7 113.2 249.6 113.1 249.5 112.9L247.1 104.1C247 103.9 247.2 103.7 247.4 103.6C247.6 103.5 247.8 103.7 247.9 103.9L250.3 112.7C250.3 112.9 250.2 113.1 249.9 113.2C249.9 113.2 250 113.2 249.9 113.2Z" fill="#171717"/>
<path id="Path_124" d="M237 112.2C236.7 112.2 236.6 112 236.6 111.8L237.7 104.3C237.7 104.1 237.9 103.9 238.1 104C238.3 104 238.4 104.2 238.4 104.4L237.3 111.9C237.3 112 237.2 112.2 237 112.2Z" fill="#171717"/>
<g id="Group_59">
<path id="Oval_15" d="M274.2 119.7C275.305 119.7 276.2 118.805 276.2 117.7C276.2 116.595 275.305 115.7 274.2 115.7C273.095 115.7 272.2 116.595 272.2 117.7C272.2 118.805 273.095 119.7 274.2 119.7Z" fill="#EAE0D3"/>
<path id="Shape_53" d="M274.2 120.1C272.9 120.1 271.8 119 271.8 117.7C271.8 116.4 272.9 115.3 274.2 115.3C275.5 115.3 276.6 116.4 276.6 117.7C276.6 119 275.5 120.1 274.2 120.1ZM274.2 116.1C273.3 116.1 272.6 116.8 272.6 117.7C272.6 118.6 273.3 119.3 274.2 119.3C275.1 119.3 275.8 118.6 275.8 117.7C275.8 116.8 275.1 116.1 274.2 116.1Z" fill="#171717"/>
</g>
<path id="Path_125" d="M243.2 117.1C243.1 117.1 243 117.1 243 117L235 111C234.8 110.9 234.8 110.6 234.9 110.5C235 110.3 235.3 110.3 235.4 110.4L243.4 116.4C243.6 116.5 243.6 116.8 243.5 116.9C243.4 117 243.3 117.1 243.2 117.1Z" fill="#171717"/>
<path id="Path_126" d="M243.3 120.4C242.5 120.4 241.7 119.8 241 119.3C240.8 119.1 240.5 118.9 240.3 118.8C239.2 117.9 237.9 117.2 236.3 116.6C236.1 116.5 236 116.3 236.1 116.1C236.2 115.9 236.4 115.8 236.6 115.9C238.3 116.5 239.7 117.2 240.8 118.2C241 118.3 241.2 118.5 241.5 118.7C242.4 119.4 243.1 119.9 243.9 119.5C244.3 119.3 244.6 119 244.6 118.8C244.6 118.3 244 117.7 243 117.1C242.8 117 242.8 116.8 242.9 116.6C243 116.4 243.2 116.4 243.4 116.5C244.1 116.9 245.4 117.8 245.3 118.9C245.3 119.5 244.9 119.9 244.2 120.3C243.9 120.3 243.6 120.4 243.3 120.4Z" fill="#171717"/>
<g id="Group_60">
<path id="Path_127" d="M239.8 93.8C241.7 95.5 244.5 96 246.9 94.9L247.1 95.8C247.1 95.9 246.6 96.3 246.5 96.3C246.3 96.4 246 96.6 245.8 96.6C245 96.9 244.2 97 243.3 96.9C242.3 96.8 241.3 96.6 240.4 96.2C239.9 96 239.5 95.8 239.2 95.4L239.8 93.8Z" fill="#E1E9F7"/>
<path id="Shape_54" d="M244 97.3C243.8 97.3 243.5 97.3 243.3 97.3C242.1 97.2 241.1 96.9 240.3 96.6C239.8 96.4 239.3 96.2 239 95.7C238.9 95.6 238.9 95.5 238.9 95.3L239.5 93.7C239.5 93.6 239.6 93.5 239.8 93.5C239.9 93.5 240 93.5 240.1 93.6C241.9 95.2 244.6 95.7 246.8 94.6C246.9 94.6 247 94.6 247.1 94.6C247.2 94.7 247.3 94.7 247.3 94.9L247.5 95.8C247.5 96.2 247 96.6 246.7 96.7L246.6 96.8C246.4 96.9 246.2 97 246 97.1C245.2 97.2 244.6 97.3 244 97.3ZM239.6 95.3C239.8 95.5 240.1 95.7 240.5 95.8C241.3 96.1 242.2 96.4 243.3 96.5C244.1 96.6 244.9 96.5 245.6 96.2H245.7C245.8 96.2 246 96.1 246.1 96L246.3 95.9C246.3 95.9 246.3 95.9 246.4 95.9C246.5 95.9 246.6 95.8 246.7 95.7L246.6 95.4C244.4 96.3 241.8 95.9 239.9 94.4L239.6 95.3Z" fill="#171717"/>
</g>
<g id="Group_61">
<path id="Path_128" d="M266.4 115.4C264.8 112.8 262.8 110.5 260.6 108.4C260.2 108 259.5 107.6 259.1 108C259 108.1 258.9 108.3 258.9 108.5C258.8 109.3 259.1 110.1 259.5 110.7C260.7 112.7 262.4 114.4 264.3 115.7C263 115.2 261.8 114.8 260.4 114.6C260.1 114.5 259.7 114.5 259.5 114.7C259.3 114.9 259.6 115.6 260 115.9C261.4 116.9 263.1 117.4 264.9 117.5C263.5 117.5 262 117.8 260.7 118.3C260.4 118.4 260.2 118.5 260 118.7C259.8 118.9 259.8 119.3 260 119.5C260.1 119.6 260.3 119.7 260.5 119.7C262.5 120.1 264.6 119.8 266.4 119" fill="#79C9A9"/>
<path id="Path_129" d="M262.3 120.3C261.7 120.3 261 120.2 260.4 120.1C260.1 120.1 259.9 119.9 259.7 119.8C259.5 119.6 259.4 119.4 259.4 119.1C259.4 118.8 259.5 118.6 259.7 118.4C260 118.1 260.2 118 260.5 117.9C261 117.7 261.6 117.5 262.2 117.4C261.3 117.1 260.4 116.7 259.7 116.2C259.3 115.9 259 115.4 259 115C259 114.7 259.1 114.6 259.2 114.5C259.5 114.2 260.1 114.2 260.5 114.3C261.1 114.4 261.7 114.5 262.3 114.7C261 113.6 260 112.3 259.2 111C258.9 110.6 258.4 109.6 258.5 108.6C258.5 108.4 258.6 108.1 258.8 107.9C259 107.7 259.2 107.6 259.5 107.6C260.1 107.6 260.7 108.1 260.9 108.3C263.4 110.6 265.3 113 266.8 115.4C266.9 115.6 266.9 115.8 266.7 115.9C266.5 116 266.3 116 266.2 115.8C264.7 113.4 262.9 111.2 260.5 108.9C260.2 108.6 259.9 108.4 259.7 108.4C259.6 108.4 259.6 108.4 259.6 108.5C259.6 108.5 259.5 108.6 259.5 108.7C259.4 109.4 259.6 110.1 260 110.7C261.1 112.6 262.7 114.3 264.7 115.6C264.9 115.7 264.9 115.9 264.8 116.1C264.7 116.3 264.5 116.3 264.3 116.3C263 115.8 261.8 115.4 260.5 115.2C260.2 115.1 260 115.1 259.9 115.2C259.9 115.2 260.1 115.6 260.4 115.8C261.7 116.7 263.3 117.2 265.1 117.3C265.3 117.3 265.5 117.5 265.5 117.7C265.5 117.9 265.3 118.1 265.1 118.1C263.8 118.1 262.3 118.4 261 118.9C260.7 119 260.6 119.1 260.4 119.2C260.3 119.3 260.3 119.4 260.4 119.5C260.4 119.5 260.5 119.6 260.6 119.6C262.5 120 264.5 119.7 266.3 118.9C266.5 118.8 266.7 118.9 266.8 119.1C266.9 119.3 266.8 119.5 266.6 119.6C265.2 119.9 263.7 120.3 262.3 120.3Z" fill="#171717"/>
</g>
<g id="Group_62">
<path id="Oval_16" d="M269 119.7C270.712 119.7 272.1 118.312 272.1 116.6C272.1 114.888 270.712 113.5 269 113.5C267.288 113.5 265.9 114.888 265.9 116.6C265.9 118.312 267.288 119.7 269 119.7Z" fill="#FF8766"/>
<path id="Shape_55" d="M269 120.1C267.1 120.1 265.5 118.5 265.5 116.6C265.5 114.7 267.1 113.1 269 113.1C270.9 113.1 272.5 114.7 272.5 116.6C272.5 118.5 270.9 120.1 269 120.1ZM269 113.9C267.5 113.9 266.3 115.1 266.3 116.6C266.3 118.1 267.5 119.3 269 119.3C270.5 119.3 271.7 118.1 271.7 116.6C271.7 115.1 270.5 113.9 269 113.9Z" fill="#171717"/>
</g>
<path id="Path_130" d="M241.9 151L234.1 150.9C234 150.9 233.9 150.8 233.8 150.8C233.7 150.7 233.7 150.6 233.7 150.5C233.9 149.6 234.5 148.8 235.3 148.4C235.9 148 236.5 148 237 147.9C237.5 147.9 237.9 147.8 238.3 147.5C238.4 147.4 238.5 147.3 238.6 147.2C238.7 147.1 238.8 146.9 238.9 146.8C239 146.7 239.3 146.7 239.4 146.8C239.5 146.9 239.5 147.2 239.4 147.3C239.3 147.4 239.2 147.5 239.1 147.6C239 147.7 238.9 147.9 238.8 148C238.2 148.5 237.6 148.6 237 148.6C236.5 148.6 236.1 148.7 235.6 148.9C235.1 149.2 234.7 149.6 234.5 150.1L241.4 150.2C241.4 148.9 241.6 147.3 241.6 146.8C241.6 146.6 241.8 146.4 242 146.5C242.2 146.5 242.4 146.7 242.3 146.9C242.2 148 242.1 149.5 242.1 150.6C242.1 150.7 242.1 150.8 242 150.9C242.1 150.9 242 151 241.9 151Z" fill="#171717"/>
<path id="Shape_56" d="M256.4 151H251.9C251.7 151 251.5 150.8 251.5 150.6V150.2C251.6 148.7 252.9 147.6 254.4 147.7C255.7 147.8 256.7 148.9 256.7 150.2V150.6C256.8 150.8 256.6 151 256.4 151ZM252.3 150.2H256.1C256.1 149.3 255.4 148.6 254.4 148.5C253.3 148.4 252.4 149.1 252.3 150.2Z" fill="#171717"/>
<path id="Path_131" d="M251.8 150.1C251.6 150.1 251.5 150 251.4 149.8L250.9 146.6C250.9 146.4 251 146.2 251.2 146.2C251.4 146.2 251.6 146.3 251.6 146.5L252.1 149.7C252.2 149.8 252.1 150 251.8 150.1Z" fill="#171717"/>
<path id="Path_132" d="M256.4 150.1C256.2 150.1 256.1 150 256 149.8L255.1 146.6C255 146.4 255.2 146.2 255.4 146.1C255.6 146 255.8 146.2 255.9 146.4L256.8 149.6C256.9 149.8 256.7 150 256.5 150.1H256.4Z" fill="#171717"/>
<path id="Path_133" d="M253.5 116.9C252.6 116.9 251.9 116.7 251.1 116.3C250.9 116.2 250.9 116 251 115.8C251.1 115.6 251.3 115.6 251.5 115.7C252.2 116.1 252.8 116.3 253.5 116.3C254.2 116.3 254.8 115.8 254.9 115.1C254.9 114.9 255.1 114.8 255.3 114.8C255.5 114.8 255.6 115 255.6 115.2C255.4 116.2 254.6 116.9 253.5 116.9Z" fill="#171717"/>
<path id="Shape_57" d="M241.6 106.1C241.1 106.1 240.6 105.7 240.6 105.1C240.6 104.6 241 104.1 241.6 104.1C242.1 104.1 242.6 104.5 242.6 105.1C242.6 105.6 242.1 106.1 241.6 106.1ZM241.6 104.9C241.5 104.9 241.4 105 241.4 105.1C241.4 105.3 241.9 105.3 241.9 105.1C241.8 105 241.7 104.9 241.6 104.9Z" fill="#171717"/>
<path id="Shape_58" d="M241.6 110C241.1 110 240.6 109.6 240.6 109C240.6 108.4 241 108 241.6 108C242.1 108 242.6 108.4 242.6 109C242.6 109.6 242.1 110 241.6 110ZM241.6 108.8C241.5 108.8 241.4 108.9 241.4 109C241.4 109.2 241.9 109.2 241.9 109C241.8 108.9 241.7 108.8 241.6 108.8Z" fill="#171717"/>
<path id="Shape_59" d="M230 120.1C228.8 120.1 227.3 119.8 227.3 119C227.3 118.2 228.7 117.9 230 117.9C231.3 117.9 232.7 118.2 232.7 119C232.7 119.8 231.2 120.1 230 120.1ZM228.1 119C228.3 119.1 229 119.3 230 119.3C231 119.3 231.6 119.1 231.9 119C231.7 118.9 231 118.7 230 118.7C229 118.7 228.4 118.9 228.1 119Z" fill="#171717"/>
<path id="Shape_60" d="M230 118.4C228.8 118.4 227.3 118.1 227.3 117.3C227.3 116.5 228.7 116.2 230 116.2C231.3 116.2 232.7 116.5 232.7 117.3C232.7 118.1 231.2 118.4 230 118.4ZM228.1 117.3C228.3 117.4 229 117.6 230 117.6C231 117.6 231.6 117.4 231.9 117.3C231.7 117.2 231 117 230 117C229 117 228.4 117.2 228.1 117.3Z" fill="#171717"/>
<path id="Path_134" d="M243.9 117.6C243.8 117.6 243.7 117.6 243.7 117.5L242 116.2C241.8 116.1 241.8 115.8 241.9 115.7C242 115.5 242.3 115.5 242.4 115.6L244.1 116.9C244.3 117 244.3 117.3 244.2 117.4C244.1 117.5 244 117.6 243.9 117.6Z" fill="#171717"/>
<g id="Group_63">
<path id="Path_135" d="M241.4 115.2C242.5 116.1 243.5 117 244.5 118.1C245.5 119.3 243.6 120 242.6 119.7C242.1 119.6 239.2 118.1 239.2 117.7C239.2 117.3 241.3 115.3 241.4 115.2Z" fill="#E1E9F7"/>
<path id="Shape_61" d="M243.1 120.1C242.9 120.1 242.7 120.1 242.5 120C242.2 120 238.8 118.4 238.8 117.6C238.8 117.4 238.8 117.1 241.1 114.9C241.2 114.8 241.5 114.7 241.6 114.8C242.9 115.8 243.8 116.7 244.7 117.7C245.3 118.4 245 119 244.9 119.2C244.6 119.9 243.8 120.1 243.1 120.1ZM239.6 117.7C240.1 118.2 242.3 119.3 242.7 119.4C243.3 119.6 244.1 119.4 244.4 119C244.4 118.9 244.6 118.8 244.3 118.4C243.5 117.5 242.6 116.7 241.5 115.8C240.3 116.8 239.8 117.4 239.6 117.7Z" fill="#171717"/>
</g>
</g>
</g>
</g>
</g>
</g>
</g>
<defs>
<clipPath id="clip0">
<rect width="329" height="152" fill="white"/>
</clipPath>
</defs>
</svg>
