<svg width="342" height="248" viewBox="0 0 362 148" fill="none" xmlns="http://www.w3.org/2000/svg">
<g id="neighbour 1">
<g>
<g id="Page 1">
<g id="Artboard">
<g id="neighbour">
<g id="groceries">
<path id="Shape" d="M163.5 121.4H155.7C155.5 121.4 155.3 121.2 155.3 121V111C155.3 110.8 155.5 110.6 155.7 110.6H163.5C163.7 110.6 163.9 110.8 163.9 111V121C163.9 121.2 163.7 121.4 163.5 121.4ZM156.1 120.6H163.1V111.4H156.1V120.6Z" fill="#171717"/>
<path id="Shape_2" d="M178.2 125.2C178.1 125.2 178.1 125.2 178.2 125.2L170.4 123.2C170.3 123.2 170.2 123.1 170.2 123C170.2 122.9 170.1 122.8 170.2 122.7L172.1 115.6C172.2 115.4 172.4 115.3 172.6 115.3L180.3 117.3C180.5 117.4 180.6 117.6 180.6 117.8L178.7 124.9C178.5 125 178.3 125.2 178.2 125.2ZM170.9 122.5L177.9 124.3L179.6 118L172.6 116.2L170.9 122.5Z" fill="#171717"/>
<g id="Group">
<path id="Path" d="M167.3 115.7C167.2 114.8 167.1 113.8 167.2 112.9C167.1 111.2 167.5 109.6 168.5 108.2C168.7 107.9 169 107.7 169.4 107.7C170 107.7 170.3 108.4 170.4 109C170.5 109.8 170.4 110.6 170.2 111.4C169.8 113.3 169.3 115.1 168.6 116.9C169.2 114 170.8 111.4 173.2 109.5C173.4 109.4 173.6 109.3 173.8 109.2C174.3 109.2 174.5 109.9 174.4 110.4C174 113.3 171.7 115.4 169.5 117.4C170.6 116.1 171.9 114.9 173.3 114C174.1 113.4 175.1 113.1 176.1 113.1C176.5 113.8 175.9 114.6 175.3 115.1C173.7 116.4 171.9 117.4 169.9 118.2" fill="#49BAA4"/>
<path id="Path_2" d="M170 118.5L169.7 117.8C171.8 117 173.5 116 175 114.8C175.2 114.7 175.9 114 175.8 113.5C174.9 113.5 174.1 113.8 173.5 114.3C173.1 114.6 172.7 114.8 172.3 115.1C171.5 116 170.6 116.8 169.7 117.6L169.2 117.1C170 116.1 170.9 115.3 171.8 114.5C172.9 113.3 173.8 111.9 174 110.3C174.1 110 174 109.7 173.9 109.6C173.9 109.6 173.9 109.6 173.8 109.6L173.3 109.8C171.8 111 170.6 112.5 169.8 114.1C169.5 115.1 169.2 116 168.8 117L168.1 116.8C168.3 115.8 168.6 114.8 169.1 113.9C169.3 113.1 169.5 112.2 169.7 111.3C169.9 110.4 170 109.7 169.9 109C169.8 108.6 169.6 108 169.3 108C169.1 108 168.9 108.1 168.7 108.3C167.8 109.6 167.4 111.1 167.5 112.8C167.4 113.7 167.5 114.6 167.6 115.6L166.9 115.7C166.8 114.7 166.7 113.7 166.8 112.8C166.7 111 167.1 109.3 168.2 107.9C168.5 107.5 168.9 107.2 169.4 107.2C170.1 107.2 170.6 107.8 170.8 108.8C170.9 109.6 170.8 110.4 170.6 111.4C170.6 111.5 170.6 111.6 170.6 111.6C171.3 110.7 172.1 109.8 173.1 109.1L173.9 108.7C174.2 108.7 174.4 108.8 174.6 109C174.9 109.4 175 109.9 174.9 110.3C174.8 111.3 174.4 112.3 173.9 113.1C174.6 112.7 175.4 112.5 176.3 112.5H176.5L176.6 112.7C177 113.4 176.7 114.4 175.7 115.2C174 116.7 172.2 117.7 170 118.5Z" fill="#171717"/>
</g>
<g id="Group_2">
<path id="Path_3" d="M166.2 113.9L171.4 118.6C172.1 119.2 171.6 120.9 170.3 122.4C169 123.9 167.4 124.5 166.7 123.8L161.5 119.1L166.2 113.9Z" fill="#FF8766"/>
<path id="Shape_3" d="M167.5 124.5C167.1 124.5 166.7 124.4 166.5 124.1L161.3 119.4C161.2 119.3 161.2 119.2 161.2 119.1C161.2 119 161.2 118.9 161.3 118.8L166 113.6C166.1 113.4 166.4 113.4 166.5 113.6L171.7 118.3C172 118.5 172.1 118.8 172.1 119.3C172.2 120.2 171.6 121.5 170.6 122.7C169.6 123.7 168.5 124.4 167.5 124.5ZM162 119.1L166.9 123.5C167 123.6 167.2 123.7 167.5 123.7C168.2 123.7 169.2 123.1 170 122.1C170.8 121.1 171.4 120 171.3 119.3C171.3 119.1 171.2 118.9 171.1 118.9L166.2 114.4L162 119.1Z" fill="#171717"/>
</g>
<g id="Group_3">
<path id="Oval" d="M164.966 117.403C166.264 115.97 166.751 114.298 166.055 113.668C165.359 113.037 163.743 113.688 162.446 115.121C161.148 116.554 160.661 118.227 161.357 118.857C162.053 119.487 163.669 118.836 164.966 117.403Z" fill="#C4E3D4"/>
<path id="Shape_4" d="M162 119.5C161.6 119.5 161.3 119.4 161 119.2C160.6 118.8 160.4 118.1 160.7 117.2C160.9 116.4 161.4 115.6 162.1 114.9C162.8 114.2 163.5 113.6 164.3 113.3C165.1 113 165.8 113 166.3 113.4C166.7 113.8 166.9 114.5 166.6 115.3C166.4 116.1 165.9 116.9 165.2 117.6C164.1 118.8 162.9 119.5 162 119.5ZM162.7 115.4C162.1 116.1 161.7 116.8 161.5 117.4C161.3 118 161.4 118.4 161.6 118.6C162.1 119 163.5 118.5 164.7 117.2C165.3 116.5 165.7 115.8 165.9 115.2C166.1 114.6 166 114.2 165.8 114C165.6 113.8 165.1 113.8 164.6 114C163.9 114.2 163.3 114.7 162.7 115.4Z" fill="#171717"/>
</g>
<path id="Path_4" d="M149.3 118.8C149.6 118.3 150.1 118 150.6 117.8C150.9 117.7 151.2 117.7 151.5 117.7C152 117.7 152.9 117.7 153.3 117.7C153.4 118.8 153 119.9 153 121C151.8 121.1 150.5 121 149.3 120.9C148.1 120.7 148.8 119.5 149.3 118.8Z" fill="#FF8766"/>
<g id="Group_4">
<path id="Rectangle" d="M155.7 111H153.3V121H155.7V111Z" fill="#49BAA4"/>
<path id="Shape_5" d="M155.7 121.4H153.3C153.1 121.4 152.9 121.2 152.9 121V111C152.9 110.8 153.1 110.6 153.3 110.6H155.7C155.9 110.6 156.1 110.8 156.1 111V121C156.1 121.2 155.9 121.4 155.7 121.4ZM153.7 120.6H155.4V111.4H153.7V120.6Z" fill="#171717"/>
</g>
<g id="Group_5">
<path id="Path_5" d="M182.2 147H156.2V121H182.2V132.8L184.7 138.7L182.2 142.9V147Z" fill="#79C9A9"/>
<path id="Shape_6" d="M182.2 147.4H156.2C156 147.4 155.8 147.2 155.8 147V121C155.8 120.8 156 120.6 156.2 120.6H182.2C182.4 120.6 182.6 120.8 182.6 121V132.7L185.1 138.5C185.1 138.6 185.1 138.7 185.1 138.8L182.7 142.9V146.9C182.6 147.2 182.4 147.4 182.2 147.4ZM156.6 146.6H181.8V142.9C181.8 142.8 181.8 142.8 181.9 142.7L184.3 138.7L181.9 133V132.9V121.5H156.7V146.6H156.6Z" fill="#171717"/>
</g>
<g id="Group_6">
<path id="Rectangle_2" d="M156.2 121H152.1V146.9H156.2V121Z" fill="#79C9A9"/>
<path id="Shape_7" d="M156.2 147.3H152.1C151.9 147.3 151.7 147.1 151.7 146.9V121C151.7 120.8 151.9 120.6 152.1 120.6H156.2C156.4 120.6 156.6 120.8 156.6 121V146.9C156.6 147.1 156.4 147.3 156.2 147.3ZM152.5 146.5H155.9V121.3H152.5V146.5Z" fill="#171717"/>
</g>
<g id="Group_7">
<path id="Path_6" d="M152.1 147H148.8L146.9 139.6L148.8 133.6V121H152.1V147Z" fill="#79C9A9"/>
<path id="Shape_8" d="M152.1 147.4H148.8C148.6 147.4 148.5 147.3 148.4 147.1L146.5 139.7C146.5 139.6 146.5 139.6 146.5 139.5L148.4 133.6V121C148.4 120.8 148.6 120.6 148.8 120.6H152.1C152.3 120.6 152.5 120.8 152.5 121V147C152.5 147.2 152.3 147.4 152.1 147.4ZM149.1 146.6H151.7V121.4H149.1V133.6V133.7L147.2 139.6L149.1 146.6Z" fill="#171717"/>
</g>
<path id="Path_7" d="M169.2 130.8H169.1C166 130.7 163.4 127.5 162.7 123C162.7 122.8 162.8 122.6 163 122.6C163.2 122.6 163.4 122.7 163.4 122.9C164 127 166.3 130 169 130.1H169.1C171.7 130.1 174.1 127 174.7 122.9C174.7 122.7 174.9 122.5 175.1 122.6C175.3 122.6 175.4 122.8 175.4 123C174.9 127.5 172.3 130.8 169.2 130.8Z" fill="#171717"/>
<path id="Path_8" d="M161.8 140.3C161.6 140.3 161.5 140.2 161.4 140L160.2 135.8C160.1 135.6 160.3 135.4 160.5 135.3C160.7 135.2 160.9 135.4 161 135.6L162.1 139.5L165.3 138.7C165.5 138.7 165.7 138.8 165.8 139C165.9 139.2 165.7 139.4 165.5 139.5L161.8 140.3C161.8 140.3 161.9 140.3 161.8 140.3Z" fill="#171717"/>
<path id="Path_9" d="M148.9 121.5C148.7 121.5 148.5 121.3 148.5 121.1V120.5C148.6 119.4 149.1 118.5 149.9 117.9C150.7 117.2 151.8 117 152.9 117.1C153.1 117.1 153.2 117.3 153.2 117.5C153.2 117.7 153 117.9 152.8 117.8C151.9 117.7 151.1 117.9 150.4 118.4C149.7 118.9 149.3 119.6 149.3 120.4V121C149.3 121.3 149.1 121.5 148.9 121.5Z" fill="#171717"/>
<path id="Path_10" d="M151.3 119.8C151.1 119.8 150.9 119.8 150.6 119.6C150.4 119.5 150.3 119.3 150.4 119.1C150.5 118.9 150.7 118.8 150.9 118.9C151.3 119.1 151.7 118.9 152 118.5C152 118.3 152.2 118.1 152.4 118.1C152.6 118.1 152.8 118.3 152.8 118.5V118.6C152.8 118.7 152.8 118.7 152.8 118.8C152.4 119.4 151.9 119.8 151.3 119.8Z" fill="#171717"/>
<path id="Path_11" d="M151.6 119.7C151.4 119.7 151.3 119.6 151.2 119.4C150.9 118.3 150.3 117.4 149.5 116.7C149.3 116.6 149.3 116.3 149.5 116.2C149.6 116 149.9 116 150 116.2C150.9 117 151.6 118.1 151.9 119.3C152 119.4 151.9 119.6 151.6 119.7C151.6 119.7 151.7 119.7 151.6 119.7Z" fill="#171717"/>
</g>
<g id="house">
<path id="Path_12" d="M139.9 147.4C139.7 147.4 139.5 147.2 139.5 147V34.1C139.5 33.9 139.7 33.7 139.9 33.7C140.1 33.7 140.3 33.9 140.3 34.1V147C140.3 147.2 140.1 147.4 139.9 147.4Z" fill="#171717"/>
<g id="house 2">
<path id="Path_13" d="M0.899991 34.5C0.799991 34.5 0.599991 34.4 0.599991 34.3C0.499991 34.1 0.599991 33.9 0.799991 33.8L70.5 1.30385e-07C70.7 -0.0999999 70.9 1.78814e-07 71 0.2C71.1 0.4 71 0.6 70.8 0.7L1.09999 34.5C0.999991 34.5 0.999991 34.5 0.899991 34.5Z" fill="#171717"/>
<path id="Path_14" d="M139.9 34.5C139.8 34.5 139.8 34.5 139.7 34.5L69.9 0.7C69.7 0.6 69.6 0.4 69.7 0.2C69.8 1.78814e-07 70 -0.0999999 70.2 1.30385e-07L140 33.8C140.2 33.9 140.3 34.1 140.2 34.3C140.2 34.4 140 34.5 139.9 34.5Z" fill="#171717"/>
<path id="Path_15" d="M139.7 147.5H5.00001C4.80001 147.5 4.60001 147.3 4.60001 147.1C4.60001 146.9 4.80001 146.7 5.00001 146.7H139.7C139.9 146.7 140.1 146.9 140.1 147.1C140.1 147.3 139.9 147.5 139.7 147.5Z" fill="#171717"/>
<path id="Path_16" d="M57.6 113.5H0.9C0.7 113.5 0.5 113.3 0.5 113.1C0.5 112.9 0.7 112.7 0.9 112.7H57.2V62.7H0.9C0.7 62.7 0.5 62.5 0.5 62.3C0.5 62.1 0.7 61.9 0.9 61.9H57.6C57.8 61.9 58 62.1 58 62.3V113.1C58 113.3 57.8 113.5 57.6 113.5Z" fill="#171717"/>
<g id="plant">
  <g id="Group_8">
  <path id="Path_17" d="M34.1 113.1H22.5L20.5 100.7H36.1L34.1 113.1Z" fill="#FF673D"/>
  <path id="Shape_9" d="M34.1 113.5H22.5C22.3 113.5 22.2 113.4 22.1 113.2L20.1 100.8C20.1 100.7 20.1 100.6 20.2 100.5C20.3 100.4 20.4 100.4 20.5 100.4H36.1C36.2 100.4 36.3 100.4 36.4 100.5C36.5 100.6 36.5 100.7 36.5 100.8L34.5 113.2C34.4 113.3 34.3 113.5 34.1 113.5ZM22.8 112.7H33.8L35.7 101.1H21L22.8 112.7Z" fill="#171717"/>
  </g>
  <g id="Group_9">
  <path id="Rectangle_3" d="M36.3 100.7H20.1V105.6H36.3V100.7Z" fill="#FF8766"/>
  <path id="Shape_10" d="M36.3 106H20.1C19.9 106 19.7 105.8 19.7 105.6V100.7C19.7 100.5 19.9 100.3 20.1 100.3H36.3C36.5 100.3 36.7 100.5 36.7 100.7V105.6C36.7 105.8 36.5 106 36.3 106ZM20.5 105.2H35.9V101.1H20.5V105.2Z" fill="#171717"/>
  </g>
  <path id="Path_18" d="M29.9 100.8C29.9 100.8 29.8 100.8 29.9 100.8C29.6 100.7 29.5 100.5 29.5 100.3C30.6 96 32.9 92.1 36.1 89.1C36.3 89 36.5 89 36.6 89.1C36.7 89.3 36.7 89.5 36.6 89.6C33.5 92.5 31.3 96.2 30.2 100.4C30.2 100.7 30.1 100.8 29.9 100.8Z" fill="#171717"/>
  <g id="Group_10">
  <path id="Oval_2" d="M38.8128 86.3486C39.4374 84.5192 39.2657 82.8048 38.4294 82.5193C37.5931 82.2337 36.4089 83.4853 35.7843 85.3147C35.1598 87.1441 35.3314 88.8585 36.1677 89.1441C37.004 89.4296 38.1883 88.178 38.8128 86.3486Z" fill="white"/>
  <path id="Shape_11" d="M36.4 89.6C36.3 89.6 36.2 89.6 36 89.5C34.9 89.1 34.7 87.3 35.4 85.2C35.7 84.3 36.2 83.4 36.7 82.9C37.3 82.3 37.9 82 38.5 82.2C39.1 82.4 39.4 83 39.5 83.9C39.6 84.7 39.4 85.6 39.1 86.6C38.6 88.3 37.4 89.6 36.4 89.6ZM36.2 85.4C35.6 87.1 35.8 88.6 36.3 88.8C36.8 89 37.9 87.9 38.5 86.2C38.8 85.4 38.9 84.5 38.8 83.9C38.7 83.3 38.6 83 38.3 82.9C38 82.8 37.7 83 37.3 83.4C36.9 83.9 36.4 84.6 36.2 85.4Z" fill="#171717"/>
  </g>
  <g id="Group_11">
  <path id="Oval_3" d="M39.8557 87.7796C41.0209 86.2372 41.394 84.5551 40.6889 84.0224C39.9838 83.4898 38.4677 84.3083 37.3025 85.8506C36.1372 87.393 35.7642 89.0751 36.4693 89.6077C37.1744 90.1404 38.6905 89.3219 39.8557 87.7796Z" fill="white"/>
  <path id="Shape_12" d="M37 90.2C36.7 90.2 36.5 90.1 36.2 90C35.3 89.3 35.6 87.5 37 85.7C38.3 83.9 40 83.1 40.9 83.8C41.8 84.5 41.5 86.3 40.1 88.1C39.2 89.4 37.9 90.2 37 90.2ZM37.6 86.1C36.5 87.5 36.2 89 36.7 89.3C37.2 89.6 38.5 89 39.6 87.5C40.7 86.1 41 84.6 40.5 84.3C40 84 38.7 84.7 37.6 86.1Z" fill="#171717"/>
  </g>
  <g id="Group_12">
  <path id="Oval_4" d="M40.1817 89.462C41.9307 88.6388 43.0435 87.3232 42.6671 86.5237C42.2908 85.7242 40.5678 85.7434 38.8189 86.5667C37.0699 87.3899 35.9572 88.7055 36.3335 89.505C36.7099 90.3045 38.4328 90.2853 40.1817 89.462Z" fill="white"/>
  <path id="Shape_13" d="M37.7 90.5C36.9 90.5 36.2 90.2 36 89.7C35.5 88.7 36.7 87.2 38.7 86.3C40.7 85.4 42.6 85.4 43 86.4C43.5 87.4 42.3 88.9 40.3 89.8C39.4 90.3 38.5 90.5 37.7 90.5ZM41.3 86.3C40.7 86.3 39.8 86.5 39 86.9C37.4 87.7 36.4 88.8 36.7 89.3C36.9 89.8 38.4 89.8 40 89.1C41.6 88.3 42.6 87.2 42.3 86.7C42.2 86.5 41.9 86.3 41.3 86.3Z" fill="#171717"/>
  </g>
  <path id="Path_19" d="M27 101C26.8 101 26.7 100.9 26.6 100.7C26.1 96.6 24.8 92.8 22.9 89.7C22.8 89.5 22.8 89.3 23 89.2C23.2 89.1 23.4 89.1 23.5 89.3C25.5 92.6 26.8 96.4 27.4 100.6C27.4 100.8 27.3 100.9 27 101Z" fill="#171717"/>
  <path id="Path_20" d="M30.6 98.2C29.2 96.9 28.7 95 29.3 93.2C29.5 92.3 30.3 91.7 31.1 91.5L31.5 91.4V91.8C31.5 92.2 31.8 93.7 31.9 94.5C32 94.8 32 95.1 32 95.3L31.3 95.4C31.3 95.2 31.2 95 31.2 94.6C31 93.7 30.9 92.8 30.8 92.2C30.4 92.4 30.1 92.8 30 93.2C29.5 94.7 29.9 96.4 31.1 97.4L30.6 98.2Z" fill="#171717"/>
  <path id="Path_21" d="M30.6 98.6C29.1 98.6 28.4 97.5 28 96.5C27.3 95.2 27.3 93.7 27.5 92.7C27.6 91.8 27.9 91.1 28.5 90.4C28.7 90.2 28.8 90.2 29 90.2C29.4 90.2 29.5 90.4 29.5 90.5L30.5 91.8L29.9 92.3L28.9 91C28.5 91.5 28.3 92.1 28.2 92.8C28 94.1 28.2 95.3 28.7 96.2C29.3 97.4 29.8 97.9 30.7 97.9V98.6H30.6Z" fill="#171717"/>
  <g id="Group_13">
  <path id="Path_22" d="M26.3 97.7C26.4 97.7 26.3 97.8 26.2 97.8C26.1 97.8 26.1 97.7 26.1 97.6C25.6 96.4 24.8 95.4 23.6 94.7C22.4 94.1 21.1 94 19.8 94.5C19 94.8 18.4 95.5 18.3 96.4C21 97 23.7 97.7 26.3 98.5" fill="#79C9A9"/>
  <path id="Shape_14" d="M26.3 98.9H26.2C23.7 98.1 21 97.4 18.2 96.8C18 96.8 17.9 96.6 17.9 96.4C18 95.4 18.7 94.6 19.6 94.2C21 93.7 22.4 93.8 23.7 94.4C24.9 95.1 25.8 96.1 26.3 97.4C26.4 97.4 26.4 97.5 26.5 97.5C26.6 97.6 26.6 97.7 26.6 97.8C26.6 98 26.5 98.2 26.3 98.2C26.5 98.3 26.6 98.5 26.5 98.7C26.6 98.8 26.5 98.9 26.3 98.9ZM18.7 96.1C21.2 96.7 23.5 97.3 25.8 97.9C25.8 97.8 25.7 97.7 25.7 97.6C25.2 96.4 24.4 95.6 23.4 94.9C22.3 94.3 21.1 94.3 19.9 94.7C19.3 95.1 18.9 95.5 18.7 96.1Z" fill="#171717"/>
  </g>
  <path id="Path_23" d="M18.2 96.6C18.1 96.6 18 96.5 17.9 96.4C17.5 95.9 17.4 95.2 17.7 94.6C17.8 94.1 18 93.7 18.3 93.2C18.7 92.6 19.4 92.3 20 92.6C21.3 92.9 22.3 93.4 23.1 94.1C23.3 94.2 23.3 94.5 23.2 94.6C23.1 94.8 22.8 94.8 22.7 94.7C21.9 94.1 21.1 93.7 19.8 93.4C19.4 93.3 19.1 93.4 18.9 93.7C18.6 94.1 18.4 94.5 18.3 94.9C18.1 95.3 18.2 95.7 18.4 96C18.5 96.2 18.5 96.4 18.3 96.5C18.4 96.6 18.3 96.6 18.2 96.6Z" fill="#171717"/>
  <g id="Group_14">
  <path id="Path_24" d="M19.1 87.6C18.5 88 17.9 88.4 17.5 89C17.1 89.6 17.1 90.4 17.5 91C18.1 91.5 19 91.6 19.7 91.1C20.3 90.6 20.9 90 21.2 89.3C21.5 89.9 22.1 90.4 22.7 90.6C23.4 90.8 24.1 90.6 24.6 90.1C25.1 89.6 25.1 88.8 24.6 88.2C25.4 88.4 26.3 88.3 27.1 88.1C27.9 87.8 28.8 87.1 28.6 86.3C28.4 85.8 28 85.4 27.5 85.3C27 85.2 26.5 85.1 26 85.2C25.8 85.2 25.6 85.2 25.5 85.1C25.4 85 25.3 84.9 25.2 84.7C24.7 83.8 23.5 83.4 22.5 84C22.1 84.2 21.8 84.6 21.6 85C20.9 84.7 20.1 84.5 19.4 84.6C18.6 84.7 18 85.4 18.1 86.2C18.3 86.7 18.7 87.2 19.2 87.4" fill="white"/>
  <path id="Shape_15" d="M18.7 91.8C18.2 91.8 17.7 91.6 17.3 91.3C17.3 91.3 17.2 91.3 17.2 91.2C16.7 90.5 16.7 89.5 17.2 88.8C17.6 88.2 18.1 87.8 18.6 87.5C18.2 87.2 17.9 86.7 17.8 86.4V86.3C17.7 85.3 18.4 84.4 19.4 84.3C20.1 84.2 20.9 84.4 21.5 84.6C21.7 84.3 22 83.9 22.4 83.7C22.9 83.4 23.6 83.3 24.2 83.5C24.8 83.7 25.3 84.1 25.6 84.6C25.7 84.8 25.7 84.8 25.8 84.9H26C26.5 84.8 27 84.9 27.6 85C28.2 85.1 28.7 85.6 29 86.2C29.3 87.2 28.3 88.1 27.3 88.5C26.6 88.7 25.9 88.8 25.3 88.7C25.5 89.3 25.3 89.9 24.9 90.4C24.3 91 23.4 91.2 22.6 91C22.1 90.8 21.6 90.5 21.2 90.1C20.8 90.7 20.3 91.1 19.9 91.5C19.6 91.7 19.1 91.8 18.7 91.8ZM17.8 90.7C18.3 91.1 19 91.1 19.5 90.7C19.9 90.3 20.6 89.7 20.9 89.1C21 89 21.1 88.9 21.2 88.9C21.4 88.9 21.5 89 21.5 89.1C21.7 89.6 22.3 90 22.8 90.2C23.3 90.4 23.9 90.2 24.3 89.8C24.7 89.4 24.7 88.9 24.3 88.4C24.2 88.3 24.2 88.1 24.3 88C24.4 87.9 24.6 87.8 24.7 87.8C25.3 88 26.1 87.9 27 87.7C27.7 87.4 28.4 86.9 28.2 86.4C28.1 86 27.7 85.7 27.4 85.7C26.9 85.6 26.5 85.5 26 85.6C25.7 85.6 25.4 85.6 25.2 85.4C25.1 85.3 25 85.2 24.8 84.9C24.6 84.6 24.3 84.3 23.9 84.2C23.5 84.1 23.1 84.2 22.7 84.4C22.4 84.6 22.1 84.8 21.9 85.2C21.8 85.4 21.6 85.5 21.4 85.4C20.7 85.1 19.9 84.9 19.4 85C18.8 85.1 18.4 85.6 18.4 86.1C18.6 86.5 18.9 86.9 19.3 87C19.5 87.1 19.6 87.3 19.5 87.5C19.5 87.5 19.5 87.6 19.4 87.6C19.4 87.7 19.3 87.8 19.2 87.8C18.6 88.2 18.1 88.6 17.7 89.1C17.5 89.7 17.5 90.3 17.8 90.7Z" fill="#171717"/>
  </g>
  <path id="Path_25" d="M22.1 87.7C21.9 87.7 21.7 87.7 21.6 87.6C21.4 87.5 21.3 87.3 21.3 87.1C21.4 86.9 21.6 86.8 21.8 86.8C22.3 86.9 22.9 86.7 23.3 86.2C23.4 86 23.7 86 23.8 86.2C24 86.3 24 86.6 23.8 86.7C23.4 87.4 22.8 87.7 22.1 87.7Z" fill="#171717"/>
  </g>
</g>
</g>
<g id="girl">
<path id="Shape_16" d="M197.5 117C197.4 117 197.3 117 197.2 116.9L192 111.7C191.9 111.6 191.9 111.3 192 111.2L197.7 105.5C197.8 105.4 197.9 105.4 198 105.4C198.1 105.4 198.2 105.4 198.3 105.5L203.5 110.7C203.6 110.8 203.6 111.1 203.5 111.2L197.8 116.9C197.7 117 197.6 117 197.5 117ZM192.9 111.5L197.5 116.1L202.6 111L198 106.4L192.9 111.5Z" fill="#171717"/>
<path id="Path_26" d="M198.6 125.6C198.4 125.6 198.3 125.5 198.2 125.3L197 121.1C196.9 120.9 197.1 120.7 197.3 120.6C197.5 120.5 197.7 120.7 197.8 120.9L198.9 124.8L202.1 124C202.3 124 202.5 124.1 202.6 124.3C202.6 124.5 202.5 124.7 202.3 124.8L198.6 125.6C198.6 125.6 198.7 125.6 198.6 125.6Z" fill="#171717"/>
<g id="Group_15">
<path id="Path_27" d="M215.3 94V142.5H232.8L224 89.1" fill="#FF673D"/>
<path id="Path_28" d="M232.8 142.9H215.3C215.1 142.9 214.9 142.7 214.9 142.5V94C214.9 93.8 215.1 93.6 215.3 93.6C215.5 93.6 215.7 93.8 215.7 94V142.1H232.4L223.7 89.1C223.7 88.9 223.8 88.7 224 88.7C224.2 88.7 224.4 88.8 224.4 89L233.2 142.4C233.2 142.5 233.2 142.6 233.1 142.7C233 142.8 232.9 142.9 232.8 142.9Z" fill="#171717"/>
</g>
<g id="Group_16">
<path id="Path_29" d="M229.9 84.1C232.4 88.6 264.6 142.6 265.5 142.6H246.1C237.1 126.5 227.8 107.7 218.7 91.5" fill="#FF8766"/>
<path id="Path_30" d="M265.5 143H246.1C246 143 245.8 142.9 245.8 142.8C241.4 134.9 236.8 126.2 232.4 117.8C227.8 109 223 99.9 218.4 91.7C218.3 91.5 218.4 91.3 218.5 91.2C218.7 91.1 218.9 91.2 219 91.3C223.6 99.6 228.4 108.7 233 117.4C237.4 125.7 241.9 134.3 246.3 142.2H264.7C263.4 140.5 259.7 134.6 248 115.2C239.6 101.3 230.9 86.6 229.6 84.3C229.5 84.1 229.6 83.9 229.7 83.8C229.9 83.7 230.1 83.8 230.2 83.9C233.3 89.5 263.9 140.5 265.6 142.2C265.7 142.3 265.8 142.4 265.8 142.5C265.9 142.8 265.7 143 265.5 143Z" fill="#171717"/>
</g>
<g id="Group_17">
<path id="Path_31" d="M205 95.6C203 95.9 201.1 96.4 199.2 97.1C198.7 97.3 198.2 97.7 197.7 98C196.8 98.7 196.7 100 197.3 100.9C197.9 101.8 199 102.2 200.1 102C201.1 101.8 202.1 101.4 203 100.9C204.2 100.1 205.4 99.3 206.4 98.3" fill="white"/>
<path id="Path_32" d="M199.6 102.4C198.6 102.4 197.6 101.9 197 101.1C196.3 100 196.5 98.5 197.5 97.7C197.7 97.6 197.9 97.5 198 97.4C198.3 97.2 198.7 96.9 199.1 96.8C201.1 96.1 203 95.6 205 95.3C205.2 95.3 205.4 95.4 205.4 95.6C205.4 95.8 205.3 96 205.1 96C203.2 96.3 201.3 96.8 199.4 97.5C199.1 97.6 198.8 97.8 198.5 98C198.3 98.1 198.2 98.2 198 98.3C197.3 98.8 197.2 99.9 197.7 100.7C198.2 101.5 199.1 101.8 200.1 101.6C201 101.4 202 101.1 202.9 100.5C204 99.7 205.2 98.9 206.2 98C206.3 97.9 206.6 97.9 206.7 98C206.8 98.1 206.8 98.4 206.7 98.5C205.7 99.5 204.4 100.3 203.3 101.1C202.3 101.7 201.2 102.1 200.3 102.3C200 102.4 199.8 102.4 199.6 102.4Z" fill="#171717"/>
</g>
<g id="Group_18">
<path id="Path_33" d="M219.7 82.5C213.6 87.4 210.6 89.8 204.5 94.6L207.4 99.1C216.1 93.3 221.9 90.8 230.5 85C230.4 83.7 227.4 71.9 221 67.2C213.6 61.6 207.9 66.8 206.9 67.1" fill="#C4E3D4"/>
<path id="Path_34" d="M207.4 99.5C207.4 99.5 207.3 99.5 207.4 99.5C207.2 99.5 207.1 99.4 207.1 99.3L204.2 94.8C204.1 94.6 204.1 94.4 204.3 94.3C210.4 89.5 213.5 87 219.5 82.2C219.7 82.1 219.9 82.1 220 82.3C220.1 82.5 220.1 82.7 219.9 82.8C214 87.6 210.9 90 205 94.7L207.5 98.6C211.6 95.8 215.2 93.8 218.6 91.9C222.1 89.9 225.8 87.8 230.1 84.9C229.8 83 226.9 72.1 220.8 67.6C214.7 63 209.9 65.9 207.9 67.1C207.5 67.3 207.3 67.5 207.1 67.5C206.9 67.6 206.7 67.4 206.6 67.2C206.5 67 206.7 66.8 206.9 66.7C207 66.7 207.3 66.5 207.6 66.3C209.6 65.1 214.9 61.9 221.4 66.8C227.7 71.5 230.9 83.1 231 84.9C231 85 230.9 85.2 230.8 85.2C226.4 88.2 222.7 90.3 219.1 92.4C215.6 94.4 212 96.5 207.7 99.3C207.5 99.5 207.5 99.5 207.4 99.5Z" fill="#171717"/>
</g>
<g id="Group_19">
<path id="Path_35" d="M212.5 60.5C212.5 64.2 209.5 67.2 205.8 67.2C203 67.2 200.6 65.5 199.6 62.9C199.3 62.1 199.1 61.3 199.1 60.5C199.1 56.8 202.1 53.8 205.8 53.8C209.6 53.9 212.5 56.9 212.5 60.5Z" fill="white"/>
<path id="Shape_17" d="M205.8 67.6C202.9 67.6 200.3 65.8 199.3 63.1C198.9 62.2 198.8 61.3 198.8 60.6C198.8 56.7 202 53.5 205.9 53.5C209.9 53.6 213 56.7 213 60.6C212.9 64.4 209.7 67.6 205.8 67.6ZM205.8 54.2C202.3 54.2 199.5 57 199.5 60.5C199.5 61.2 199.7 61.9 200 62.8C200.9 65.3 203.2 66.9 205.8 66.9C209.3 66.9 212.1 64.1 212.1 60.6C212.1 57 209.3 54.3 205.8 54.2Z" fill="#171717"/>
</g>
<g id="Group_20">
<path id="Path_36" d="M212.7 60.5C212.7 61.6 212.4 62.7 211.9 63.6C211.6 62.9 211.3 62.1 211.2 61.3C211.2 60.7 211 60.1 210.8 59.5C210.6 58.9 210.1 58.5 209.5 58.4C209 58.5 208.6 58.6 208.2 58.7C207 58.9 205.4 57.6 204.2 57.3C202.9 57 201.6 56.8 200.3 56.9C202.2 53.7 206.3 52.7 209.5 54.6C211.4 56 212.7 58.2 212.7 60.5Z" fill="#C98877"/>
<path id="Shape_18" d="M211.9 64C211.7 64 211.6 63.9 211.6 63.8C211.3 63.1 211 62.3 210.9 61.4C210.9 60.8 210.7 60.3 210.5 59.7C210.4 59.3 210 59 209.6 58.9C209.1 59 208.8 59.1 208.4 59.2C207.5 59.3 206.6 58.9 205.6 58.4C205.1 58.1 204.6 57.9 204.2 57.8C202.7 57.4 201.5 57.3 200.4 57.4C200.3 57.4 200.1 57.3 200.1 57.2C200 57.1 200 56.9 200.1 56.8C202.1 53.5 206.4 52.4 209.8 54.4C211.9 56 213.2 58.3 213.2 60.6C213.2 61.7 212.9 62.9 212.4 63.9C212.2 63.9 212 64 211.9 64ZM209.5 58C210.3 58.1 210.9 58.6 211.2 59.4C211.4 60 211.6 60.7 211.6 61.3C211.7 61.7 211.8 62.2 212 62.7C212.3 62 212.4 61.3 212.4 60.5C212.4 58.4 211.2 56.3 209.4 54.9C206.6 53.3 203.1 54 201.1 56.5C202.1 56.5 203.1 56.6 204.4 56.9C204.9 57 205.4 57.3 206 57.6C206.8 58 207.6 58.4 208.3 58.3C208.5 58.2 208.9 58.1 209.5 58Z" fill="#171717"/>
</g>
<path id="Path_37" d="M203.5 62.1C203.4 62.1 203.3 62 203.2 61.9C203.1 61.7 203.2 61.5 203.3 61.4L207.6 58.8C207.8 58.7 208 58.7 208.1 58.9C208.2 59.1 208.1 59.3 208 59.4L203.7 62C203.6 62.1 203.6 62.1 203.5 62.1Z" fill="#171717"/>
<path id="Path_38" d="M205 65C204.9 65 204.8 64.9 204.7 64.9C204.6 64.7 204.6 64.5 204.8 64.4L210.7 59.9C210.9 59.8 211.1 59.8 211.2 60C211.3 60.2 211.3 60.4 211.1 60.5L205.2 65C205.2 65 205.1 65 205 65Z" fill="#171717"/>
<path id="Path_39" d="M205.1 65.1L202.1 66.5C200.8 65.7 199.8 64.5 199.2 63.1L203.3 61.2L205.1 65.1Z" fill="#49BAA4"/>
<g id="Group_21">
<path id="Path_40" d="M225 52.9L211.1 55.8C211.1 55.8 221.7 43.8 223.6 43.8C226.2 43.8 228.3 45.9 228.3 48.5C228.3 50.6 226.9 52.4 225 52.9Z" fill="#C98877"/>
<path id="Shape_19" d="M211.1 56.2C211 56.2 210.8 56.1 210.8 56C210.7 55.9 210.7 55.7 210.8 55.6C212.6 53.6 221.6 43.5 223.6 43.5C226.4 43.5 228.7 45.8 228.7 48.6C228.7 50.8 227.2 52.8 225.1 53.4L211.1 56.2C211.1 56.2 211.2 56.2 211.1 56.2ZM223.6 44.2C222.5 44.2 216.5 50.4 212.1 55.2L224.9 52.5C226.7 52 227.9 50.4 227.9 48.5C227.9 46.1 226 44.2 223.6 44.2Z" fill="#171717"/>
</g>
<path id="Oval_5" d="M201.517 61.0772C201.786 61.0159 201.905 60.5296 201.782 59.9911C201.66 59.4527 201.342 59.0659 201.073 59.1272C200.803 59.1886 200.685 59.6749 200.807 60.2133C200.93 60.7518 201.248 61.1386 201.517 61.0772Z" fill="#171717"/>
<path id="Path_41" d="M219.7 82.9C219.6 82.9 219.4 82.8 219.4 82.7L215.6 75C215.5 74.8 215.6 74.6 215.8 74.5C216 74.4 216.2 74.5 216.3 74.7L220.1 82.4C220.2 82.6 220.1 82.8 219.9 82.9C219.8 82.9 219.8 82.9 219.7 82.9Z" fill="#171717"/>
<g id="Group_22">
<path id="Path_42" d="M185.3 64.3C185.1 64 184.9 63.8 184.7 63.6C184.4 63.3 183.7 62.8 183.2 63.1C182.7 63.4 182.8 64.1 182.9 64.5C183 65.2 183.3 65.9 183.5 66.6C183.7 67 183.8 67.3 183.9 67.7C183.9 67.9 183.9 68 183.8 68.1C183.4 68.5 182.3 67.5 182.3 68.4C182.3 68.6 182.4 68.9 182.5 69.1C184 71.9 185.8 74.7 187.6 77.3C188.5 76.5 189.1 75 190 74.2C190.2 74.1 187.9 69.5 187.6 69C187.1 67.4 186.2 65.8 185.3 64.3Z" fill="white"/>
<path id="Shape_20" d="M187.6 77.7C187.4 77.7 187.4 77.6 187.3 77.5C185.2 74.5 183.5 71.8 182.2 69.3C182.1 69.1 182 68.7 182 68.4C182 68.1 182.1 67.9 182.3 67.8C182.6 67.6 182.9 67.7 183.3 67.8C183.4 67.8 183.6 67.9 183.7 67.9V67.8C183.6 67.5 183.5 67.3 183.3 66.9C183.2 66.6 183.1 66.4 183.1 66.2C182.9 65.7 182.8 65.2 182.7 64.7C182.4 63.6 182.9 63.1 183.2 62.9C183.8 62.5 184.7 63 185.2 63.5C185.4 63.7 185.6 63.9 185.8 64.3C186.7 65.8 187.6 67.5 188.1 69.1C188.1 69.1 190.7 73.9 190.5 74.5C190.5 74.6 190.4 74.6 190.4 74.7C190 75.1 189.6 75.6 189.3 76.2C188.9 76.8 188.5 77.4 188 77.8C187.8 77.6 187.7 77.7 187.6 77.7ZM182.7 68.4C182.7 68.6 182.8 68.8 182.9 68.9C184.2 71.3 185.7 73.8 187.7 76.7C188 76.4 188.3 75.9 188.5 75.5C188.8 75 189.2 74.4 189.6 74C189.3 73.2 187.6 69.7 187.3 69.1C186.8 67.5 185.9 65.9 185 64.4C184.8 64.1 184.6 63.9 184.5 63.8C184.2 63.5 183.7 63.2 183.5 63.4C183.2 63.6 183.3 64.1 183.4 64.4C183.5 64.9 183.6 65.3 183.8 65.8C183.9 66 184 66.3 184 66.5C184.2 66.9 184.3 67.2 184.4 67.6C184.4 67.9 184.4 68.1 184.2 68.4C183.9 68.7 183.4 68.6 183.1 68.5C182.9 68.4 182.8 68.4 182.7 68.4Z" fill="#171717"/>
</g>
<path id="Path_43" d="M202.7 92.1C202 92.1 201.3 92 200.5 91.8C195.7 90.4 190.8 85.1 187.4 77.6C187.3 77.5 187.4 77.3 187.4 77.2C187.8 76.7 188.2 76.1 188.5 75.6C188.9 75 189.3 74.5 189.7 73.9C189.8 73.8 189.9 73.8 190 73.7C190.1 73.7 190.2 73.7 190.3 73.8C191.8 75.2 193.7 76.8 195.6 78.3C197.6 79.9 199.6 81.5 201.3 83.1C202.4 81.1 203.1 78.9 203.7 76.8C204.4 74.5 205.1 72.2 206.4 70C206.5 69.8 206.7 69.8 206.9 69.9C207.1 70 207.1 70.2 207 70.4C205.7 72.5 205 74.8 204.4 77.1C203.7 79.4 203 81.7 201.7 83.9C201.6 84 201.5 84.1 201.4 84.1C201.3 84.1 201.2 84.1 201.1 84C199.4 82.4 197.2 80.6 195.1 78.9C193.3 77.5 191.5 76 190.1 74.7C189.8 75.1 189.5 75.6 189.2 76C188.9 76.5 188.5 77 188.2 77.5C191.5 84.7 196.2 89.8 200.8 91.1C202.6 91.6 204.2 91.5 205.4 90.6C208.5 88.5 210.7 82.2 210.8 80.1C210.8 79.9 210.9 79.7 211.2 79.7C211.4 79.7 211.6 79.9 211.6 80.1C211.5 82.4 209.2 89 205.8 91.2C204.8 91.8 203.8 92.1 202.7 92.1Z" fill="#171717"/>
<path id="Path_44" d="M214.7 86.7C214.6 86.7 214.5 86.6 214.4 86.5C211.9 82.6 209.7 78.5 207.9 75C207.3 73.8 206.7 72.4 206.4 71C206 69.7 206.1 68.3 206.6 67C206.7 66.8 206.9 66.7 207.1 66.8C207.3 66.9 207.4 67.1 207.3 67.3C206.8 68.5 206.8 69.7 207.1 70.8C207.4 72.2 208 73.5 208.6 74.6C210.4 78.1 212.6 82.2 215.1 86.1C215.2 86.3 215.2 86.5 215 86.6C214.8 86.7 214.8 86.7 214.7 86.7Z" fill="#171717"/>
<g id="Group_23">
<path id="Path_45" d="M259.7 142.9V147H247.5C248 145.5 249.1 144.1 250.5 143.4C252.9 141.9 259.7 142.9 259.7 142.9Z" fill="#EAE0D3"/>
<path id="Shape_21" d="M259.7 147.4H247.5C247.4 147.4 247.3 147.3 247.2 147.2C247.1 147.1 247.1 147 247.1 146.9C247.7 145.2 248.8 143.8 250.3 143.1C252.8 141.6 259.4 142.5 259.7 142.6C259.9 142.6 260 142.8 260 143V147.1C260.1 147.2 259.9 147.4 259.7 147.4ZM248 146.6H259.3V143.2C257.9 143 252.6 142.5 250.7 143.7C249.6 144.3 248.6 145.4 248 146.6Z" fill="#171717"/>
</g>
<g id="Group_24">
<path id="Path_46" d="M226 142.9V147H213.4C213.9 145.4 215 144.1 216.4 143.4C219 141.9 226 142.9 226 142.9Z" fill="#EAE0D3"/>
<path id="Shape_22" d="M226 147.4H213.4C213.3 147.4 213.2 147.3 213.1 147.2C213 147.1 213 147 213 146.9C213.5 145.2 214.7 143.8 216.2 143.1C218.9 141.6 225.7 142.5 226 142.6C226.2 142.6 226.3 142.8 226.3 143V147.1C226.4 147.2 226.2 147.4 226 147.4ZM213.9 146.6H225.6V143.2C224.2 143 218.7 142.5 216.6 143.7C215.4 144.3 214.5 145.4 213.9 146.6Z" fill="#171717"/>
</g>
<g id="Group_25">
<path id="Path_47" d="M192.2 110.9H208.5L210.1 119.6L213 126.7L212.1 130.6L213 135.3H196.2L191.8 127L193.7 120L192.2 110.9Z" fill="#79C9A9"/>
<path id="Shape_23" d="M213 135.7H196.2C196.1 135.7 195.9 135.6 195.9 135.5L191.5 127.2C191.5 127.1 191.4 127 191.5 126.9L193.4 120L191.9 111C191.9 110.9 191.9 110.8 192 110.7C192.1 110.6 192.2 110.6 192.3 110.6H208.6C208.8 110.6 208.9 110.7 209 110.9L210.6 119.6L213.5 126.6C213.5 126.7 213.5 126.8 213.5 126.8L212.6 130.6L213.5 135.2C213.5 135.3 213.5 135.4 213.4 135.5C213.2 135.6 213.1 135.7 213 135.7ZM196.4 134.9H212.5L211.7 130.6C211.7 130.5 211.7 130.5 211.7 130.4L212.6 126.6L209.7 119.6L208.1 111.1H192.6L194 119.8C194 119.9 194 119.9 194 120L192.1 126.9L196.4 134.9Z" fill="#171717"/>
</g>
<path id="Path_48" d="M204.2 111.3C204 111.3 203.9 111.2 203.8 111C203.1 108.1 202.1 105.4 200.7 102.9C199.8 101.4 198.4 100.3 197.5 100.3C197.2 100.3 197 100.4 196.9 100.7C196.2 102.2 195.7 103.6 195.6 104.9C195.6 106.8 195.7 108.8 195.9 110.6C195.9 110.8 195.8 111 195.6 111C195.4 111 195.2 110.9 195.2 110.7C195 108.8 194.9 106.8 194.9 104.9C195 103.4 195.4 101.9 196.2 100.3C196.5 99.8 196.9 99.5 197.5 99.5C198.7 99.5 200.3 100.7 201.4 102.4C202.8 105 203.8 107.7 204.5 110.7C204.6 111 204.5 111.2 204.2 111.3C204.2 111.3 204.3 111.3 204.2 111.3Z" fill="#171717"/>
<path id="Path_49" d="M200.1 130.7C199.7 130.7 199.3 130.6 198.9 130.5C197.5 130 196.4 128.8 196.2 127.4C196.2 127.2 196.3 127 196.5 127C196.7 127 196.9 127.1 196.9 127.3C197.1 128.4 197.9 129.4 199 129.8C200.6 130.2 202.3 129.5 203 128.1C203.1 127.9 203.3 127.8 203.5 127.9C203.7 128 203.8 128.2 203.7 128.4C203.1 129.9 201.7 130.7 200.1 130.7Z" fill="#171717"/>
<path id="Path_50" d="M203.1 123.1C202.6 123.1 202.2 123 201.7 122.9C201.5 122.8 201.4 122.6 201.5 122.4C201.6 122.2 201.8 122.1 202 122.2C203.2 122.6 204.5 122.3 205.3 121.6C206.5 120.4 206.6 118.5 205.7 117.2C205.6 117 205.6 116.8 205.8 116.7C206 116.6 206.2 116.6 206.3 116.8C207.4 118.5 207.2 120.8 205.8 122.2C205 122.7 204.1 123.1 203.1 123.1Z" fill="#171717"/>
</g>
<g id="bushes">
<g id="Group_26">
<path id="Path_51" d="M324.8 124.6C324.5 125.9 324.2 127.2 323.8 128.4C322.8 132.3 321.2 136.1 319.2 139.6C318.1 141.4 316.8 143.1 315.3 144.6H287.4C288.7 137.4 291.2 130.4 294.8 124C295.4 122.9 295.8 123.6 296.6 122.6L296.9 122.3C299.8 118.8 303.1 115.6 306.7 112.8C308.4 111.3 310.3 110.2 312.5 109.6C316 108.7 319.7 110.2 323 111.5C323.7 111.7 324.4 112.1 324.9 112.7C325.4 113.3 325.6 114.1 325.7 114.9C326 118.2 325.7 121.5 324.8 124.6Z" fill="#79C9A9"/>
<path id="Shape_24" d="M315.3 145H287.4C287.3 145 287.2 145 287.1 144.9C287 144.8 287 144.7 287 144.6C288.3 137.3 290.8 130.3 294.4 123.9C294.8 123.2 295.1 123.1 295.5 123C295.7 122.9 295.9 122.9 296.3 122.5L296.6 122.2C299.5 118.7 302.8 115.5 306.4 112.7C308.2 111.1 310.2 110 312.3 109.4C315.9 108.5 319.6 109.9 322.9 111.2L323.1 111.3C323.9 111.5 324.6 112 325.2 112.6C325.8 113.3 326 114.3 326.1 115C326.4 118.4 326.1 121.7 325.2 124.8C324.9 126.1 324.6 127.4 324.2 128.6C323.2 132.4 321.7 136.2 319.6 139.9C318.4 141.8 317.1 143.5 315.6 145C315.5 144.9 315.4 145 315.3 145ZM287.9 144.2H315.2C316.6 142.8 317.8 141.2 318.9 139.4C321 135.8 322.5 132.1 323.5 128.3C323.9 127.1 324.2 125.8 324.5 124.5C325.4 121.4 325.7 118.2 325.4 114.9C325.3 114 325.1 113.4 324.7 112.9C324.3 112.4 323.7 112 323 111.8L322.8 111.7C319.6 110.5 316 109 312.7 109.9C310.6 110.5 308.8 111.5 307.1 113C303.5 115.8 300.2 119 297.3 122.5L297 122.8C296.6 123.3 296.2 123.5 295.9 123.5C295.6 123.6 295.5 123.6 295.3 124.1C291.6 130.4 289.2 137.2 287.9 144.2Z" fill="#171717"/>
</g>
<g id="Group_27">
<path id="Path_52" d="M306.6 121.4C305.7 125.8 304.7 130.3 302.6 134.3C299.7 139.8 294.9 143.8 289.6 147.2H271.9C273.8 140.6 277.4 134.7 282.4 129.9C284.4 128 286.6 126.3 288.9 124.9C293.9 121.8 299.6 119.9 305.5 119.4C305.7 119.4 305.9 119.4 306.1 119.4C306.7 119.7 306.7 120.7 306.6 121.4Z" fill="#C4E3D4"/>
<path id="Shape_25" d="M289.6 147.6H271.9C271.8 147.6 271.7 147.5 271.6 147.5C271.5 147.4 271.5 147.3 271.5 147.2C273.4 140.6 277.1 134.6 282.1 129.7C284.2 127.8 286.4 126.1 288.7 124.7C293.7 121.6 299.5 119.6 305.5 119.1H306.1C306.2 119.1 306.2 119.1 306.3 119.1C307.1 119.5 307.1 120.8 307 121.5C306.1 126.1 305 130.5 303 134.5C299.7 140.8 293.9 144.9 289.9 147.5C289.7 147.6 289.7 147.6 289.6 147.6ZM272.4 146.8H289.5C295.9 142.7 299.8 138.8 302.3 134.1C304.3 130.2 305.3 125.8 306.3 121.3C306.4 120.5 306.3 119.9 306.1 119.7H305.6C299.8 120.2 294.1 122.1 289.2 125.1C286.9 126.5 284.8 128.1 282.8 130.1C277.8 134.8 274.3 140.5 272.4 146.8Z" fill="#171717"/>
</g>
<g id="Group_28">
<path id="Path_53" d="M337.4 126.4C336.8 129.4 336 132.4 335 135.4C334.9 135.7 334.8 136 334.7 136.2C334.3 137.6 333.6 139 332.7 140.1C331.5 141.5 330.1 142.7 328.5 143.6L327.7 144.1L326.8 144.7H307.6C309.6 138.5 314.4 132.8 319.9 128.4C323.6 125.4 327.7 123 332.1 121.1C333.3 120.6 334.8 120.1 336 120.8C337.9 121.8 337.8 124.4 337.4 126.4Z" fill="#79C9A9"/>
<path id="Shape_26" d="M326.8 145.1H307.6C307.5 145.1 307.4 145 307.3 144.9C307.2 144.8 307.2 144.7 307.2 144.6C309 138.9 313.4 133.1 319.6 128.1C323.2 125.2 327.3 122.7 331.9 120.7C333.3 120.1 334.8 119.7 336.1 120.4C337.7 121.3 338.3 123.3 337.7 126.4C337.1 129.4 336.3 132.4 335.3 135.4C335.2 135.7 335.1 136 335 136.2C334.6 137.6 333.9 139.1 333 140.2C331.7 141.7 330.3 142.9 328.7 143.8L327 145C326.9 145.1 326.9 145.1 326.8 145.1ZM308.1 144.3H326.7L328.3 143.3C329.8 142.4 331.2 141.3 332.4 139.9C333.2 138.9 333.9 137.5 334.3 136.1C334.4 135.8 334.5 135.6 334.6 135.3C335.6 132.3 336.4 129.3 337 126.3C337.4 124.4 337.5 122 335.8 121.1C334.8 120.5 333.4 120.9 332.2 121.4C327.7 123.3 323.6 125.8 320.1 128.6C314.2 133.4 310 138.9 308.1 144.3Z" fill="#171717"/>
</g>
<g id="Group_29">
<path id="Path_54" d="M340.4 137.1C339.3 140.5 337.6 143.7 335.5 146.7H324.1C324.2 146.5 324.3 146.3 324.4 146.1C325.9 143 328.2 140.7 331.4 138.2L332 137.7L335.8 134.7C337.2 133.6 339.3 132.6 340.4 134C341 134.9 340.7 136.1 340.4 137.1Z" fill="#C4E3D4"/>
<path id="Shape_27" d="M335.5 147.1H324.1C324 147.1 323.8 147 323.8 146.9C323.7 146.8 323.7 146.7 323.8 146.5L324.1 145.9C325.5 143.1 327.5 140.7 331.2 137.9L331.8 137.4L335.6 134.4C337.3 133.1 339.5 132.2 340.7 133.8C341.4 134.8 341.1 136.1 340.8 137.2C339.8 140.4 338.1 143.7 335.9 146.9C335.7 147 335.6 147.1 335.5 147.1ZM324.7 146.3H335.3C337.4 143.2 339 140.1 340 137C340.3 136 340.5 135 340 134.2C338.9 132.8 336.4 134.6 335.9 135L331.5 138.5C328.1 141.3 326.1 143.5 324.7 146.3Z" fill="#171717"/>
</g>
</g>
<g id="clouds">
  <g id="cloud_1">
  <path id="Path_55" d="M166.5 18.1C165.5 17.4 165 16.2 165.3 15C166.6 10.1 177.8 8.1 181.9 6.7C189.1 4.3 196.6 2.7 204.2 2.1C207.5 1.8 211.8 2.5 212.5 5.7C212.8 7.2 212.2 9.1 213.3 10.3C214.3 11.3 215.9 10.9 217.2 10.5C223.5 8.7 230 7.7 236.6 7.7C238.8 7.6 241 7.9 243.1 8.7C245.2 9.5 246.6 11.5 246.8 13.7C246.8 19.5 239.7 19.2 235.7 19.3C232.9 19.4 230 19.4 227.2 19.5C219 19.6 210.7 19.7 202.4 19.7C194.4 19.7 186.5 19.6 178.5 19.3C175.8 19.2 173 19.1 170.3 18.9C169.2 18.7 167.5 18.8 166.5 18.1Z" fill="white"/>
  <path id="Shape_28" d="M202.4 20.1C193.4 20.1 185.8 20 178.5 19.7H178.3C175.7 19.6 173 19.5 170.3 19.3C170 19.2 169.6 19.2 169.2 19.2C168.2 19.1 167.1 19 166.3 18.5C165.2 17.7 164.6 16.3 165 15C166.1 10.8 173.7 8.7 178.8 7.3C180 7 181.1 6.7 181.9 6.4C189.3 3.9 196.9 2.4 204.3 1.8C207.8 1.5 212.3 2.3 213 5.7C213.1 6.3 213.1 6.9 213.1 7.4C213.1 8.4 213.1 9.4 213.7 10.1C214.5 10.9 215.9 10.6 217.2 10.2C223.7 8.3 230.3 7.4 236.7 7.4C239 7.3 241.3 7.6 243.3 8.4C245.5 9.2 247 11.3 247.2 13.7C247.2 19.5 240.6 19.6 236.6 19.7H235.7C234.3 19.7 232.9 19.8 231.4 19.8C230 19.8 228.6 19.8 227.2 19.9C219.1 20 210.8 20.1 202.4 20.1ZM166.7 17.8C167.3 18.2 168.3 18.3 169.2 18.4C169.6 18.4 170 18.5 170.3 18.5C172.9 18.7 175.6 18.8 178.2 18.9H178.4C185.7 19.2 193.3 19.3 202.3 19.3C210.7 19.3 219 19.2 227.1 19.1C228.5 19.1 229.9 19 231.3 19C232.7 19 234.1 19 235.5 18.9H236.4C240.6 18.8 246.3 18.7 246.3 13.7C246.1 11.6 244.8 9.8 242.8 9.1C240.8 8.3 238.7 8 236.5 8.1C230.1 8.1 223.7 9 217.2 10.9C216.1 11.2 214.2 11.8 212.9 10.6C212.1 9.7 212.1 8.5 212.1 7.4C212.1 6.8 212.1 6.3 212 5.8C211.4 2.9 207.3 2.2 204.1 2.5C196.7 3.1 189.3 4.6 181.9 7.1C181.1 7.4 180 7.7 178.8 8C173.9 9.4 166.5 11.4 165.5 15.1C165.4 16.1 165.8 17.2 166.7 17.8Z" fill="#171717"/>
  </g>
  <g id="cloud_2">
  <path id="Path_56" d="M263.8 39.2C253 38.9 266.4 30.5 269.8 29.2C272.7 28.1 276.3 27.6 278.4 29.8C278.8 30.3 279.2 30.8 279.7 31.2C280.5 31.6 281.4 31.8 282.2 31.7C288.5 31.6 294.9 27.9 300.7 30.2C303.1 31.2 305.2 34 303.7 36.1C302.8 37.4 301 37.7 299.4 37.9C287.6 39.1 275.7 39.5 263.8 39.2Z" fill="white"/>
  <path id="Shape_29" d="M271.3 39.7C268.8 39.7 266.3 39.7 263.8 39.6C261 39.5 259.5 38.9 259.3 37.7C258.8 34.7 267.5 29.7 269.6 28.9C271.9 28 276.1 27 278.6 29.6C279 30.1 279.4 30.6 279.9 31C280.6 31.3 281.4 31.5 282.1 31.4C284.5 31.4 286.9 30.8 289.2 30.3C293.1 29.4 297 28.5 300.8 30C302.5 30.7 304 32.2 304.4 33.7C304.7 34.7 304.5 35.6 304 36.4C303 37.8 301.2 38.1 299.4 38.4C290.3 39.2 280.9 39.7 271.3 39.7ZM263.8 38.8C275.9 39.1 287.9 38.7 299.4 37.5C301 37.3 302.6 37 303.4 35.9C303.8 35.3 303.9 34.6 303.7 33.8C303.3 32.5 302 31.2 300.5 30.5C297 29.1 293.3 30 289.4 30.9C287 31.4 284.6 32 282.2 32.1C281.4 32.2 280.4 32 279.5 31.6C278.9 31.1 278.5 30.6 278.1 30.1C275.9 27.8 272 28.8 269.9 29.6C267 30.7 259.7 35.4 260 37.6C260.2 38.3 261.5 38.8 263.8 38.8Z" fill="#171717"/>
  </g>
</g>
<g id="grandma">
<g id="Group_30">
<path id="Oval_6" d="M110.2 80.6C112.52 80.6 114.4 78.7196 114.4 76.4C114.4 74.0804 112.52 72.2 110.2 72.2C107.88 72.2 106 74.0804 106 76.4C106 78.7196 107.88 80.6 110.2 80.6Z" fill="white"/>
<path id="Shape_30" d="M110.2 81C107.7 81 105.6 78.9 105.6 76.4C105.6 73.9 107.7 71.8 110.2 71.8C112.7 71.8 114.8 73.9 114.8 76.4C114.8 78.9 112.7 81 110.2 81ZM110.2 72.6C108.1 72.6 106.4 74.3 106.4 76.4C106.4 78.5 108.1 80.2 110.2 80.2C112.3 80.2 114 78.5 114 76.4C114 74.3 112.3 72.6 110.2 72.6Z" fill="#171717"/>
</g>
<g id="Group_31">
<path id="Path_57" d="M109.4 80.7C101.8 83.4 95 87.8 89.5 93.7C70.2 114 74.2 142.8 74.9 146.9H103.8C103.6 136.5 103.5 122.2 103.3 111.8C106 109.1 110.8 107.5 112.9 99.1C113.6 96.3 114 93.4 113.9 90.5" fill="#C4E3D4"/>
<path id="Path_58" d="M103.8 147.3H74.9C74.7 147.3 74.6 147.2 74.5 147C73.9 143.7 69.6 114.1 89.2 93.5C94.7 87.6 101.5 83.2 109.2 80.4C109.4 80.3 109.6 80.4 109.7 80.6C109.8 80.8 109.7 81 109.5 81.1C101.8 83.8 95.2 88.2 89.7 94C70.8 113.9 74.4 142.1 75.1 146.6H103.3C103.2 141.5 103.1 135.5 103.1 129.5C103 123.3 102.9 117.1 102.8 111.9C102.8 111.8 102.8 111.7 102.9 111.6C103.5 111 104.3 110.4 105.1 109.8C107.6 107.9 110.8 105.4 112.4 99.1C113.1 96.1 113.5 93.3 113.4 90.6C113.4 90.4 113.6 90.2 113.8 90.2C114 90.2 114.2 90.4 114.2 90.6C114.3 93.3 114 96.2 113.2 99.3C111.6 105.9 108.3 108.4 105.6 110.4C104.9 111 104.2 111.5 103.6 112.1C103.7 117.3 103.8 123.4 103.8 129.5C103.9 135.7 103.9 141.8 104 147C104 147.1 104 147.2 103.9 147.3C104 147.2 103.9 147.3 103.8 147.3Z" fill="#171717"/>
</g>
<g id="Group_32">
<path id="Oval_7" d="M115.5 90.5C119.2 90.5 122.2 87.5003 122.2 83.8C122.2 80.0997 119.2 77.1 115.5 77.1C111.8 77.1 108.8 80.0997 108.8 83.8C108.8 87.5003 111.8 90.5 115.5 90.5Z" fill="#EAE0D3"/>
<path id="Shape_31" d="M115.5 90.9C111.6 90.9 108.4 87.7 108.4 83.8C108.4 79.9 111.6 76.7 115.5 76.7C119.4 76.7 122.6 79.9 122.6 83.8C122.6 87.7 119.4 90.9 115.5 90.9ZM115.5 77.5C112 77.5 109.2 80.3 109.2 83.8C109.2 87.3 112 90.1 115.5 90.1C119 90.1 121.8 87.3 121.8 83.8C121.8 80.3 119 77.5 115.5 77.5Z" fill="#171717"/>
</g>
<path id="Path_59" d="M109.5 81.3C110.6 78.3 114.7 76.7 117.6 77.7C118.5 78 119.3 78.5 119.9 79.3C120.2 79.7 120.5 80.1 120.8 80.5C120.9 80.7 121 80.9 121.1 81.1C121.2 81.3 121.3 81.5 121.4 81.7C120.2 81.6 119.1 81.2 118.1 80.5C117.8 80.7 117.4 81 117.1 81.2C116.9 81.5 116.6 81.8 116.4 82.1C116.2 82.3 115.9 82.6 115.6 82.7C114.1 83.8 112.4 84.6 110.6 85.2C110.1 85.4 109.6 85.4 109.2 85.6C108.9 84.3 108.9 83 109.2 81.8C109.4 81.6 109.4 81.4 109.5 81.3Z" fill="white"/>
<path id="Path_60" d="M109.4 86.2C109.2 86.2 109.1 86.1 109 85.9C109 85.7 109.1 85.5 109.3 85.4C113.3 84.4 116.8 82 119.2 78.6C119.3 78.4 119.6 78.4 119.7 78.5C119.9 78.6 119.9 78.9 119.8 79C117.3 82.6 113.7 85.1 109.4 86.2C109.4 86.2 109.5 86.2 109.4 86.2Z" fill="#171717"/>
<g id="Group_33">
<path id="Oval_8" d="M119.872 111.417C120.801 109.473 119.735 107.029 117.492 105.958C115.25 104.887 112.679 105.594 111.751 107.538C110.822 109.482 111.888 111.926 114.131 112.997C116.373 114.068 118.944 113.361 119.872 111.417Z" fill="#EAE0D3"/>
<path id="Shape_32" d="M116.3 113.9C115.5 113.9 114.7 113.7 114 113.4C112.8 112.8 111.9 111.9 111.4 110.8C110.9 109.7 110.9 108.5 111.4 107.4C111.9 106.4 112.8 105.6 114 105.3C115.2 105 116.5 105.1 117.6 105.7C118.8 106.3 119.7 107.2 120.2 108.3C120.7 109.4 120.7 110.6 120.2 111.7C119.5 113.1 117.9 113.9 116.3 113.9ZM115.3 105.9C114.9 105.9 114.6 105.9 114.2 106C113.2 106.3 112.5 106.9 112.1 107.7C111.7 108.5 111.7 109.5 112.1 110.4C112.5 111.3 113.3 112.1 114.3 112.6C116.4 113.6 118.7 113 119.5 111.2C119.9 110.4 119.9 109.4 119.5 108.5C119.1 107.6 118.3 106.8 117.3 106.3C116.7 106 116 105.9 115.3 105.9Z" fill="#171717"/>
</g>
<path id="Path_61" d="M86.5 111.2C84.1 111.2 81.6 110.8 79.2 109.6C79 109.5 79 109.3 79 109.1C79.1 108.9 79.3 108.9 79.5 108.9C82.3 110.4 86 110.8 90.9 110.1C94.9 109.7 98.7 108.4 102.1 106.4C107.2 103 110.5 96.3 110.8 89.1C110.8 88.9 111 88.7 111.2 88.7C111.4 88.7 111.6 88.9 111.6 89.1C111.3 96.6 107.8 103.4 102.5 107C99.1 109.1 95.1 110.5 91 110.9C89.7 111 88.2 111.2 86.5 111.2Z" fill="#171717"/>
<g id="Group_34">
<path id="Path_62" d="M96 91.2C95.3 92.3 92.5 97 93.9 102.3C95.6 108.6 102.8 113.3 111.2 112.7L116.1 105.5L103.9 98.7" fill="#C4E3D4"/>
<path id="Path_63" d="M109.8 113.1C102.1 113.1 95.2 108.7 93.5 102.4C92.1 97.3 94.5 92.7 95.6 91C95.7 90.8 95.9 90.8 96.1 90.9C96.3 91 96.3 91.2 96.2 91.4C95.2 93 92.9 97.4 94.1 102.2C95.8 108.5 103 112.8 110.8 112.3L115.4 105.6L103.6 99C103.4 98.9 103.4 98.7 103.5 98.5C103.6 98.3 103.8 98.3 104 98.4L116.2 105.2C116.3 105.3 116.4 105.3 116.4 105.4C116.4 105.5 116.4 105.6 116.3 105.7L111.4 112.9C111.3 113 111.2 113.1 111.1 113.1C110.7 113.1 110.3 113.1 109.8 113.1Z" fill="#171717"/>
</g>
<path id="Path_64" d="M90.7 147.3C90.5 147.3 90.3 147.2 90.3 147C89.6 140.9 90.1 134.7 91.7 128.7C93.2 123.3 95.5 118.4 98.5 114.3C98.6 114.1 98.9 114.1 99 114.2C99.2 114.3 99.2 114.6 99.1 114.7C96.2 118.8 93.9 123.6 92.5 128.9C90.9 134.9 90.4 140.9 91.1 147C91.1 147.1 90.9 147.2 90.7 147.3Z" fill="#171717"/>
<g id="Group_35">
<path id="Path_65" d="M91.9 145.7C91.9 146.1 91.8 146.6 91.7 147H79.9C79.7 146.6 79.7 146.2 79.7 145.7C79.7 143.2 82.5 141.1 85.8 141.1C89.1 141.1 91.9 143.2 91.9 145.7Z" fill="#EAE0D3"/>
<path id="Shape_33" d="M91.7 147.4H79.9C79.8 147.4 79.6 147.3 79.6 147.2C79.4 146.7 79.4 146.3 79.4 145.7C79.4 143 82.4 140.7 85.9 140.7C89.4 140.7 92.4 143 92.4 145.7C92.4 146.1 92.3 146.5 92.2 147.1C92 147.3 91.9 147.4 91.7 147.4ZM80.2 146.6H91.4C91.5 146.2 91.5 145.9 91.5 145.7C91.5 143.4 88.9 141.5 85.8 141.5C82.7 141.5 80.1 143.4 80.1 145.7C80.1 146.1 80.1 146.4 80.2 146.6Z" fill="#171717"/>
</g>
<g id="Group_36">
<path id="Path_66" d="M107.1 145.6C107.1 146 107 146.5 106.9 146.9H95.4L103.4 141.4C105.6 142.2 107.1 143.8 107.1 145.6Z" fill="#EAE0D3"/>
<path id="Shape_34" d="M106.9 147.3H95.4C95.2 147.3 95.1 147.2 95 147C95 146.8 95 146.7 95.1 146.6L103.1 141.1C103.2 141 103.3 141 103.4 141.1C105.8 142 107.3 143.7 107.3 145.7C107.3 146.1 107.2 146.5 107.1 147.1C107.2 147.2 107.1 147.3 106.9 147.3ZM96.6 146.5H106.6C106.7 146.1 106.7 145.8 106.7 145.6C106.7 144.1 105.4 142.6 103.4 141.8L96.6 146.5Z" fill="#171717"/>
</g>
<path id="Path_67" d="M117.4 147.5C117.2 147.5 117 147.3 117 147.1L116.2 113.8C116.2 113.6 116.4 113.4 116.6 113.4C116.8 113.4 117 113.6 117 113.8L117.8 147.1C117.8 147.3 117.6 147.5 117.4 147.5Z" fill="#171717"/>
<g id="Group_37">
<path id="Path_68" d="M109.4 112.7V117H103.4V111.7L105.4 112.2C106 112.4 106.7 112.5 107.3 112.5L109.4 112.7Z" fill="#C4E3D4"/>
<path id="Shape_35" d="M109.4 117.4H103.4C103.2 117.4 103 117.2 103 117V111.7C103 111.6 103.1 111.5 103.1 111.4C103.2 111.3 103.3 111.3 103.4 111.3L105.4 111.8C106 112 106.6 112.1 107.2 112.1L109.3 112.3C109.5 112.3 109.6 112.5 109.6 112.7V117C109.8 117.2 109.6 117.4 109.4 117.4ZM103.8 116.6H109V113L107.2 112.8C106.6 112.8 105.8 112.7 105.2 112.5L103.7 112.1V116.6H103.8Z" fill="#171717"/>
</g>
<g id="Group_38">
<path id="Path_69" d="M109.4 117.1C109.6 117.5 109.7 117.9 109.7 118.3C109.8 120 108.5 121.5 106.8 121.7C106.6 121.7 106.4 121.7 106.2 121.7C105.7 121.6 105.2 121.3 104.8 120.9C104.4 120.5 104 120.1 103.6 119.7V119.6V117L109.4 117.1Z" fill="#EAE0D3"/>
<path id="Shape_36" d="M106.2 122.1C105.6 122 105 121.7 104.5 121.2L103.3 120C103.2 119.9 103.2 119.8 103.2 119.7V117C103.2 116.9 103.2 116.8 103.3 116.7C103.4 116.6 103.5 116.6 103.6 116.6L109.4 116.7C109.5 116.7 109.7 116.8 109.7 116.9C109.9 117.4 110 117.8 110 118.3C110.1 120.2 108.7 121.8 106.8 122.1H106.2ZM104 119.5L105.1 120.6C105.5 121 105.9 121.2 106.3 121.3H106.8C108.3 121.1 109.4 119.8 109.3 118.3C109.3 118 109.2 117.7 109.1 117.4L103.9 117.3V119.5H104Z" fill="#171717"/>
</g>
<path id="Path_70" d="M103.4 117.3C103.2 117.3 103 117.1 103 116.9C103 116.7 103.2 116.5 103.4 116.5C103.6 116.5 103.8 116.6 103.8 116.9C103.8 117.2 103.6 117.3 103.4 117.3Z" fill="#171717"/>
<path id="Shape_37" d="M121.7 82.1C120.3 82 119.1 81.6 118.1 80.7C117.9 80.6 117.9 80.3 118.1 80.2C118.2 80 118.5 80 118.6 80.2C119.4 80.9 120.4 81.3 121.6 81.4C121.8 81.3 122 81.4 122.1 81.4C122.2 81.5 122.3 81.7 122.3 81.8C122.2 82 122 82.1 121.7 82.1Z" fill="#171717"/>
<path id="Oval_9" d="M118.519 85.5738C118.789 85.5125 118.907 85.0262 118.785 84.4877C118.662 83.9493 118.344 83.5625 118.075 83.6238C117.806 83.6852 117.687 84.1715 117.81 84.7099C117.932 85.2484 118.25 85.6352 118.519 85.5738Z" fill="#171717"/>
<path id="Oval_10" d="M121.72 84.5732C121.99 84.5118 122.108 84.0256 121.986 83.4871C121.863 82.9486 121.545 82.5618 121.276 82.6232C121.007 82.6846 120.888 83.1708 121.011 83.7093C121.133 84.2478 121.451 84.6346 121.72 84.5732Z" fill="#171717"/>
<path id="Path_71" d="M118.2 88.1C117.3 88.1 116.4 87.6 116.1 86.7C116 86.5 116.1 86.3 116.3 86.2C116.5 86.1 116.7 86.2 116.8 86.4C117.1 87.2 118 87.5 118.7 87.3C118.9 87.2 119.1 87.4 119.2 87.6C119.3 87.8 119.1 88 118.9 88.1C118.7 88 118.4 88.1 118.2 88.1Z" fill="#171717"/>
</g>
</g>
</g>
</g>
</g>
</g>
<defs>
<clipPath id="clip0">
<rect width="342" height="148" fill="white"/>
</clipPath>
</defs>
</svg>
