<svg 
xmlns="http://www.w3.org/2000/svg" 
xmlns:xlink="http://www.w3.org/1999/xlink" 
viewBox="60 65 355 221">
<defs><clipPath id="clip-path"><rect x="120.71" y="222.85" width="39.46" height="25.14" fill="none"/></clipPath></defs><g id="neighbour"><path d="M188.39,164.46a.36.36,0,0,1-.33-.2C179.88,148.15,160,137,138.59,136.55c-19.45-.47-36.47,7.14-45.54,20.25a.38.38,0,0,1-.52.1.39.39,0,0,1-.1-.53c9.22-13.31,26.5-21,46.18-20.57,21.67.47,41.81,11.77,50.12,28.12a.37.37,0,0,1-.17.5A.33.33,0,0,1,188.39,164.46Z" fill="#171717"/><path d="M120.86,119a23.11,23.11,0,0,0,4.88,13.29,21.69,21.69,0,0,0,3.73,3.81,22.92,22.92,0,0,0,6.06,3.58,23.43,23.43,0,1,0-13.08-30.44,22.41,22.41,0,0,0-1.61,8.31C120.83,118,120.83,118.47,120.86,119Z" fill="#eae0d3"/><path d="M144.18,141.68a23.61,23.61,0,0,1-15-5.33,22.05,22.05,0,0,1-3.78-3.88,23.44,23.44,0,0,1-5-13.49,14.62,14.62,0,0,1,0-1.48,22.23,22.23,0,0,1,1.64-8.44,23.8,23.8,0,1,1,22.07,32.62Zm.07-46.85a23.09,23.09,0,0,0-21.45,14.51,21.73,21.73,0,0,0-1.58,8.17,13.57,13.57,0,0,0,0,1.43h0A22.7,22.7,0,0,0,126,132a21,21,0,0,0,3.66,3.75,22.26,22.26,0,0,0,6,3.53,23.05,23.05,0,0,0,17.09-42.82A22.81,22.81,0,0,0,144.25,94.83Z" fill="#171717"/><circle cx="163.09" cy="99.12" r="14.43" fill="#ff8766"/><path d="M163.07,113.92A14.82,14.82,0,0,1,148.31,100h0A14.8,14.8,0,1,1,164,113.89Zm-14-14a14.05,14.05,0,1,0,13.18-14.87A14,14,0,0,0,149.06,100Z" fill="#171717"/><path d="M166.3,126.1a22.74,22.74,0,0,1-6.65,9.19,40.91,40.91,0,0,1,.54-8.37,24.26,24.26,0,0,0,1.11-6.18c0-2.09-1-4.34-2.93-5.17-1.49-.63-3.21-.3-4.78-.63-4.15-.78-7.86-7.21-11.24-9.73a47.18,47.18,0,0,0-12-6.38,23.41,23.41,0,0,1,36,27.27Z" fill="#ff8766"/><path d="M159.65,135.66a.4.4,0,0,1-.15,0,.38.38,0,0,1-.22-.34,38.17,38.17,0,0,1,.55-8.46c.11-.45.22-.91.34-1.37a17.16,17.16,0,0,0,.75-4.71c0-1.83-.88-4-2.7-4.84a7.32,7.32,0,0,0-2.68-.41,12.67,12.67,0,0,1-2-.19c-2.75-.52-5.21-3.3-7.6-6a27.81,27.81,0,0,0-3.79-3.81,46.5,46.5,0,0,0-11.91-6.33.41.41,0,0,1-.25-.29.38.38,0,0,1,.15-.36,23.78,23.78,0,0,1,36.54,27.71h0a23.25,23.25,0,0,1-6.76,9.34A.41.41,0,0,1,159.65,135.66ZM131.12,98.71a48.23,48.23,0,0,1,11.45,6.19,29.49,29.49,0,0,1,3.91,3.92c2.3,2.6,4.67,5.28,7.18,5.76a12.9,12.9,0,0,0,1.9.17,8.12,8.12,0,0,1,3,.47c2.13.94,3.12,3.45,3.15,5.52a17.67,17.67,0,0,1-.77,4.91c-.12.45-.24.9-.34,1.35a34.48,34.48,0,0,0-.53,7.48A22.83,22.83,0,0,0,166,126h0a23,23,0,0,0-34.84-27.26ZM166.3,126.1h0Z" fill="#171717"/><path d="M144.55,123.42a.38.38,0,0,1-.07-.75l16.72-2.81a.38.38,0,1,1,.13.74l-16.72,2.81Z" fill="#171717"/><path d="M144.22,133.93a.37.37,0,0,1-.2-.69L160.86,123a.38.38,0,0,1,.52.13.37.37,0,0,1-.13.51l-16.84,10.26A.34.34,0,0,1,144.22,133.93Z" fill="#171717"/><path d="M362,146.23c-.15.64-.31,1.27-.48,1.9a21.6,21.6,0,0,1-2.3,5.6,12.93,12.93,0,0,1-1.94,2.49H343.4A33.48,33.48,0,0,1,347.09,146c.31-.55.48-.19.88-.67,0-.06.09-.12.14-.17a33.13,33.13,0,0,1,4.89-4.73,7.86,7.86,0,0,1,2.87-1.61c1.76-.42,3.58.28,5.25,1a2.17,2.17,0,0,1,.94.58,2,2,0,0,1,.4,1.09A13.78,13.78,0,0,1,362,146.23Z" fill="#79c9a9"/><path d="M357.3,156.59H343.4a.41.41,0,0,1-.29-.13.39.39,0,0,1-.08-.31,33.59,33.59,0,0,1,3.74-10.34,1,1,0,0,1,.64-.54.44.44,0,0,0,.27-.18l.15-.19a34.93,34.93,0,0,1,4.94-4.77,8.18,8.18,0,0,1,3-1.67c2-.47,4,.37,5.48,1a2.81,2.81,0,0,1,1.09.68,2.42,2.42,0,0,1,.48,1.29,14.33,14.33,0,0,1-.45,4.9h0c-.14.65-.31,1.28-.48,1.92a21.92,21.92,0,0,1-2.33,5.69,13.82,13.82,0,0,1-2,2.56A.4.4,0,0,1,357.3,156.59Zm-13.44-.75h13.28a12.44,12.44,0,0,0,1.78-2.31,21,21,0,0,0,2.26-5.5c.17-.62.33-1.25.47-1.88a13.71,13.71,0,0,0,.44-4.64,1.71,1.71,0,0,0-.31-.9,2,2,0,0,0-.8-.47c-1.81-.75-3.44-1.33-5-.95a7.64,7.64,0,0,0-2.73,1.53,33.48,33.48,0,0,0-4.83,4.68l-.15.18a1.2,1.2,0,0,1-.63.41c-.09,0-.11,0-.2.19A32.76,32.76,0,0,0,343.86,155.84ZM362,146.23h0Z" fill="#171717"/><path d="M352.92,144.65a24,24,0,0,1-2,6.4,17.45,17.45,0,0,1-6.46,6.42h-8.82a19.3,19.3,0,0,1,16.69-13.82.7.7,0,0,1,.32,0C353,143.79,353,144.28,352.92,144.65Z" fill="#c4e3d4"/><path d="M344.47,157.84h-8.82a.36.36,0,0,1-.3-.15.38.38,0,0,1-.06-.33,19.62,19.62,0,0,1,5.31-8.75,19.33,19.33,0,0,1,3.3-2.52,19.53,19.53,0,0,1,8.4-2.81,1.17,1.17,0,0,1,.48,0c.47.16.66.69.5,1.41a24.34,24.34,0,0,1-2,6.51,17.63,17.63,0,0,1-6.59,6.56A.46.46,0,0,1,344.47,157.84Zm-8.31-.75h8.2a16.88,16.88,0,0,0,6.24-6.21,23.91,23.91,0,0,0,1.95-6.31h0c.08-.34,0-.53,0-.54a.84.84,0,0,0-.16,0,18.87,18.87,0,0,0-16.21,13.07Z" fill="#171717"/><path d="M368.26,147.12a43.46,43.46,0,0,1-1.19,4.48c-.05.14-.09.28-.14.42a6.67,6.67,0,0,1-1,2,8,8,0,0,1-2.1,1.72l-.38.24-.45.28h-9.56a18.09,18.09,0,0,1,6.13-8.09,26.49,26.49,0,0,1,6.08-3.62,2.34,2.34,0,0,1,1.94-.17C368.52,144.82,368.47,146.12,368.26,147.12Z" fill="#79c9a9"/><path d="M363,156.59h-9.56a.39.39,0,0,1-.31-.15.41.41,0,0,1,0-.34c1.2-3.67,4.06-6.52,6.25-8.26a27.14,27.14,0,0,1,6.17-3.68,2.71,2.71,0,0,1,2.26-.15c.88.46,1.18,1.59.85,3.18h0a43.79,43.79,0,0,1-1.21,4.53c0,.14-.09.29-.14.42a6.93,6.93,0,0,1-1,2.07,8,8,0,0,1-2.19,1.8l-.83.53A.46.46,0,0,1,363,156.59Zm-9-.75h8.92l.1-.06.27-.17.37-.23a7.19,7.19,0,0,0,2-1.63,6,6,0,0,0,.92-1.86c.05-.13.1-.27.14-.4A44.84,44.84,0,0,0,367.9,147h0c.14-.71.28-2-.47-2.37a2,2,0,0,0-1.62.19,25.57,25.57,0,0,0-6,3.57A18.38,18.38,0,0,0,354,155.84Zm14.27-8.72h0Z" fill="#171717"/><path d="M369.74,152.48a17.69,17.69,0,0,1-2.43,4.76h-5.68l.13-.28a11.73,11.73,0,0,1,3.46-3.92l.29-.23,1.89-1.49c.69-.54,1.77-1,2.31-.37A1.65,1.65,0,0,1,369.74,152.48Z" fill="#c4e3d4"/><path d="M367.31,157.62h-5.68a.4.4,0,0,1-.32-.17.38.38,0,0,1,0-.36l.15-.3a12,12,0,0,1,3.55-4l2.19-1.73c.87-.68,2.14-1.17,2.83-.31a2,2,0,0,1,.1,1.89h0a18.32,18.32,0,0,1-2.49,4.86A.37.37,0,0,1,367.31,157.62Zm-5.08-.75h4.88a17.56,17.56,0,0,0,2.28-4.51c.19-.58.2-1,0-1.18-.38-.47-1.34.08-1.79.43l-2.18,1.73A11.76,11.76,0,0,0,362.23,156.87Zm7.51-4.39h0Z" fill="#171717"/><path d="M120.33,119c.19,4.85,1.42,7.69,3.91,11.81a28.43,28.43,0,0,0,4.71,5.54c3,2.38,15.17-2.22,15.3-2.37s.38-11.51.39-11.51C136.88,121.44,127.82,121.29,120.33,119Z" fill="#49baa4"/><path d="M126.07,113.67a.39.39,0,0,1-.33-.21,4.93,4.93,0,0,0-3.59-2.58.37.37,0,1,1,.11-.74,5.67,5.67,0,0,1,4.15,3,.39.39,0,0,1-.16.51A.39.39,0,0,1,126.07,113.67Z" fill="#171717"/><polygon points="176.09 214.64 176.09 262.07 105.04 262.07 105.04 214.64 140.7 197.37 176.09 214.64" fill="#eae0d3"/><path d="M176.09,262.45H105a.38.38,0,0,1-.37-.38V214.64a.38.38,0,0,1,.21-.34L140.53,197a.38.38,0,0,1,.33,0l35.4,17.27a.4.4,0,0,1,.21.34v47.43A.38.38,0,0,1,176.09,262.45Zm-70.67-.75h70.3V214.87l-35-17.08-35.28,17.08Z" fill="#171717"/><rect x="120.71" y="222.85" width="39.46" height="25.14" fill="#f8f8f8"/><path d="M160.16,248.36H120.71a.37.37,0,0,1-.38-.37V222.85a.38.38,0,0,1,.38-.38h39.45a.38.38,0,0,1,.38.38V248A.37.37,0,0,1,160.16,248.36Zm-39.08-.75h38.71V223.22H121.08Z" fill="#171717"/><g clip-path="url(#clip-path)"><path d="M126.24,247.92l-5.9,0c-.87,0-1.27,1.09-.35,1.45a2,2,0,0,0,1.15,0,1,1,0,0,0-.32.29.35.35,0,0,0,0,.39.63.63,0,0,0,.21.12,1.68,1.68,0,0,0,1.43-.21c-.13.21-.26.49-.1.68.75.92,3.27-1.58,3.72-2,0,0,0,0,0,0" fill="#c98877"/><path d="M122.81,251.21h0a1,1,0,0,1-.7-.34.7.7,0,0,1-.14-.3,2.16,2.16,0,0,1-1,0,.86.86,0,0,1-.38-.23.69.69,0,0,1-.15-.44,1.6,1.6,0,0,1-.53-.09,1.08,1.08,0,0,1-.75-1.21,1.23,1.23,0,0,1,1.22-1l5.9,0h0a.38.38,0,0,1,.37.38.37.37,0,0,1-.29.36.39.39,0,0,1,.14.35.4.4,0,0,1-.17.28C125.87,249.34,124,251.21,122.81,251.21Zm-.35-1.64a.36.36,0,0,1,.25.11.37.37,0,0,1,.07.46.68.68,0,0,0-.12.28.48.48,0,0,0,.14,0h0c.66,0,2.17-1.27,3-2.14l0,0-5.5,0a.49.49,0,0,0-.5.36c0,.2.14.31.29.37A1.7,1.7,0,0,0,121,249a.38.38,0,0,1,.3.68.87.87,0,0,0-.2.16,1.51,1.51,0,0,0,1.1-.2A.44.44,0,0,1,122.46,249.57Z" fill="#171717"/><path d="M130.76,250.26c-.08.54-.14,1.08-.19,1.62a3.18,3.18,0,0,1-.55,1.92.83.83,0,0,1-1,.25,1,1,0,0,1-.38-.68c-.08-.29-.14-.58-.2-.87a4.8,4.8,0,0,1-.12-1,2.89,2.89,0,0,1,.77-1.95c.29-.31,1.18-1,1.66-.83S130.82,249.87,130.76,250.26Z" fill="#c98877"/><path d="M129.33,254.52a1,1,0,0,1-.52-.15,1.46,1.46,0,0,1-.54-.91c-.07-.3-.14-.59-.2-.89a5.7,5.7,0,0,1-.13-1.07,3.32,3.32,0,0,1,.88-2.2s1.22-1.27,2.07-.93.46,1.18.32,1.65c0,.12-.07.22-.08.3h0q-.12.8-.18,1.59a3.5,3.5,0,0,1-.65,2.14A1.37,1.37,0,0,1,129.33,254.52Zm1.23-5.47a2.65,2.65,0,0,0-1.87,2.45,4.56,4.56,0,0,0,.12.92c.05.29.12.57.19.86a.83.83,0,0,0,.22.46c.13.08.38,0,.52-.19a2.78,2.78,0,0,0,.45-1.64c.05-.61.12-1.16.2-1.7h0a3.31,3.31,0,0,1,.1-.4,2,2,0,0,0,.12-.75Zm.2,1.21h0Z" fill="#171717"/><path d="M133.44,241.43c.76-.42,1.12-1.3,1.76-1.89.14-.14.38-.25.52-.11s.05.34,0,.49a22,22,0,0,1-1.84,2.82,2.22,2.22,0,0,1-.88.79" fill="#c98877"/><path d="M133,243.9a.37.37,0,0,1-.14-.72,1.89,1.89,0,0,0,.72-.67,22.56,22.56,0,0,0,1.55-2.3l-.27.36a4,4,0,0,1-1.19,1.19.38.38,0,0,1-.37-.66,3.33,3.33,0,0,0,1-1,6.44,6.44,0,0,1,.72-.86.75.75,0,0,1,1.05-.1c.13.14.31.43,0,1a24.21,24.21,0,0,1-1.87,2.86,2.7,2.7,0,0,1-1,.91Z" fill="#171717"/><path d="M137,239.05c-.61-.72-1.63,1.26-1.88,1.6a8.41,8.41,0,0,1-3.14,2.37,28,28,0,0,0-3.52,1.83,7.45,7.45,0,0,0-2.65,3.15c-.61,1.44-.25,2.69-.05,4.19a7.79,7.79,0,0,1,.05,1.93c-.07.52-.41,1.06.11,1.48.86.69,1.9-.67,2.23-1.33.55-1.12.69-2.41,1.27-3.52,1-1.91,3.11-2.93,4.68-4.42a9.81,9.81,0,0,0,3-6.73A.79.79,0,0,0,137,239.05Z" fill="#c98877"/><path d="M126.39,256.17a1.18,1.18,0,0,1-.75-.28,1.29,1.29,0,0,1-.33-1.48c0-.11.06-.23.08-.34a7.88,7.88,0,0,0,0-1.84c0-.24-.07-.48-.11-.72a6.28,6.28,0,0,1,.19-3.65,7.71,7.71,0,0,1,2.78-3.32,17.2,17.2,0,0,1,2.6-1.4l1-.46a8.21,8.21,0,0,0,3-2.25l.16-.26c.5-.81,1-1.6,1.66-1.65a.73.73,0,0,1,.65.28h0a1.21,1.21,0,0,1,.21.81,10.19,10.19,0,0,1-3.15,7,19.36,19.36,0,0,1-1.73,1.41,9.47,9.47,0,0,0-2.87,2.91,9.08,9.08,0,0,0-.63,1.73,9.89,9.89,0,0,1-.64,1.77,3.28,3.28,0,0,1-1.78,1.71Zm10.25-16.91c-.09,0-.37.19-1.07,1.31a3.05,3.05,0,0,1-.2.3,8.73,8.73,0,0,1-3.27,2.48l-1,.47a18.53,18.53,0,0,0-2.49,1.33,7.09,7.09,0,0,0-2.52,3,5.61,5.61,0,0,0-.14,3.25c0,.24.08.49.11.74a8.27,8.27,0,0,1,0,2,3,3,0,0,1-.09.43c-.11.44-.11.57.07.72a.44.44,0,0,0,.38.09c.48-.1,1-.84,1.27-1.3a9.47,9.47,0,0,0,.59-1.65,10.79,10.79,0,0,1,.69-1.87,10,10,0,0,1,3.08-3.15,20.29,20.29,0,0,0,1.67-1.37,9.42,9.42,0,0,0,2.91-6.47c0-.07,0-.25,0-.3Z" fill="#171717"/><path d="M127.93,240.42a7.17,7.17,0,0,0-2.36,1.8,2.77,2.77,0,0,0-.75,1.6.68.68,0,0,0,.11.44c.22.3.69.21,1,.06a6.51,6.51,0,0,0,3.09-2.93" fill="#c98877"/><path d="M125.38,244.84a.89.89,0,0,1-.76-.36,1,1,0,0,1-.17-.68,3,3,0,0,1,.84-1.82,7.32,7.32,0,0,1,2.49-1.89.37.37,0,1,1,.31.67,6.76,6.76,0,0,0-2.23,1.7,2.32,2.32,0,0,0-.66,1.37.35.35,0,0,0,0,.21c0,.07.29.07.58-.06a6.09,6.09,0,0,0,2.91-2.76.37.37,0,0,1,.5-.17.38.38,0,0,1,.17.51,6.86,6.86,0,0,1-3.28,3.1A1.77,1.77,0,0,1,125.38,244.84Z" fill="#171717"/><path d="M133.51,240.76a4,4,0,0,1-.54,1.77,5.19,5.19,0,0,1-2.14,2,2.87,2.87,0,0,1-3.35-.43c-.67-.64-1.25-2.05-.73-2.93s1.73-1.14,2.69-1.32a13,13,0,0,0,1.62-.35,4.8,4.8,0,0,1,1.25-.45h.09a1,1,0,0,1,.75.31A1.92,1.92,0,0,1,133.51,240.76Z" fill="#c98877"/><path d="M129.44,245.23a3.18,3.18,0,0,1-2.22-.88c-.73-.7-1.43-2.32-.79-3.39s2-1.33,2.94-1.5l.25,0a9.08,9.08,0,0,0,1.32-.3,3,3,0,0,0,.41-.17,2.47,2.47,0,0,1,.94-.29h.14a1.38,1.38,0,0,1,1,.44,2.36,2.36,0,0,1,.46,1.7,4.3,4.3,0,0,1-.59,1.93,5.64,5.64,0,0,1-2.3,2.12A3.34,3.34,0,0,1,129.44,245.23Zm2.95-5.83a2,2,0,0,0-.72.23c-.16.07-.33.15-.5.21a12.39,12.39,0,0,1-1.41.32l-.25,0c-.84.15-2,.36-2.44,1.14a2.38,2.38,0,0,0,.67,2.47,2.53,2.53,0,0,0,2.92.37,4.88,4.88,0,0,0,2-1.84,3.56,3.56,0,0,0,.49-1.6h0a1.6,1.6,0,0,0-.26-1.14A.63.63,0,0,0,132.39,239.4Z" fill="#171717"/><path d="M126.54,241.78a6.87,6.87,0,0,0,0,3,2.67,2.67,0,0,0,.8,1.57.68.68,0,0,0,.42.19c.37,0,.59-.42.67-.78a6.45,6.45,0,0,0-.43-4.24" fill="#c98877"/><path d="M127.75,246.88h0a1.07,1.07,0,0,1-.65-.28,3,3,0,0,1-.93-1.78,7.5,7.5,0,0,1,0-3.13.37.37,0,1,1,.73.17,6.77,6.77,0,0,0,0,2.8,2.32,2.32,0,0,0,.68,1.36.41.41,0,0,0,.19.11h0c.08,0,.23-.19.3-.5a6,6,0,0,0-.41-4,.38.38,0,1,1,.68-.32,6.78,6.78,0,0,1,.46,4.48C128.62,246.48,128.23,246.88,127.75,246.88Z" fill="#171717"/><ellipse cx="131.06" cy="240.54" rx="0.17" ry="0.34" transform="translate(-140.49 276.53) rotate(-68.97)" fill="#171717"/><path d="M133.15,239.34l-.91,0,.07-.29h.09A1,1,0,0,1,133.15,239.34Z" fill="#171717"/></g><path d="M94,262.58H83.24a6.35,6.35,0,0,1-.88-.41A4.52,4.52,0,0,1,80,258.85c-.06-.6,0-1.21,0-1.81-.2-2.16-2.27-3.68-2.94-5.76a4.85,4.85,0,0,1,3.29-5.95c2-.51,4.1.37,6,1.22a9.71,9.71,0,0,1,4.23,2.93l.08.3Z" fill="#79c9a9"/><path d="M94,263H83.24a.28.28,0,0,1-.13,0,5.64,5.64,0,0,1-.93-.43,4.82,4.82,0,0,1-2.58-3.62,5.25,5.25,0,0,1,0-1,5.75,5.75,0,0,0,0-.83A6.58,6.58,0,0,0,78.11,254a10.3,10.3,0,0,1-1.45-2.59A5.24,5.24,0,0,1,80.21,245c2.23-.57,4.56.48,6.26,1.24a10.07,10.07,0,0,1,4.39,3.06.22.22,0,0,1,0,.11l.08.3,3.34,12.81a.37.37,0,0,1-.06.32A.4.4,0,0,1,94,263Zm-10.67-.75H93.48l-3.27-12.57a9.6,9.6,0,0,0-4-2.75c-2.07-.93-3.94-1.65-5.76-1.19a4.48,4.48,0,0,0-3,5.47,9.68,9.68,0,0,0,1.36,2.39,7.31,7.31,0,0,1,1.6,3.45,7.22,7.22,0,0,1,0,.93,5.05,5.05,0,0,0,0,.87,4.17,4.17,0,0,0,2.21,3A6.47,6.47,0,0,0,83.3,262.21Z" fill="#171717"/><path d="M102.72,262.58H92.35a17.74,17.74,0,0,1-5.86-6.2,26,26,0,0,1-2.15-6.89c-.08-.4-.09-.93.29-1.06a.78.78,0,0,1,.34,0,20.82,20.82,0,0,1,5.66,1.37,20.54,20.54,0,0,1,3.22,1.6,20.89,20.89,0,0,1,3.48,2.67,20.37,20.37,0,0,1,3.4,4.23A21.5,21.5,0,0,1,102.72,262.58Z" fill="#c4e3d4"/><path d="M102.72,263H92.35a.4.4,0,0,1-.21-.07,18.16,18.16,0,0,1-6-6.33,26.8,26.8,0,0,1-2.17-7c-.17-.76,0-1.32.53-1.49a1.07,1.07,0,0,1,.5,0,20.72,20.72,0,0,1,5.76,1.39A21.21,21.21,0,0,1,94,251.06a20.83,20.83,0,0,1,7,7,21.1,21.1,0,0,1,2,4.37.37.37,0,0,1,0,.34A.37.37,0,0,1,102.72,263Zm-10.25-.75h9.72a20.52,20.52,0,0,0-5.12-7.89,20.52,20.52,0,0,0-3.42-2.62,19.79,19.79,0,0,0-3.16-1.57,20.27,20.27,0,0,0-5.55-1.34.64.64,0,0,0-.19,0c-.07,0-.12.26,0,.62a25.87,25.87,0,0,0,2.11,6.81A17.35,17.35,0,0,0,92.47,262.21Z" fill="#171717"/><path d="M89.67,265.84H78.83a4.46,4.46,0,0,1-.43-.33A6.11,6.11,0,0,1,77,263.12q-1.11-2.94-2.23-5.88a1.35,1.35,0,0,1-.13-.65c.06-.47.58-.73,1-.86a10.71,10.71,0,0,1,4.44,0,10.31,10.31,0,0,1,4.6,1.64c1.79,1.32,2.75,3.47,3.63,5.51C88.82,263.83,89.24,264.84,89.67,265.84Z" fill="#c4e3d4"/><path d="M89.67,266.21H78.83a.37.37,0,0,1-.21-.06,2.67,2.67,0,0,1-.47-.36,6.53,6.53,0,0,1-1.46-2.54l-2.23-5.88a1.78,1.78,0,0,1-.15-.84c.07-.53.54-.94,1.31-1.16a11.18,11.18,0,0,1,4.6-.06A10.72,10.72,0,0,1,85,257c1.93,1.41,2.94,3.77,3.75,5.67l.42,1c.29.68.57,1.35.87,2a.36.36,0,0,1,0,.35A.37.37,0,0,1,89.67,266.21Zm-10.73-.75H89.1l-.64-1.5L88,263c-.82-1.9-1.74-4.06-3.5-5.36a10.14,10.14,0,0,0-4.43-1.57,10.53,10.53,0,0,0-4.29,0c-.21.06-.72.24-.76.54a1.17,1.17,0,0,0,.1.47L77.39,263a5.9,5.9,0,0,0,1.27,2.26Z" fill="#171717"/><path d="M110.15,256.6a3.9,3.9,0,0,1-1.06,2.46,11.35,11.35,0,0,1-2.1,1.75l-2.48,1.77H98.8a9.58,9.58,0,0,1,1.53-3.84,6,6,0,0,1,.4-.46,7.46,7.46,0,0,1,4-2,17.85,17.85,0,0,1,5.11-.07.52.52,0,0,1,.25.07A.45.45,0,0,1,110.15,256.6Z" fill="#c4e3d4"/><path d="M104.51,263H98.8a.4.4,0,0,1-.29-.14.37.37,0,0,1-.07-.32,9.76,9.76,0,0,1,1.6-4,6.4,6.4,0,0,1,.42-.49,7.94,7.94,0,0,1,4.16-2.13,18.73,18.73,0,0,1,5.22-.08,1,1,0,0,1,.44.15.8.8,0,0,1,.25.64h0a4.33,4.33,0,0,1-1.16,2.71,12.18,12.18,0,0,1-2.17,1.81l-2.48,1.77A.4.4,0,0,1,104.51,263Zm-5.24-.75h5.12l2.38-1.7a10.73,10.73,0,0,0,2-1.7,3.54,3.54,0,0,0,1-2.22v0a17.56,17.56,0,0,0-5,.06,7.17,7.17,0,0,0-3.77,1.91,5,5,0,0,0-.37.43A8.35,8.35,0,0,0,99.27,262.21Zm10.88-5.61h0Z" fill="#171717"/><path d="M99.09,256.32a.37.37,0,0,1-.38-.37,12.84,12.84,0,0,1,1.38-5.91,13,13,0,0,1,3.45-4.24.37.37,0,0,1,.53.06.37.37,0,0,1-.06.52,12.06,12.06,0,0,0-4.55,9.56.37.37,0,0,1-.37.38Z" fill="#171717"/><path d="M99.68,244.94a2.55,2.55,0,0,0,1,1.06c.95.56,1.14,1.16,1.86,1.88s1.39.44,2.29.12a.7.7,0,0,1,.64.22,2.94,2.94,0,0,0,1.16.69,1,1,0,0,0,1.13-.51c.2-.61-.4-1-.59-1.49s.1-1-.23-1.58a1.8,1.8,0,0,0-1.07-.8c-.55-.16-1.1-.17-1.51-.62-.28-.29-.47-.66-.77-.92-1-.8-4-.55-4.09,1A1.78,1.78,0,0,0,99.68,244.94Z" fill="#fff"/><path d="M106.88,249.32a1.86,1.86,0,0,1-.34,0,3.26,3.26,0,0,1-1.27-.73c-.24-.2-.3-.2-.31-.2l-.31.12a1.88,1.88,0,0,1-2.38-.33,8.24,8.24,0,0,1-.65-.75,3.76,3.76,0,0,0-1.13-1.07,2.88,2.88,0,0,1-1.14-1.21,2,2,0,0,1-.22-1.14,1.84,1.84,0,0,1,1.27-1.51,3.75,3.75,0,0,1,3.43.25,3.55,3.55,0,0,1,.52.59,3.44,3.44,0,0,0,.28.36,1.73,1.73,0,0,0,.94.41l.4.1a2.13,2.13,0,0,1,1.29,1,1.89,1.89,0,0,1,.22,1.11,1.29,1.29,0,0,0,0,.53,2.63,2.63,0,0,0,.24.4,1.41,1.41,0,0,1,.35,1.34A1.25,1.25,0,0,1,106.88,249.32ZM105,247.6a1.22,1.22,0,0,1,.74.33,2.88,2.88,0,0,0,1,.62c.27,0,.62,0,.69-.27s0-.35-.25-.67a2.58,2.58,0,0,1-.33-.56,1.89,1.89,0,0,1-.09-.83,1.16,1.16,0,0,0-.11-.7,1.44,1.44,0,0,0-.85-.63l-.36-.09a2.31,2.31,0,0,1-1.33-.63,4.35,4.35,0,0,1-.33-.42,2.73,2.73,0,0,0-.4-.47,3.13,3.13,0,0,0-2.66-.13,1.18,1.18,0,0,0-.82.88,1.45,1.45,0,0,0,.15.75h0a2.22,2.22,0,0,0,.85.9,4.3,4.3,0,0,1,1.34,1.25,8.11,8.11,0,0,0,.59.68c.55.55.87.43,1.58.16l.32-.12A.8.8,0,0,1,105,247.6Z" fill="#171717"/><path d="M103.15,244.58a2.49,2.49,0,0,0,2.25,1.52" fill="#fff"/><path d="M105.4,246.48h0a2.87,2.87,0,0,1-2.6-1.76.36.36,0,0,1,.21-.49.36.36,0,0,1,.48.21,2.15,2.15,0,0,0,1.91,1.29.38.38,0,1,1,0,.75Z" fill="#171717"/><path d="M93,242.9a5.93,5.93,0,0,1,.92.33c.42.24.71.68,1.17.83a1.58,1.58,0,0,0,1.57-.62c.39-.46.64-1,1-1.46a1.64,1.64,0,0,0,.55-.82,1.31,1.31,0,0,0-.43-.93c-.93-1.12-1.85-2.6-3.56-2.1a3,3,0,0,0-2.23,2.74,2,2,0,0,0,.62,1.85A1.52,1.52,0,0,0,93,242.9Z" fill="#fff"/><path d="M95.45,244.48a1.25,1.25,0,0,1-.43-.07,2.28,2.28,0,0,1-.82-.53,2.92,2.92,0,0,0-.42-.32,2.35,2.35,0,0,0-.51-.19l-.37-.12h0a2.45,2.45,0,0,1-.43-.22,2.34,2.34,0,0,1-.79-2.18,3.37,3.37,0,0,1,2.52-3.08c1.75-.51,2.79.79,3.63,1.83l.31.39a1.6,1.6,0,0,1,.51,1.22,1.64,1.64,0,0,1-.53.9l-.11.12a7.86,7.86,0,0,0-.5.7,6,6,0,0,1-.53.75A2.14,2.14,0,0,1,95.45,244.48Zm-2.28-1.93.31.1a3,3,0,0,1,.67.25,2.88,2.88,0,0,1,.54.42,1.85,1.85,0,0,0,.56.38,1.22,1.22,0,0,0,1.16-.51,4.39,4.39,0,0,0,.47-.66,6.16,6.16,0,0,1,.57-.8l.13-.13c.16-.17.31-.33.32-.48s-.16-.44-.33-.65l-.33-.4c-.8-1-1.57-2-2.84-1.58a2.66,2.66,0,0,0-2,2.41,1.75,1.75,0,0,0,.47,1.51,1,1,0,0,0,.27.14Z" fill="#171717"/><path d="M94.81,241.87a1.5,1.5,0,0,1-1.14-.51.39.39,0,0,1,0-.53.37.37,0,0,1,.53,0,.73.73,0,0,0,1.27-.58.39.39,0,0,1,.32-.42.38.38,0,0,1,.43.32,1.5,1.5,0,0,1-.86,1.55A1.37,1.37,0,0,1,94.81,241.87Z" fill="#171717"/><path d="M98,255.11a.37.37,0,0,1-.37-.36,48.15,48.15,0,0,0-1.61-11,.38.38,0,0,1,.27-.46.38.38,0,0,1,.46.27,49,49,0,0,1,1.63,11.16.38.38,0,0,1-.36.39Z" fill="#171717"/><path d="M183.81,268.12a.38.38,0,0,1-.38-.38V230.3a.38.38,0,0,1,.38-.38.37.37,0,0,1,.37.38v37.44A.37.37,0,0,1,183.81,268.12Z" fill="#171717"/><path d="M195.2,250.07a15.89,15.89,0,0,0,1.52-12.79c-1.69-5.36-6.21-9.68-6.95-15.25-.59-4.51,1.42-9.25,0-13.57-1.18-3.59-5.08-7.17-8.71-4.34s-2.26,6.17-3.16,9.85c-1,4.26-5.1,8.88-7.36,12.64-4.05,6.72-3,19,2,25.25A13.77,13.77,0,0,0,195.2,250.07Z" fill="#c4e3d4"/><path d="M183.12,257.35a13.86,13.86,0,0,1-10.85-5.26c-5.17-6.37-6.17-18.85-2.06-25.67.68-1.15,1.52-2.35,2.41-3.62,2-2.82,4.2-6,4.91-8.92a17.56,17.56,0,0,0,.39-3.24c.14-2.46.28-4.78,2.9-6.82a4.64,4.64,0,0,1,4.34-.89c2.44.75,4.25,3.25,5,5.41.83,2.53.52,5.21.23,7.8a23.37,23.37,0,0,0-.2,5.84c.4,3.09,2,5.74,3.65,8.56a32.65,32.65,0,0,1,3.28,6.62,16.26,16.26,0,0,1-1.56,13.1h0a14.55,14.55,0,0,1-11.41,7.06Zm.68-53.88a4.11,4.11,0,0,0-2.52.94c-2.35,1.84-2.47,3.89-2.61,6.27a18.33,18.33,0,0,1-.41,3.37c-.75,3-3,6.31-5,9.18-.88,1.26-1.72,2.45-2.39,3.57-4,6.59-3,18.66,2,24.82a13.09,13.09,0,0,0,11.2,4.95,13.79,13.79,0,0,0,10.82-6.69h0a15.46,15.46,0,0,0,1.49-12.49,31.71,31.71,0,0,0-3.21-6.47c-1.63-2.75-3.32-5.6-3.75-8.84a24.83,24.83,0,0,1,.2-6c.3-2.62.59-5.1-.19-7.48a7.75,7.75,0,0,0-4.47-4.92A3.77,3.77,0,0,0,183.8,203.47Zm11.4,46.6h0Z" fill="#171717"/><path d="M372.47,121.39a.38.38,0,0,1-.38-.38V101.17a.38.38,0,0,1,.75,0V121A.38.38,0,0,1,372.47,121.39Z" fill="#171717"/><path d="M378.5,111.65a8.44,8.44,0,0,0,.81-6.78c-.9-2.84-3.29-5.13-3.68-8.08-.32-2.39.74-4.9,0-7.19-.62-1.9-2.69-3.8-4.62-2.3s-1.2,3.27-1.67,5.22c-.55,2.26-2.7,4.71-3.9,6.7-2.15,3.56-1.59,10.09,1.07,13.38A7.3,7.3,0,0,0,378.5,111.65Z" fill="#c4e3d4"/><path d="M372.1,115.69a7.55,7.55,0,0,1-5.89-2.86c-2.78-3.43-3.31-10.14-1.1-13.81.36-.61.81-1.25,1.28-1.92A15.83,15.83,0,0,0,369,92.43a9.08,9.08,0,0,0,.21-1.69,4.38,4.38,0,0,1,1.6-3.74,2.65,2.65,0,0,1,2.46-.5,4.67,4.67,0,0,1,2.75,3,9.81,9.81,0,0,1,.12,4.21,13,13,0,0,0-.1,3,12.16,12.16,0,0,0,1.91,4.47,17,17,0,0,1,1.75,3.55,8.75,8.75,0,0,1-.84,7.08h0a7.91,7.91,0,0,1-6.19,3.83Zm.36-28.55a2,2,0,0,0-1.22.45c-1.19.93-1.25,1.93-1.32,3.2a10.07,10.07,0,0,1-.23,1.82A16.55,16.55,0,0,1,367,97.53c-.47.66-.91,1.29-1.26,1.88-2,3.38-1.52,9.79,1,13a6.8,6.8,0,0,0,5.79,2.56,7.16,7.16,0,0,0,5.6-3.46h0A8.09,8.09,0,0,0,379,105a17.53,17.53,0,0,0-1.68-3.39,12.84,12.84,0,0,1-2-4.75,13.41,13.41,0,0,1,.11-3.23,8.9,8.9,0,0,0-.1-3.89,3.88,3.88,0,0,0-2.25-2.5A1.75,1.75,0,0,0,372.46,87.14Z" fill="#171717"/><path d="M136,248.36H122.16a.36.36,0,0,1-.37-.37.37.37,0,0,1,.37-.38H136a.38.38,0,0,1,.37.38A.37.37,0,0,1,136,248.36Z" fill="#171717"/><path d="M144.31,117.15a.35.35,0,0,1-.24-.08,7.44,7.44,0,0,0-7.24-1.08.37.37,0,0,1-.49-.21.37.37,0,0,1,.21-.48,8.21,8.21,0,0,1,8,1.18.38.38,0,0,1,.06.53A.37.37,0,0,1,144.31,117.15Z" fill="#171717"/><path d="M111.45,115.08a.32.32,0,0,1-.13,0l-8-2.93a.38.38,0,0,1-.23-.48.39.39,0,0,1,.49-.23l8,2.94a.37.37,0,0,1,.23.48A.38.38,0,0,1,111.45,115.08Z" fill="#171717"/><path d="M108,124.44a.38.38,0,0,1-.37-.34.36.36,0,0,1,.33-.41l4-.44a.38.38,0,0,1,.08.75l-4,.43Z" fill="#171717"/><path d="M107.59,135.93a.39.39,0,0,1-.34-.22.37.37,0,0,1,.18-.5l8.18-3.75a.38.38,0,0,1,.5.19.37.37,0,0,1-.19.49l-8.18,3.75A.28.28,0,0,1,107.59,135.93Z" fill="#171717"/><path d="M232.35,270.75a.38.38,0,0,1-.37-.38V79.78a.38.38,0,0,1,.75,0V270.37A.38.38,0,0,1,232.35,270.75Z" fill="#171717"/><path d="M408,174.7H66.24a.38.38,0,0,1,0-.75H408a.38.38,0,0,1,0,.75Z" fill="#171717"/><path d="M341,157.8H277.21a.38.38,0,0,1,0-.75H341a.38.38,0,1,1,0,.75Z" fill="#171717"/><path d="M392.81,121.68H336.33a.38.38,0,1,1,0-.75h56.48a.38.38,0,0,1,0,.75Z" fill="#171717"/><rect x="200.68" y="152.21" width="63.35" height="44.23" fill="#f8f8f8"/><path d="M264,196.82H200.68a.37.37,0,0,1-.37-.38V152.21a.36.36,0,0,1,.37-.37H264a.36.36,0,0,1,.37.37v44.23A.37.37,0,0,1,264,196.82Zm-63-.75h62.59V152.59H201.06Z" fill="#171717"/><circle cx="336.21" cy="233.1" r="9.02" fill="#c5d3ed"/><path d="M336.22,242.5a9,9,0,0,1-1.45-.12,9.39,9.39,0,1,1,10.72-7.84h0A9.4,9.4,0,0,1,336.22,242.5Zm0-18.05a8.65,8.65,0,1,0,8.56,10h0a8.69,8.69,0,0,0-8.56-10Zm8.93,10h0Z" fill="#171717"/><path d="M360.74,247.63a18.54,18.54,0,0,1,8.6,3.93,4.63,4.63,0,0,1,1.77,4.86,4.54,4.54,0,0,1-3.25,2.67,12.33,12.33,0,0,1-4.37.07c-6.15-.69-12-2.82-18-3.67-4.72-.67-9.35.25-14-1.3-4.21-1.38-8.52-3.12-11.18-6.86a3.48,3.48,0,0,1,3.17-1.81,12.53,12.53,0,0,1,3.75.77c6.75,2,13.94,2.06,20.94,1.4C352.55,247.26,356.76,246.9,360.74,247.63Z" fill="#c98877"/><path d="M365.82,259.7a21.32,21.32,0,0,1-2.37-.17,77.42,77.42,0,0,1-9.7-1.93c-2.72-.66-5.54-1.34-8.34-1.74a41.84,41.84,0,0,0-5.45-.29,28,28,0,0,1-8.67-1c-4-1.33-8.56-3.08-11.36-7a.38.38,0,0,1,0-.37,3.82,3.82,0,0,1,3.5-2,11,11,0,0,1,3.43.66l.44.13c5.84,1.74,12.45,2.18,20.8,1.38,4-.38,8.59-.81,12.75-.05h0a19,19,0,0,1,8.77,4c1.39,1.13,2.58,3.26,1.88,5.27a4.88,4.88,0,0,1-3.51,2.91A8.55,8.55,0,0,1,365.82,259.7Zm-45.15-12.41c2.68,3.62,7,5.28,10.85,6.55a27.14,27.14,0,0,0,8.44,1,41.83,41.83,0,0,1,5.55.3c2.84.4,5.68,1.09,8.42,1.76a78.37,78.37,0,0,0,9.6,1.91,12,12,0,0,0,4.23-.06,4.14,4.14,0,0,0,3-2.44c.58-1.66-.44-3.46-1.64-4.43a18.24,18.24,0,0,0-8.44-3.86h0c-4.06-.75-8.37-.34-12.54.06-8.44.81-15.14.35-21.08-1.41l-.44-.13a10.63,10.63,0,0,0-3.21-.63A3.28,3.28,0,0,0,320.67,247.29Z" fill="#171717"/><path d="M371.89,260.9c-10.25,1.59-22.23,4.35-32.86,3.5-1.07-.08-2.13-.2-3.17-.37-11.76-1.85-25.65-5.22-37.1-10.1a225.67,225.67,0,0,0,7.78-25c9.29-4.7,24-.86,33.64-.42a4.74,4.74,0,0,1,3.08.88c2,1.84-.55,5.22-3.22,5.73s-5.66-.19-8,1.2c-2.81,1.67-3.28,5.83-1.74,8.71a10.27,10.27,0,0,0,1.8,2.39h0a18.94,18.94,0,0,0,5.67,3.69,45.67,45.67,0,0,0,20.5,4.12c4.32-.15,8.82-.89,13-.06a14.6,14.6,0,0,1,2.72.8,3,3,0,0,1,1.71,1.33C376.57,259.16,373.91,260.59,371.89,260.9Z" fill="#c98877"/><path d="M343.24,264.93c-1.43,0-2.84-.05-4.24-.16-1.11-.08-2.19-.21-3.2-.37-7.95-1.25-23.35-4.23-37.19-10.13a.37.37,0,0,1-.2-.47,226.29,226.29,0,0,0,7.77-25,.37.37,0,0,1,.19-.25c7-3.52,16.81-2.33,25.49-1.28,3,.37,5.85.71,8.34.82a5,5,0,0,1,3.32,1,2.58,2.58,0,0,1,.71,2.73,5.66,5.66,0,0,1-4.12,3.65,19.85,19.85,0,0,1-3.07.24,9.61,9.61,0,0,0-4.8.91c-2.68,1.59-3,5.61-1.6,8.21a9.71,9.71,0,0,0,1.7,2.26l.05,0a18.25,18.25,0,0,0,5.56,3.62,45.24,45.24,0,0,0,20.33,4.08c1.17,0,2.37-.12,3.53-.21a36.73,36.73,0,0,1,9.55.16,14.89,14.89,0,0,1,2.78.82,3.35,3.35,0,0,1,1.91,1.52A1.94,1.94,0,0,1,376,259c-.67,1.25-2.57,2.07-4.05,2.3h0c-2.1.32-4.27.7-6.49,1.08C358.08,263.63,350.49,264.93,343.24,264.93Zm-44-11.21c13.68,5.78,28.83,8.7,36.68,9.94,1,.16,2,.28,3.14.36,8.4.68,17.49-.89,26.27-2.41,2.22-.38,4.4-.76,6.51-1.08h0c1.31-.2,3-.94,3.5-1.92a1.18,1.18,0,0,0,0-1.15,2.61,2.61,0,0,0-1.51-1.14,13.53,13.53,0,0,0-2.65-.78,35.54,35.54,0,0,0-9.34-.15c-1.17.09-2.38.17-3.56.21a46,46,0,0,1-20.67-4.15,19.24,19.24,0,0,1-5.74-3.72l0,0a10.59,10.59,0,0,1-1.87-2.47c-1.58-3-1.21-7.38,1.88-9.21a10.16,10.16,0,0,1,5.16-1,18.06,18.06,0,0,0,3-.23,4.94,4.94,0,0,0,3.54-3.11,1.89,1.89,0,0,0-.5-2,4.45,4.45,0,0,0-2.85-.78c-2.51-.11-5.37-.46-8.39-.83-8.51-1-18.15-2.2-24.91,1.14A225.56,225.56,0,0,1,299.24,253.72Z" fill="#171717"/><polyline points="368.81 186.28 368.81 245.28 353.07 245.28 353.07 186.28" fill="#e1e9f7"/><path d="M368.81,245.65H353.07a.38.38,0,0,1-.38-.37v-59a.38.38,0,0,1,.38-.38.37.37,0,0,1,.37.38V244.9h15V186.28a.38.38,0,1,1,.75,0v59A.38.38,0,0,1,368.81,245.65Z" fill="#171717"/><g opacity="0.72"><circle cx="346.42" cy="246.41" r="12.44" fill="#c5d3ed"/><path d="M346.45,259.23a12.35,12.35,0,0,1-2-.16,12.81,12.81,0,1,1,14.63-10.69h0a12.8,12.8,0,0,1-12.63,10.85Zm-.06-24.89a12.07,12.07,0,0,0-11.89,10.22,12.06,12.06,0,1,0,13.77-10.07A11.91,11.91,0,0,0,346.39,234.34Zm12.32,14h0Z" fill="#171717"/></g><g opacity="0.72"><circle cx="371.26" cy="237.43" r="12.44" fill="#c5d3ed"/><path d="M371.29,250.25a12.35,12.35,0,0,1-2-.16,12.65,12.65,0,1,1,2,.16Zm-.06-24.89a12.07,12.07,0,1,0,11.95,13.92h0a12.11,12.11,0,0,0-11.95-13.92Z" fill="#171717"/></g><circle cx="361.99" cy="245.73" r="9.02" fill="#e1e9f7"/><path d="M362,255.13a9,9,0,0,1-1.45-.12,9.39,9.39,0,0,1-4.11-16.86,9.39,9.39,0,0,1,14.83,9A9.4,9.4,0,0,1,362,255.13Zm0-18a8.74,8.74,0,1,0,1.35.11A8.78,8.78,0,0,0,362,237.08Z" fill="#171717"/><circle cx="375.62" cy="254.25" r="9.02" fill="#c5d3ed"/><path d="M375.63,263.65a9,9,0,0,1-1.45-.12,9.34,9.34,0,1,1,1.45.12Zm0-18a8.66,8.66,0,1,0,7,3.55,8.74,8.74,0,0,0-7-3.55Z" fill="#171717"/><circle cx="395.26" cy="228.34" r="6.3" fill="#e1e9f7"/><path d="M395.28,235a6.07,6.07,0,0,1-1-.08,6.68,6.68,0,1,1,7.62-5.57,6.67,6.67,0,0,1-6.58,5.65Zm0-12.61a6,6,0,0,0-5.86,5,5.93,5.93,0,1,0,6.77-5A5.58,5.58,0,0,0,395.26,222.41Z" fill="#171717"/><path d="M364.2,204.3a.38.38,0,0,1-.37-.37V186.28a.38.38,0,1,1,.75,0v17.65A.38.38,0,0,1,364.2,204.3Z" fill="#171717"/><path d="M358.43,218.09a.38.38,0,0,1-.38-.38V191.18a.38.38,0,0,1,.75,0v26.53A.38.38,0,0,1,358.43,218.09Z" fill="#171717"/><path d="M297.47,257.67h-.08c-1.84-.42-4.19-.91-6.84-1.47-9.92-2.1-23.49-5-29.92-8a.38.38,0,0,1-.18-.5.38.38,0,0,1,.5-.18c6.35,3,19.87,5.84,29.75,7.92,2.51.53,4.75,1,6.54,1.41q.6-1.53,1.17-3.06a226.29,226.29,0,0,0,7.77-25c.48-1.91.94-3.85,1.36-5.75l-1.61-.51a41.54,41.54,0,0,1-8.11-3.18c-1.23-.69-2.41-1.46-3.55-2.2-3.13-2-6.09-4-10-4.42a38.48,38.48,0,0,0-5.68-.06,33.22,33.22,0,0,1-6.53-.16c-4.24-.67-8.55-3.86-8.4-8.06a.38.38,0,0,1,.39-.37.39.39,0,0,1,.36.39c-.13,3.78,3.85,6.68,7.77,7.3a32.37,32.37,0,0,0,6.38.15,38.63,38.63,0,0,1,5.79.06c4.08.48,7.11,2.45,10.32,4.54,1.13.74,2.3,1.5,3.51,2.18a40.49,40.49,0,0,0,8,3.11l2,.62a.38.38,0,0,1,.25.44c-.45,2-.93,4.07-1.44,6.1a227.76,227.76,0,0,1-7.8,25c-.42,1.13-.85,2.25-1.29,3.38A.38.38,0,0,1,297.47,257.67Z" fill="#171717"/><path d="M295.33,112a12,12,0,0,0,.08-2.24c0-.19-.21-.66.08-.75.53-.18.44,1.1,1,.9.33-.11.67-.85.87-1.12.37-.53,1.44-2.14,2-.91a3.79,3.79,0,0,1-.35,2.65c-.36.86-.81,1.47-1.22,2.3" fill="#eae0d3"/><path d="M297.8,113.2a.47.47,0,0,1-.17,0,.37.37,0,0,1-.17-.5c.18-.37.36-.69.54-1a12.08,12.08,0,0,0,.68-1.29A3.39,3.39,0,0,0,299,108c-.07-.15-.14-.22-.18-.23s-.41.13-1.12,1.14a3.49,3.49,0,0,0-.21.33c-.29.49-.54.88-.89,1a.67.67,0,0,1-.82-.31,6.06,6.06,0,0,1-.05,1.29c0,.25-.05.5-.06.76a.37.37,0,0,1-.37.36h0A.38.38,0,0,1,295,112c0-.29,0-.55.07-.82a5.07,5.07,0,0,0,0-1.35l0-.1c0-.22-.21-.88.36-1.07s.83.4.94.65a1.2,1.2,0,0,0,.14.28l.42-.7.19-.31c.56-.8,1.17-1.57,1.85-1.51a1,1,0,0,1,.79.67,4,4,0,0,1-.34,2.94,10.93,10.93,0,0,1-.72,1.37c-.17.31-.35.61-.52,1A.37.37,0,0,1,297.8,113.2Z" fill="#171717"/><path d="M278.17,129a16.43,16.43,0,0,1-3.11-.38.37.37,0,0,1-.29-.38c.17-3.86.88-10.82,2.08-13.08,1.54-2.9,3.6-4.09,7.1-4.09h0a8,8,0,0,1,4.11,1c1.25.65,2.95,2.65,4.07,4l.1.11a19.15,19.15,0,0,0,1.29-2.31c.28-.55.59-1.18,1.19-2.24a.39.39,0,0,1,.51-.14c.08,0,.35.16.69.31a20.16,20.16,0,0,1,2.22,1,.38.38,0,0,1,.12.48l-.15.3a37.24,37.24,0,0,1-3.91,6.74,2.56,2.56,0,0,1-1.92,1.05,2.53,2.53,0,0,1-2.06-.79l-1.8-1.87a.37.37,0,0,1,0-.53.38.38,0,0,1,.53,0l1.8,1.87a1.82,1.82,0,0,0,1.47.56,1.79,1.79,0,0,0,1.36-.74,36.85,36.85,0,0,0,3.84-6.62c-.47-.24-1.28-.59-1.81-.81l-.42-.18c-.48.85-.75,1.4-1,1.89a22.58,22.58,0,0,1-1.61,2.81.4.4,0,0,1-.29.17.33.33,0,0,1-.31-.13l-.43-.5c-1-1.2-2.73-3.21-3.85-3.79a7.15,7.15,0,0,0-3.76-1h0c-3.22,0-5,1-6.44,3.69-1.05,2-1.78,8.35-2,12.44a14.4,14.4,0,0,0,2.8.29h0a.37.37,0,0,1,.37.36.37.37,0,0,1-.36.39Z" fill="#171717"/><circle cx="284.21" cy="108.41" r="3.04" fill="#c98877"/><path d="M284.21,111.82a3.41,3.41,0,1,1,3.41-3.41A3.41,3.41,0,0,1,284.21,111.82Zm0-6.07a2.66,2.66,0,1,0,2.66,2.66A2.66,2.66,0,0,0,284.21,105.75Z" fill="#171717"/><circle cx="281.17" cy="106.81" r="2.74" fill="#c98877"/><path d="M281.17,109.93a3.12,3.12,0,1,1,3.11-3.12A3.12,3.12,0,0,1,281.17,109.93Zm0-5.48a2.37,2.37,0,1,0,2.36,2.36A2.36,2.36,0,0,0,281.17,104.45Z" fill="#171717"/><path d="M288.7,126.69a.38.38,0,0,1-.38-.37V117a.38.38,0,0,1,.75,0v9.28A.38.38,0,0,1,288.7,126.69Z" fill="#171717"/><path d="M278.66,126.69h0a.37.37,0,0,1-.36-.39l.44-9.49a.41.41,0,0,1,.39-.36.39.39,0,0,1,.36.4l-.44,9.48A.38.38,0,0,1,278.66,126.69Z" fill="#171717"/><path d="M288.7,126.69h-10a.38.38,0,0,1,0-.75h10a.38.38,0,0,1,0,.75Z" fill="#171717"/><path d="M275.57,130.48a2.15,2.15,0,0,0,.48.64,4.38,4.38,0,0,0,1.63.77,18.25,18.25,0,0,0,.44-3.21c-.47-.08-2.56-.3-2.62-.27-.25.14-.23,1-.15,1.38A2.78,2.78,0,0,0,275.57,130.48Z" fill="#eae0d3"/><path d="M277.68,132.27l-.12,0-.16-.05a4.38,4.38,0,0,1-1.6-.8,2.28,2.28,0,0,1-.56-.76h0a2.86,2.86,0,0,1-.26-.78s-.26-1.45.33-1.78a16.07,16.07,0,0,1,2.86.23.37.37,0,0,1,.32.31A17.58,17.58,0,0,1,278,132a.38.38,0,0,1-.18.23A.41.41,0,0,1,277.68,132.27Zm-1.77-2a1.52,1.52,0,0,0,.39.53,3,3,0,0,0,1.1.57,20.72,20.72,0,0,0,.34-2.41c-.6-.07-1.67-.18-2.07-.21a4.55,4.55,0,0,0,0,.93A2.73,2.73,0,0,0,275.91,130.31Z" fill="#171717"/><polygon points="276.86 154.45 281.71 154.45 283.17 128.78 283.65 128.78 286.17 154.45 291.22 154.45 288.7 126.31 278.72 126.31 276.86 154.45" fill="#ff8766"/><path d="M291.22,154.82h-5.05a.37.37,0,0,1-.37-.34l-2.36-23.93-1.35,23.92a.37.37,0,0,1-.38.35h-4.85a.36.36,0,0,1-.27-.12.35.35,0,0,1-.1-.28l1.85-28.13a.38.38,0,0,1,.38-.35h10a.38.38,0,0,1,.37.34l2.52,28.13a.38.38,0,0,1-.09.29A.36.36,0,0,1,291.22,154.82Zm-4.71-.75h4.3l-2.46-27.38h-9.28l-1.81,27.38h4.1l1.44-25.31a.37.37,0,0,1,.37-.35h.48a.38.38,0,0,1,.37.34Z" fill="#171717"/><path d="M292.92,117.93a.34.34,0,0,1-.28-.13l-.89-1a.37.37,0,0,1,.57-.48l.88,1a.37.37,0,0,1,0,.53A.36.36,0,0,1,292.92,117.93Z" fill="#171717"/><path d="M350,93a8.28,8.28,0,0,0,.05-1.49c0-.12-.14-.43.05-.5.35-.11.29.73.68.6.22-.07.45-.56.57-.74.25-.35,1-1.42,1.32-.6a2.49,2.49,0,0,1-.23,1.75c-.24.57-.54,1-.81,1.53" fill="#c98877"/><path d="M351.65,93.93a.35.35,0,0,1-.17,0,.38.38,0,0,1-.17-.5c.12-.24.25-.45.37-.67a8.16,8.16,0,0,0,.44-.84,2.09,2.09,0,0,0,.23-1.45.32.32,0,0,0-.05-.09,3.91,3.91,0,0,0-.59.71l-.13.21c-.17.29-.37.62-.66.72a.57.57,0,0,1-.45,0,5.09,5.09,0,0,1,0,.56c0,.16,0,.32,0,.5a.37.37,0,0,1-.39.36.38.38,0,0,1-.36-.39c0-.19,0-.37,0-.54a3.19,3.19,0,0,0,0-.87c-.12-.52,0-.81.31-.91.47-.16.68.28.76.47.06-.09.13-.2.16-.26s.1-.16.14-.22c.39-.56.82-1.1,1.34-1.06a.79.79,0,0,1,.63.52,2.86,2.86,0,0,1-.23,2.06,8.7,8.7,0,0,1-.48.92c-.12.2-.23.4-.34.62A.37.37,0,0,1,351.65,93.93Z" fill="#171717"/><path d="M338.65,104.4a10.77,10.77,0,0,1-2.09-.25.37.37,0,0,1-.29-.38c.11-2.57.58-7.2,1.39-8.72a4.83,4.83,0,0,1,4.82-2.78h0a5.31,5.31,0,0,1,2.78.71,12.34,12.34,0,0,1,2.69,2.6,11.66,11.66,0,0,0,.76-1.37c.18-.37.39-.79.79-1.49a.37.37,0,0,1,.5-.14l.45.19a12.9,12.9,0,0,1,1.49.71.38.38,0,0,1,.13.48l-.11.21a25.06,25.06,0,0,1-2.59,4.47,1.87,1.87,0,0,1-1.37.75,1.92,1.92,0,0,1-1.46-.56l-1.2-1.24a.38.38,0,0,1,0-.53.37.37,0,0,1,.53,0l1.2,1.24a1.11,1.11,0,0,0,1.68-.11A24.22,24.22,0,0,0,351.24,94c-.31-.16-.77-.35-1.08-.49l-.17-.07c-.28.51-.45.85-.6,1.15a14.45,14.45,0,0,1-1.07,1.88.39.39,0,0,1-.29.17.37.37,0,0,1-.31-.13l-.29-.34a12.45,12.45,0,0,0-2.51-2.48,4.59,4.59,0,0,0-2.43-.62h0a4.09,4.09,0,0,0-4.16,2.38c-.67,1.27-1.15,5.44-1.29,8.08a10.18,10.18,0,0,0,1.72.17.37.37,0,0,1,.39.36.39.39,0,0,1-.36.39Z" fill="#171717"/><circle cx="342.35" cy="90.24" r="2.21" fill="#171717"/><circle cx="342.35" cy="90.79" r="1.85" fill="#c98877"/><path d="M342.35,93a2.23,2.23,0,1,1,2.23-2.23A2.23,2.23,0,0,1,342.35,93Zm0-3.71a1.48,1.48,0,1,0,1.48,1.48A1.48,1.48,0,0,0,342.35,89.31Z" fill="#171717"/><path d="M345.62,102.88a.37.37,0,0,1-.37-.38v-7a.37.37,0,0,1,.37-.37.38.38,0,0,1,.38.37v7A.38.38,0,0,1,345.62,102.88Z" fill="#171717"/><path d="M339,102.88h0a.38.38,0,0,1-.35-.4l.29-6.29a.38.38,0,0,1,.39-.35.37.37,0,0,1,.36.39l-.29,6.29A.38.38,0,0,1,339,102.88Z" fill="#171717"/><path d="M345.62,102.88H339a.38.38,0,0,1-.37-.38.37.37,0,0,1,.37-.37h6.65a.37.37,0,0,1,.38.37A.38.38,0,0,1,345.62,102.88Z" fill="#171717"/><path d="M336.92,105.26a1.46,1.46,0,0,0,.32.42,3,3,0,0,0,1.08.52,11.54,11.54,0,0,0,.29-2.14c-.31,0-1.69-.19-1.74-.17s-.15.65-.1.91A1.9,1.9,0,0,0,336.92,105.26Z" fill="#c98877"/><path d="M338.32,106.57l-.12,0-.11,0A2.78,2.78,0,0,1,337,106a1.47,1.47,0,0,1-.4-.54h0a2.11,2.11,0,0,1-.19-.55s-.19-1.05.29-1.31a9.08,9.08,0,0,1,2,.13.38.38,0,0,1,.31.32,11.33,11.33,0,0,1-.3,2.28.4.4,0,0,1-.18.24A.39.39,0,0,1,338.32,106.57Zm-1.06-1.48a1.09,1.09,0,0,0,.23.32,1.52,1.52,0,0,0,.55.29c.08-.41.15-1,.19-1.31l-1.11-.11a2.3,2.3,0,0,0,0,.45A1.9,1.9,0,0,0,337.26,105.09Z" fill="#171717"/><polygon points="337.78 121.14 340.99 121.14 341.96 104.14 342.27 104.14 343.95 121.14 347.29 121.14 345.62 102.5 339.01 102.5 337.78 121.14" fill="#c5d3ed"/><path d="M347.29,121.52H344a.38.38,0,0,1-.38-.34l-1.4-14.24-.8,14.22a.38.38,0,0,1-.38.36h-3.21a.4.4,0,0,1-.27-.12.38.38,0,0,1-.11-.28l1.23-18.65a.39.39,0,0,1,.38-.35h6.61a.37.37,0,0,1,.37.35l1.68,18.64a.36.36,0,0,1-.1.28A.37.37,0,0,1,347.29,121.52Zm-3-.75h2.59l-1.6-17.9h-5.92l-1.18,17.9h2.46l.94-16.66a.38.38,0,0,1,.38-.35h.32a.38.38,0,0,1,.37.34Z" fill="#171717"/><path d="M344.24,91.09a1.23,1.23,0,0,0,.26-1.22,1.73,1.73,0,0,0-.83-1,3.24,3.24,0,0,0-1.26-.34,2,2,0,0,0-1,.13c-.36.17-.54.54-.77.84a.2.2,0,0,0,0,.18.22.22,0,0,0,.23.09c.31,0,.59-.25.89-.22s.47.35.71.48a.94.94,0,0,0,.64.08c.2,0,.37-.18.58-.17a.6.6,0,0,1,.47.3,1.82,1.82,0,0,1,.2.55" fill="#171717"/><path d="M347.6,97.33a.41.41,0,0,1-.18,0,.37.37,0,0,1-.14-.51l.49-.89a.38.38,0,0,1,.66.37l-.5.88A.36.36,0,0,1,347.6,97.33Z" fill="#171717"/><rect x="332.01" y="105.02" width="6.83" height="8.88" transform="translate(47.65 -94.69) rotate(17.28)" fill="#eae0d3"/><path d="M337.37,115.09l-.11,0-6.52-2a.38.38,0,0,1-.25-.47l2.64-8.48a.39.39,0,0,1,.18-.22.41.41,0,0,1,.29,0l6.52,2a.38.38,0,0,1,.25.47l-2.64,8.48a.38.38,0,0,1-.18.23A.58.58,0,0,1,337.37,115.09Zm-6.05-2.65,5.81,1.8,2.41-7.76-5.81-1.81Z" fill="#171717"/><circle cx="154.77" cy="229.55" r="3.4" fill="#c98877"/><path d="M154.77,233.33a3.78,3.78,0,1,1,3.78-3.78A3.77,3.77,0,0,1,154.77,233.33Zm0-6.8a3,3,0,1,0,3,3A3,3,0,0,0,154.77,226.53Z" fill="#171717"/><path d="M153,244.3h0a58.59,58.59,0,0,1-6.49-.92c-.86-.16-1.73-.31-2.59-.45a.38.38,0,0,1,.11-.75l2.62.46a58.78,58.78,0,0,0,6.07.89l.92-4.7a.38.38,0,0,1,.74.15l-1,5A.37.37,0,0,1,153,244.3Z" fill="#171717"/><path d="M142.17,245.13c-1.23-.14-2.19-1.56-2.55-2.67a.26.26,0,0,1,0-.21c0-.09.16-.11.27-.11a18,18,0,0,1,3.74.22" fill="#c98877"/><path d="M142.17,245.51h0c-1.36-.17-2.43-1.63-2.85-2.93a.65.65,0,0,1,0-.5.63.63,0,0,1,.59-.32,18.82,18.82,0,0,1,3.82.23.38.38,0,0,1,.31.43.4.4,0,0,1-.43.31,17.41,17.41,0,0,0-3.53-.22c.4,1.08,1.24,2.14,2.17,2.25a.38.38,0,0,1,.33.42A.38.38,0,0,1,142.17,245.51Z" fill="#171717"/><path d="M153.26,247.61c-.35,0-.68,0-1,0a32.8,32.8,0,0,1-9.84-2.16.47.47,0,0,1-.25-.23.4.4,0,0,1,0-.32l1.28-2.42a.38.38,0,0,1,.51-.15.36.36,0,0,1,.15.5l-1.07,2a31.2,31.2,0,0,0,9.23,2c1.22,0,3,.12,3.88-.75a5.7,5.7,0,0,0,1.09-2.78c0-.28.11-.55.17-.81s.2-.75.31-1.15c.63-2.34,1.36-5,0-6.87a2.85,2.85,0,0,0-2.06-1.16,2.35,2.35,0,0,0-1.84.7,5.75,5.75,0,0,0-1.09,1.92,43.25,43.25,0,0,0-1.65,6c-.13.56-.26,1.12-.39,1.65a.35.35,0,0,1-.45.28.38.38,0,0,1-.28-.45c.13-.53.26-1.09.39-1.65a44.46,44.46,0,0,1,1.68-6.09,6.35,6.35,0,0,1,1.25-2.18,3,3,0,0,1,2.43-.92,3.6,3.6,0,0,1,2.62,1.47c1.58,2.16.77,5.13.12,7.51-.11.39-.21.77-.3,1.13s-.11.51-.17.78a6.08,6.08,0,0,1-1.29,3.16A4.81,4.81,0,0,1,153.26,247.61Z" fill="#171717"/><path d="M151,226.59a5.66,5.66,0,0,1,1,.87l-.41.6a7.6,7.6,0,0,1-1.28-.53,2.81,2.81,0,0,1-1.15-.69c-.26-.39.24-.61.57-.62A2.4,2.4,0,0,1,151,226.59Z" fill="#e1e9f7"/><path d="M152.72,226.94a3.2,3.2,0,1,1,5.38,3.46Z" fill="#e1e9f7"/><path d="M158.1,230.78a.42.42,0,0,1-.21-.06l-5.37-3.47a.36.36,0,0,1-.12-.51,3.57,3.57,0,1,1,6,3.87A.38.38,0,0,1,158.1,230.78Zm-4.85-3.94,4.72,3a2.88,2.88,0,0,0,.3-1.26,2.83,2.83,0,0,0-2.83-2.83A2.8,2.8,0,0,0,153.25,226.84Z" fill="#171717"/><path d="M149,226.77c-.15-.24,0-.57.29-.71a1.33,1.33,0,0,1,1-.06,3.27,3.27,0,0,1,.91.51,9.73,9.73,0,0,1,1.12,1,4.19,4.19,0,0,0,.62.57,2.91,2.91,0,0,0,1.38.06,9.87,9.87,0,0,1-1.31-2.1" fill="#e1e9f7"/><path d="M153.68,228.58a1.76,1.76,0,0,1-.91-.18,3.37,3.37,0,0,1-.59-.53l-.09-.1a9.87,9.87,0,0,0-1.08-1,2.8,2.8,0,0,0-.79-.45,1,1,0,0,0-.73,0,.3.3,0,0,0-.15.19.36.36,0,0,1-.11.51.39.39,0,0,1-.52-.12.75.75,0,0,1-.09-.59,1,1,0,0,1,.51-.64,1.68,1.68,0,0,1,1.31-.1,3.36,3.36,0,0,1,1,.58,8.88,8.88,0,0,1,1.17,1l.09.09a3.06,3.06,0,0,0,.47.43,1.47,1.47,0,0,0,.46.05,10.79,10.79,0,0,1-.94-1.62.39.39,0,0,1,.18-.5.37.37,0,0,1,.5.18,9.31,9.31,0,0,0,1.26,2,.38.38,0,0,1-.21.61A4.61,4.61,0,0,1,153.68,228.58Z" fill="#171717"/><path d="M151.63,228.64l-.15,0a27.62,27.62,0,0,1-2.63-1.44.38.38,0,0,1,.4-.64,24.88,24.88,0,0,0,2.53,1.39.39.39,0,0,1,.19.5A.37.37,0,0,1,151.63,228.64Z" fill="#171717"/><path d="M153.32,226.42h0l-3.53-.12a.38.38,0,0,1,0-.75h0l3.53.12a.37.37,0,0,1,.36.39A.37.37,0,0,1,153.32,226.42Z" fill="#171717"/><path d="M216.46,181h-8.33v-2.5l9-14h3.15v13.15h2.63V181H220.3v3.21h-3.84Zm.29-3.16v-7.07l-4.38,7.07Z" fill="#c4e3d4"/><path d="M220.3,184.57h-3.84a.38.38,0,0,1-.37-.38v-2.84h-8a.38.38,0,0,1-.37-.37v-2.5a.36.36,0,0,1,.06-.2l9-14a.34.34,0,0,1,.31-.17h3.15a.38.38,0,0,1,.38.38v12.77h2.25a.38.38,0,0,1,.38.38V181a.38.38,0,0,1-.38.37h-2.25v2.84A.38.38,0,0,1,220.3,184.57Zm-3.46-.75h3.09V181a.37.37,0,0,1,.37-.38h2.26V178H220.3a.37.37,0,0,1-.37-.37V164.84h-2.57l-8.85,13.75v2h8a.38.38,0,0,1,.38.38Zm-.09-5.63h-4.38A.39.39,0,0,1,212,178a.39.39,0,0,1,0-.38l4.38-7.06a.38.38,0,0,1,.42-.17.39.39,0,0,1,.28.36v7.07A.37.37,0,0,1,216.75,178.19Zm-3.71-.75h3.34v-5.37Z" fill="#171717"/><path d="M225.08,174.34c0-6,2.89-10.1,7.64-10.1,4.58,0,7.67,3.73,7.67,10.1,0,6-2.89,10.08-7.67,10.08C228.2,184.42,225.08,180.72,225.08,174.34Zm11.33,0c0-4-1.34-6.46-3.66-6.46s-3.69,2.27-3.69,6.46c0,4,1.37,6.46,3.69,6.46S236.41,178.51,236.41,174.34Z" fill="#c4e3d4"/><path d="M232.72,184.8c-4.87,0-8-4.11-8-10.46s3.15-10.48,8-10.48,8.05,4.12,8.05,10.48S237.61,184.8,232.72,184.8Zm0-20.19c-4.42,0-7.27,3.82-7.27,9.73s2.79,9.71,7.27,9.71,7.3-3.72,7.3-9.71S237.22,164.61,232.72,164.61Zm0,16.57c-2.51,0-4.07-2.62-4.07-6.84s1.52-6.83,4.07-6.83,4,2.55,4,6.83S235.32,181.18,232.75,181.18Zm0-12.92c-2.11,0-3.32,2.22-3.32,6.08s1.27,6.09,3.32,6.09,3.29-2.22,3.29-6.09S234.81,168.26,232.75,168.26Z" fill="#171717"/><path d="M250.55,181h-8.33v-2.5l9-14h3.15v13.15H257V181h-2.63v3.21h-3.84Zm.29-3.16v-7.07l-4.38,7.07Z" fill="#c4e3d4"/><path d="M254.39,184.57h-3.84a.38.38,0,0,1-.38-.38v-2.84h-7.95a.38.38,0,0,1-.38-.37v-2.5a.36.36,0,0,1,.06-.2l9-14a.37.37,0,0,1,.32-.17h3.15a.38.38,0,0,1,.37.38v12.77H257a.37.37,0,0,1,.37.38V181a.37.37,0,0,1-.37.37h-2.26v2.84A.38.38,0,0,1,254.39,184.57Zm-3.47-.75H254V181a.38.38,0,0,1,.38-.38h2.25V178h-2.25a.38.38,0,0,1-.38-.37V164.84h-2.57l-8.85,13.75v2h8a.37.37,0,0,1,.37.38Zm-.08-5.63h-4.38a.36.36,0,0,1-.33-.19.37.37,0,0,1,0-.38l4.38-7.06a.38.38,0,0,1,.42-.17.38.38,0,0,1,.27.36v7.07A.37.37,0,0,1,250.84,178.19Zm-3.71-.75h3.33v-5.37Z" fill="#171717"/><path d="M282.06,157.66h-4.94a.37.37,0,0,1-.3-.16.38.38,0,0,1-.05-.34l1-2.84a.37.37,0,0,1,.35-.25H281a.39.39,0,0,1,.35.24l1.1,2.84a.37.37,0,0,1-.35.51Zm-4.41-.75h3.87l-.82-2.09h-2.31Z" fill="#171717"/><path d="M290.67,157.66h-4.94a.38.38,0,0,1-.31-.16.38.38,0,0,1-.05-.34l1-2.84a.39.39,0,0,1,.36-.25h2.83a.37.37,0,0,1,.35.24l1.11,2.84a.4.4,0,0,1,0,.35A.38.38,0,0,1,290.67,157.66Zm-4.41-.75h3.86l-.81-2.09H287Z" fill="#171717"/><path d="M309.35,155,313,150.7c.54-.63,1.57-.26,1.27.63a1.79,1.79,0,0,1-.73.81.93.93,0,0,1,.4-.06.33.33,0,0,1,.29.25.43.43,0,0,1,0,.22,1.59,1.59,0,0,1-1,.91c.23,0,.51.12.55.35.22,1.1-3.14,1.43-3.76,1.47,0,0,0,0,0,0" fill="#c98877"/><path d="M309.93,155.66a.42.42,0,0,1-.21-.06.4.4,0,0,1-.17-.3.36.36,0,0,1-.44,0,.37.37,0,0,1,0-.53l3.62-4.28a1.19,1.19,0,0,1,1.48-.31,1,1,0,0,1,.43,1.3,1.57,1.57,0,0,1-.25.44.65.65,0,0,1,.22.37.7.7,0,0,1-.07.43,2,2,0,0,1-.56.77.57.57,0,0,1,.12.28.89.89,0,0,1-.18.73c-.69.89-3.23,1.13-3.83,1.17Zm3.69-4.9a.47.47,0,0,0-.36.18l-3.35,4c1.18-.07,3-.4,3.37-.89a.16.16,0,0,0,.05-.12s-.07,0-.25-.06a.37.37,0,0,1-.32-.34.38.38,0,0,1,.27-.39,1.26,1.26,0,0,0,.78-.68.57.57,0,0,1-.19.08.37.37,0,0,1-.32-.66,1.6,1.6,0,0,0,.59-.63c0-.14.07-.32-.09-.41A.48.48,0,0,0,313.62,150.76Z" fill="#171717"/><path d="M299.69,152.7c.18-.46.34-.92.5-1.37.66-1.78,2.51-2.63,4.21-3.1,2.19-.62,3.06.83,4.26,2.6a7,7,0,0,1,1.33,2.88,2.69,2.69,0,0,1-1.17,2.76,3.46,3.46,0,0,1-3-.2,7.94,7.94,0,0,0-2.94-1c-1.7,0-3.15,2-4.79,1.58a.8.8,0,0,1-.63-1,1.41,1.41,0,0,1,.54-.57A5.68,5.68,0,0,0,299.69,152.7Z" fill="#c98877"/><path d="M298.53,157.29a2,2,0,0,1-.53-.07,1.33,1.33,0,0,1-.83-.64,1,1,0,0,1-.06-.82,1.49,1.49,0,0,1,.58-.67l.08-.07a5.3,5.3,0,0,0,1.57-2.46h0c.11-.26.2-.53.3-.8l.2-.56c.58-1.56,2-2.65,4.46-3.34s3.42.9,4.53,2.55l.14.21a7.33,7.33,0,0,1,1.39,3A3.07,3.07,0,0,1,309,156.8a3.74,3.74,0,0,1-3.33-.19l-.57-.26a5.6,5.6,0,0,0-2.22-.69,4.06,4.06,0,0,0-2.06.78A4.79,4.79,0,0,1,298.53,157.29Zm1.52-4.46a6.17,6.17,0,0,1-1.81,2.78l-.1.07c-.15.12-.29.22-.33.34a.25.25,0,0,0,0,.21.55.55,0,0,0,.34.27,3.31,3.31,0,0,0,2.26-.71,5,5,0,0,1,2.45-.88,6.32,6.32,0,0,1,2.53.77l.55.25a3.08,3.08,0,0,0,2.67.21,2.32,2.32,0,0,0,1-2.38,6.78,6.78,0,0,0-1.27-2.72l-.14-.21c-1.12-1.66-1.87-2.76-3.71-2.24-2.17.61-3.47,1.55-4,2.87l-.2.55c-.09.28-.19.55-.29.82Z" fill="#171717"/><path d="M303.69,144.72a6.7,6.7,0,0,1,2.61,1.06,2.57,2.57,0,0,1,1.09,1.28.7.7,0,0,1,0,.43c-.13.33-.58.37-.93.31a6.16,6.16,0,0,1-3.57-1.93" fill="#c98877"/><path d="M306.74,148.2a1.93,1.93,0,0,1-.33,0,6.48,6.48,0,0,1-3.79-2,.4.4,0,0,1,0-.54.39.39,0,0,1,.53,0,5.68,5.68,0,0,0,3.34,1.81c.29,0,.5,0,.53-.07a.35.35,0,0,0,0-.19,2.19,2.19,0,0,0-.94-1.08,6.52,6.52,0,0,0-2.47-1,.37.37,0,0,1,.13-.73,7.09,7.09,0,0,1,2.76,1.12,2.91,2.91,0,0,1,1.24,1.48.92.92,0,0,1-1,1.25Z" fill="#171717"/><path d="M298.65,146.41a3.68,3.68,0,0,0,.94,1.48,4.93,4.93,0,0,0,2.45,1.29,2.73,2.73,0,0,0,3-1.22,2.6,2.6,0,0,0-.05-2.87,3.53,3.53,0,0,0-2.8-.55,11.71,11.71,0,0,1-1.57.08,4.88,4.88,0,0,0-1.26-.1h-.08a1,1,0,0,0-.62.48A1.88,1.88,0,0,0,298.65,146.41Z" fill="#c98877"/><path d="M302.67,149.63a3.51,3.51,0,0,1-.71-.08,5.47,5.47,0,0,1-2.64-1.39,4.12,4.12,0,0,1-1-1.63,2.23,2.23,0,0,1,0-1.69,1.33,1.33,0,0,1,.85-.67l.16,0a2.38,2.38,0,0,1,.88.05,3,3,0,0,0,.42.05,7.8,7.8,0,0,0,1.27-.05l.25,0a3.82,3.82,0,0,1,3.09.65c.86.84.61,2.5.12,3.33A3.12,3.12,0,0,1,302.67,149.63Zm-3.08-4.76h-.18a.59.59,0,0,0-.44.31,1.43,1.43,0,0,0,0,1.09h0a3.45,3.45,0,0,0,.84,1.34,4.72,4.72,0,0,0,2.27,1.19,2.38,2.38,0,0,0,2.57-1.06,2.28,2.28,0,0,0,0-2.4,3.25,3.25,0,0,0-2.51-.44l-.25,0a10.27,10.27,0,0,1-1.37.05l-.51-.06A2,2,0,0,0,299.59,144.87Z" fill="#171717"/><path d="M305.31,145.61a6.78,6.78,0,0,1,.75,2.72,2.58,2.58,0,0,1-.35,1.64.61.61,0,0,1-.34.27c-.34.1-.64-.24-.81-.55a6.17,6.17,0,0,1-.65-4" fill="#c98877"/><path d="M305.25,150.64a1.24,1.24,0,0,1-1-.77,6.51,6.51,0,0,1-.69-4.24.38.38,0,0,1,.44-.31.38.38,0,0,1,.3.44,5.69,5.69,0,0,0,.61,3.75c.13.25.33.39.38.37s.06,0,.14-.13a2.2,2.2,0,0,0,.27-1.4,6.4,6.4,0,0,0-.7-2.57.36.36,0,0,1,.15-.5.37.37,0,0,1,.51.15,7.08,7.08,0,0,1,.79,2.87,2.88,2.88,0,0,1-.41,1.88,1,1,0,0,1-.54.42A.66.66,0,0,1,305.25,150.64Z" fill="#171717"/><ellipse cx="300.85" cy="145.59" rx="0.33" ry="0.16" transform="translate(-28 205.3) rotate(-36.11)" fill="#171717"/><path d="M298.63,145l.84-.24-.14-.25h-.08A1,1,0,0,0,298.63,145Z" fill="#171717"/><path d="M306.28,153.47a17,17,0,0,0-3.35,1c-.44.18-.93.47-1,.94a1,1,0,0,0,.19.58,2.51,2.51,0,0,0,2.56.93,5.79,5.79,0,0,0,2.52-1.35" fill="#c98877"/><path d="M304.19,157.35a2.74,2.74,0,0,1-2.34-1.14,1.32,1.32,0,0,1-.25-.81c0-.79.9-1.15,1.18-1.27a17.83,17.83,0,0,1,3.43-1,.38.38,0,0,1,.14.74,16.49,16.49,0,0,0-3.28,1c-.32.14-.71.36-.72.62a.61.61,0,0,0,.13.36,2.17,2.17,0,0,0,2.17.76,5.58,5.58,0,0,0,2.36-1.27.36.36,0,0,1,.52.05.38.38,0,0,1,0,.53,6.31,6.31,0,0,1-2.69,1.43A3.83,3.83,0,0,1,304.19,157.35Z" fill="#171717"/><polygon points="382.74 213.2 385.23 209.44 385.23 214.05 388.9 217.63 384.27 217.63 381.56 221.71 381.56 215.28 378.5 212 382.74 213.2" fill="#e1e9f7"/><path d="M381.56,222.09l-.11,0a.38.38,0,0,1-.26-.36v-6.29l-3-3.16a.39.39,0,0,1-.05-.45.38.38,0,0,1,.43-.17l4,1.13,2.34-3.54a.38.38,0,0,1,.69.2v4.46l3.55,3.47a.38.38,0,0,1-.26.65h-4.42l-2.6,3.91A.41.41,0,0,1,381.56,222.09Zm-1.86-9.36,2.14,2.29a.39.39,0,0,1,.1.25v5.2l2-3.05a.38.38,0,0,1,.31-.16H388l-3-2.95a.36.36,0,0,1-.11-.26v-3.37l-1.81,2.73a.37.37,0,0,1-.42.15Z" fill="#171717"/></g></svg>
