<svg 
xmlns="http://www.w3.org/2000/svg" 
viewBox="0 0 297.32 164.54">
<g id="business"><path d="M221.69,109c-.12-7.47,5.34-12.22,10.08-17.44,3.8-3.91,7.6-8.18,7.6-13.52,0-5.93-3.92-9.26-9.5-9.26a15.18,15.18,0,0,0-12,6.41l-11-10.32C212.2,58.23,221.33,54,231.18,54c13.29,0,25,7.6,25,23.14,0,9.25-5.22,15.42-10.44,20.52-4.86,4.51-9.49,8.07-9.85,12.34l-.35,5H221.81Zm-2.37,24.92a9.61,9.61,0,1,1,9.6,9.37A9.44,9.44,0,0,1,219.32,133.92Z" fill="#79c9a9"/><path d="M228.92,143.67a9.76,9.76,0,0,1-10-9.75,10,10,0,1,1,10,9.75Zm0-18.87a9.18,9.18,0,0,0-9.23,9.12,9,9,0,0,0,9.23,9,9.13,9.13,0,0,0,9.24-9A9.31,9.31,0,0,0,228.92,124.8Zm6.65-9.49H221.81a.38.38,0,0,1-.38-.37l-.12-5.93h0c-.1-6.7,4.22-11.31,8.39-15.77.6-.64,1.21-1.28,1.8-1.93C235.45,87.23,239,83.16,239,78c0-5.48-3.49-8.88-9.12-8.88a14.77,14.77,0,0,0-11.68,6.25.35.35,0,0,1-.26.15.35.35,0,0,1-.29-.1l-11-10.32a.38.38,0,0,1,0-.51c5.49-6.82,14.92-11,24.62-11,12.65,0,25.41,7.27,25.41,23.51,0,9.21-5.07,15.44-10.56,20.79l-2,1.83c-4,3.62-7.44,6.74-7.73,10.27l-.36,5A.37.37,0,0,1,235.57,115.31Zm-13.4-.75h13.05l.33-4.63c.32-3.84,3.87-7.05,8-10.77l2-1.82c5.35-5.23,10.32-11.32,10.32-20.25,0-10.5-6.46-22.76-24.66-22.76-9.35,0-18.44,4-23.81,10.5l10.47,9.8a15.46,15.46,0,0,1,12-6.22c6.09,0,9.87,3.69,9.87,9.63,0,5.4-3.64,9.6-7.7,13.78-.58.65-1.19,1.29-1.79,1.94C226,98.31,222,102.6,222.06,109Z" fill="#171717"/><path d="M172.15,95.06C172,84,180,77.05,187,69.35c5.59-5.77,11.19-12.07,11.19-19.94,0-8.74-5.77-13.64-14-13.64a22.36,22.36,0,0,0-17.67,9.44L150.28,30c7.88-9.8,21.34-16.09,35.86-16.09,19.59,0,36.91,11.19,36.91,34.1,0,13.64-7.7,22.74-15.39,30.26-7.17,6.65-14,11.9-14.52,18.19l-.53,7.35H172.32Zm-3.5,36.73a14.17,14.17,0,1,1,14.17,13.82A13.93,13.93,0,0,1,168.65,131.79Z" fill="#d8eaed"/><path d="M182.82,146a14.22,14.22,0,0,1-14.54-14.19A14.54,14.54,0,1,1,182.82,146Zm0-27.81A13.72,13.72,0,0,0,169,131.8a13.47,13.47,0,0,0,13.79,13.44,13.64,13.64,0,0,0,13.79-13.44A13.89,13.89,0,0,0,182.82,118.18Zm9.79-14H172.32a.37.37,0,0,1-.37-.36l-.18-8.75h0C171.62,85.27,178,78.5,184.09,72c.89-1,1.78-1.89,2.65-2.85,5.85-6,11.1-12.08,11.1-19.69,0-8.18-5.22-13.27-13.62-13.27a22,22,0,0,0-17.37,9.29.37.37,0,0,1-.26.16.38.38,0,0,1-.29-.1L150,30.27a.37.37,0,0,1,0-.51c8-10,21.9-16.23,36.15-16.23,10.2,0,19.44,3,26,8.55,7.36,6.14,11.24,15.11,11.24,25.93,0,13.52-7.45,22.66-15.5,30.53-1,.93-2,1.82-2.95,2.7-5.91,5.35-11,10-11.46,15.25l-.52,7.35A.38.38,0,0,1,192.61,104.18Zm-19.92-.75h19.57l.5-7c.47-5.58,5.67-10.3,11.7-15.76,1-.87,1.95-1.76,2.94-2.68,7.93-7.75,15.27-16.75,15.27-30,0-15.56-9.57-33.73-36.53-33.73-13.9,0-27.41,6-35.34,15.68l15.7,14.69a22.64,22.64,0,0,1,17.72-9.26c8.86,0,14.37,5.37,14.37,14,0,7.89-5.35,14.06-11.3,20.2-.87,1-1.76,1.9-2.65,2.85-6.31,6.74-12.27,13.1-12.12,22.6Z" fill="#171717"/><circle cx="125.85" cy="67.52" r="5.75" fill="#c98877"/><path d="M125.85,73.64A6.12,6.12,0,1,1,132,67.52,6.12,6.12,0,0,1,125.85,73.64Zm0-11.49a5.37,5.37,0,1,0,5.37,5.37A5.38,5.38,0,0,0,125.85,62.15Z" fill="#171717"/><path d="M79.67,137.54a.41.41,0,0,1-.16,0L47.76,122.75a.38.38,0,0,1-.18-.5.37.37,0,0,1,.5-.18l31.39,14.59,19-46.74a.36.36,0,0,1,.46-.22l7,2.33a.37.37,0,0,1,.24.47.37.37,0,0,1-.47.24L99,90.52,80,137.31a.35.35,0,0,1-.21.2A.31.31,0,0,1,79.67,137.54Z" fill="#171717"/><path d="M78.13,146.74A3.86,3.86,0,1,1,82,142.89,3.86,3.86,0,0,1,78.13,146.74Zm0-7a3.11,3.11,0,1,0,3.1,3.11A3.11,3.11,0,0,0,78.13,139.78Z" fill="#171717"/><path d="M47.92,133.51a3.86,3.86,0,1,1,3.85-3.86A3.86,3.86,0,0,1,47.92,133.51Zm0-7a3.11,3.11,0,1,0,3.1,3.1A3.1,3.1,0,0,0,47.92,126.55Z" fill="#171717"/><rect x="54.37" y="100.39" width="29.61" height="26.17" transform="translate(48.47 -17.8) rotate(22.4)" fill="#d8eaed"/><path d="M77.88,131.6a.35.35,0,0,1-.14,0L50.36,120.28a.37.37,0,0,1-.2-.49l10-24.19a.38.38,0,0,1,.2-.21.37.37,0,0,1,.29,0L88,106.68a.39.39,0,0,1,.2.2.37.37,0,0,1,0,.29l-10,24.19A.38.38,0,0,1,77.88,131.6ZM51,119.73l26.69,11,9.69-23.5-26.69-11Z" fill="#171717"/><path d="M74.69,106.69h0a.37.37,0,0,1-.33-.24l-.88-2.38-2.63,1a.38.38,0,0,1-.4-.1.36.36,0,0,1-.07-.4l1.63-4a.37.37,0,1,1,.69.29L71.38,104l2.17-.8a.37.37,0,0,1,.48.23l.73,2,1.64-3.06a.38.38,0,0,1,.51-.15.36.36,0,0,1,.15.5l-2,3.8A.36.36,0,0,1,74.69,106.69Z" fill="#171717"/><path d="M67,126.56l-.14,0a.39.39,0,0,1-.21-.49l1.26-3.19-2.16.83a.38.38,0,0,1-.49-.22l-.75-1.94-1.6,3.08a.37.37,0,1,1-.66-.34l2-3.82a.38.38,0,0,1,.35-.21.39.39,0,0,1,.33.24l.92,2.37,2.61-1a.39.39,0,0,1,.4.09.35.35,0,0,1,.08.4l-1.57,4A.38.38,0,0,1,67,126.56Z" fill="#171717"/><path d="M122.77,92.2h0a95.37,95.37,0,0,1-10.94-1.55c-1.46-.27-2.92-.53-4.38-.77a.37.37,0,0,1-.31-.43.38.38,0,0,1,.43-.31c1.46.24,2.93.5,4.4.77a95.52,95.52,0,0,0,10.52,1.52l1.62-8.16a.37.37,0,1,1,.73.14l-1.67,8.49A.38.38,0,0,1,122.77,92.2Z" fill="#171717"/><path d="M104.53,93.86c-2.07-.25-3.69-2.65-4.29-4.51a.5.5,0,0,1,0-.36c.08-.16.29-.19.47-.2a31.13,31.13,0,0,1,6.32.38" fill="#ff673d"/><path d="M104.53,94.23h0c-2.19-.26-3.92-2.65-4.61-4.77a.87.87,0,0,1,0-.64.86.86,0,0,1,.78-.4,30.55,30.55,0,0,1,6.4.38.38.38,0,0,1,.31.43.39.39,0,0,1-.44.31,30.34,30.34,0,0,0-6.24-.37h-.12l0,0c.63,2,2.2,4,4,4.26a.37.37,0,0,1,0,.74Z" fill="#171717"/><path d="M123.29,97.78c-.59,0-1.15,0-1.65,0a55.12,55.12,0,0,1-16.55-3.64.55.55,0,0,1-.28-.24.47.47,0,0,1,0-.33l2.16-4.08a.36.36,0,0,1,.5-.16.37.37,0,0,1,.16.51l-2,3.7a53.86,53.86,0,0,0,16,3.49c2.12.08,5.21.2,6.75-1.35,1.17-1.17,1.57-3.11,1.92-4.83.1-.47.19-.93.29-1.35.16-.62.33-1.27.52-1.95,1.09-4,2.33-8.56-.06-11.83a5,5,0,0,0-3.67-2.07A4.08,4.08,0,0,0,124,74.87a9.72,9.72,0,0,0-1.9,3.34,73.45,73.45,0,0,0-2.8,10.13c-.22,1-.44,1.91-.66,2.83a.36.36,0,0,1-.45.27A.38.38,0,0,1,118,91c.22-.91.44-1.85.65-2.81a76.42,76.42,0,0,1,2.84-10.25,10.38,10.38,0,0,1,2.06-3.59,4.88,4.88,0,0,1,3.9-1.48,5.84,5.84,0,0,1,4.23,2.38c2.59,3.56,1.25,8.5.17,12.47-.18.67-.36,1.31-.51,1.93-.1.41-.19.86-.29,1.32-.37,1.82-.79,3.88-2.11,5.21S125.25,97.78,123.29,97.78Z" fill="#171717"/><path d="M115,143.33a.3.3,0,0,1-.13,0L106,139.92a.39.39,0,0,1-.23-.48l10.41-30.66c.47-1.39,1.93-9.76,2.13-11.39a.36.36,0,0,1,.41-.33.37.37,0,0,1,.33.42c-.17,1.4-1.65,10-2.16,11.54l-10.29,30.32,8.19,3.13,11.78-33.55c.36-1,.81-2,1.24-3a30.37,30.37,0,0,0,1.54-4c.85-3.08,1-7.59,1.15-11.21l0-1.18a.4.4,0,0,1,.39-.36.37.37,0,0,1,.36.39l0,1.18c-.13,3.66-.3,8.21-1.18,11.38a30.39,30.39,0,0,1-1.58,4.09c-.42,1-.86,2-1.22,3l-11.9,33.91a.4.4,0,0,1-.2.22A.41.41,0,0,1,115,143.33Z" fill="#171717"/><path d="M134.59,140.49h-.06a.38.38,0,0,1-.24-.15l-12.58-17.07a.37.37,0,1,1,.6-.44l12.36,16.76,7.75-5.83-12.14-17.37a.36.36,0,0,1-.07-.22c.07-4.7,0-7.49,0-10.72,0-1.93-.05-4-.05-6.83a.37.37,0,0,1,.37-.37h0a.37.37,0,0,1,.38.37c0,2.79,0,4.89.05,6.82,0,3.21.06,6,0,10.62l12.29,17.57a.38.38,0,0,1-.08.51l-8.36,6.27A.35.35,0,0,1,134.59,140.49Z" fill="#171717"/><rect x="73.38" y="78.12" width="21.03" height="22.76" transform="translate(44.27 -26.6) rotate(24.31)" fill="#d8eaed"/><path d="M88.79,104.57a.4.4,0,0,1-.15,0L69.47,95.89a.45.45,0,0,1-.2-.21.41.41,0,0,1,0-.29l9.37-20.74a.37.37,0,0,1,.5-.19l19.16,8.65a.45.45,0,0,1,.2.21.36.36,0,0,1,0,.29l-9.37,20.74A.37.37,0,0,1,88.79,104.57ZM70.12,95.36,88.6,103.7l9.06-20.06L79.18,75.3Z" fill="#171717"/><path d="M141.81,134.88c1,1.17,2.09,2.42,3.12,3.59l-8,7.79a4.76,4.76,0,0,1-.54-3.35c.45-1.82,2.08-2.4,2.23-4.11a3.07,3.07,0,0,0-.18-1.3" fill="#fff"/><path d="M136.93,146.63h-.07a.36.36,0,0,1-.27-.21,5.21,5.21,0,0,1-.57-3.6,5.3,5.3,0,0,1,1.24-2.16,3.42,3.42,0,0,0,1-1.89,2.91,2.91,0,0,0-.16-1.15.38.38,0,0,1,.22-.48.37.37,0,0,1,.48.23,3.28,3.28,0,0,1,.2,1.47,4,4,0,0,1-1.15,2.3,4.54,4.54,0,0,0-1.09,1.86,4.22,4.22,0,0,0,.3,2.61l7.37-7.16-1.33-1.53-1.56-1.79a.37.37,0,0,1,0-.53.38.38,0,0,1,.53,0l1.57,1.8,1.55,1.79a.35.35,0,0,1,0,.51l-8,7.79A.38.38,0,0,1,136.93,146.63Z" fill="#171717"/><path d="M112.3,142.27c-.53,1.46-1.12,3-1.64,4.46L100,143.45a4.77,4.77,0,0,1,2.68-2.08c1.81-.48,3.1.68,4.67,0a3.31,3.31,0,0,0,1.06-.79" fill="#fff"/><path d="M110.66,147.11l-.11,0-10.68-3.28a.4.4,0,0,1-.25-.24.41.41,0,0,1,0-.34,5.24,5.24,0,0,1,2.89-2.22,5.3,5.3,0,0,1,2.49,0,3.3,3.3,0,0,0,2.13,0,2.75,2.75,0,0,0,.93-.69.37.37,0,0,1,.53,0,.38.38,0,0,1,0,.53,3.45,3.45,0,0,1-1.19.88,4,4,0,0,1-2.57.09,4.62,4.62,0,0,0-2.16-.06,4.24,4.24,0,0,0-2.15,1.52l9.82,3,.72-1.94q.42-1.11.81-2.19a.37.37,0,0,1,.48-.23.38.38,0,0,1,.22.48l-.8,2.2c-.29.76-.57,1.52-.84,2.27A.39.39,0,0,1,110.66,147.11Z" fill="#171717"/><path d="M123.57,68.61a.38.38,0,0,1-.37-.28.37.37,0,0,1,.27-.45l4.23-1.12a.37.37,0,0,1,.46.26.38.38,0,0,1-.27.46l-4.23,1.12Z" fill="#171717"/><path d="M124,71.18a.37.37,0,0,1-.13-.72L130.38,68a.39.39,0,0,1,.49.22.38.38,0,0,1-.22.48l-6.47,2.47A.34.34,0,0,1,124,71.18Z" fill="#171717"/><path d="M124,71.39l-2.89.43a5.85,5.85,0,0,1-1.56-3.56l3.91-.58Z" fill="#79c9a9"/><path d="M119.51,62.51A8.63,8.63,0,0,1,121.22,64l-.69,1a14.39,14.39,0,0,1-2.16-.89,5,5,0,0,1-1.94-1.18c-.44-.66.41-1,1-1A3.89,3.89,0,0,1,119.51,62.51Z" fill="#e1e9f7"/><path d="M122.38,63.1A5.41,5.41,0,1,1,131.47,69Z" fill="#e1e9f7"/><path d="M131.47,69.33a.42.42,0,0,1-.21-.06l-9.09-5.86a.37.37,0,0,1-.11-.51,5.78,5.78,0,0,1,10.7,3,5.81,5.81,0,0,1-1,3.23A.4.4,0,0,1,131.47,69.33ZM122.9,63l8.45,5.44A5,5,0,0,0,122.9,63Z" fill="#171717"/><path d="M116.13,62.81c-.26-.41.06-1,.48-1.19a2.23,2.23,0,0,1,1.72-.11,5.33,5.33,0,0,1,1.54.87,15.29,15.29,0,0,1,1.9,1.69,6.87,6.87,0,0,0,1,1,4.85,4.85,0,0,0,2.34.1,16.88,16.88,0,0,1-2.21-3.55" fill="#e1e9f7"/><path d="M124,65.61a2.81,2.81,0,0,1-1.4-.25,5.77,5.77,0,0,1-1-.88l-.14-.15a16.14,16.14,0,0,0-1.85-1.65,5,5,0,0,0-1.43-.81,1.88,1.88,0,0,0-1.43.08.85.85,0,0,0-.37.45.2.2,0,0,0,0,.2.37.37,0,0,1-.12.52.36.36,0,0,1-.51-.11,1,1,0,0,1-.12-.79,1.53,1.53,0,0,1,.73-.93,2.63,2.63,0,0,1,2-.14,5.85,5.85,0,0,1,1.65.93A16.06,16.06,0,0,1,122,63.82l.15.15a5.42,5.42,0,0,0,.83.77,3.78,3.78,0,0,0,1.42.12,18.13,18.13,0,0,1-1.84-3.1.37.37,0,0,1,.18-.5.38.38,0,0,1,.5.17,16.05,16.05,0,0,0,2.16,3.48.39.39,0,0,1,.07.36.41.41,0,0,1-.28.25A7.32,7.32,0,0,1,124,65.61Z" fill="#171717"/><path d="M120.53,65.72a.4.4,0,0,1-.15,0A45.77,45.77,0,0,1,116,63.27a.38.38,0,0,1-.11-.52.37.37,0,0,1,.52-.12,44.77,44.77,0,0,0,4.3,2.37.38.38,0,0,1,.19.5A.37.37,0,0,1,120.53,65.72Z" fill="#171717"/><path d="M123.39,62h0l-6-.21a.38.38,0,1,1,0-.75l6,.21a.37.37,0,0,1,.36.39A.37.37,0,0,1,123.39,62Z" fill="#171717"/></g></svg>
