<svg xmlns="http://www.w3.org/2000/svg" width="64" height="64" viewBox="0 0 64 64"><title>io-favicon</title><g id="Layer_2" data-name="Layer 2"><g id="Layer_1-2" data-name="Layer 1"><g id="io-favicon"><rect width="64" height="64" rx="8" fill="#222831"/><path d="M41.493,15a.764.764,0,0,0-.686-.1l-18.286,6.1a.76.76,0,0,0-.521.722V46.1a.763.763,0,0,0,.421.682L40.707,55.92a.772.772,0,0,0,.341.08.763.763,0,0,0,.762-.762V15.619A.761.761,0,0,0,41.493,15Zm-1.207,39L23.524,45.624V22.772l16.762,5.587Zm0-27.252L25.171,21.714l15.115-5.038Z" fill="#fff"/><path d="M27.333,12.571a4.572,4.572,0,1,0-4.571,4.572A4.571,4.571,0,0,0,27.333,12.571Zm-7.619,0a3.048,3.048,0,1,1,3.048,3.048A3.051,3.051,0,0,1,19.714,12.571Z" fill="#fff"/></g></g></g></svg>