<svg xmlns="http://www.w3.org/2000/svg" width="165.082" height="63" viewBox="0 0 165.082 63"><title>Logo Inicjatywy Otwarte</title><g id="Layer_2" data-name="Layer 2"><g id="Layer_1-2" data-name="Layer 1"><g id="io-logo"><path d="M31,10a1,1,0,0,0-1.317-.949l-24,8A1,1,0,0,0,5,18V50a1,1,0,0,0,.553.894l24,12A1.006,1.006,0,0,0,30,63a1,1,0,0,0,1-1M29,24.613,9.162,18,29,11.387ZM7,49.381V19.388l22,7.333v33.66Z" fill="#222831"/><path d="M6,2A4,4,0,1,1,2,6,4,4,0,0,1,6,2M6,0a6,6,0,1,0,6,6A6,6,0,0,0,6,0Z" fill="#222831"/><path d="M55.684,13a.538.538,0,0,1-.157-.4V11.35a.576.576,0,0,1,.157-.406.512.512,0,0,1,.4-.168H57.5a.574.574,0,0,1,.576.574V12.6a.518.518,0,0,1-.168.4.575.575,0,0,1-.408.156H56.08A.531.531,0,0,1,55.684,13Zm.191,14.832a.536.536,0,0,1-.154-.4V16.055a.531.531,0,0,1,.55-.552h1.057a.534.534,0,0,1,.553.552V27.43a.534.534,0,0,1-.553.553H56.271A.534.534,0,0,1,55.875,27.827Z" fill="#222831"/><path d="M61.518,27.827a.537.537,0,0,1-.155-.4V16.055a.532.532,0,0,1,.551-.552h1.033a.5.5,0,0,1,.551.552v1.057a5.127,5.127,0,0,1,1.668-1.369,5.209,5.209,0,0,1,2.365-.481,4.47,4.47,0,0,1,3.576,1.477,5.767,5.767,0,0,1,1.272,3.9V27.43a.541.541,0,0,1-.156.4.535.535,0,0,1-.4.156h-1.1a.533.533,0,0,1-.4-.156.541.541,0,0,1-.156-.4V20.784a3.952,3.952,0,0,0-.84-2.69,3.023,3.023,0,0,0-2.4-.959,3.2,3.2,0,0,0-2.448.971,3.765,3.765,0,0,0-.912,2.678V27.43a.537.537,0,0,1-.156.4.531.531,0,0,1-.4.156h-1.1A.534.534,0,0,1,61.518,27.827Z" fill="#222831"/><path d="M75.689,13a.541.541,0,0,1-.156-.4V11.35a.579.579,0,0,1,.156-.406.516.516,0,0,1,.4-.168H77.5a.574.574,0,0,1,.576.574V12.6a.521.521,0,0,1-.168.4.575.575,0,0,1-.408.156H76.086A.535.535,0,0,1,75.689,13Zm.192,14.832a.536.536,0,0,1-.154-.4V16.055a.531.531,0,0,1,.55-.552h1.057a.535.535,0,0,1,.553.552V27.43a.535.535,0,0,1-.553.553H76.277A.534.534,0,0,1,75.881,27.827Z" fill="#222831"/><path d="M82.377,26.77A5.767,5.767,0,0,1,80.865,22.7l-.023-.961.023-.959a5.773,5.773,0,0,1,1.512-4.068,5.393,5.393,0,0,1,4.01-1.454,6.308,6.308,0,0,1,2.914.614A4.5,4.5,0,0,1,91.078,17.4a3.717,3.717,0,0,1,.635,1.824.435.435,0,0,1-.154.383.571.571,0,0,1-.4.17H90.105a.521.521,0,0,1-.359-.109,1.126,1.126,0,0,1-.24-.4A3.241,3.241,0,0,0,88.318,17.6a3.448,3.448,0,0,0-1.908-.49,3.147,3.147,0,0,0-2.4.936,4.265,4.265,0,0,0-.961,2.855l-.024.84.024.84a4.262,4.262,0,0,0,.961,2.855,3.149,3.149,0,0,0,2.4.938,3.422,3.422,0,0,0,1.92-.492,3.278,3.278,0,0,0,1.176-1.668,1.117,1.117,0,0,1,.24-.4.52.52,0,0,1,.359-.107h1.057a.573.573,0,0,1,.4.168.436.436,0,0,1,.154.382,3.68,3.68,0,0,1-.635,1.8A4.573,4.573,0,0,1,89.3,27.6a6.206,6.206,0,0,1-2.914.625A5.393,5.393,0,0,1,82.377,26.77Z" fill="#222831"/><path d="M91.857,32.387a.567.567,0,0,1-.144-.4v-.768a.494.494,0,0,1,.529-.527h.336a1.742,1.742,0,0,0,1.572-.613,3.309,3.309,0,0,0,.395-1.787V16.055a.533.533,0,0,1,.156-.408.57.57,0,0,1,.4-.144h1.08a.534.534,0,0,1,.552.552V28.319q0,4.224-4.033,4.225h-.455A.5.5,0,0,1,91.857,32.387ZM94.486,13a.533.533,0,0,1-.156-.4V11.35a.57.57,0,0,1,.156-.406.516.516,0,0,1,.4-.168h1.486a.516.516,0,0,1,.4.168.579.579,0,0,1,.156.406V12.6a.541.541,0,0,1-.156.4.535.535,0,0,1-.4.156H94.883A.535.535,0,0,1,94.486,13Z" fill="#222831"/><path d="M101.52,27.743a4.046,4.046,0,0,1-1.584-1.309,3.088,3.088,0,0,1-.588-1.836,3.139,3.139,0,0,1,1.3-2.591,7.492,7.492,0,0,1,3.529-1.344l3.6-.5v-.7q0-2.473-2.855-2.473a3.188,3.188,0,0,0-1.777.443,2.828,2.828,0,0,0-.983,1.045.777.777,0,0,1-.205.324.47.47,0,0,1-.3.084h-.937a.534.534,0,0,1-.528-.527,2.34,2.34,0,0,1,.516-1.285,4.2,4.2,0,0,1,1.6-1.272,5.872,5.872,0,0,1,2.64-.541,5.076,5.076,0,0,1,3.852,1.248,4.4,4.4,0,0,1,1.164,3.122v7.8a.534.534,0,0,1-.551.553h-1.056a.5.5,0,0,1-.385-.156.561.561,0,0,1-.143-.4V26.376a4.081,4.081,0,0,1-1.537,1.32,5.569,5.569,0,0,1-2.592.527A4.936,4.936,0,0,1,101.52,27.743Zm5.244-2.3a4.118,4.118,0,0,0,1.007-3v-.672l-2.808.409a6.521,6.521,0,0,0-2.615.816,1.686,1.686,0,0,0-.889,1.439,1.7,1.7,0,0,0,.8,1.514,3.394,3.394,0,0,0,1.908.527A3.458,3.458,0,0,0,106.764,25.438Z" fill="#222831"/><path d="M114.036,23.784V17.35h-1.9a.493.493,0,0,1-.529-.527v-.768a.564.564,0,0,1,.144-.4.5.5,0,0,1,.385-.156h1.9V11.5a.57.57,0,0,1,.142-.4.5.5,0,0,1,.385-.154h1.057a.531.531,0,0,1,.55.551V15.5h2.977a.535.535,0,0,1,.553.552v.768a.5.5,0,0,1-.157.385.566.566,0,0,1-.4.142H116.17v6.266a3.49,3.49,0,0,0,.4,1.848,1.477,1.477,0,0,0,1.355.623h1.465a.5.5,0,0,1,.383.156.551.551,0,0,1,.145.4v.791a.554.554,0,0,1-.145.4.492.492,0,0,1-.383.156h-1.633Q114.034,27.983,114.036,23.784Z" fill="#222831"/><path d="M124.071,32.4a.461.461,0,0,1-.143-.336,2.241,2.241,0,0,1,.119-.431l1.873-4.393-4.584-10.824a1.136,1.136,0,0,1-.144-.408.581.581,0,0,1,.168-.36.461.461,0,0,1,.336-.144h1.1a.618.618,0,0,1,.576.384l3.7,8.832,3.793-8.832a.616.616,0,0,1,.576-.384h1.08a.492.492,0,0,1,.48.48,1.117,1.117,0,0,1-.121.432l-6.791,15.744a1.007,1.007,0,0,1-.252.289.6.6,0,0,1-.349.1h-1.055A.492.492,0,0,1,124.071,32.4Z" fill="#222831"/><path d="M138.114,27.839a.965.965,0,0,1-.263-.455l-3.408-11.137-.047-.24a.492.492,0,0,1,.142-.36.5.5,0,0,1,.362-.144h.984a.6.6,0,0,1,.4.132.478.478,0,0,1,.179.252l2.713,9.168,2.881-9.048a.705.705,0,0,1,.215-.348.643.643,0,0,1,.457-.156h.767a.644.644,0,0,1,.456.156.722.722,0,0,1,.216.348l2.879,9.048,2.713-9.168a.481.481,0,0,1,.18-.252.6.6,0,0,1,.4-.132h.985a.494.494,0,0,1,.5.5l-.049.24-3.408,11.137a.974.974,0,0,1-.264.455.76.76,0,0,1-.5.144h-.863a.786.786,0,0,1-.817-.6L143.107,18.7,140.3,27.384a.786.786,0,0,1-.816.6h-.866A.771.771,0,0,1,138.114,27.839Z" fill="#222831"/><path d="M156.152,32.4a.464.464,0,0,1-.142-.336,2.241,2.241,0,0,1,.119-.431L158,27.239l-4.584-10.824a1.116,1.116,0,0,1-.144-.408.586.586,0,0,1,.167-.36.464.464,0,0,1,.336-.144h1.1a.618.618,0,0,1,.576.384l3.695,8.832,3.793-8.832a.617.617,0,0,1,.577-.384h1.08a.492.492,0,0,1,.48.48,1.117,1.117,0,0,1-.121.432L158.17,32.159a1.007,1.007,0,0,1-.252.289.6.6,0,0,1-.35.1h-1.054A.5.5,0,0,1,156.152,32.4Z" fill="#222831"/><path d="M56.68,50.784A5.582,5.582,0,0,1,55.023,46.8L55,45.743l.023-1.057a5.545,5.545,0,0,1,1.68-3.97,6.131,6.131,0,0,1,4.346-1.454,6.088,6.088,0,0,1,4.318,1.454,5.546,5.546,0,0,1,1.682,3.97c.015.194.023.545.023,1.057s-.008.863-.023,1.057a5.593,5.593,0,0,1-1.656,3.984,6.119,6.119,0,0,1-4.344,1.439A6.149,6.149,0,0,1,56.68,50.784ZM63,49.007a3.664,3.664,0,0,0,.732-2.329q.024-.237.024-.935t-.024-.936a3.67,3.67,0,0,0-.744-2.339,2.43,2.43,0,0,0-1.943-.805,2.455,2.455,0,0,0-1.969.805,3.647,3.647,0,0,0-.744,2.339l-.024.936.024.935a3.6,3.6,0,0,0,.744,2.329,2.476,2.476,0,0,0,1.969.793A2.439,2.439,0,0,0,63,49.007Z" fill="#222831"/><path d="M72.139,50.843A4.623,4.623,0,0,1,71.033,47.5V42.071H69.139a.56.56,0,0,1-.409-.168.55.55,0,0,1-.168-.408V40.079a.574.574,0,0,1,.577-.576h1.894V35.518a.553.553,0,0,1,.168-.42.582.582,0,0,1,.408-.154H73.6a.536.536,0,0,1,.576.574V39.5h3a.574.574,0,0,1,.576.576V41.5a.574.574,0,0,1-.576.576h-3v5.16a2.78,2.78,0,0,0,.359,1.561,1.323,1.323,0,0,0,1.176.527H77.4a.539.539,0,0,1,.576.576v1.512a.577.577,0,0,1-.157.408.546.546,0,0,1-.419.168H75.426A4.366,4.366,0,0,1,72.139,50.843Z" fill="#222831"/><path d="M83.047,51.384,79.615,40.247a.758.758,0,0,1-.023-.215.533.533,0,0,1,.144-.373.468.468,0,0,1,.36-.156H81.92a.66.66,0,0,1,.42.144.636.636,0,0,1,.228.313L84.9,47.854l2.471-7.822a.844.844,0,0,1,.252-.373.693.693,0,0,1,.469-.156h1.224a.685.685,0,0,1,.467.156.677.677,0,0,1,.229.373l2.5,7.822,2.328-7.894a.657.657,0,0,1,.648-.457h1.8a.534.534,0,0,1,.53.529l-.049.215L94.328,51.384a.977.977,0,0,1-.277.443.715.715,0,0,1-.49.156H91.977a.747.747,0,0,1-.793-.6l-2.473-7.538-2.5,7.538a.784.784,0,0,1-.815.6H83.84A.772.772,0,0,1,83.047,51.384Z" fill="#222831"/><path d="M101.16,51.731A4.057,4.057,0,0,1,99.551,50.4a3.26,3.26,0,0,1,.732-4.488,7.92,7.92,0,0,1,3.625-1.367l3.287-.481v-.5a2.115,2.115,0,0,0-.527-1.56,2.3,2.3,0,0,0-1.68-.528,2.457,2.457,0,0,0-1.273.288,4.08,4.08,0,0,0-.779.587l-.4.4a.364.364,0,0,1-.359.289h-1.873a.528.528,0,0,1-.371-.145.5.5,0,0,1-.157-.384,2.534,2.534,0,0,1,.588-1.356,4.589,4.589,0,0,1,1.74-1.32,6.7,6.7,0,0,1,2.905-.565,5.719,5.719,0,0,1,4.127,1.274,4.461,4.461,0,0,1,1.3,3.336v7.535a.577.577,0,0,1-.157.408.544.544,0,0,1-.42.168h-1.992a.574.574,0,0,1-.576-.576v-.936a3.937,3.937,0,0,1-1.488,1.26,5.231,5.231,0,0,1-2.4.492A5.094,5.094,0,0,1,101.16,51.731Zm5.219-2.676a3.438,3.438,0,0,0,.84-2.5v-.48l-2.4.385q-2.76.43-2.759,1.847A1.343,1.343,0,0,0,102.7,49.5a2.7,2.7,0,0,0,1.524.42A2.877,2.877,0,0,0,106.379,49.055Z" fill="#222831"/><path d="M113.674,51.815a.554.554,0,0,1-.168-.408V40.1a.586.586,0,0,1,.168-.431.554.554,0,0,1,.408-.168h1.969a.575.575,0,0,1,.6.6v.985a4.074,4.074,0,0,1,3.455-1.584h1.008a.566.566,0,0,1,.42.156.558.558,0,0,1,.156.42v1.752a.568.568,0,0,1-.156.408.547.547,0,0,1-.42.168h-1.894a2.241,2.241,0,0,0-2.426,2.424v6.576a.574.574,0,0,1-.574.576h-2.137A.554.554,0,0,1,113.674,51.815Z" fill="#222831"/><path d="M126.674,50.843a4.623,4.623,0,0,1-1.106-3.348V42.071h-1.894a.558.558,0,0,1-.408-.168.546.546,0,0,1-.168-.408V40.079a.574.574,0,0,1,.576-.576h1.894V35.518a.553.553,0,0,1,.168-.42.585.585,0,0,1,.409-.154h1.992a.535.535,0,0,1,.576.574V39.5h3a.574.574,0,0,1,.576.576V41.5a.574.574,0,0,1-.576.576h-3v5.16a2.78,2.78,0,0,0,.359,1.561,1.323,1.323,0,0,0,1.176.527h1.682a.538.538,0,0,1,.576.576v1.512a.581.581,0,0,1-.156.408.55.55,0,0,1-.42.168h-1.969A4.366,4.366,0,0,1,126.674,50.843Z" fill="#222831"/><path d="M135.725,50.686a6.119,6.119,0,0,1-1.668-4.367l-.026-.6a6.772,6.772,0,0,1,1.572-4.728,6.412,6.412,0,0,1,8.76,0,6.641,6.641,0,0,1,1.549,4.607v.5a.558.558,0,0,1-.168.408.576.576,0,0,1-.432.168h-7.968v.194a3.708,3.708,0,0,0,.732,2.219,2.259,2.259,0,0,0,1.885.877,2.712,2.712,0,0,0,2.23-1.1,1.3,1.3,0,0,1,.336-.324.974.974,0,0,1,.409-.061h2.113a.593.593,0,0,1,.371.119.4.4,0,0,1,.156.336,2.238,2.238,0,0,1-.683,1.358,5.715,5.715,0,0,1-1.957,1.355,7.081,7.081,0,0,1-2.952.576A5.818,5.818,0,0,1,135.725,50.686Zm6.875-6.047v-.048a3.446,3.446,0,0,0-.707-2.268,2.383,2.383,0,0,0-1.932-.852,2.349,2.349,0,0,0-1.922.852,3.48,3.48,0,0,0-.695,2.268v.048Z" fill="#222831"/></g></g></g></svg>
