<svg width="14px" height="14px" viewBox="0 0 14 14" version="1.1" xmlns="http://www.w3.org/2000/svg">
        <g id="Design" stroke="none" stroke-width="1" fill="none" fill-rule="evenodd">
            <g id="Główna-03-@2x" transform="translate(-615.000000, -686.000000)" fill="#919191" fill-rule="nonzero">
                <g id="Group-12" transform="translate(304.000000, 508.000000)">
                    <g id="List-Copy-3" transform="translate(1.000000, 51.000000)">
                        <g id="Group-3">
                            <g id="App" transform="translate(34.861472, 30.000000)">
                                <g id="Group-2">
                                    <g id="Group" transform="translate(274.666667, 18.000000)">
                                        <g id="a-tag" transform="translate(0.000000, 79.000000)">
                                            <path d="M0.946466877,14 C0.754503014,14 0.58145934,13.8838028 0.508003495,13.7056811 C0.434547651,13.5275593 0.475140535,13.3225373 0.610858994,13.1861901 L4.64574868,9.133829 C4.83200815,8.95315462 5.12807691,8.95573851 5.31118201,9.13963647 C5.49428711,9.32353443 5.49685986,9.62088518 5.31696445,9.80795118 L1.28207476,13.8603122 C1.19319208,13.9499044 1.0723946,14.0001829 0.946466877,14 Z" id="Path"></path>
                                            <path d="M10.6230912,2.43601286 L11.4242424,1.63137822 L10.0436093,1.21566285 C9.93988105,1.18085295 7.48730614,0.385484255 5.79299478,2.08791384 L2.55148667,5.34351617 C0.855928575,7.04644662 1.64835264,9.50843327 1.67877294,9.59758669 L2.0964288,11 L2.89758,10.1953654 L2.62978156,9.29782084 C2.62329854,9.2780368 2.00292376,7.31190342 3.2568887,6.05248618 L6.49839682,2.79688386 C7.75236177,1.53771705 9.70998332,2.16053882 9.74314645,2.17080649 L10.6230912,2.43601286 Z" id="Path"></path>
                                            <path d="M11.9857881,3.80463446 L12.7869394,3 L13.2008552,4.38663586 C13.2355144,4.49081512 14.0274399,6.9540534 12.3323802,8.65573133 L9.09087135,11.911333 C7.39531289,13.614263 4.94398419,12.8183937 4.85521672,12.7878411 L3.45887446,12.3683693 L4.26002583,11.5637349 L5.15368487,11.8326977 C5.17338327,11.8392089 7.13100525,12.4622809 8.38497047,11.202864 L11.6264793,7.94726232 C12.8801951,6.68784535 12.2600696,4.7217124 12.2498464,4.68840509 L11.9857881,3.80463446 Z" id="Path"></path>
                                            <path d="M9.90639514,5 C9.71488052,5 9.54224181,4.88407474 9.46895788,4.70636984 C9.39567394,4.52866494 9.43617182,4.32412274 9.57157267,4.18809453 L13.5970197,0.145216834 C13.7159241,0.0215729899 13.8920035,-0.0280145759 14.0575817,0.0155131575 C14.2231599,0.0590408909 14.3524691,0.188909995 14.3958091,0.355205175 C14.4391492,0.521500355 14.3897754,0.69834221 14.2666647,0.81776143 L10.2412176,4.86063913 C10.1525429,4.95002164 10.0320282,5.0001825 9.90639514,5 L9.90639514,5 Z" id="Path"></path>
                                        </g>
                                    </g>
                                </g>
                            </g>
                        </g>
                    </g>
                </g>
            </g>
        </g>
    </svg>
