<svg 
xmlns="http://www.w3.org/2000/svg" 
viewBox="8 0 307.29 164.54">
<g id="business"><path d="M220,127.34c-2.53-2.67-7.55-1.44-9.29,1.81s-.65,7.46,1.81,10.2h14.36" fill="#c4e3d4"/><path d="M226.85,139.72H212.49a.36.36,0,0,1-.28-.12c-2.79-3.11-3.56-7.48-1.86-10.63a6.85,6.85,0,0,1,5.13-3.4,5.43,5.43,0,0,1,4.76,1.52.37.37,0,0,1,0,.53.38.38,0,0,1-.53,0,4.76,4.76,0,0,0-4.12-1.29,6.14,6.14,0,0,0-4.57,3c-1.53,2.84-.85,6.78,1.65,9.65h14.19a.38.38,0,0,1,.37.38A.37.37,0,0,1,226.85,139.72Z" fill="#171717"/><path d="M233.23,127.62a6.45,6.45,0,0,0-1.91-4c-2.9-2.85-8.32-1.33-10.31,2.21s-1.82,9.85,1.65,13.5c0,0,8.7.21,12.38.06" fill="#c4e3d4"/><path d="M231.27,139.78c-3.92,0-8.56-.11-8.62-.11a.4.4,0,0,1-.27-.12c-3.58-3.79-3.77-10.27-1.7-14a8,8,0,0,1,5.77-3.81,5.92,5.92,0,0,1,5.13,1.52,6.82,6.82,0,0,1,2,4.27.38.38,0,0,1-.34.41.37.37,0,0,1-.41-.33,6.11,6.11,0,0,0-1.81-3.82,5.2,5.2,0,0,0-4.5-1.31,7.31,7.31,0,0,0-5.21,3.44c-1.92,3.41-1.77,9.39,1.48,12.95,1.2,0,8.85.19,12.21.05a.37.37,0,0,1,.39.36.38.38,0,0,1-.36.39C234.07,139.76,232.72,139.78,231.27,139.78Z" fill="#171717"/><polyline points="275.47 105.44 288.35 84.06 244.75 84.06 231.87 105.44" fill="#fff"/><path d="M275.47,105.82a.45.45,0,0,1-.19,0,.39.39,0,0,1-.13-.52l12.54-20.82H245l-12.77,21.21a.37.37,0,0,1-.51.13.38.38,0,0,1-.13-.52l12.88-21.38a.36.36,0,0,1,.32-.19h43.6a.41.41,0,0,1,.33.19.39.39,0,0,1,0,.38l-12.88,21.39A.36.36,0,0,1,275.47,105.82Z" fill="#171717"/><line x1="288.35" y1="84.06" x2="294.46" y2="91.47" fill="#fff"/><path d="M294.46,91.84a.37.37,0,0,1-.29-.13l-6.11-7.41a.38.38,0,0,1,.58-.48l6.11,7.41a.38.38,0,0,1-.05.53A.37.37,0,0,1,294.46,91.84Z" fill="#171717"/><rect x="231.87" y="105.68" width="43.6" height="33.61" transform="translate(507.35 244.98) rotate(-180)" fill="#eae0d3"/><path d="M275.47,139.67h-43.6a.38.38,0,0,1-.37-.38V105.68a.38.38,0,0,1,.37-.37h43.6a.38.38,0,0,1,.38.37v33.61A.38.38,0,0,1,275.47,139.67Zm-43.22-.75H275.1V106.06H232.25Z" fill="#171717"/><rect x="236.46" y="112.66" width="14.97" height="26.63" transform="translate(487.89 251.96) rotate(-180)" fill="#eae0d3"/><path d="M251.43,139.67h-15a.37.37,0,0,1-.37-.38V112.66a.36.36,0,0,1,.37-.37h15a.37.37,0,0,1,.37.37v26.63A.38.38,0,0,1,251.43,139.67Zm-14.59-.75h14.21V113H236.84Z" fill="#171717"/><rect x="256.97" y="112.64" width="14.97" height="19.98" transform="translate(528.9 245.25) rotate(-180)" fill="#e1e9f7"/><path d="M271.93,133H257a.38.38,0,0,1-.38-.37v-20a.38.38,0,0,1,.38-.38h15a.38.38,0,0,1,.38.38v20A.38.38,0,0,1,271.93,133Zm-14.59-.75h14.22V113H257.34Z" fill="#171717"/><rect x="239.7" y="115.84" width="8.53" height="19.8" transform="translate(487.92 251.48) rotate(-180)" fill="#fff"/><path d="M248.22,136H239.7a.38.38,0,0,1-.38-.38v-19.8a.37.37,0,0,1,.38-.37h8.52a.37.37,0,0,1,.38.37v19.8A.38.38,0,0,1,248.22,136Zm-8.15-.75h7.78V116.22h-7.78Z" fill="#171717"/><path d="M270,105.41a2.73,2.73,0,0,0,5.45,0" fill="#fff"/><path d="M272.75,108.48a3.08,3.08,0,0,1-3.1-3.07.38.38,0,0,1,.75,0,2.35,2.35,0,0,0,4.7,0,.38.38,0,0,1,.75,0A3.08,3.08,0,0,1,272.75,108.48Z" fill="#171717"/><path d="M264.57,105.41a2.73,2.73,0,0,0,5.45,0" fill="#fff"/><path d="M267.3,108.48a3.08,3.08,0,0,1-3.1-3.07.38.38,0,0,1,.75,0,2.35,2.35,0,0,0,4.7,0,.38.38,0,0,1,.75,0A3.08,3.08,0,0,1,267.3,108.48Z" fill="#171717"/><path d="M259.12,105.41a2.73,2.73,0,0,0,5.45,0" fill="#fff"/><path d="M261.85,108.48a3.08,3.08,0,0,1-3.1-3.07.38.38,0,0,1,.75,0,2.35,2.35,0,0,0,4.7,0,.38.38,0,0,1,.75,0A3.08,3.08,0,0,1,261.85,108.48Z" fill="#171717"/><path d="M253.67,105.41a2.73,2.73,0,0,0,5.45,0" fill="#fff"/><path d="M256.4,108.48a3.08,3.08,0,0,1-3.1-3.07.38.38,0,0,1,.75,0,2.35,2.35,0,0,0,4.7,0,.38.38,0,0,1,.75,0A3.08,3.08,0,0,1,256.4,108.48Z" fill="#171717"/><path d="M248.22,105.41a2.73,2.73,0,0,0,5.45,0" fill="#fff"/><path d="M251,108.48a3.08,3.08,0,0,1-3.1-3.07.38.38,0,0,1,.75,0,2.35,2.35,0,0,0,4.7,0,.38.38,0,0,1,.75,0A3.08,3.08,0,0,1,251,108.48Z" fill="#171717"/><path d="M242.77,105.41a2.73,2.73,0,0,0,5.45,0" fill="#fff"/><path d="M245.5,108.48a3.08,3.08,0,0,1-3.1-3.07.38.38,0,0,1,.75,0,2.35,2.35,0,0,0,4.7,0,.38.38,0,0,1,.75,0A3.08,3.08,0,0,1,245.5,108.48Z" fill="#171717"/><path d="M237.32,105.41a2.73,2.73,0,0,0,5.45,0" fill="#fff"/><path d="M240.05,108.48a3.08,3.08,0,0,1-3.1-3.07.38.38,0,0,1,.75,0,2.35,2.35,0,0,0,4.7,0,.38.38,0,0,1,.75,0A3.08,3.08,0,0,1,240.05,108.48Z" fill="#171717"/><path d="M231.87,105.41a2.73,2.73,0,0,0,5.45,0" fill="#fff"/><path d="M234.6,108.48a3.08,3.08,0,0,1-3.1-3.07.38.38,0,0,1,.75,0,2.35,2.35,0,0,0,4.7,0,.38.38,0,0,1,.75,0A3.08,3.08,0,0,1,234.6,108.48Z" fill="#171717"/><line x1="275.47" y1="105.44" x2="231.87" y2="105.44" fill="#fff"/><path d="M275.47,105.82h-43.6a.38.38,0,0,1,0-.75h43.6a.38.38,0,1,1,0,.75Z" fill="#171717"/><path d="M148.64,128.86a.38.38,0,0,1-.38-.37V49.06H112.69a.37.37,0,0,1-.37-.37.38.38,0,0,1,.37-.38h35.95a.38.38,0,0,1,.37.38v79.8A.38.38,0,0,1,148.64,128.86Z" fill="#171717"/><polyline points="112.69 112.64 112.69 48.69 101.56 48.69 101.56 112.64" fill="#e1e9f7"/><path d="M112.69,113a.38.38,0,0,1-.37-.37V49.06H101.93v63.58a.38.38,0,0,1-.75,0V48.69a.38.38,0,0,1,.38-.38h11.13a.38.38,0,0,1,.38.38v64A.38.38,0,0,1,112.69,113Z" fill="#171717"/><polyline points="169.81 139.29 169.81 128.49 130.58 128.49 130.58 94.75 88.49 94.75 88.49 137.83" fill="#fff"/><path d="M169.81,139.67a.38.38,0,0,1-.37-.38V128.86H130.58a.38.38,0,0,1-.38-.37V95.13H88.87v42.7a.38.38,0,1,1-.75,0V94.75a.38.38,0,0,1,.37-.37h42.09a.38.38,0,0,1,.37.37v33.36h38.86a.38.38,0,0,1,.38.38v10.8A.38.38,0,0,1,169.81,139.67Z" fill="#171717"/><path d="M285.91,139.67H258.15a.38.38,0,0,1,0-.75h27.76a.38.38,0,1,1,0,.75Z" fill="#171717"/><path d="M112.69,65.33a.35.35,0,0,1-.25-.1L101.3,55a.38.38,0,0,1,0-.53.37.37,0,0,1,.53,0L113,64.68a.38.38,0,0,1-.26.65Z" fill="#171717"/><path d="M112.69,75.58a.35.35,0,0,1-.25-.1L101.3,65.2a.38.38,0,1,1,.51-.55L113,74.93a.38.38,0,0,1-.26.65Z" fill="#171717"/><path d="M112.69,85.83a.35.35,0,0,1-.25-.1L101.3,75.45a.38.38,0,1,1,.51-.55L113,85.18a.38.38,0,0,1-.26.65Z" fill="#171717"/><circle cx="207.24" cy="68.86" r="15.65" fill="#ff673d"/><path d="M207.27,84.89a16.57,16.57,0,0,1-1.86-.11,15.89,15.89,0,1,1,1.86.11Zm0-31.31a15.27,15.27,0,1,0,15.19,17h0A15.29,15.29,0,0,0,209,53.68,14.79,14.79,0,0,0,207.23,53.58Z" fill="#171717"/><path d="M200.91,47.72a.36.36,0,0,1-.35-.26L197,36.12a.38.38,0,0,1,.72-.22l3.52,11.33a.38.38,0,0,1-.24.47Z" fill="#171717"/><path d="M221.79,50.06a.36.36,0,0,1-.24-.09.38.38,0,0,1-.05-.53L229,40.38a.38.38,0,1,1,.58.48l-7.47,9.06A.4.4,0,0,1,221.79,50.06Z" fill="#171717"/><path d="M186.39,60.19a.32.32,0,0,1-.16,0l-11.6-5.57a.38.38,0,0,1,.33-.68l11.6,5.57a.38.38,0,0,1,.17.5A.37.37,0,0,1,186.39,60.19Z" fill="#171717"/><rect x="99.56" y="103.26" width="20.12" height="12.61" fill="#e1e9f7"/><path d="M119.68,116.25H99.56a.38.38,0,0,1-.38-.38V103.26a.38.38,0,0,1,.38-.37h20.12a.37.37,0,0,1,.37.37v12.61A.37.37,0,0,1,119.68,116.25Zm-19.75-.75H119.3V103.64H99.93Z" fill="#171717"/><rect x="120.61" y="58.01" width="20.12" height="9.31" fill="#e1e9f7"/><path d="M140.73,67.7H120.61a.38.38,0,0,1-.38-.38V58a.37.37,0,0,1,.38-.37h20.12a.37.37,0,0,1,.37.37v9.31A.38.38,0,0,1,140.73,67.7ZM121,67h19.37V58.39H121Z" fill="#171717"/><rect x="120.61" y="73.75" width="20.12" height="9.31" fill="#e1e9f7"/><path d="M140.73,83.43H120.61a.37.37,0,0,1-.38-.37V73.75a.38.38,0,0,1,.38-.38h20.12a.38.38,0,0,1,.37.38v9.31A.37.37,0,0,1,140.73,83.43ZM121,82.68h19.37V74.12H121Z" fill="#171717"/><path d="M164.36,128.86a.37.37,0,0,1-.37-.37V99.8a.37.37,0,0,1,.37-.38.38.38,0,0,1,.38.38v28.69A.38.38,0,0,1,164.36,128.86Z" fill="#171717"/><path d="M165,120.55a12,12,0,0,0,9.29-15.4c-1.29-4.11-4.75-7.42-5.32-11.69-.46-3.46,1.08-7.08,0-10.4-.9-2.74-3.89-5.49-6.67-3.32s-2.59,5.92-2.46,9.05c.11,2.53-.06,5.37-1.89,7.12A18.77,18.77,0,0,0,156,97.56c-1.2,1.53-.8,4.1-.18,5.8s2.57,3.1,2.24,5.16c-.21,1.31-1.33,2.27-1.83,3.5-.82,2,.17,4.37,1.78,5.8a15.72,15.72,0,0,0,5.78,2.81" fill="#c4e3d4"/><path d="M163.8,121l-.11,0a16.16,16.16,0,0,1-5.92-2.89c-1.56-1.39-2.82-3.93-1.88-6.23a9.07,9.07,0,0,1,.86-1.48,5,5,0,0,0,.95-1.93,4.31,4.31,0,0,0-1.15-3.1,8.15,8.15,0,0,1-1.07-1.88c-.71-1.93-1-4.56.24-6.15a6.67,6.67,0,0,1,1.18-1.08,8.89,8.89,0,0,0,.74-.61c1.76-1.67,1.87-4.53,1.77-6.83-.13-3.18-.3-7.1,2.61-9.37a3.65,3.65,0,0,1,3.4-.69,6.55,6.55,0,0,1,3.86,4.19,14.05,14.05,0,0,1,.18,6,18.56,18.56,0,0,0-.16,4.46c.31,2.34,1.52,4.37,2.79,6.52a24.62,24.62,0,0,1,2.52,5.09A12.36,12.36,0,0,1,165,120.92a.38.38,0,0,1-.44-.31.37.37,0,0,1,.3-.43,11.61,11.61,0,0,0,9-14.92,25,25,0,0,0-2.45-4.94,18.35,18.35,0,0,1-2.89-6.81,19.38,19.38,0,0,1,.15-4.63,13.28,13.28,0,0,0-.14-5.7,5.86,5.86,0,0,0-3.37-3.72,2.89,2.89,0,0,0-2.72.57c-2.6,2-2.45,5.58-2.32,8.71.11,2.5,0,5.56-2,7.44a10,10,0,0,1-.8.66,5.78,5.78,0,0,0-1.06,1c-1.06,1.34-.73,3.76-.12,5.43a7.88,7.88,0,0,0,1,1.7,5,5,0,0,1,1.27,3.65,5.63,5.63,0,0,1-1.07,2.23,7.72,7.72,0,0,0-.78,1.35c-.81,2,.3,4.16,1.68,5.38a15.54,15.54,0,0,0,5.65,2.74.37.37,0,0,1,.24.47A.38.38,0,0,1,163.8,121Z" fill="#171717"/><path d="M108.25,113a3,3,0,1,1,3-3A2.95,2.95,0,0,1,108.25,113Zm0-5.16a2.21,2.21,0,1,0,2.21,2.21A2.21,2.21,0,0,0,108.25,107.85Z" fill="#171717"/><path d="M229.13,63a.37.37,0,0,1-.08-.74l12.43-2.77a.38.38,0,0,1,.16.74L229.22,63Z" fill="#171717"/><path d="M103.6,116.11h-.07a.38.38,0,0,1-.3-.44,5.42,5.42,0,0,1,3-3.77.38.38,0,1,1,.32.68,4.63,4.63,0,0,0-2.54,3.24A.37.37,0,0,1,103.6,116.11Z" fill="#171717"/><path d="M113.23,116.17a.37.37,0,0,1-.34-.22,7.71,7.71,0,0,0-2.69-3.54.37.37,0,0,1-.12-.52.38.38,0,0,1,.52-.11,8,8,0,0,1,2.84,3.56.3.3,0,0,1,.1.17l0,.19a.37.37,0,0,1-.23.45Z" fill="#171717"/><path d="M28.46,21H82.2l6.29,21.47c-17.46.13-42.57-.13-60,0" fill="#eae0d3"/><path d="M76.57,42.86c-5.82,0-12,0-18,0-10.48,0-21.32-.06-30.06,0h0a.38.38,0,0,1-.38-.37.39.39,0,0,1,.38-.38c8.74-.06,19.58,0,30.06,0,10.25,0,20.85.07,29.47,0L81.92,21.35H28.46a.38.38,0,1,1,0-.75H82.2a.38.38,0,0,1,.36.27l6.29,21.47a.33.33,0,0,1-.06.33.35.35,0,0,1-.29.15C84.83,42.85,80.79,42.86,76.57,42.86Z" fill="#171717"/><polyline points="28.46 137.83 88.49 137.83 88.49 42.45 28.46 42.45" fill="#fff"/><path d="M88.49,138.21h-60a.38.38,0,1,1,0-.75H88.12V42.82H28.46a.37.37,0,0,1-.38-.37.38.38,0,0,1,.38-.38h60a.38.38,0,0,1,.38.38v95.38A.38.38,0,0,1,88.49,138.21Z" fill="#171717"/><rect x="36.03" y="95.74" width="6.91" height="16.88" fill="#e1e9f7"/><path d="M42.94,113H36a.37.37,0,0,1-.38-.37V95.74a.38.38,0,0,1,.38-.38h6.91a.37.37,0,0,1,.37.38v16.88A.36.36,0,0,1,42.94,113Zm-6.54-.75h6.16V96.11H36.4Z" fill="#171717"/><rect x="52.83" y="95.74" width="6.91" height="16.88" fill="#e1e9f7"/><path d="M59.74,113H52.83a.37.37,0,0,1-.37-.37V95.74a.38.38,0,0,1,.37-.38h6.91a.38.38,0,0,1,.38.38v16.88A.37.37,0,0,1,59.74,113Zm-6.53-.75h6.16V96.11H53.21Z" fill="#171717"/><rect x="69.64" y="95.74" width="6.91" height="16.88" fill="#e1e9f7"/><path d="M76.55,113H69.64a.37.37,0,0,1-.38-.37V95.74a.38.38,0,0,1,.38-.38h6.91a.38.38,0,0,1,.37.38v16.88A.37.37,0,0,1,76.55,113ZM70,112.24h6.16V96.11H70Z" fill="#171717"/><rect x="36.03" y="65.18" width="6.91" height="16.88" fill="#e1e9f7"/><path d="M42.94,82.44H36a.38.38,0,0,1-.38-.38V65.18a.37.37,0,0,1,.38-.37h6.91a.36.36,0,0,1,.37.37V82.06A.37.37,0,0,1,42.94,82.44Zm-6.54-.75h6.16V65.56H36.4Z" fill="#171717"/><rect x="52.83" y="65.18" width="6.91" height="16.88" fill="#e1e9f7"/><path d="M59.74,82.44H52.83a.38.38,0,0,1-.37-.38V65.18a.37.37,0,0,1,.37-.37h6.91a.37.37,0,0,1,.38.37V82.06A.38.38,0,0,1,59.74,82.44Zm-6.53-.75h6.16V65.56H53.21Z" fill="#171717"/><rect x="69.64" y="65.18" width="6.91" height="16.88" fill="#e1e9f7"/><path d="M76.55,82.44H69.64a.38.38,0,0,1-.38-.38V65.18a.37.37,0,0,1,.38-.37h6.91a.37.37,0,0,1,.37.37V82.06A.38.38,0,0,1,76.55,82.44ZM70,81.69h6.16V65.56H70Z" fill="#171717"/><circle cx="55.74" cy="41.68" r="9.42" fill="#fff"/><path d="M55.74,51.47a9.79,9.79,0,1,1,9.79-9.79A9.8,9.8,0,0,1,55.74,51.47Zm0-18.83a9,9,0,1,0,9,9A9,9,0,0,0,55.74,32.64Z" fill="#171717"/><polygon points="61.41 40.13 61.41 43.23 57.4 43.23 57.4 47.34 54.29 47.34 54.29 43.23 50.08 43.23 50.08 40.13 54.29 40.13 54.29 36.01 57.4 36.01 57.4 40.13 61.41 40.13" fill="#ff673d"/><path d="M57.4,47.72H54.29a.38.38,0,0,1-.38-.37V43.61H50.07a.38.38,0,0,1-.37-.38v-3.1a.38.38,0,0,1,.37-.38h3.84V36a.38.38,0,0,1,.38-.37H57.4a.38.38,0,0,1,.37.37v3.74h3.64a.38.38,0,0,1,.38.38v3.1a.38.38,0,0,1-.38.38H57.77v3.74A.38.38,0,0,1,57.4,47.72ZM54.66,47H57V43.23a.38.38,0,0,1,.38-.37H61V40.5H57.4a.38.38,0,0,1-.38-.37V36.39H54.66v3.74a.37.37,0,0,1-.37.37H50.45v2.36h3.84a.37.37,0,0,1,.37.37Z" fill="#171717"/></g></svg>
