<?xml version="1.0" encoding="UTF-8"?>
<svg width="200px" height="151px" viewBox="0 0 200 151" version="1.1" xmlns="http://www.w3.org/2000/svg" xmlns:xlink="http://www.w3.org/1999/xlink">
    <!-- Generator: Sketch 64 (93537) - https://sketch.com -->
    <title>undraw_complete_design_ongo</title>
    <desc>Created with Sketch.</desc>
    <g id="Design" stroke="none" stroke-width="1" fill="none" fill-rule="evenodd">
        <g id="Potwierdzenie-@2x-" transform="translate(-618.000000, -172.000000)" fill-rule="nonzero">
            <g id="undraw_complete_design_ongo" transform="translate(618.000000, 172.000000)">
                <path d="M121.735957,45.5858726 C94.6881896,-28.1154098 57.6131357,-13.2856126 52.049942,96.1769481 C50.5861797,124.978256 81.4920749,149.089336 119.308188,149.974893 C157.124301,150.86045 188.323795,128.210037 188.994205,99.3837984 C189.664615,70.5575599 131.96204,73.4504845 121.735957,45.5858726 Z" id="Path" fill="#F2F2F2"></path>
                <rect id="Rectangle" fill="#3F3D56" x="64" y="51" width="99" height="40"></rect>
                <circle id="Oval" fill="#00BFA6" opacity="0.4" cx="177" cy="114" r="5"></circle>
                <path d="M163.431447,149 L163,148.991586 C163.166868,144.20141 163.678707,139.429433 164.531552,134.712621 C166.397222,124.613973 169.49951,117.981674 173.752255,115 L174,115.352567 C164.065557,122.317661 163.436506,148.733892 163.431447,149 Z" id="Path" fill="#3F3D56"></path>
                <path d="M168.434949,150 L168,149.991494 C168.009351,149.509172 168.281194,138.141888 172.750244,135 L173,135.356424 C168.711254,138.371565 168.437074,149.884098 168.434949,150 Z" id="Path" fill="#3F3D56"></path>
                <circle id="Oval" fill="#00BFA6" cx="176" cy="114" r="2"></circle>
                <circle id="Oval" fill="#00BFA6" cx="175" cy="132" r="2"></circle>
                <path d="M166.937323,117.768718 C167.211635,120.530133 166.496684,123 166.496684,123 C166.496684,123 165.336987,120.992706 165.062676,118.231282 C164.788366,115.469858 165.503316,113 165.503316,113 C165.503316,113 166.663013,115.007294 166.937323,117.768718 Z" id="Path" fill="#00BFA6"></path>
                <path d="M173.952742,123.62051 C171.467451,124.344204 169,123.810364 169,123.810364 C169,123.810364 170.561977,122.103184 173.04726,121.37949 C175.532542,120.655795 178,121.189637 178,121.189637 C178,121.189637 176.438023,122.89681 173.952742,123.62051 Z" id="Path" fill="#3F3D56"></path>
                <path d="M174.854704,139.75302 C173.606541,140.035054 172.27731,140.076344 171,139.872759 C172.656713,138.355349 175.397415,137.679053 178,138.145439 C177.165315,138.870179 176.080712,139.424526 174.854704,139.75302 Z" id="Path" fill="#3F3D56"></path>
                <rect id="Rectangle" fill="#3F3D56" x="0" y="149.800829" width="172" height="1"></rect>
                <path d="M189,93 L63,93 L63,44 L189,44 L189,93 Z M63.4315068,92.5701754 L188.568493,92.5701754 L188.568493,44.4298246 L63.4315068,44.4298246 L63.4315068,92.5701754 Z" id="Shape" fill="#3F3D56"></path>
                <path d="M148,71.0183532 C148,87.3114509 138.374962,93 126.5,93 C126.22494,93 125.949892,92.996013 125.676812,92.9900336 C125.126692,92.9780877 124.580527,92.9522144 124.042296,92.9143845 C113.324944,92.1517926 105,86.1705484 105,71.0183532 C105,55.340508 124.910999,35.5550506 126.410945,34.087608 C126.410932,34.0870758 126.411137,34.0865617 126.411511,34.0861853 C126.411885,34.0858089 126.412396,34.085603 126.412925,34.0856155 C126.470319,34.0278787 126.5,34 126.5,34 C126.5,34 148,54.7272479 148,71.0183532 Z" id="Path" fill="#00BFA6"></path>
                <path d="M125.629488,90.5166975 L133.48238,79.4602924 L125.609719,91.7314617 L125.589966,93 C125.040614,92.9880521 124.495212,92.9621745 123.957733,92.9243381 L124.803482,76.622509 L124.797561,76.495068 L124.811394,76.4731542 L124.892409,74.9317903 L117,62.6307406 L124.916116,73.7767633 L124.935883,74.1033607 L125.574149,61.7863776 L118.817977,49.0751105 L125.657146,59.6256849 L126.32308,34.0876292 L126.325058,34 L126.325058,34.08563 L126.214399,54.2229371 L132.940943,46.2393003 L126.186733,55.9574748 L126.008893,66.9859942 L132.290809,56.401556 L125.983204,68.6090004 L125.884401,74.7406114 L135,60.0080318 L125.84883,76.8794055 L125.629488,90.5166975 Z" id="Path" fill="#3F3D56"></path>
                <path d="M88,33 C86.3431458,33 85,31.6568542 85,30 C85,28.3431458 86.3431458,27 88,27 C89.6568542,27 91,28.3431458 91,30 C90.9981661,31.656094 89.656094,32.9981661 88,33 Z M88,27.4615385 C86.5980464,27.4615385 85.4615385,28.5980464 85.4615385,30 C85.4615385,31.4019536 86.5980464,32.5384615 88,32.5384615 C89.4019536,32.5384615 90.5384615,31.4019536 90.5384615,30 C90.5368782,28.5987028 89.4012972,27.4631218 88,27.4615385 Z" id="Shape" fill="#3F3D56"></path>
                <circle id="Oval" fill="#3F3D56" cx="141.5" cy="103.5" r="1.5"></circle>
                <circle id="Oval" fill="#3F3D56" cx="20.5" cy="52.5" r="1.5"></circle>
                <path d="M113,112 L107,112 L107,106 L113,106 L113,112 Z M107.461538,111.538462 L112.538462,111.538462 L112.538462,106.461538 L107.461538,106.461538 L107.461538,111.538462 Z" id="Shape" fill="#3F3D56"></path>
                <circle id="Oval" fill="#00BFA6" cx="189.5" cy="43.5" r="10.5"></circle>
                <polygon id="Path" fill="#FFFFFF" points="187.639436 49 183 44.1939665 184.301208 42.8458101 187.643751 46.3083799 194.698792 39 196 40.3481564"></polygon>
                <path d="M29,115 C19.0588745,115 11,122.835017 11,132.5 C11,142.164983 19.0588745,150 29,150 C38.9411255,150 47,142.164983 47,132.5 C47,122.835017 38.9411255,115 29,115 Z M30.097561,133.993902 C28.1578292,133.993902 26.5853659,132.465119 26.5853659,130.579268 C26.5853659,128.693418 28.1578292,127.164634 30.097561,127.164634 C32.0372928,127.164634 33.6097561,128.693418 33.6097561,130.579268 C33.6097561,132.465119 32.0372928,133.993902 30.097561,133.993902 Z" id="Shape" fill="#F2F2F2"></path>
                <path d="M47.6984427,102 C47.3015623,102.416973 40,109.119309 40,109.119309 C40,109.119309 40.7255812,113.797326 48.5378006,114.377864 L61.558165,115.345426 C61.558165,115.345426 64.0191815,124.058971 66.9452625,126.843585 C69.8713434,129.628198 68.5285208,129.783533 69.6266379,131.140753 C70.7247551,132.497974 69.1834933,132.861791 70.8504528,132.993638 C72.5174124,133.125485 75.961512,131.180988 75.998949,129.676953 C76.0363861,128.172919 75.0639667,127.31137 74.631782,126.928459 C74.1995973,126.545547 73.1036129,122.884416 72.4465076,122.110081 C71.7894023,121.335746 69.3019064,112.02229 69.3019064,112.02229 C69.3019064,112.02229 66.8189766,107.516638 63.3770054,107.157219 C59.9350341,106.797799 56.1055604,105.18257 56.1055604,105.18257" id="Path" fill="#2F2E41"></path>
                <path d="M47.6984427,102 C47.3015623,102.416973 40,109.119309 40,109.119309 C40,109.119309 40.7255812,113.797326 48.5378006,114.377864 L61.558165,115.345426 C61.558165,115.345426 64.0191815,124.058971 66.9452625,126.843585 C69.8713434,129.628198 68.5285208,129.783533 69.6266379,131.140753 C70.7247551,132.497974 69.1834933,132.861791 70.8504528,132.993638 C72.5174124,133.125485 75.961512,131.180988 75.998949,129.676953 C76.0363861,128.172919 75.0639667,127.31137 74.631782,126.928459 C74.1995973,126.545547 73.1036129,122.884416 72.4465076,122.110081 C71.7894023,121.335746 69.3019064,112.02229 69.3019064,112.02229 C69.3019064,112.02229 66.8189766,107.516638 63.3770054,107.157219 C59.9350341,106.797799 56.1055604,105.18257 56.1055604,105.18257" id="Path" fill="#000000" opacity="0.1"></path>
                <path d="M60,74.7579448 C60,74.7579448 62.7163197,67.0192011 64.5755418,69.4849982 C66.4347639,71.9507953 61.5839396,76 61.5839396,76 L60,74.7579448 Z" id="Path" fill="#FFB9B9"></path>
                <path d="M46,78.106595 L47.5542849,77.4552483 C47.5542849,77.4552483 50.3761259,80.3878367 51.4967623,80.933355 C52.6173987,81.4788732 55.6787811,82.7992049 56.0857187,83.0161704 C56.4926562,83.2331358 61.1004363,75.1593212 59.9985166,74 C59.9985166,74 62.0609908,74.7364255 63,74.4573326 C63,74.4573326 60.6559496,85.7128018 60.2992598,87.2380657 C59.9425699,88.7633297 59.109976,88.9432083 57.5574399,88.9991546 C56.0049039,89.055101 46.5767188,86.3155177 46.5767188,86.3155177 L46,78.106595 Z" id="Path" fill="#575A89"></path>
                <path d="M70,132.239416 C70,132.239416 70.4706412,133.722379 70.2608692,133.959959 C70.0510973,134.197538 69.4370105,138.253021 71.9600438,137.987518 C74.4830772,137.722014 75.6963859,136.923882 76.335171,136.968405 C76.9739562,137.012928 86.4536883,133.764542 85.9830471,132.281575 C85.512406,130.798608 80.7725463,132.422807 80.7725463,132.422807 C80.7725463,132.422807 75.3881313,131.41701 74.1237359,130.257029 C72.8593405,129.097048 70,132.239416 70,132.239416 Z" id="Path" fill="#2F2E41"></path>
                <path d="M70,132.239416 C70,132.239416 70.4706412,133.722379 70.2608692,133.959959 C70.0510973,134.197538 69.4370105,138.253021 71.9600438,137.987518 C74.4830772,137.722014 75.6963859,136.923882 76.335171,136.968405 C76.9739562,137.012928 86.4536883,133.764542 85.9830471,132.281575 C85.512406,130.798608 80.7725463,132.422807 80.7725463,132.422807 C80.7725463,132.422807 75.3881313,131.41701 74.1237359,130.257029 C72.8593405,129.097048 70,132.239416 70,132.239416 Z" id="Path" fill="#000000" opacity="0.1"></path>
                <path d="M65,135.141235 C65,135.141235 66.4660798,142.07008 67.5415475,141.999464 C68.6170152,141.928847 76.2093999,137.920877 77.1435761,137.127043 C78.34305,136.107763 78.2956261,134.306614 76.9188166,134.68493 C75.5420072,135.063246 71.647813,134.723925 70.9859172,133.961225 L69.2838983,132 L65,135.141235 Z" id="Path" fill="#2F2E41"></path>
                <path d="M48.2756767,97 C47.8530469,97.3982859 35,108.313898 35,108.313898 C35,108.313898 36.0521111,115.370549 43.7161778,116.527225 C51.3802445,117.683902 55.8046865,116.239514 55.8046865,116.239514 C55.8046865,116.239514 57.5832268,125.336765 60.2624777,128.398024 C62.9417286,131.459283 61.605361,131.521635 62.5875789,132.990074 C63.5697969,134.458513 62.0221111,134.720004 63.6568649,134.974985 C65.2916187,135.229966 68.8344045,133.487304 68.983437,131.950311 C69.1324695,130.413318 68.2373196,129.461347 67.8394764,129.03825 C67.4416332,128.615152 66.6332344,124.788345 66.042663,123.948346 C65.4520916,123.108348 63.6921435,113.395064 63.6921435,113.395064 C63.6921435,113.395064 61.5783583,108.603873 58.2093916,107.988153 C54.8404248,107.372433 51.1827435,105.443243 51.1827435,105.443243" id="Path" fill="#2F2E41"></path>
                <circle id="Oval" fill="#FFB9B9" cx="37" cy="68" r="6"></circle>
                <path d="M33.6390308,72.2606372 C33.6390308,72.2606372 34.6077088,75.9249832 33.1323791,77.8032159 C31.6570494,79.6814485 43,78.7872895 43,78.7872895 C43,78.7872895 39.929799,72.8412685 41.0626463,71.4585975 C42.1954936,70.0759264 33.6390308,72.2606372 33.6390308,72.2606372 Z" id="Path" fill="#FFB9B9"></path>
                <path d="M47.4850471,78.0938444 C48.7396825,79.4484099 48.3121668,87.1290894 48.3121668,87.1290894 L47.5106338,93.9884233 C47.5106338,93.9884233 48.4697262,95.2326756 48.1561448,95.7292249 C47.8425633,96.2257743 47.3299455,96.7161933 48.3191021,96.9490395 C49.3082587,97.1818857 51.5881256,97.5555788 50.858437,98.6467535 C50.6200889,98.9558884 50.3648947,99.2512154 50.094053,99.5313478 C49.8614964,99.7813541 49.584946,100.071492 49.2715098,100.394944 C48.5379419,101.147868 47.6049753,102.073863 46.5699147,103.050379 C46.2767496,103.328892 45.976218,103.609869 45.6683202,103.893309 C41.7195304,107.523818 36.8091863,111.366743 35.7932362,109.522449 C34.0921242,106.433191 32.9099461,105.991967 32.988113,103.362266 C33.0662798,100.732566 30.8762917,93.9838748 30.8762917,93.9838748 C30.8762917,93.9838748 28.3300214,82.4662214 31.9183338,79.0331939 L32.4793408,78.1210819 C33.0134501,77.25142 34.0350699,76.8265285 35.0158262,77.066158 C36.7672354,77.4914684 39.4521336,78.0790453 40.6153802,77.9841713 C42.4127018,77.8368859 42.0186685,77.0857711 42.0186685,77.0857711 C42.0186685,77.0857711 46.2304097,76.7392769 47.4850471,78.0938444 Z" id="Path" fill="#575A89"></path>
                <path d="M53.0841815,103 C53.0841815,103 59.8997202,104.766284 58.8998364,107.255373 C57.8999527,109.744462 52,105.195585 52,105.195585 L53.0841815,103 Z" id="Path" fill="#FFB9B9"></path>
                <path d="M34.2282087,70.6465475 C34.375308,70.4608358 34.2298276,70.1895411 34.1017619,69.9890973 C33.4159586,68.9156973 33.2849933,67.3883304 34.0395256,66.3662296 C34.3369427,65.9855539 34.7089046,65.6754219 35.1305508,65.456562 C35.7224624,65.1296043 36.3686317,64.922919 37.0346322,64.8475178 C37.3889472,64.8421046 37.7394225,64.7701572 38.0692374,64.6351289 C38.2775688,64.5249682 39.2605767,64.166206 39.4715673,64.0616876 C39.9354516,63.8318907 40.5808028,63.9311992 40.8779904,63.4946335 C41.1623137,63.0769677 40.896807,62.5048699 40.6205783,62.0813491 C39.9912717,61.1164825 38.3999055,60.3168093 37.3071189,60.0635521 C36.4778435,59.8713667 35.6123879,60.1415906 34.8438894,60.518949 C33.9579525,60.9769397 33.1175262,61.5248853 32.3348172,62.1548272 C31.2597942,62.9848534 30.2007072,63.9046727 29.5550603,65.1258715 C28.9094133,66.3470703 28.7538279,67.9376218 29.4832104,69.1065015 C29.6351474,69.3499906 29.8209436,69.5697843 29.9632074,69.8195387 C30.3102563,70.4288134 30.3728819,71.1656833 30.6180871,71.8265344 C30.9871431,72.8031893 31.7354516,73.5715484 32.6779901,73.9416313 C33.4250808,74.2294937 34.3439228,74.3090154 34.7852931,75 L34.9912589,73.5593112 C35.1019374,73.1849394 34.9466087,72.7808667 34.618522,72.5896714 L33.5603668,71.6608201 C33.3494983,71.5113336 33.1893827,71.2961927 33.1029136,71.046158 C32.8740339,70.0511069 33.9829439,70.9561876 34.2282087,70.6465475 Z" id="Path" fill="#2F2E41"></path>
                <path d="M45.0354905,97.3571629 L50,100.508452 C49.0155308,101.47382 47.6856901,102.723067 46.2309744,104 C44.8530289,103.280674 43.4477773,102.501933 42.1905983,101.719451 C37.5911374,98.8567107 33.647385,91.668591 31.8805588,88.1815744 C30.1137327,84.6945578 31.5519016,82.0086877 31.5519016,82.0086877 C32.7223119,81.505881 33.9608366,81.1679087 35.2298903,81.005027 C37.5326036,80.6683279 45.0354905,97.3571629 45.0354905,97.3571629 Z" id="Path" fill="#000000" opacity="0.1"></path>
                <path d="M45.0292394,96.0793747 L50,99.4216838 C49.7660641,99.6759019 49.4878735,99.9709277 49.1725783,100.299829 C48.4346596,101.065437 47.4961596,102.007032 46.4549601,103 C45.0429168,102.225292 43.585924,101.376134 42.293393,100.523815 C37.8702279,97.6071648 34.0776382,90.2836733 32.3785339,86.7309878 C30.6794295,83.1783023 35.2510932,84.4525251 35.2510932,84.4525251 C35.2510932,84.4525251 32.8787668,83.3494991 35.0932179,83.0064678 C37.307669,82.6634366 45.0292394,96.0793747 45.0292394,96.0793747 Z" id="Path" fill="#000000" opacity="0.1"></path>
                <path d="M31.5278426,80.9933221 C31.5278426,80.9933221 30.1523664,83.6383035 31.8421751,87.0722376 C33.5319837,90.5061718 37.3038177,97.5848697 41.7027786,100.404031 C46.1017395,103.223192 52.3953319,106 52.3953319,106 C52.3953319,106 52.9923818,102.734544 54,102.366942 L44.4236498,96.1081493 C44.4236498,96.1081493 37.2478356,79.6733749 35.0455023,80.0049506 C33.831769,80.1653491 32.6472335,80.498173 31.5278426,80.9933221 L31.5278426,80.9933221 Z" id="Path" fill="#575A89"></path>
                <path d="M31.0002923,150 C22.9111656,150 15.6185465,145.127228 12.5229717,137.653849 C9.42739693,130.180471 11.138487,121.57824 16.8583634,115.858363 C22.5782397,110.138487 31.1804705,108.427397 38.6538491,111.522972 C46.1272277,114.618546 51,121.911166 51,130.000292 C50.9874845,141.040638 42.0406376,149.987485 31.0002923,150 L31.0002923,150 Z M31.0002923,110.435361 C20.194879,110.435361 11.4353608,119.194879 11.4353608,130.000292 C11.4353608,140.805706 20.194879,149.565224 31.0002923,149.565224 C41.8057056,149.565224 50.5652237,140.805706 50.5652237,130.000292 C50.5529826,119.199954 41.8006311,110.447602 31.0002923,110.435361 Z" id="Shape" fill="#3F3D56"></path>
                <path d="M30.5,133 C28.5670034,133 27,131.432997 27,129.5 C27,127.567003 28.5670034,126 30.5,126 C32.4329966,126 34,127.567003 34,129.5 C33.9978442,131.432103 32.432103,132.997844 30.5,133 L30.5,133 Z M30.5,126.411765 C28.7944147,126.411765 27.4117647,127.794415 27.4117647,129.5 C27.4117647,131.205585 28.7944147,132.588235 30.5,132.588235 C32.2055853,132.588235 33.5882353,131.205585 33.5882353,129.5 C33.5863382,127.795201 32.2047988,126.413662 30.5,126.411765 L30.5,126.411765 Z" id="Shape" fill="#3F3D56"></path>
                <polygon id="Path" fill="#3F3D56" points="30 111 29.5555556 111 29.5555556 88.4380952 18 88.4380952 18 88 30 88"></polygon>
                <rect id="Rectangle" fill="#3F3D56" x="45" y="117.800829" width="10" height="1"></rect>
                <rect id="Rectangle" fill="#3F3D56" x="29" y="102.800829" width="22" height="1"></rect>
                <polygon id="Path" fill="#3F3D56" points="67.3732675 144 56 118.183735 56.3875339 118 67.5849206 143.417437 77.8253968 138.648949 78 139.051752"></polygon>
                <ellipse id="Oval" fill="#3F3D56" cx="19" cy="88" rx="6" ry="1"></ellipse>
            </g>
        </g>
    </g>
</svg>