<?xml version="1.0" encoding="UTF-8"?>
<svg width="340px" height="220px" viewBox="0 0 340 220" version="1.1" xmlns="http://www.w3.org/2000/svg" xmlns:xlink="http://www.w3.org/1999/xlink">
    <!-- Generator: Sketch 64 (93537) - https://sketch.com -->
    <title>undraw_about_me_wa29</title>
    <desc>Created with Sketch.</desc>
    <defs>
        <linearGradient x1="50%" y1="100%" x2="50%" y2="0%" id="linearGradient-1">
            <stop stop-color="#808080" stop-opacity="0.25" offset="0%"></stop>
            <stop stop-color="#808080" stop-opacity="0.12" offset="54%"></stop>
            <stop stop-color="#808080" stop-opacity="0.1" offset="100%"></stop>
        </linearGradient>
        <linearGradient x1="50%" y1="100%" x2="50%" y2="-9.47390314e-13%" id="linearGradient-2">
            <stop stop-color="#808080" stop-opacity="0.25" offset="0%"></stop>
            <stop stop-color="#808080" stop-opacity="0.12" offset="54%"></stop>
            <stop stop-color="#808080" stop-opacity="0.1" offset="100%"></stop>
        </linearGradient>
        <linearGradient x1="49.9676589%" y1="99.9746584%" x2="49.9676589%" y2="-0.00863927369%" id="linearGradient-3">
            <stop stop-color="#808080" stop-opacity="0.25" offset="0%"></stop>
            <stop stop-color="#808080" stop-opacity="0.12" offset="54%"></stop>
            <stop stop-color="#808080" stop-opacity="0.1" offset="100%"></stop>
        </linearGradient>
    </defs>
    <g id="Design" stroke="none" stroke-width="1" fill="none" fill-rule="evenodd">
        <g id="About-Us-@2x" transform="translate(-797.000000, -230.000000)" fill-rule="nonzero">
            <g id="undraw_about_me_wa29" transform="translate(797.000000, 230.000000)">
                <ellipse id="Oval" fill="#6C63FF" opacity="0.1" cx="163.5" cy="211" rx="157.5" ry="9"></ellipse>
                <g id="Group" transform="translate(287.000000, 139.000000)">
                    <path d="M5.89381818,72.9487302 C5.74967588,73.2247751 5.58124037,73.4871804 5.39054545,73.7327778 C3.71490909,72.5405556 2.01115152,71.3728042 0.279272727,70.2295238 C0.314181818,70.1561111 0.352,70.0797619 0.392727273,70.0063492 C0.794800066,69.2223117 1.39748118,68.5612259 2.13818182,68.091746 C3.09527273,67.5044444 4.17454545,67.3634921 5.04727273,67.8392063 C5.92,68.3149206 6.432,69.2898413 6.48436364,70.4174603 C6.51476227,71.2992889 6.31086309,72.1732671 5.89381818,72.9487302 Z" id="Path" fill="#3F3D56"></path>
                    <ellipse id="Oval" fill="#3F3D56" transform="translate(5.485340, 67.056063) rotate(-62.090000) translate(-5.485340, -67.056063) " cx="5.48534007" cy="67.0560632" rx="4.10564993" ry="3.11919625"></ellipse>
                    <ellipse id="Oval" fill="#3F3D56" transform="translate(7.815632, 62.611629) rotate(-62.090000) translate(-7.815632, -62.611629) " cx="7.81563194" cy="62.6116288" rx="4.10564993" ry="3.11919625"></ellipse>
                    <ellipse id="Oval" fill="#3F3D56" transform="translate(10.149856, 58.165974) rotate(-62.090000) translate(-10.149856, -58.165974) " cx="10.1498562" cy="58.1659739" rx="4.10564993" ry="3.11919625"></ellipse>
                    <ellipse id="Oval" fill="#3F3D56" transform="translate(12.481510, 53.718945) rotate(-62.090000) translate(-12.481510, -53.718945) " cx="12.4815098" cy="53.7189446" rx="4.10564993" ry="3.11919625"></ellipse>
                    <path d="M18.1265455,17.771746 C18.0048754,17.0925393 17.9290644,16.4057725 17.8996364,15.7161905 L25.7541818,18.3825397 L17.8996364,14.2714286 C18.1307563,10.1183483 20.0495551,6.24564528 23.2029091,3.56785714 L30.7985455,14.6854762 L24.8901818,2.3315873 C29.622018,-0.651893652 35.6076138,-0.720797654 40.4056234,2.15297918 C45.203633,5.02675602 48.0120605,10.3628567 47.6854321,15.9848451 C47.3588036,21.6068335 43.9517159,26.574984 38.8538182,28.8629365 C39.0464113,29.9280536 39.1244398,31.0110574 39.0865455,32.0930952 L27.1156364,31.999127 L38.9032727,33.9577778 C38.0944764,38.9802461 34.8299266,43.2517896 30.2225455,45.3161905 C31.6129882,53.0445295 26.8850028,60.5535635 19.362744,62.5638362 C11.8404853,64.5741089 4.05098735,60.4102875 1.47089523,52.9998741 C-1.1091969,45.5894608 2.38687516,37.4219162 9.50109091,34.2396825 C8.27789668,27.4050123 11.8432609,20.6122209 18.1323636,17.7952381 L18.1265455,17.771746 Z" id="Path" fill="#44D7B6"></path>
                    <path d="M37.3527273,38.5857143 C35.7926222,41.5734449 33.2778619,43.9411574 30.2167273,45.3044444 C31.60717,53.0327835 26.8791846,60.5418175 19.3569258,62.5520902 C11.8346671,64.5623628 4.04516917,60.3985414 1.46507705,52.9881281 C-1.11501508,45.5777148 2.38105698,37.4101701 9.49527273,34.2279365 C8.91636364,31.0183333 38.1381818,37.0939683 37.3527273,38.5857143 Z" id="Path" fill="#000000" opacity="0.1"></path>
                </g>
                <g id="Group" transform="translate(270.000000, 2.000000)">
                    <path d="M13.74625,121.53156 C13.5646871,121.998353 13.3452084,122.449591 13.09,122.88078 C10.1519444,121.318322 7.17597222,119.800449 4.16208333,118.327163 C4.20291667,118.202128 4.24958333,118.071277 4.29916667,117.946241 C4.78804518,116.620887 5.62392833,115.450191 6.72,114.555745 C8.14041667,113.421702 9.8525,112.994255 11.3866667,113.572908 C12.9208333,114.15156 13.9008333,115.608369 14.2070833,117.385035 C14.4283274,118.783422 14.2691839,120.215377 13.74625,121.53156 L13.74625,121.53156 Z" id="Path" fill="#3F3D56"></path>
                    <ellipse id="Oval" fill="#3F3D56" transform="translate(11.905127, 112.212678) rotate(-69.160000) translate(-11.905127, -112.212678) " cx="11.9051269" cy="112.212678" rx="6.60034932" ry="5.05264338"></ellipse>
                    <ellipse id="Oval" fill="#3F3D56" transform="translate(14.784718, 104.677790) rotate(-69.160000) translate(-14.784718, -104.677790) " cx="14.7847183" cy="104.67779" rx="6.60034932" ry="5.05264338"></ellipse>
                    <ellipse id="Oval" fill="#3F3D56" transform="translate(17.659705, 97.139150) rotate(-69.160000) translate(-17.659705, -97.139150) " cx="17.6597048" cy="97.13915" rx="6.60034932" ry="5.05264338"></ellipse>
                    <ellipse id="Oval" fill="#3F3D56" transform="translate(20.539296, 89.607170) rotate(-69.160000) translate(-20.539296, -89.607170) " cx="20.5392962" cy="89.6071698" rx="6.60034932" ry="5.05264338"></ellipse>
                    <path d="M22.53125,31.3170213 C22.1989201,30.2523931 21.9406679,29.1661729 21.7583333,28.0660993 L34.9475,30.7441844 L21.4841667,25.7485816 C21.0376988,19.1188141 23.3490027,12.598263 27.8745833,7.72021277 L42.3295833,23.8468794 L30.37125,5.37361702 C37.4048145,-0.289699904 47.0176742,-1.57362983 55.2984404,2.04424715 C63.5792065,5.66212413 69.1477498,13.5788279 69.7382786,22.5731206 C70.3288074,31.5674133 65.8429002,40.1402447 58.1058333,44.8034043 C58.6238972,46.4597262 58.9622221,48.1666809 59.115,49.8949645 L39.8154167,52.128156 L59.1908333,52.8987234 C58.8826077,61.0514969 54.467194,68.4982472 47.45125,72.6979433 C51.2099746,84.7117091 45.078482,97.5884054 33.3653361,102.279653 C21.6521902,106.9709 8.28935202,101.901904 2.66680972,90.6346183 C-2.95573258,79.3673325 1.04944024,65.6840481 11.8679167,59.1999291 C8.53437831,48.5652192 12.936233,37.0376611 22.5195833,31.3053901 L22.53125,31.3170213 Z" id="Path" fill="#44D7B6"></path>
                    <path d="M57.61875,60.5985816 C55.6937982,65.6586072 52.1110191,69.9221271 47.45125,72.6979433 C51.2099746,84.7117091 45.078482,97.5884054 33.3653361,102.279653 C21.6521902,106.9709 8.28935202,101.901904 2.66680972,90.6346183 C-2.95573258,79.3673325 1.04944024,65.6840481 11.8679167,59.1999291 C10.3133333,54.221773 58.5870833,58.0687943 57.61875,60.5985816 Z" id="Path" fill="#000000" opacity="0.1"></path>
                </g>
                <g id="Group">
                    <path d="M51.5629687,148.302326 C51.7092991,148.879356 51.9026617,149.44328 52.1410938,149.988372 C55.8025521,148.577519 59.5054427,147.22093 63.2497656,145.918605 C63.2179687,145.764535 63.1861719,145.604651 63.1457031,145.447674 C62.7686168,143.811024 61.9632237,142.305542 60.8129688,141.087209 C59.315625,139.540698 57.3760156,138.784884 55.5115625,139.244186 C53.6471094,139.703488 52.2740625,141.27907 51.6525781,143.313953 C51.1786409,144.938609 51.1476912,146.661515 51.5629688,148.302326 L51.5629687,148.302326 Z" id="Path" fill="#3F3D56"></path>
                    <ellipse id="Oval" fill="#3F3D56" transform="translate(55.104615, 137.560329) rotate(-13.720000) translate(-55.104615, -137.560329) " cx="55.1046152" cy="137.560329" rx="5.95948276" ry="7.84054547"></ellipse>
                    <ellipse id="Oval" fill="#3F3D56" transform="translate(52.843090, 128.251799) rotate(-13.720000) translate(-52.843090, -128.251799) " cx="52.8430899" cy="128.251799" rx="5.95948276" ry="7.84054547"></ellipse>
                    <ellipse id="Oval" fill="#3F3D56" transform="translate(50.584373, 118.939673) rotate(-13.720000) translate(-50.584373, -118.939673) " cx="50.5843728" cy="118.939673" rx="5.95948276" ry="7.84054547"></ellipse>
                    <ellipse id="Oval" fill="#3F3D56" transform="translate(48.322162, 109.625412) rotate(-13.720000) translate(-48.322162, -109.625412) " cx="48.3221619" cy="109.625412" rx="5.95948276" ry="7.84054547"></ellipse>
                    <path d="M54.5114063,40.5901163 C55.057622,39.3836955 55.5193199,38.1403556 55.893125,36.869186 L40.0785156,38.0843023 L56.5550781,34.1715116 C58.0532,26.4126116 56.3059742,18.3757542 51.7248437,11.9534884 L32.4501562,28.8837209 L49.1492969,8.84883721 C41.7580857,1.10845173 30.6901005,-1.83799901 20.458819,1.21103518 C10.2275375,4.26006938 2.54276002,12.7950493 0.53830641,23.335446 C-1.4661472,33.8758427 2.54469729,44.6601982 10.9352344,51.2906977 C10.0861475,53.1692826 9.43977192,55.1339972 9.0071875,57.1511628 L31.2505469,62.619186 L8.47820312,60.6802326 C7.64439803,70.3404298 11.7133047,79.7716418 19.2978125,85.7587209 C13.1354448,99.3808656 18.4181252,115.478399 31.4325247,122.73596 C44.4469242,129.993521 60.8222987,125.973737 69.0479854,113.502215 C77.2736721,101.030693 74.5871639,84.2958582 62.876875,75.0610465 C68.3296243,63.0022954 64.8653896,48.7570296 54.4940625,40.5901163 L54.5114063,40.5901163 Z" id="Path" fill="#44D7B6"></path>
                    <path d="M9.180625,69.9767442 C10.6887577,76.2334036 14.2537607,81.7945138 19.2978125,85.7587209 C13.1354448,99.3808656 18.4181252,115.478399 31.4325247,122.73596 C44.4469242,129.993521 60.8222987,125.973737 69.0479854,113.502215 C77.2736721,101.030693 74.5871639,84.2958582 62.876875,75.0610465 C65.44375,69.4069767 8.42617187,66.8633721 9.180625,69.9767442 Z" id="Path" fill="#000000" opacity="0.1"></path>
                </g>
                <path d="M307.488015,33 L25.5119851,33 C24.8444899,33 24.2046827,33.2666115 23.7335117,33.73896 C23.2623406,34.2113085 23,34.8514114 23,35.5182553 L23,207.922779 C23,209.267028 23.5299893,210.557141 24.4798062,211.509305 C25.4296232,212.461469 26.7191532,212.997688 28.0647132,213 L304.935287,213 C306.280847,212.997688 307.570377,212.461469 308.520194,211.509305 C309.470011,210.557141 310,209.267028 310,207.922779 L310,35.5182553 C310,34.1302004 308.87742,33.0032084 307.488015,33 Z" id="Path" fill="url(#linearGradient-1)"></path>
                <path d="M309,44 L309,206.990406 C309,209.756465 306.748741,212 303.97316,212 L29.0297546,212 C26.2518978,212 24,209.755828 24,206.987502 L24,44 L309,44 Z" id="Path" fill="#FFFFFF"></path>
                <path d="M309,36.5552239 L309,44 L24,44 L24,36.5552239 C24,35.1440127 25.1168161,34 26.4944785,34 L306.505521,34 C307.883184,34 309,35.1440127 309,36.5552239 L309,36.5552239 Z" id="Path" fill="#EDEDF4"></path>
                <circle id="Oval" fill="#FA5959" opacity="0.8" cx="29" cy="39" r="1"></circle>
                <circle id="Oval" fill="#FED253" opacity="0.8" cx="32" cy="39" r="1"></circle>
                <circle id="Oval" fill="#8CCF4D" opacity="0.8" cx="35" cy="39" r="1"></circle>
                <polygon id="Rectangle" fill="url(#linearGradient-2)" transform="translate(182.500000, 29.000000) rotate(90.000000) translate(-182.500000, -29.000000) " points="182.095588 28 182.904412 28 182.904412 30 182.095588 30"></polygon>
                <rect id="Rectangle" fill="#EDEDF4" x="90" y="58" width="27" height="3"></rect>
                <rect id="Rectangle" fill="#EDEDF4" x="90" y="66" width="154" height="3"></rect>
                <rect id="Rectangle" fill="#EDEDF4" x="90" y="75" width="154" height="3"></rect>
                <rect id="Rectangle" fill="#EDEDF4" x="90" y="83" width="154" height="3"></rect>
                <rect id="Rectangle" fill="#EDEDF4" x="90" y="92" width="154" height="3"></rect>
                <rect id="Rectangle" fill="#EDEDF4" x="119" y="107" width="95" height="74"></rect>
                <path d="M182.921005,131.017475 C182.799246,131.017475 182.677487,131.034912 182.552829,131.037818 C182.593968,130.868692 182.607673,130.69403 182.593415,130.520536 C182.557775,129.787612 182.35971,129.071851 182.01361,128.425256 C181.800446,128.044192 181.560171,127.679019 181.294652,127.332571 C180.506117,126.239887 179.775562,125.123954 178.908754,124.092297 C178.532868,123.691391 178.222696,123.233338 177.989763,122.735159 C177.902253,122.466221 177.797675,122.203169 177.676668,121.947613 C177.334934,121.415133 176.725532,121.118097 176.096699,121.177503 C175.476479,121.250743 174.90584,121.553337 174.496437,122.026077 C174.252918,122.287624 174.052886,122.691568 174.255817,122.987988 C174.458749,123.284408 174.899401,123.322187 174.925492,123.647667 C174.925492,123.822032 174.925492,124.106827 174.748652,124.162043 C174.434701,124.245252 174.135468,124.376608 173.86155,124.551457 C173.586853,124.733905 173.413919,125.035391 173.394807,125.365158 C173.896338,125.440716 174.316697,125.019335 174.771844,124.783943 C175.349635,124.53699 175.998168,124.51318 176.592432,124.717103 C176.82081,124.778036 177.034053,124.885907 177.218622,125.033865 C177.381245,125.193875 177.518156,125.378175 177.624485,125.580208 C178.182868,126.389476 178.527929,127.327203 178.627548,128.306107 L178.882662,129.939321 C178.505295,129.969481 178.129814,130.019926 177.75784,130.090437 C176.756597,130.238432 175.73532,130.169058 174.763147,129.887012 C173.748488,129.596404 172.733829,129.067499 171.687281,129.305797 C171.197345,129.413322 170.750895,129.686493 170.255162,129.764957 C169.867745,129.8024 169.476927,129.781832 169.095552,129.703929 L168.29832,129.576062 C168.272228,129.509222 168.251935,129.439476 168.231642,129.36973 C168.066794,128.786837 167.990563,128.18236 168.005518,127.576682 C169.060986,127.519916 170.019816,126.942584 170.565593,126.035205 C171.11137,125.127826 171.173172,124.008315 170.730602,123.04611 C171.160476,122.804531 171.516339,122.449812 171.759756,122.020265 L171.556824,121.982486 L171.74816,121.691878 C171.656866,121.636004 171.596899,121.540538 171.586086,121.433863 C171.575274,121.327187 171.614861,121.221582 171.693079,121.148442 C171.524153,121.060638 171.335287,121.018565 171.145163,121.026387 C171.206042,120.91305 171.107475,120.773558 170.988615,120.735779 C170.864676,120.710534 170.737834,120.702709 170.611742,120.712531 C170.426761,120.698266 170.24498,120.656139 170.072523,120.587569 C168.834639,120.160376 167.49239,119.785493 166.231314,120.14294 C165.6755,120.316841 165.155856,120.590589 164.69773,120.950829 C163.770553,121.472682 163.411666,122.629782 163.880204,123.58664 C164.071522,124.062724 164.208644,124.558926 164.288967,125.065832 C164.306726,125.539093 164.252969,126.012324 164.12952,126.469467 C164.405559,126.553716 164.687573,126.616862 164.973137,126.658362 C164.812067,127.282452 164.527116,127.867578 164.135319,128.378759 C163.95579,128.604912 163.762133,128.819424 163.555513,129.021001 L163.520725,129.021001 C162.945935,129.128807 162.365006,129.200629 161.78131,129.236051 C161.166716,129.236051 160.563719,129.003565 159.952024,129.047156 C159.589609,129.088104 159.232805,129.168994 158.888082,129.28836 C157.296832,129.755953 155.643726,129.977426 153.985829,129.945133 L153.785797,129.965476 L153.971334,128.779797 C154.070954,127.800893 154.416014,126.863166 154.974397,126.053898 C155.080726,125.851865 155.217638,125.667565 155.380261,125.507556 C155.565869,125.359526 155.780071,125.25167 156.009349,125.190793 C156.602615,124.986784 157.250279,125.0106 157.827039,125.257633 C158.282186,125.481401 158.696746,125.902782 159.206975,125.838848 C159.185862,125.508953 159.012115,125.207919 158.737333,125.025147 C158.463414,124.850298 158.164181,124.718943 157.850231,124.635733 C157.682087,124.580518 157.658895,124.295722 157.67339,124.121358 C157.699481,123.795877 158.160427,123.726131 158.343065,123.458772 C158.525704,123.191413 158.343065,122.761314 158.102446,122.496861 C157.692392,122.025424 157.121904,121.723946 156.502184,121.651193 C155.874102,121.591562 155.265439,121.888783 154.925114,122.421303 C154.801921,122.676257 154.696341,122.939392 154.60912,123.20885 C154.376187,123.707028 154.066014,124.165081 153.690129,124.565987 C152.820421,125.597644 152.092766,126.713577 151.304231,127.806262 C151.040368,128.152876 150.800168,128.516964 150.585272,128.89604 C150.24091,129.544375 150.042969,130.260682 150.005467,130.994227 C149.9912,131.168683 150.004902,131.344303 150.046053,131.514414 C150.026685,131.555386 150.015835,131.599879 150.014164,131.645188 C150.032302,131.805637 150.113728,131.952142 150.240288,132.052038 C150.683839,132.499574 151.150582,132.96164 151.747782,133.153441 C152.119325,133.241588 152.495951,133.306615 152.875503,133.348148 C153.791595,133.513794 154.635211,134.045606 155.565798,134.0427 C156.206483,134.0427 156.838471,133.786966 157.470458,133.877054 C158.340166,133.996203 158.966356,134.705285 159.499776,135.394025 C159.95282,135.931606 160.292996,136.555296 160.49994,137.227759 C160.705771,138.038554 160.578214,138.951062 161.010169,139.665957 C161.119149,139.811937 161.203383,139.974924 161.259485,140.148365 C161.268454,140.422628 161.207594,140.694662 161.082644,140.938818 C160.717367,142.063469 161.517498,143.263678 161.433427,144.426109 C161.39284,144.992794 161.143524,145.527512 161.117433,146.094196 C161.073947,146.823621 161.369648,147.640229 160.963784,148.247598 C161.210202,148.119731 161.459518,148.006394 161.714632,147.904681 C160.497041,151.482061 159.395411,155.169871 159.479483,158.930333 C159.543262,161.36853 160.059288,164.053744 158.661958,166.056031 C158.463404,166.294745 158.305686,166.564793 158.195215,166.855201 C158.085052,167.247522 158.195215,167.66309 158.26769,168.064129 C158.525704,169.807774 157.586419,171.525265 157.522641,173.295065 C157.515325,173.840389 157.550218,174.38546 157.627006,174.925374 L157.969091,177.872134 C157.624366,177.947378 157.303633,178.107136 157.035605,178.337107 C156.676125,178.627714 156.360132,179.104311 156.528275,179.540222 C156.664529,179.891857 157.064595,180.06041 157.432771,180.147592 C157.810341,180.190052 158.17121,180.326956 158.482218,180.545724 C158.581696,180.656104 158.687188,180.760882 158.798212,180.85958 C159.012541,180.97601 159.258023,181.021768 159.499776,180.990354 C159.943327,180.972917 160.369484,180.935138 160.821732,180.874111 C160.91561,180.870202 161.00672,180.841097 161.085543,180.789835 C161.192586,180.671128 161.246072,180.513434 161.233394,180.353923 C161.265869,179.911545 161.247387,179.466889 161.178312,179.028753 C161.160918,178.944476 161.137726,178.863106 161.114534,178.77883 C161.266783,178.405304 161.374786,178.015159 161.436326,177.6164 C161.526195,177.035185 161.540691,176.427815 161.578378,175.832069 C161.665349,174.315098 161.86828,172.809751 162.100202,171.304403 L162.390105,169.368957 C162.479975,168.732526 162.572744,168.096096 162.680008,167.459665 C163.21747,164.012573 164.053621,160.618997 165.178968,157.317461 C165.425385,156.611284 165.845744,155.783053 166.590793,155.76271 L167.034344,156.634533 C167.614149,157.727217 167.967831,158.939051 168.408482,160.086951 C168.988288,161.595204 168.791154,163.356286 169.568093,164.774451 C169.69565,165.009843 169.857995,165.233611 169.953663,165.480628 C170.091105,165.86085 170.171226,166.25949 170.191383,166.6634 L170.704511,171.894337 C170.936433,174.245352 171.185749,176.660301 172.238095,178.773018 C172.304161,178.909227 172.381753,179.039509 172.470018,179.162432 C172.437614,179.514114 172.432767,179.867802 172.455522,180.220244 C172.422699,180.346563 172.450991,180.481002 172.53192,180.583266 C172.612849,180.68553 172.737008,180.743733 172.867184,180.740431 C173.304937,180.798553 173.736892,180.836332 174.186241,180.853768 C174.427995,180.885182 174.673476,180.839424 174.887805,180.722995 C175.001167,180.625842 175.107717,180.520975 175.206698,180.409139 C175.516631,180.19038 175.876565,180.053452 176.253246,180.011006 C176.621422,179.92673 177.021488,179.758178 177.157742,179.403636 C177.328785,178.967725 177.009892,178.494035 176.650413,178.200521 C176.359032,177.945326 176.000944,177.778955 175.618359,177.721019 C175.460824,177.730128 175.302788,177.717416 175.148717,177.68324 C175.184565,177.491728 175.196253,177.296459 175.183506,177.102024 C175.146386,176.873457 175.136654,176.641261 175.154515,176.410378 C175.213724,176.17716 175.29327,175.94961 175.392235,175.730357 C175.725623,174.701606 175.015362,173.655419 174.766046,172.603419 C174.432658,171.202691 174.928391,169.735122 174.838522,168.296615 C174.699368,166.038594 173.128096,163.920065 173.545556,161.696917 C173.878944,159.918399 173.59484,158.090477 173.278846,156.309052 L172.119235,149.680294 C172.037641,149.142241 171.896656,148.614943 171.698877,148.108107 C171.914093,148.070751 172.125584,148.014346 172.330864,147.939554 C172.620767,147.230472 172.571483,146.448738 172.484513,145.687346 C172.397542,144.925954 172.19461,144.181998 172.093144,143.426419 C172.005271,142.818869 171.954925,142.206458 171.942395,141.592685 C171.910782,140.987195 171.953623,140.380105 172.069952,139.785106 C172.203255,139.262726 172.384743,138.753908 172.61207,138.265228 C173.173092,136.854231 173.851942,135.49323 174.641388,134.196722 C175.832887,134.103728 176.9867,134.002015 178.1753,133.906115 C178.460221,133.893064 178.743465,133.855141 179.021816,133.792778 C179.376576,133.670203 179.73752,133.56641 180.103152,133.481828 C180.239529,133.474695 180.374216,133.448279 180.503218,133.403364 C180.76413,133.284214 180.923577,132.950016 181.21058,132.938391 C181.318334,132.952784 181.427517,132.952784 181.535271,132.938391 C181.662828,132.897706 181.726607,132.758215 181.825174,132.647784 C182.004913,132.447265 182.297715,132.40658 182.532536,132.275806 C182.948042,132.005341 183.111481,131.475929 182.921005,131.017475 L182.921005,131.017475 Z" id="Path" fill="url(#linearGradient-3)"></path>
                <circle id="Oval" fill="#FFB9B9" cx="168" cy="124" r="3"></circle>
                <path d="M164.046512,127.55321 C163.732874,127.976368 163.382379,128.364976 163,128.71352 C164.803487,129.893019 166.947007,130.280201 169,129.797292 C168.924651,129.567679 168.651163,129.534002 168.458605,129.417665 C168.208514,129.222996 168.038139,128.928341 167.984186,128.597182 C167.777268,127.790323 167.716588,126.94678 167.805581,126.114303 C167.84317,125.912286 167.84317,125.70402 167.805581,125.502002 C167.698406,125.198915 167.492576,124.950204 167.227907,124.80398 C166.793149,124.506563 166.323799,124.27486 165.832558,124.115141 C165.324651,123.94982 165.034419,123.873283 165.014884,124.522321 C164.994297,125.61992 164.65506,126.681692 164.046512,127.55321 Z" id="Path" fill="#FFB9B9"></path>
                <path d="M179.439287,129.646719 L179.121001,127.477804 C179.069554,127.041396 178.984964,126.610247 178.868077,126.188674 C178.677406,125.641274 178.433553,125.117019 178.140565,124.624611 C178.03628,124.413187 177.902059,124.22047 177.742707,124.053362 C177.561779,123.897831 177.352742,123.784439 177.128869,123.720388 C176.547935,123.506811 175.913892,123.532941 175.349875,123.793703 C174.903706,124.025869 174.497323,124.465761 174,124.389391 C174.018926,124.042853 174.18978,123.726554 174.460379,123.537099 C174.722976,123.353716 175.010635,123.215599 175.312931,123.127754 C175.474916,123.072768 175.500493,122.773396 175.486284,122.590108 C175.460707,122.251024 175.008854,122.177708 174.829818,121.899721 C174.650782,121.621733 174.829818,121.169621 175.062849,120.891633 C175.464179,120.39783 176.022626,120.082974 176.628705,120.008793 C177.24359,119.942684 177.840962,120.25313 178.174667,120.812208 C178.295417,121.07917 178.398915,121.354755 178.484428,121.637007 C178.712706,122.158141 179.015742,122.637482 179.38245,123.057494 C180.235003,124.135842 180.948306,125.302779 181.718445,126.445278 C181.976116,126.809321 182.211536,127.190956 182.423222,127.587777 C182.762079,128.264355 182.956251,129.013672 182.991591,129.781131 C183.016976,130.017112 182.984652,130.256129 182.89781,130.474573 C182.718762,130.79804 182.395404,130.997325 182.045257,131 C181.695908,130.990668 181.350715,130.916249 181.025036,130.780054 L179.785992,130.330997 C179.635165,130.295133 179.49708,130.213495 179.388134,130.095776 C179.294853,129.954322 179.317012,129.759801 179.439287,129.646719 L179.439287,129.646719 Z" id="Path" fill="#FFB9B9"></path>
                <path d="M154.560268,130.646674 L154.875738,128.47773 C154.929514,128.041488 155.015038,127.610451 155.131525,127.188584 C155.32104,126.640629 155.564974,126.116236 155.859096,125.624501 C155.960745,125.412992 156.094228,125.221003 156.254145,125.056299 C156.434054,124.899044 156.643467,124.785456 156.868033,124.72332 C157.449644,124.508866 158.084585,124.533901 158.650014,124.793582 C159.09622,125.02575 159.502637,125.465648 160,125.389277 C159.980182,125.043023 159.80953,124.727119 159.539584,124.536974 C159.2767,124.354112 158.989096,124.216032 158.686961,124.127624 C158.524963,124.072637 158.499384,123.773262 158.513595,123.589971 C158.539173,123.250882 158.988221,123.177566 159.170114,122.899575 C159.352007,122.621583 159.170114,122.169466 158.934222,121.894529 C158.533499,121.399349 157.974857,121.083315 157.368238,121.008623 C156.753422,120.943232 156.156333,121.253509 155.822149,121.812048 C155.702318,122.079074 155.59976,122.354664 155.515205,122.636858 C155.286058,123.157476 154.983083,123.636688 154.61711,124.057363 C153.764487,125.135725 153.051126,126.302677 152.278082,127.445191 C152.02096,127.809019 151.786453,128.190686 151.576089,128.587705 C151.238617,129.264902 151.04452,130.013881 151.007674,130.781087 C150.983468,131.018328 151.016756,131.258265 151.104305,131.477593 C151.287083,131.804114 151.616619,132.002703 151.971137,132 C152.319746,131.992118 152.664272,131.91764 152.9886,131.780023 L154.230587,131.343179 C154.380816,131.307923 154.518151,131.22615 154.625636,131.107956 C154.722903,130.960346 154.694011,130.756462 154.560268,130.646674 Z" id="Path" fill="#FFB9B9"></path>
                <path d="M176.418358,177.911308 C176.795936,178.141452 177.127839,178.516586 176.95123,178.859501 C176.805071,179.137975 176.387908,179.269157 176.001195,179.3382 C175.606131,179.372085 175.228399,179.47964 174.901956,179.651196 C174.798585,179.735827 174.687693,179.815027 174.570053,179.888244 C174.345434,179.981514 174.087131,180.017817 173.833167,179.991809 C173.370329,179.978 172.919671,179.948082 172.447699,179.902053 C172.349094,179.898958 172.253398,179.875908 172.170605,179.835311 C172.057788,179.742508 172.002442,179.61785 172.018356,179.492397 C171.981644,179.143703 172,178.792945 172.073166,178.447543 C172.15,178.100636 172.386109,177.785285 172.740017,177.556886 C173.093236,177.349756 174.16507,176.735272 174.567008,177.128818 C174.673582,177.234684 174.630952,177.379675 174.780157,177.46713 C174.929361,177.554584 175.163825,177.506254 175.334344,177.522364 C175.737506,177.570876 176.113756,177.705874 176.418358,177.911308 Z" id="Path" fill="#3F3D56"></path>
                <path d="M156.581875,177.901648 C156.204146,178.131676 155.87211,178.506622 156.048789,178.849364 C156.191961,179.127698 156.609291,179.261114 156.996159,179.327822 C157.391503,179.361311 157.769505,179.468846 158.095839,179.640661 C158.199844,179.729184 158.311804,179.812191 158.430921,179.889091 C158.655252,179.980771 158.912029,180.016976 159.165056,179.992604 C159.628079,179.978802 160.078918,179.948898 160.551079,179.900592 C160.649803,179.897841 160.745655,179.874774 160.828284,179.833884 C160.942249,179.741514 160.998746,179.616873 160.98364,179.491142 C161.017821,179.143279 160.998399,178.793595 160.925762,178.449115 C160.850839,178.101219 160.614348,177.784827 160.258644,177.556606 C159.90833,177.34958 158.836066,176.735405 158.430921,177.128753 C158.324304,177.234566 158.366951,177.381784 158.214641,177.466895 C158.06233,177.552005 157.833865,177.505999 157.660231,177.522101 C157.260666,177.569526 156.886911,177.701076 156.581875,177.901648 Z" id="Path" fill="#3F3D56"></path>
                <path d="M162.450065,146.567662 C161.137729,150.353424 159.863222,154.270233 159.962156,158.286053 C160.026173,160.717678 160.544123,163.396833 159.144493,165.391639 C158.944853,165.629528 158.786495,165.899244 158.67601,166.189561 C158.565436,166.579786 158.67601,166.993308 158.745846,167.395181 C159.007731,169.142456 158.067854,170.848962 158.000928,172.613709 C157.993697,173.157264 158.028721,173.700557 158.105682,174.238675 L158.469412,177.348825 C158.591625,178.414663 159.965066,178.851482 161.024246,179 C161.522322,178.405208 161.834962,177.677166 161.923385,176.906182 C162.01359,176.323757 162.028139,175.720947 162.063057,175.129786 C162.153262,173.615481 162.371499,172.112824 162.586827,170.613079 L162.87781,168.68234 C162.970925,168.047497 163.06113,167.412654 163.168794,166.777811 C163.71228,163.349774 164.552505,159.975509 165.679981,156.693121 C165.927316,155.985475 166.349242,155.161343 167.09416,155.140958 L167.539365,155.997123 C168.121331,157.083346 168.473421,158.29479 168.915716,159.439255 C169.497683,160.944824 169.296904,162.697923 170.07965,164.116128 C170.207683,164.349098 170.370633,164.573332 170.463748,164.81795 C170.600146,165.192362 170.680548,165.584879 170.702354,165.9828 L171.217395,171.18968 C171.450182,173.533941 171.697518,175.942269 172.753787,178.047735 C172.85834,178.299376 173.025654,178.519965 173.23973,178.688403 C173.670385,178.979615 174.272721,178.831097 174.694647,178.528236 C175.372662,178.029043 175.751682,177.219976 175.701449,176.379087 C175.667078,176.150737 175.657322,175.919351 175.672351,175.688914 C175.734026,175.45684 175.813807,175.229968 175.910957,175.010388 C176.248498,173.98532 175.535589,172.94278 175.282433,171.894415 C174.947802,170.496594 175.445384,169.034708 175.358089,167.59903 C175.218417,165.345045 173.644197,163.230842 174.060303,161.014715 C174.394934,159.241231 174.10977,157.41824 173.795508,155.641844 L172.617025,149.03132 C172.430796,147.988779 172.151452,146.81228 171.223215,146.302658 C170.691241,146.064241 170.107737,145.964076 169.526781,146.011446 C167.120348,146.011446 164.82158,146.34634 162.450065,146.567662 Z" id="Path" fill="#3F3D56"></path>
                <path d="M182.942969,130.976617 C182.096777,131.06117 181.244811,130.886083 180.502103,130.474997 C180.219891,130.288935 179.918983,130.132422 179.604213,130.007971 C179.023055,129.820584 178.38378,129.984908 177.773564,130.074277 C176.771802,130.218208 175.750651,130.149423 174.777692,129.872476 C173.760665,129.584188 172.743637,129.062388 171.697552,129.295901 C171.206473,129.402567 170.761887,129.670674 170.264996,129.748512 C169.876718,129.787473 169.484711,129.767055 169.102679,129.687972 L165.790076,129.17482 C165.042496,129.026368 164.279019,128.972126 163.517746,129.013379 C162.94145,129.119854 162.359253,129.192054 161.774271,129.229594 C161.161149,129.229594 160.556744,128.998964 159.943622,129.039325 C159.581364,129.080269 159.224725,129.160508 158.880102,129.278603 C157.288621,129.739887 155.635736,129.958599 153.97803,129.92725 C152.656224,130.013172 151.382286,130.4514 150.290579,131.195716 C150.138068,131.279318 150.031413,131.426399 150,131.596436 C150.019451,131.754289 150.102203,131.897704 150.229558,131.994273 C150.671238,132.438235 151.139071,132.89373 151.737664,133.084 C152.109104,133.170728 152.485658,133.234276 152.865111,133.274269 C153.780436,133.441476 154.626022,133.963277 155.555875,133.963277 C156.198055,133.963277 156.828612,133.709584 157.462075,133.798953 C158.333813,133.917151 158.958558,134.614807 159.49613,135.295166 C159.948108,135.826648 160.288899,136.442095 160.498628,137.105612 C160.702033,137.907051 160.574179,138.806508 161.007142,139.512813 C161.115787,139.656942 161.20018,139.817581 161.25704,139.988488 C161.266306,140.259664 161.205276,140.528664 161.079787,140.769747 C160.713657,141.879654 161.515655,143.052985 161.431387,144.229198 C161.390706,144.785593 161.140808,145.316042 161.114656,145.872438 C161.073975,146.596039 161.36746,147.400362 160.960649,148 C162.530381,147.215325 164.27472,146.837473 166.031257,146.901624 C166.32336,146.908626 166.61463,146.935597 166.902995,146.982345 C167.463233,147.095632 168.014755,147.247838 168.553485,147.437839 C169.768106,147.821262 171.10477,148.095135 172.301957,147.656938 C172.592536,146.956399 172.543138,146.183788 172.453058,145.43424 C172.362978,144.684693 172.177008,143.946676 172.063682,143.200011 C171.975607,142.600212 171.925143,141.995568 171.912581,141.389565 C171.880902,140.791777 171.923846,140.192397 172.040436,139.605065 C172.173623,139.089519 172.355557,138.587595 172.583819,138.10597 C173.144537,136.70552 173.825039,135.35525 174.617873,134.069943 C175.809248,133.974808 176.962848,133.873908 178.154223,133.781656 C178.438602,133.766046 178.721322,133.728455 178.999808,133.669223 C179.35458,133.548956 179.71538,133.446959 180.080763,133.363639 C180.217644,133.355986 180.352699,133.3288 180.481763,133.282918 C180.743284,133.16472 180.906008,132.836072 181.190776,132.827424 C181.298869,132.840321 181.408131,132.840321 181.516225,132.827424 C181.644079,132.789946 181.705101,132.648685 181.806804,132.539136 C181.986963,132.340218 182.280448,132.299857 182.515817,132.173011 C182.923032,131.922664 183.100554,131.425449 182.942969,130.976617 L182.942969,130.976617 Z" id="Path" fill="#0091FF"></path>
                <path d="M168.650612,124.982744 C168.838613,125.117724 169.098496,125.132359 169.303239,125.019493 C169.428763,124.911613 169.513357,124.770011 169.54474,124.615248 C169.648113,124.287197 169.731615,123.954196 169.794866,123.617759 C169.811532,123.47122 169.860425,123.329262 169.938617,123.200388 C170.148493,122.906391 170.602744,122.890642 170.956371,122.756768 C171.393485,122.540964 171.755175,122.217099 172,121.822278 L171.801624,121.785528 L171.9885,121.523031 C171.898513,121.473273 171.839516,121.387665 171.829328,121.292063 C171.81914,121.196461 171.858956,121.102075 171.93675,121.037412 C171.769027,120.955791 171.580368,120.916807 171.390498,120.924538 C171.450873,120.824789 171.353122,120.69879 171.235247,120.662041 C171.113358,120.638777 170.988301,120.632581 170.864371,120.643666 C170.680779,120.629901 170.500506,120.590965 170.329618,120.528167 C169.104864,120.144921 167.776608,119.8063 166.528853,120.129171 C165.977529,120.284745 165.462068,120.531182 165.007972,120.856289 C164.095923,121.324166 163.741639,122.360198 164.200094,123.218763 C164.388479,123.645393 164.523501,124.09008 164.602596,124.544374 C164.621207,124.97086 164.568862,125.397457 164.447345,125.80961 C164.787831,125.909421 165.140088,125.971983 165.496724,125.995983 C165.855721,126.021082 166.212693,125.927961 166.502978,125.733486 C166.790479,125.507738 166.95148,125.158617 167.187231,124.87512 C167.371167,124.621073 167.684619,124.470551 168.018109,124.476124 C168.337236,124.520749 168.394736,124.817371 168.650612,124.982744 Z" id="Path" fill="#3F3D56"></path>
                <path d="M160.27017,180 L156.848355,180 C156.639574,180.042092 156.48937,180.22605 156.48937,180.439655 C156.48937,180.65326 156.639574,180.837218 156.848355,180.87931 L157.532133,180.87931 L157.532133,186.703276 L145.823155,186.703276 C145.768034,186.610485 145.670595,186.551185 145.563086,186.545 L142.144193,186.545 C141.935412,186.587092 141.785208,186.77105 141.785208,186.984655 C141.785208,187.19826 141.935412,187.382218 142.144193,187.42431 L142.827971,187.42431 L142.827971,193.406552 L131.522247,193.406552 C131.501454,193.238934 131.368275,193.107778 131.200813,193.09 L127.784842,193.09 C127.570118,193.125288 127.412494,193.311406 127.412494,193.529655 C127.412494,193.747905 127.570118,193.934022 127.784842,193.96931 L128.126731,193.96931 L128.126731,200.124483 L116.633991,200.124483 C116.591181,200.100138 116.542935,200.087031 116.493729,200.086379 L113.074836,200.086379 C112.866055,200.128472 112.715851,200.312429 112.715851,200.526034 C112.715851,200.73964 112.866055,200.923597 113.074836,200.96569 L113.416725,200.96569 L113.416725,206.827759 L102.070091,206.827759 C102.019886,206.709753 101.905743,206.631899 101.777878,206.628448 L98.3589849,206.628448 C98.1502042,206.670541 98,206.854498 98,207.068103 C98,207.281709 98.1502042,207.465666 98.3589849,207.507759 L98.7008742,207.507759 L98.7008742,214 L176,214 L176,180 L160.27017,180 Z" id="Path" fill="#3F3D56"></path>
                <path d="M50.6273682,68.8667762 C50.2922172,68.399351 49.9121386,67.969893 49.4932223,67.5852834 C49.2625973,67.3732887 49.1394226,67.0592225 49.1605102,66.7369468 C49.1815979,66.4146711 49.3445052,66.1215164 49.6005456,65.9450952 C49.7397758,65.8500563 49.8761053,65.7488858 50.0124349,65.638518 C51.5961782,64.3662225 52.3967518,62.6585873 51.7963216,61.8216315 C51.1958914,60.9846756 49.4236072,61.3403052 47.8398639,62.6126007 C47.656797,62.7564004 47.4815163,62.9109544 47.3148501,63.0755323 C47.0890323,63.2901698 46.7812555,63.3808737 46.4829398,63.320702 C46.1846241,63.2605302 45.9300817,63.0564037 45.7949205,62.7689551 C45.5724126,62.3078299 45.3112799,61.8686924 45.0146514,61.4568046 C43.6049458,59.4947103 41.7137357,58.5044658 40.7884351,59.2463827 C39.8631345,59.9882996 40.2518188,62.1833926 41.6586238,64.1516184 C41.9336918,64.5361678 42.2393716,64.8951493 42.5723219,65.2246387 C42.7954582,65.454182 42.902162,65.782107 42.8598098,66.1081545 C42.8174576,66.434202 42.6310857,66.7195995 42.3576754,66.87709 L42.3576754,66.87709 C40.617298,67.9286499 39.6339849,69.5136542 40.1270918,70.4241885 C40.6201987,71.3347229 42.4243898,71.2212893 44.150264,70.1727952 C44.4176851,70.0087188 44.6753557,69.8274996 44.9218313,69.6301535 C45.15691,69.441094 45.4601095,69.3741386 45.7471427,69.4479003 C46.0341759,69.5216621 46.2744431,69.7282776 46.401152,70.0103093 C46.6364761,70.5538298 46.9283377,71.0679605 47.2713406,71.5431954 C48.6781456,73.5052897 50.5722562,74.4955342 51.4975568,73.7536173 C52.4228575,73.0117004 52.0341732,70.8319363 50.6273682,68.8667762 Z" id="Path" fill="#6C63FF" opacity="0.1"></path>
                <path d="M257.479337,119.55708 C257.788552,119.098494 258.052278,118.605892 258.266143,118.087435 C258.382826,117.801803 258.616949,117.592399 258.897994,117.522295 C259.179039,117.452192 259.474157,117.529582 259.694458,117.731157 C259.815084,117.83804 259.941192,117.941955 260.070042,118.045869 C261.594309,119.233461 263.277582,119.530359 263.825879,118.71389 C264.374177,117.89742 263.584628,116.255574 262.060362,115.062044 C261.877596,114.921512 261.69483,114.793846 261.512064,114.679045 C261.266445,114.517549 261.104776,114.240863 261.075172,113.931332 C261.045568,113.6218 261.151441,113.315104 261.361282,113.102517 C261.694691,112.755691 261.997562,112.376002 262.265973,111.968366 C263.557214,110.03556 263.880709,107.903832 262.992467,107.217998 C262.104225,106.532163 260.333225,107.514896 259.041984,109.459578 C258.789922,109.834767 258.567094,110.231999 258.375803,110.64717 C258.241244,110.930566 257.990397,111.127905 257.699934,111.178868 C257.409471,111.229832 257.113922,111.128361 256.903624,110.905471 L256.903624,110.905471 C255.532881,109.51302 253.887988,108.984541 253.254705,109.717879 C252.621421,110.451217 253.2081,112.19104 254.581585,113.577554 C254.795011,113.79138 255.021217,113.989742 255.258732,114.17135 C255.484834,114.348642 255.625087,114.626875 255.640513,114.928723 C255.655938,115.230571 255.544892,115.523865 255.338235,115.727095 C254.936037,116.117436 254.574727,116.554528 254.260831,117.030478 C252.96959,118.963284 252.646095,121.095012 253.537078,121.780846 C254.428061,122.466681 256.188096,121.492855 257.479337,119.55708 Z" id="Path" fill="#6C63FF" opacity="0.1"></path>
                <ellipse id="Oval" fill="#3F3D56" cx="258" cy="215.5" rx="10" ry="1.5"></ellipse>
                <ellipse id="Oval" fill="#3F3D56" cx="258" cy="214.5" rx="1" ry="1.5"></ellipse>
                <ellipse id="Oval" fill="#3F3D56" cx="258" cy="212.5" rx="1" ry="1.5"></ellipse>
                <ellipse id="Oval" fill="#3F3D56" cx="258" cy="210.5" rx="1" ry="1.5"></ellipse>
                <ellipse id="Oval" fill="#3F3D56" cx="258" cy="208.5" rx="1" ry="1.5"></ellipse>
                <ellipse id="Oval" fill="#3F3D56" cx="258" cy="207.5" rx="1" ry="1.5"></ellipse>
                <ellipse id="Oval" fill="#3F3D56" cx="258" cy="205.5" rx="1" ry="1.5"></ellipse>
                <ellipse id="Oval" fill="#3F3D56" cx="258" cy="203.5" rx="1" ry="1.5"></ellipse>
                <path d="M261.822438,190.66942 C261.977866,190.473688 262.120015,190.268229 262.247976,190.054358 L259.237148,189.570282 L262.495721,189.59591 C263.129496,188.25262 263.167463,186.713288 262.600648,185.341735 L258.228681,187.557095 L262.262549,184.661181 C261.228474,182.930895 259.294047,181.907334 257.245704,182.006621 C255.19736,182.105908 253.376141,183.311514 252.522457,185.133303 C251.668773,186.955091 251.92476,189.089742 253.186346,190.66942 C252.942804,190.973509 252.73276,191.301838 252.559698,191.648962 L256.474065,193.642217 L252.300294,192.275414 C251.703781,193.992053 252.032491,195.886769 253.174688,197.315501 C251.404155,199.516182 251.661877,202.676656 253.766724,204.57571 C255.87157,206.474763 259.116811,206.474763 261.221658,204.57571 C263.326504,202.676656 263.584226,199.516182 261.813694,197.315501 C263.379669,195.367461 263.379669,192.626002 261.813694,190.677962 L261.822438,190.66942 Z" id="Path" fill="#0091FF"></path>
                <path d="M252.008839,194.084681 C252.005144,195.379127 252.416212,196.63726 253.17593,197.65673 C251.403525,200.024346 251.661519,203.424561 253.768592,205.467669 C255.875664,207.510777 259.124336,207.510777 261.231408,205.467669 C263.338481,203.424561 263.596475,200.024346 261.82407,197.65673 C262.56809,196.673344 252.008839,193.438281 252.008839,194.084681 Z" id="Path" fill="#000000" opacity="0.1"></path>
                <ellipse id="Oval" fill="#3F3D56" cx="78.5" cy="215" rx="4.5" ry="1"></ellipse>
                <circle id="Oval" fill="#3F3D56" cx="78.5" cy="215.5" r="1"></circle>
                <circle id="Oval" fill="#3F3D56" cx="78.5" cy="214.5" r="1"></circle>
                <circle id="Oval" fill="#3F3D56" cx="78.5" cy="213.5" r="1"></circle>
                <circle id="Oval" fill="#3F3D56" cx="78.5" cy="213.5" r="1"></circle>
                <circle id="Oval" fill="#3F3D56" cx="78.5" cy="212.5" r="1"></circle>
                <circle id="Oval" fill="#3F3D56" cx="78.5" cy="210.5" r="1"></circle>
                <circle id="Oval" fill="#3F3D56" cx="78.5" cy="210.5" r="1"></circle>
                <path d="M80.4650684,203.991576 C80.5375279,203.900373 80.602992,203.803965 80.6609159,203.703153 L79.2929066,203.481067 L80.7719935,203.481067 C80.9223967,203.158095 81.0001777,202.806831 81,202.451396 C81.0006329,202.136011 80.9390787,201.823516 80.8187631,201.531326 L78.8339804,202.546576 L80.663839,201.219829 C80.1945154,200.426644 79.3164923,199.957456 78.3867929,200.003045 C77.4570935,200.048634 76.6305436,200.601409 76.2432363,201.4366 C75.8559289,202.27179 75.9723637,203.25031 76.5451956,203.97427 C76.4317422,204.112478 76.3337381,204.262365 76.2528859,204.421326 L78.0272057,205.332744 L76.133039,204.703981 C75.8647255,205.491031 76.0163803,206.358501 76.5364263,207.011367 C75.7294869,208.020724 75.8449977,209.472673 76.8016701,210.345431 C77.7583424,211.21819 79.234383,211.21819 80.1910554,210.345431 C81.1477277,209.472673 81.2632385,208.020724 80.4562991,207.011367 C81.169282,206.119065 81.169282,204.860804 80.4562991,203.968502 L80.4650684,203.991576 Z" id="Path" fill="#0091FF"></path>
                <path d="M76.0015018,206.039131 C76.0014551,206.636666 76.1901547,207.216826 76.5372079,207.686168 C75.7290928,208.777819 75.8447719,210.348148 76.8028381,211.292063 C77.7609044,212.235979 79.2390956,212.235979 80.1971619,211.292063 C81.1552281,210.348148 81.2709072,208.777819 80.4627921,207.686168 C80.799438,207.243214 76.0015018,205.73967 76.0015018,206.039131 Z" id="Path" fill="#000000" opacity="0.1"></path>
            </g>
        </g>
    </g>
</svg>