<svg 
width="119px" 
height="33px" 
viewBox="0 0 119 33" 
version="1.1" 
xmlns="http://www.w3.org/2000/svg" 
xmlns:xlink="http://www.w3.org/1999/xlink">
    <g id="Design" stroke="none" stroke-width="1" fill="none" fill-rule="evenodd">
        <g id="Główna-01" transform="translate(-252.000000, -18.000000)">
            <g id="Group-13" transform="translate(254.000000, 20.000000)">
                <path d="M14.5,0 C10.5197282,3.75576058 5.43511002,6.12889056 0,6.76754545 C0,6.76754545 0,23.2 14.5,29 C29,23.2 29,6.76754545 29,6.76754545 C23.56489,6.12889056 18.4802718,3.75576058 14.5,0 Z" id="Path" stroke="#171717" stroke-width="4" stroke-linecap="round" stroke-linejoin="round"></path>
                <polygon id="Path" fill="#171717" fill-rule="nonzero" points="13.4782609 18 10 14.8888889 11.3043478 13.7222222 13.4782609 15.6666667 18.6956522 11 20 12.1666667"></polygon>
                <path d="M45.972,13 L45.972,5.788 L48.48,5.788 L48.48,4.732 L42.336,4.732 L42.336,5.788 L44.844,5.788 L44.844,13 L45.972,13 Z M52.068,13 L53.544,8.884 L55.068,13 L55.968,13 L58.044,7.396 L56.88,7.396 L55.476,11.32 L54.072,7.396 L53.016,7.396 L51.612,11.32 L50.208,7.396 L49.044,7.396 L51.18,13 L52.068,13 Z M61.764,13.12 C62.58,13.12 63.276,12.844 63.84,12.304 C64.416,11.752 64.704,11.044 64.704,10.18 C64.704,9.316 64.416,8.62 63.852,8.08 C63.288,7.54 62.592,7.276 61.764,7.276 C60.936,7.276 60.24,7.54 59.676,8.08 C59.112,8.62 58.836,9.316 58.836,10.18 C58.836,11.056 59.124,11.764 59.688,12.304 C60.252,12.844 60.948,13.12 61.764,13.12 Z M61.764,12.064 C61.248,12.064 60.804,11.896 60.444,11.548 C60.096,11.2 59.916,10.744 59.916,10.18 C59.916,9.628 60.096,9.184 60.444,8.848 C60.804,8.512 61.248,8.344 61.764,8.344 C62.28,8.344 62.724,8.512 63.072,8.848 C63.432,9.184 63.612,9.628 63.612,10.18 C63.612,10.744 63.432,11.2 63.072,11.548 C62.724,11.896 62.28,12.064 61.764,12.064 Z M67.236,5.836 C67.536,5.56 67.536,5.104 67.236,4.828 C66.948,4.552 66.468,4.552 66.168,4.828 C65.88,5.104 65.88,5.56 66.168,5.836 C66.468,6.112 66.948,6.112 67.236,5.836 Z M65.244,15.748 C66.588,15.748 67.26,14.944 67.26,13.348 L67.26,7.396 L66.156,7.396 L66.156,13.336 C66.168,14.26 65.832,14.728 65.148,14.728 L64.5,14.728 L64.5,15.748 L65.244,15.748 Z M71.556,13.12 C72.372,13.12 73.152,12.76 73.524,12.136 L73.524,13 L74.604,13 L74.604,7.396 L73.524,7.396 L73.524,8.236 C73.176,7.624 72.372,7.276 71.556,7.276 C70.764,7.276 70.092,7.54 69.54,8.08 C68.988,8.62 68.712,9.316 68.712,10.192 C68.712,11.056 68.988,11.764 69.54,12.304 C70.092,12.844 70.764,13.12 71.556,13.12 Z M71.652,12.052 C71.136,12.052 70.704,11.872 70.356,11.524 C70.008,11.176 69.828,10.72 69.828,10.18 C69.828,9.64 69.996,9.196 70.344,8.86 C70.692,8.512 71.136,8.344 71.652,8.344 C72.144,8.344 72.576,8.512 72.948,8.836 C73.32,9.16 73.512,9.616 73.512,10.18 C73.512,10.756 73.332,11.212 72.972,11.548 C72.612,11.884 72.168,12.052 71.652,12.052 Z M44.58,24 L44.58,20.94 L47.34,24 L49.344,24 L45.456,19.836 L48.6,15.732 L46.8,15.732 L44.58,18.744 L44.58,15.732 L43.032,15.732 L43.032,24 L44.58,24 Z M52.596,24 L53.808,20.244 L55.056,24 L56.28,24 L58.284,18.396 L56.724,18.396 L55.584,21.936 L54.444,18.396 L53.148,18.396 L52.02,21.936 L50.88,18.396 L49.32,18.396 L51.384,24 L52.596,24 Z M61.8,24.108 C62.424,24.108 63.204,23.808 63.54,23.28 L63.54,24 L65.004,24 L65.004,18.396 L63.54,18.396 L63.54,19.092 C63.168,18.528 62.424,18.276 61.8,18.276 C61.02,18.276 60.348,18.552 59.784,19.092 C59.22,19.632 58.944,20.328 58.944,21.192 C58.944,22.056 59.232,22.764 59.796,23.304 C60.36,23.844 61.032,24.108 61.8,24.108 Z M60.912,22.284 C60.612,21.996 60.456,21.636 60.456,21.192 C60.456,20.748 60.612,20.388 60.912,20.112 C61.224,19.824 61.584,19.68 62.004,19.68 C62.412,19.68 62.772,19.812 63.072,20.088 C63.384,20.364 63.54,20.724 63.54,21.192 C63.6,22.584 61.8,23.172 60.912,22.284 Z M68.124,24 L68.124,22.02 C68.124,20.436 68.592,19.644 69.528,19.644 C69.864,19.644 70.152,19.692 70.38,19.8 L70.632,18.48 C70.38,18.348 70.068,18.276 69.708,18.276 C69.024,18.276 68.4,18.756 68.124,19.716 L68.124,18.396 L66.66,18.396 L66.66,24 L68.124,24 Z M74.1,24.108 C74.724,24.108 75.504,23.808 75.84,23.28 L75.84,24 L77.304,24 L77.304,18.396 L75.84,18.396 L75.84,19.092 C75.468,18.528 74.724,18.276 74.1,18.276 C73.32,18.276 72.648,18.552 72.084,19.092 C71.52,19.632 71.244,20.328 71.244,21.192 C71.244,22.056 71.532,22.764 72.096,23.304 C72.66,23.844 73.332,24.108 74.1,24.108 Z M73.212,22.284 C72.912,21.996 72.756,21.636 72.756,21.192 C72.756,20.748 72.912,20.388 73.212,20.112 C73.524,19.824 73.884,19.68 74.304,19.68 C74.712,19.68 75.072,19.812 75.372,20.088 C75.684,20.364 75.84,20.724 75.84,21.192 C75.9,22.584 74.1,23.172 73.212,22.284 Z M80.424,24 L80.424,21.012 C80.424,20.1 80.928,19.704 81.648,19.704 C82.308,19.704 82.716,20.148 82.716,20.952 L82.716,24 L84.18,24 L84.18,20.688 C84.18,19.116 83.424,18.276 82.092,18.276 C81.42,18.276 80.724,18.648 80.424,19.224 L80.424,18.396 L78.96,18.396 L78.96,24 L80.424,24 Z M87.684,24 L87.684,19.572 L88.872,19.572 L88.872,18.396 L87.684,18.396 L87.684,16.26 L86.232,16.26 L86.232,18.396 L85.212,18.396 L85.212,19.572 L86.232,19.572 L86.232,24 L87.684,24 Z M92.484,24.108 C93.108,24.108 93.888,23.808 94.224,23.28 L94.224,24 L95.688,24 L95.688,18.396 L94.224,18.396 L94.224,19.092 C93.852,18.528 93.108,18.276 92.484,18.276 C91.704,18.276 91.032,18.552 90.468,19.092 C89.904,19.632 89.628,20.328 89.628,21.192 C89.628,22.056 89.916,22.764 90.48,23.304 C91.044,23.844 91.716,24.108 92.484,24.108 Z M91.596,22.284 C91.296,21.996 91.14,21.636 91.14,21.192 C91.14,20.748 91.296,20.388 91.596,20.112 C91.908,19.824 92.268,19.68 92.688,19.68 C93.096,19.68 93.456,19.812 93.756,20.088 C94.068,20.364 94.224,20.724 94.224,21.192 C94.284,22.584 92.484,23.172 91.596,22.284 Z M98.808,24 L98.808,21.012 C98.808,20.1 99.312,19.704 100.032,19.704 C100.692,19.704 101.1,20.148 101.1,20.952 L101.1,24 L102.564,24 L102.564,20.688 C102.564,19.116 101.808,18.276 100.476,18.276 C99.804,18.276 99.108,18.648 98.808,19.224 L98.808,18.396 L97.344,18.396 L97.344,24 L98.808,24 Z M105.612,24 L105.612,21.012 C105.612,20.1 106.116,19.704 106.836,19.704 C107.496,19.704 107.904,20.148 107.904,20.952 L107.904,24 L109.368,24 L109.368,20.688 C109.368,19.116 108.612,18.276 107.28,18.276 C106.608,18.276 105.912,18.648 105.612,19.224 L105.612,18.396 L104.148,18.396 L104.148,24 L105.612,24 Z M113.46,24.108 C114.084,24.108 114.864,23.808 115.2,23.28 L115.2,24 L116.664,24 L116.664,18.396 L115.2,18.396 L115.2,19.092 C114.828,18.528 114.084,18.276 113.46,18.276 C112.68,18.276 112.008,18.552 111.444,19.092 C110.88,19.632 110.604,20.328 110.604,21.192 C110.604,22.056 110.892,22.764 111.456,23.304 C112.02,23.844 112.692,24.108 113.46,24.108 Z M112.572,22.284 C112.272,21.996 112.116,21.636 112.116,21.192 C112.116,20.748 112.272,20.388 112.572,20.112 C112.884,19.824 113.244,19.68 113.664,19.68 C114.072,19.68 114.432,19.812 114.732,20.088 C115.044,20.364 115.2,20.724 115.2,21.192 C115.26,22.584 113.46,23.172 112.572,22.284 Z" id="TwojaKwarantanna" fill="#171717" fill-rule="nonzero"></path>
            </g>
        </g>
    </g>
</svg>
